%TF.GenerationSoftware,KiCad,Pcbnew,9.0.6-9.0.6~ubuntu22.04.1*%
%TF.CreationDate,2026-01-06T15:49:19-05:00*%
%TF.ProjectId,Hyperdrift-Grid,48797065-7264-4726-9966-742d47726964,rev?*%
%TF.SameCoordinates,Original*%
%TF.FileFunction,Legend,Bot*%
%TF.FilePolarity,Positive*%
%FSLAX46Y46*%
G04 Gerber Fmt 4.6, Leading zero omitted, Abs format (unit mm)*
G04 Created by KiCad (PCBNEW 9.0.6-9.0.6~ubuntu22.04.1) date 2026-01-06 15:49:19*
%MOMM*%
%LPD*%
G01*
G04 APERTURE LIST*
%ADD10C,0.100000*%
%ADD11C,0.150000*%
%ADD12C,0.120000*%
G04 APERTURE END LIST*
D10*
X165767544Y-133104912D02*
X165862782Y-133152531D01*
X165862782Y-133152531D02*
X166053258Y-133152531D01*
X166053258Y-133152531D02*
X166148496Y-133104912D01*
X166148496Y-133104912D02*
X166196115Y-133057292D01*
X166196115Y-133057292D02*
X166243734Y-132962054D01*
X166243734Y-132962054D02*
X166243734Y-132676340D01*
X166243734Y-132676340D02*
X166196115Y-132581102D01*
X166196115Y-132581102D02*
X166148496Y-132533483D01*
X166148496Y-132533483D02*
X166053258Y-132485864D01*
X166053258Y-132485864D02*
X165862782Y-132485864D01*
X165862782Y-132485864D02*
X165767544Y-132533483D01*
X165338972Y-133152531D02*
X165338972Y-132152531D01*
X164910401Y-133152531D02*
X164910401Y-132628721D01*
X164910401Y-132628721D02*
X164958020Y-132533483D01*
X164958020Y-132533483D02*
X165053258Y-132485864D01*
X165053258Y-132485864D02*
X165196115Y-132485864D01*
X165196115Y-132485864D02*
X165291353Y-132533483D01*
X165291353Y-132533483D02*
X165338972Y-132581102D01*
X164434210Y-133152531D02*
X164434210Y-132485864D01*
X164434210Y-132676340D02*
X164386591Y-132581102D01*
X164386591Y-132581102D02*
X164338972Y-132533483D01*
X164338972Y-132533483D02*
X164243734Y-132485864D01*
X164243734Y-132485864D02*
X164148496Y-132485864D01*
X163815162Y-133152531D02*
X163815162Y-132485864D01*
X163815162Y-132152531D02*
X163862781Y-132200150D01*
X163862781Y-132200150D02*
X163815162Y-132247769D01*
X163815162Y-132247769D02*
X163767543Y-132200150D01*
X163767543Y-132200150D02*
X163815162Y-132152531D01*
X163815162Y-132152531D02*
X163815162Y-132247769D01*
X163386591Y-133104912D02*
X163291353Y-133152531D01*
X163291353Y-133152531D02*
X163100877Y-133152531D01*
X163100877Y-133152531D02*
X163005639Y-133104912D01*
X163005639Y-133104912D02*
X162958020Y-133009673D01*
X162958020Y-133009673D02*
X162958020Y-132962054D01*
X162958020Y-132962054D02*
X163005639Y-132866816D01*
X163005639Y-132866816D02*
X163100877Y-132819197D01*
X163100877Y-132819197D02*
X163243734Y-132819197D01*
X163243734Y-132819197D02*
X163338972Y-132771578D01*
X163338972Y-132771578D02*
X163386591Y-132676340D01*
X163386591Y-132676340D02*
X163386591Y-132628721D01*
X163386591Y-132628721D02*
X163338972Y-132533483D01*
X163338972Y-132533483D02*
X163243734Y-132485864D01*
X163243734Y-132485864D02*
X163100877Y-132485864D01*
X163100877Y-132485864D02*
X163005639Y-132533483D01*
X162100877Y-133104912D02*
X162196115Y-133152531D01*
X162196115Y-133152531D02*
X162386591Y-133152531D01*
X162386591Y-133152531D02*
X162481829Y-133104912D01*
X162481829Y-133104912D02*
X162529448Y-133057292D01*
X162529448Y-133057292D02*
X162577067Y-132962054D01*
X162577067Y-132962054D02*
X162577067Y-132676340D01*
X162577067Y-132676340D02*
X162529448Y-132581102D01*
X162529448Y-132581102D02*
X162481829Y-132533483D01*
X162481829Y-132533483D02*
X162386591Y-132485864D01*
X162386591Y-132485864D02*
X162196115Y-132485864D01*
X162196115Y-132485864D02*
X162100877Y-132533483D01*
X161529448Y-133152531D02*
X161624686Y-133104912D01*
X161624686Y-133104912D02*
X161672305Y-133057292D01*
X161672305Y-133057292D02*
X161719924Y-132962054D01*
X161719924Y-132962054D02*
X161719924Y-132676340D01*
X161719924Y-132676340D02*
X161672305Y-132581102D01*
X161672305Y-132581102D02*
X161624686Y-132533483D01*
X161624686Y-132533483D02*
X161529448Y-132485864D01*
X161529448Y-132485864D02*
X161386591Y-132485864D01*
X161386591Y-132485864D02*
X161291353Y-132533483D01*
X161291353Y-132533483D02*
X161243734Y-132581102D01*
X161243734Y-132581102D02*
X161196115Y-132676340D01*
X161196115Y-132676340D02*
X161196115Y-132962054D01*
X161196115Y-132962054D02*
X161243734Y-133057292D01*
X161243734Y-133057292D02*
X161291353Y-133104912D01*
X161291353Y-133104912D02*
X161386591Y-133152531D01*
X161386591Y-133152531D02*
X161529448Y-133152531D01*
X160767543Y-133152531D02*
X160767543Y-132485864D01*
X160767543Y-132581102D02*
X160719924Y-132533483D01*
X160719924Y-132533483D02*
X160624686Y-132485864D01*
X160624686Y-132485864D02*
X160481829Y-132485864D01*
X160481829Y-132485864D02*
X160386591Y-132533483D01*
X160386591Y-132533483D02*
X160338972Y-132628721D01*
X160338972Y-132628721D02*
X160338972Y-133152531D01*
X160338972Y-132628721D02*
X160291353Y-132533483D01*
X160291353Y-132533483D02*
X160196115Y-132485864D01*
X160196115Y-132485864D02*
X160053258Y-132485864D01*
X160053258Y-132485864D02*
X159958019Y-132533483D01*
X159958019Y-132533483D02*
X159910400Y-132628721D01*
X159910400Y-132628721D02*
X159910400Y-133152531D01*
X159434210Y-133152531D02*
X159434210Y-132152531D01*
X159434210Y-132533483D02*
X159338972Y-132485864D01*
X159338972Y-132485864D02*
X159148496Y-132485864D01*
X159148496Y-132485864D02*
X159053258Y-132533483D01*
X159053258Y-132533483D02*
X159005639Y-132581102D01*
X159005639Y-132581102D02*
X158958020Y-132676340D01*
X158958020Y-132676340D02*
X158958020Y-132962054D01*
X158958020Y-132962054D02*
X159005639Y-133057292D01*
X159005639Y-133057292D02*
X159053258Y-133104912D01*
X159053258Y-133104912D02*
X159148496Y-133152531D01*
X159148496Y-133152531D02*
X159338972Y-133152531D01*
X159338972Y-133152531D02*
X159434210Y-133104912D01*
X158577067Y-133104912D02*
X158481829Y-133152531D01*
X158481829Y-133152531D02*
X158291353Y-133152531D01*
X158291353Y-133152531D02*
X158196115Y-133104912D01*
X158196115Y-133104912D02*
X158148496Y-133009673D01*
X158148496Y-133009673D02*
X158148496Y-132962054D01*
X158148496Y-132962054D02*
X158196115Y-132866816D01*
X158196115Y-132866816D02*
X158291353Y-132819197D01*
X158291353Y-132819197D02*
X158434210Y-132819197D01*
X158434210Y-132819197D02*
X158529448Y-132771578D01*
X158529448Y-132771578D02*
X158577067Y-132676340D01*
X158577067Y-132676340D02*
X158577067Y-132628721D01*
X158577067Y-132628721D02*
X158529448Y-132533483D01*
X158529448Y-132533483D02*
X158434210Y-132485864D01*
X158434210Y-132485864D02*
X158291353Y-132485864D01*
X158291353Y-132485864D02*
X158196115Y-132533483D01*
X157719924Y-133057292D02*
X157672305Y-133104912D01*
X157672305Y-133104912D02*
X157719924Y-133152531D01*
X157719924Y-133152531D02*
X157767543Y-133104912D01*
X157767543Y-133104912D02*
X157719924Y-133057292D01*
X157719924Y-133057292D02*
X157719924Y-133152531D01*
X157243734Y-132485864D02*
X157243734Y-133152531D01*
X157243734Y-132581102D02*
X157196115Y-132533483D01*
X157196115Y-132533483D02*
X157100877Y-132485864D01*
X157100877Y-132485864D02*
X156958020Y-132485864D01*
X156958020Y-132485864D02*
X156862782Y-132533483D01*
X156862782Y-132533483D02*
X156815163Y-132628721D01*
X156815163Y-132628721D02*
X156815163Y-133152531D01*
X155958020Y-133104912D02*
X156053258Y-133152531D01*
X156053258Y-133152531D02*
X156243734Y-133152531D01*
X156243734Y-133152531D02*
X156338972Y-133104912D01*
X156338972Y-133104912D02*
X156386591Y-133009673D01*
X156386591Y-133009673D02*
X156386591Y-132628721D01*
X156386591Y-132628721D02*
X156338972Y-132533483D01*
X156338972Y-132533483D02*
X156243734Y-132485864D01*
X156243734Y-132485864D02*
X156053258Y-132485864D01*
X156053258Y-132485864D02*
X155958020Y-132533483D01*
X155958020Y-132533483D02*
X155910401Y-132628721D01*
X155910401Y-132628721D02*
X155910401Y-132723959D01*
X155910401Y-132723959D02*
X156386591Y-132819197D01*
X155624686Y-132485864D02*
X155243734Y-132485864D01*
X155481829Y-132152531D02*
X155481829Y-133009673D01*
X155481829Y-133009673D02*
X155434210Y-133104912D01*
X155434210Y-133104912D02*
X155338972Y-133152531D01*
X155338972Y-133152531D02*
X155243734Y-133152531D01*
X165910401Y-133762475D02*
X165910401Y-134476760D01*
X165910401Y-134476760D02*
X165958020Y-134619617D01*
X165958020Y-134619617D02*
X166053258Y-134714856D01*
X166053258Y-134714856D02*
X166196115Y-134762475D01*
X166196115Y-134762475D02*
X166291353Y-134762475D01*
X164958020Y-134762475D02*
X165434210Y-134762475D01*
X165434210Y-134762475D02*
X165434210Y-133762475D01*
X164053258Y-134667236D02*
X164100877Y-134714856D01*
X164100877Y-134714856D02*
X164243734Y-134762475D01*
X164243734Y-134762475D02*
X164338972Y-134762475D01*
X164338972Y-134762475D02*
X164481829Y-134714856D01*
X164481829Y-134714856D02*
X164577067Y-134619617D01*
X164577067Y-134619617D02*
X164624686Y-134524379D01*
X164624686Y-134524379D02*
X164672305Y-134333903D01*
X164672305Y-134333903D02*
X164672305Y-134191046D01*
X164672305Y-134191046D02*
X164624686Y-134000570D01*
X164624686Y-134000570D02*
X164577067Y-133905332D01*
X164577067Y-133905332D02*
X164481829Y-133810094D01*
X164481829Y-133810094D02*
X164338972Y-133762475D01*
X164338972Y-133762475D02*
X164243734Y-133762475D01*
X164243734Y-133762475D02*
X164100877Y-133810094D01*
X164100877Y-133810094D02*
X164053258Y-133857713D01*
X163338972Y-133762475D02*
X163338972Y-134476760D01*
X163338972Y-134476760D02*
X163386591Y-134619617D01*
X163386591Y-134619617D02*
X163481829Y-134714856D01*
X163481829Y-134714856D02*
X163624686Y-134762475D01*
X163624686Y-134762475D02*
X163719924Y-134762475D01*
X162386591Y-134762475D02*
X162862781Y-134762475D01*
X162862781Y-134762475D02*
X162862781Y-133762475D01*
X161481829Y-134667236D02*
X161529448Y-134714856D01*
X161529448Y-134714856D02*
X161672305Y-134762475D01*
X161672305Y-134762475D02*
X161767543Y-134762475D01*
X161767543Y-134762475D02*
X161910400Y-134714856D01*
X161910400Y-134714856D02*
X162005638Y-134619617D01*
X162005638Y-134619617D02*
X162053257Y-134524379D01*
X162053257Y-134524379D02*
X162100876Y-134333903D01*
X162100876Y-134333903D02*
X162100876Y-134191046D01*
X162100876Y-134191046D02*
X162053257Y-134000570D01*
X162053257Y-134000570D02*
X162005638Y-133905332D01*
X162005638Y-133905332D02*
X161910400Y-133810094D01*
X161910400Y-133810094D02*
X161767543Y-133762475D01*
X161767543Y-133762475D02*
X161672305Y-133762475D01*
X161672305Y-133762475D02*
X161529448Y-133810094D01*
X161529448Y-133810094D02*
X161481829Y-133857713D01*
X160767543Y-133762475D02*
X160767543Y-134476760D01*
X160767543Y-134476760D02*
X160815162Y-134619617D01*
X160815162Y-134619617D02*
X160910400Y-134714856D01*
X160910400Y-134714856D02*
X161053257Y-134762475D01*
X161053257Y-134762475D02*
X161148495Y-134762475D01*
X159815162Y-134762475D02*
X160291352Y-134762475D01*
X160291352Y-134762475D02*
X160291352Y-133762475D01*
X158910400Y-134667236D02*
X158958019Y-134714856D01*
X158958019Y-134714856D02*
X159100876Y-134762475D01*
X159100876Y-134762475D02*
X159196114Y-134762475D01*
X159196114Y-134762475D02*
X159338971Y-134714856D01*
X159338971Y-134714856D02*
X159434209Y-134619617D01*
X159434209Y-134619617D02*
X159481828Y-134524379D01*
X159481828Y-134524379D02*
X159529447Y-134333903D01*
X159529447Y-134333903D02*
X159529447Y-134191046D01*
X159529447Y-134191046D02*
X159481828Y-134000570D01*
X159481828Y-134000570D02*
X159434209Y-133905332D01*
X159434209Y-133905332D02*
X159338971Y-133810094D01*
X159338971Y-133810094D02*
X159196114Y-133762475D01*
X159196114Y-133762475D02*
X159100876Y-133762475D01*
X159100876Y-133762475D02*
X158958019Y-133810094D01*
X158958019Y-133810094D02*
X158910400Y-133857713D01*
X158196114Y-133762475D02*
X158196114Y-134476760D01*
X158196114Y-134476760D02*
X158243733Y-134619617D01*
X158243733Y-134619617D02*
X158338971Y-134714856D01*
X158338971Y-134714856D02*
X158481828Y-134762475D01*
X158481828Y-134762475D02*
X158577066Y-134762475D01*
X157243733Y-134762475D02*
X157719923Y-134762475D01*
X157719923Y-134762475D02*
X157719923Y-133762475D01*
X156338971Y-134667236D02*
X156386590Y-134714856D01*
X156386590Y-134714856D02*
X156529447Y-134762475D01*
X156529447Y-134762475D02*
X156624685Y-134762475D01*
X156624685Y-134762475D02*
X156767542Y-134714856D01*
X156767542Y-134714856D02*
X156862780Y-134619617D01*
X156862780Y-134619617D02*
X156910399Y-134524379D01*
X156910399Y-134524379D02*
X156958018Y-134333903D01*
X156958018Y-134333903D02*
X156958018Y-134191046D01*
X156958018Y-134191046D02*
X156910399Y-134000570D01*
X156910399Y-134000570D02*
X156862780Y-133905332D01*
X156862780Y-133905332D02*
X156767542Y-133810094D01*
X156767542Y-133810094D02*
X156624685Y-133762475D01*
X156624685Y-133762475D02*
X156529447Y-133762475D01*
X156529447Y-133762475D02*
X156386590Y-133810094D01*
X156386590Y-133810094D02*
X156338971Y-133857713D01*
X166243734Y-135467657D02*
X166196115Y-135420038D01*
X166196115Y-135420038D02*
X166100877Y-135372419D01*
X166100877Y-135372419D02*
X165862782Y-135372419D01*
X165862782Y-135372419D02*
X165767544Y-135420038D01*
X165767544Y-135420038D02*
X165719925Y-135467657D01*
X165719925Y-135467657D02*
X165672306Y-135562895D01*
X165672306Y-135562895D02*
X165672306Y-135658133D01*
X165672306Y-135658133D02*
X165719925Y-135800990D01*
X165719925Y-135800990D02*
X166291353Y-136372419D01*
X166291353Y-136372419D02*
X165672306Y-136372419D01*
X165053258Y-135372419D02*
X164958020Y-135372419D01*
X164958020Y-135372419D02*
X164862782Y-135420038D01*
X164862782Y-135420038D02*
X164815163Y-135467657D01*
X164815163Y-135467657D02*
X164767544Y-135562895D01*
X164767544Y-135562895D02*
X164719925Y-135753371D01*
X164719925Y-135753371D02*
X164719925Y-135991466D01*
X164719925Y-135991466D02*
X164767544Y-136181942D01*
X164767544Y-136181942D02*
X164815163Y-136277180D01*
X164815163Y-136277180D02*
X164862782Y-136324800D01*
X164862782Y-136324800D02*
X164958020Y-136372419D01*
X164958020Y-136372419D02*
X165053258Y-136372419D01*
X165053258Y-136372419D02*
X165148496Y-136324800D01*
X165148496Y-136324800D02*
X165196115Y-136277180D01*
X165196115Y-136277180D02*
X165243734Y-136181942D01*
X165243734Y-136181942D02*
X165291353Y-135991466D01*
X165291353Y-135991466D02*
X165291353Y-135753371D01*
X165291353Y-135753371D02*
X165243734Y-135562895D01*
X165243734Y-135562895D02*
X165196115Y-135467657D01*
X165196115Y-135467657D02*
X165148496Y-135420038D01*
X165148496Y-135420038D02*
X165053258Y-135372419D01*
X164338972Y-135467657D02*
X164291353Y-135420038D01*
X164291353Y-135420038D02*
X164196115Y-135372419D01*
X164196115Y-135372419D02*
X163958020Y-135372419D01*
X163958020Y-135372419D02*
X163862782Y-135420038D01*
X163862782Y-135420038D02*
X163815163Y-135467657D01*
X163815163Y-135467657D02*
X163767544Y-135562895D01*
X163767544Y-135562895D02*
X163767544Y-135658133D01*
X163767544Y-135658133D02*
X163815163Y-135800990D01*
X163815163Y-135800990D02*
X164386591Y-136372419D01*
X164386591Y-136372419D02*
X163767544Y-136372419D01*
X162910401Y-135372419D02*
X163100877Y-135372419D01*
X163100877Y-135372419D02*
X163196115Y-135420038D01*
X163196115Y-135420038D02*
X163243734Y-135467657D01*
X163243734Y-135467657D02*
X163338972Y-135610514D01*
X163338972Y-135610514D02*
X163386591Y-135800990D01*
X163386591Y-135800990D02*
X163386591Y-136181942D01*
X163386591Y-136181942D02*
X163338972Y-136277180D01*
X163338972Y-136277180D02*
X163291353Y-136324800D01*
X163291353Y-136324800D02*
X163196115Y-136372419D01*
X163196115Y-136372419D02*
X163005639Y-136372419D01*
X163005639Y-136372419D02*
X162910401Y-136324800D01*
X162910401Y-136324800D02*
X162862782Y-136277180D01*
X162862782Y-136277180D02*
X162815163Y-136181942D01*
X162815163Y-136181942D02*
X162815163Y-135943847D01*
X162815163Y-135943847D02*
X162862782Y-135848609D01*
X162862782Y-135848609D02*
X162910401Y-135800990D01*
X162910401Y-135800990D02*
X163005639Y-135753371D01*
X163005639Y-135753371D02*
X163196115Y-135753371D01*
X163196115Y-135753371D02*
X163291353Y-135800990D01*
X163291353Y-135800990D02*
X163338972Y-135848609D01*
X163338972Y-135848609D02*
X163386591Y-135943847D01*
X162386591Y-135991466D02*
X161624687Y-135991466D01*
X160958020Y-135372419D02*
X160862782Y-135372419D01*
X160862782Y-135372419D02*
X160767544Y-135420038D01*
X160767544Y-135420038D02*
X160719925Y-135467657D01*
X160719925Y-135467657D02*
X160672306Y-135562895D01*
X160672306Y-135562895D02*
X160624687Y-135753371D01*
X160624687Y-135753371D02*
X160624687Y-135991466D01*
X160624687Y-135991466D02*
X160672306Y-136181942D01*
X160672306Y-136181942D02*
X160719925Y-136277180D01*
X160719925Y-136277180D02*
X160767544Y-136324800D01*
X160767544Y-136324800D02*
X160862782Y-136372419D01*
X160862782Y-136372419D02*
X160958020Y-136372419D01*
X160958020Y-136372419D02*
X161053258Y-136324800D01*
X161053258Y-136324800D02*
X161100877Y-136277180D01*
X161100877Y-136277180D02*
X161148496Y-136181942D01*
X161148496Y-136181942D02*
X161196115Y-135991466D01*
X161196115Y-135991466D02*
X161196115Y-135753371D01*
X161196115Y-135753371D02*
X161148496Y-135562895D01*
X161148496Y-135562895D02*
X161100877Y-135467657D01*
X161100877Y-135467657D02*
X161053258Y-135420038D01*
X161053258Y-135420038D02*
X160958020Y-135372419D01*
X159672306Y-136372419D02*
X160243734Y-136372419D01*
X159958020Y-136372419D02*
X159958020Y-135372419D01*
X159958020Y-135372419D02*
X160053258Y-135515276D01*
X160053258Y-135515276D02*
X160148496Y-135610514D01*
X160148496Y-135610514D02*
X160243734Y-135658133D01*
X159243734Y-135991466D02*
X158481830Y-135991466D01*
X157815163Y-135372419D02*
X157719925Y-135372419D01*
X157719925Y-135372419D02*
X157624687Y-135420038D01*
X157624687Y-135420038D02*
X157577068Y-135467657D01*
X157577068Y-135467657D02*
X157529449Y-135562895D01*
X157529449Y-135562895D02*
X157481830Y-135753371D01*
X157481830Y-135753371D02*
X157481830Y-135991466D01*
X157481830Y-135991466D02*
X157529449Y-136181942D01*
X157529449Y-136181942D02*
X157577068Y-136277180D01*
X157577068Y-136277180D02*
X157624687Y-136324800D01*
X157624687Y-136324800D02*
X157719925Y-136372419D01*
X157719925Y-136372419D02*
X157815163Y-136372419D01*
X157815163Y-136372419D02*
X157910401Y-136324800D01*
X157910401Y-136324800D02*
X157958020Y-136277180D01*
X157958020Y-136277180D02*
X158005639Y-136181942D01*
X158005639Y-136181942D02*
X158053258Y-135991466D01*
X158053258Y-135991466D02*
X158053258Y-135753371D01*
X158053258Y-135753371D02*
X158005639Y-135562895D01*
X158005639Y-135562895D02*
X157958020Y-135467657D01*
X157958020Y-135467657D02*
X157910401Y-135420038D01*
X157910401Y-135420038D02*
X157815163Y-135372419D01*
X156624687Y-135372419D02*
X156815163Y-135372419D01*
X156815163Y-135372419D02*
X156910401Y-135420038D01*
X156910401Y-135420038D02*
X156958020Y-135467657D01*
X156958020Y-135467657D02*
X157053258Y-135610514D01*
X157053258Y-135610514D02*
X157100877Y-135800990D01*
X157100877Y-135800990D02*
X157100877Y-136181942D01*
X157100877Y-136181942D02*
X157053258Y-136277180D01*
X157053258Y-136277180D02*
X157005639Y-136324800D01*
X157005639Y-136324800D02*
X156910401Y-136372419D01*
X156910401Y-136372419D02*
X156719925Y-136372419D01*
X156719925Y-136372419D02*
X156624687Y-136324800D01*
X156624687Y-136324800D02*
X156577068Y-136277180D01*
X156577068Y-136277180D02*
X156529449Y-136181942D01*
X156529449Y-136181942D02*
X156529449Y-135943847D01*
X156529449Y-135943847D02*
X156577068Y-135848609D01*
X156577068Y-135848609D02*
X156624687Y-135800990D01*
X156624687Y-135800990D02*
X156719925Y-135753371D01*
X156719925Y-135753371D02*
X156910401Y-135753371D01*
X156910401Y-135753371D02*
X157005639Y-135800990D01*
X157005639Y-135800990D02*
X157053258Y-135848609D01*
X157053258Y-135848609D02*
X157100877Y-135943847D01*
D11*
X172230663Y-70994819D02*
X172230663Y-71709104D01*
X172230663Y-71709104D02*
X172278282Y-71851961D01*
X172278282Y-71851961D02*
X172373520Y-71947200D01*
X172373520Y-71947200D02*
X172516377Y-71994819D01*
X172516377Y-71994819D02*
X172611615Y-71994819D01*
X171230663Y-71994819D02*
X171802091Y-71994819D01*
X171516377Y-71994819D02*
X171516377Y-70994819D01*
X171516377Y-70994819D02*
X171611615Y-71137676D01*
X171611615Y-71137676D02*
X171706853Y-71232914D01*
X171706853Y-71232914D02*
X171802091Y-71280533D01*
D12*
%TO.C,J1*%
X167337330Y-105710000D02*
X176457330Y-105710000D01*
X167337330Y-72430000D02*
X167337330Y-105710000D01*
X168647330Y-104410000D02*
X175147330Y-104410000D01*
X168647330Y-73730000D02*
X168647330Y-104410000D01*
X175147330Y-104410000D02*
X175147330Y-91120000D01*
X175147330Y-91120000D02*
X175147330Y-91120000D01*
X175147330Y-91120000D02*
X176457330Y-91120000D01*
X175147330Y-87020000D02*
X175147330Y-73730000D01*
X175147330Y-73730000D02*
X168647330Y-73730000D01*
X176457330Y-105710000D02*
X176457330Y-72430000D01*
X176457330Y-87020000D02*
X175147330Y-87020000D01*
X176457330Y-72430000D02*
X167337330Y-72430000D01*
X176847330Y-77640000D02*
X177847330Y-77140000D01*
X177847330Y-78140000D02*
X176847330Y-77640000D01*
X177847330Y-77140000D02*
X177847330Y-78140000D01*
%TD*%
M02*
