M48
; DRILL file {KiCad 9.0.6-9.0.6~ubuntu22.04.1} date 2026-01-06T15:49:16-0500
; FORMAT={-:-/ absolute / metric / decimal}
; #@! TF.CreationDate,2026-01-06T15:49:16-05:00
; #@! TF.GenerationSoftware,Kicad,Pcbnew,9.0.6-9.0.6~ubuntu22.04.1
; #@! TF.FileFunction,Plated,1,2,PTH
FMAT,2
METRIC
; #@! TA.AperFunction,Plated,PTH,ViaDrill
T1C0.300
; #@! TA.AperFunction,Plated,PTH,ComponentDrill
T2C0.900
; #@! TA.AperFunction,Plated,PTH,ComponentDrill
T3C1.000
%
G90
G05
T1
X104.627Y-100.5
X125.127Y-100.5
X135.627Y-101.5
X148.127Y-50.5
X155.627Y-98.5
X166.127Y-90.5
T2
X91.627Y-53.0
X91.627Y-63.286
X91.627Y-73.571
X91.627Y-83.857
X91.627Y-94.143
X91.627Y-104.429
X91.627Y-114.714
X91.627Y-125.0
X94.167Y-53.0
X94.167Y-63.286
X94.167Y-73.571
X94.167Y-83.857
X94.167Y-94.143
X94.167Y-104.429
X94.167Y-114.714
X94.167Y-125.0
X101.913Y-53.0
X101.913Y-63.286
X101.913Y-73.571
X101.913Y-83.857
X101.913Y-94.143
X101.913Y-104.429
X101.913Y-114.714
X101.913Y-125.0
X104.453Y-53.0
X104.453Y-63.286
X104.453Y-73.571
X104.453Y-83.857
X104.453Y-94.143
X104.453Y-104.429
X104.453Y-114.714
X104.453Y-125.0
X112.199Y-53.0
X112.199Y-63.286
X112.199Y-73.571
X112.199Y-83.857
X112.199Y-94.143
X112.199Y-104.429
X112.199Y-114.714
X112.199Y-125.0
X114.739Y-53.0
X114.739Y-63.286
X114.739Y-73.571
X114.739Y-83.857
X114.739Y-94.143
X114.739Y-104.429
X114.739Y-114.714
X114.739Y-125.0
X122.484Y-53.0
X122.484Y-63.286
X122.484Y-73.571
X122.484Y-83.857
X122.484Y-94.143
X122.484Y-104.429
X122.484Y-114.714
X122.484Y-125.0
X125.024Y-53.0
X125.024Y-63.286
X125.024Y-73.571
X125.024Y-83.857
X125.024Y-94.143
X125.024Y-104.429
X125.024Y-114.714
X125.024Y-125.0
X132.77Y-53.0
X132.77Y-63.286
X132.77Y-73.571
X132.77Y-83.857
X132.77Y-94.143
X132.77Y-104.429
X132.77Y-114.714
X132.77Y-125.0
X135.31Y-53.0
X135.31Y-63.286
X135.31Y-73.571
X135.31Y-83.857
X135.31Y-94.143
X135.31Y-104.429
X135.31Y-114.714
X135.31Y-125.0
X143.056Y-53.0
X143.056Y-63.286
X143.056Y-73.571
X143.056Y-83.857
X143.056Y-94.143
X143.056Y-104.429
X143.056Y-114.714
X143.056Y-125.0
X145.596Y-53.0
X145.596Y-63.286
X145.596Y-73.571
X145.596Y-83.857
X145.596Y-94.143
X145.596Y-104.429
X145.596Y-114.714
X145.596Y-125.0
X153.342Y-53.0
X153.342Y-63.286
X153.342Y-73.571
X153.342Y-83.857
X153.342Y-94.143
X153.342Y-104.429
X153.342Y-114.714
X153.342Y-125.0
X155.882Y-53.0
X155.882Y-63.286
X155.882Y-73.571
X155.882Y-83.857
X155.882Y-94.143
X155.882Y-104.429
X155.882Y-114.714
X155.882Y-125.0
X163.627Y-53.0
X163.627Y-63.286
X163.627Y-73.571
X163.627Y-83.857
X163.627Y-94.143
X163.627Y-104.429
X163.627Y-114.714
X163.627Y-125.0
X166.167Y-53.0
X166.167Y-63.286
X166.167Y-73.571
X166.167Y-83.857
X166.167Y-94.143
X166.167Y-104.429
X166.167Y-114.714
X166.167Y-125.0
T3
X170.627Y-77.64
X170.627Y-80.18
X170.627Y-82.72
X170.627Y-85.26
X170.627Y-87.8
X170.627Y-90.34
X170.627Y-92.88
X170.627Y-95.42
X170.627Y-97.96
X170.627Y-100.5
X173.167Y-77.64
X173.167Y-80.18
X173.167Y-82.72
X173.167Y-85.26
X173.167Y-87.8
X173.167Y-90.34
X173.167Y-92.88
X173.167Y-95.42
X173.167Y-97.96
X173.167Y-100.5
M30
