%TF.GenerationSoftware,KiCad,Pcbnew,9.0.6-9.0.6~ubuntu22.04.1*%
%TF.CreationDate,2026-01-06T15:49:18-05:00*%
%TF.ProjectId,Hyperdrift-Grid,48797065-7264-4726-9966-742d47726964,rev?*%
%TF.SameCoordinates,Original*%
%TF.FileFunction,Copper,L1,Top*%
%TF.FilePolarity,Positive*%
%FSLAX46Y46*%
G04 Gerber Fmt 4.6, Leading zero omitted, Abs format (unit mm)*
G04 Created by KiCad (PCBNEW 9.0.6-9.0.6~ubuntu22.04.1) date 2026-01-06 15:49:18*
%MOMM*%
%LPD*%
G01*
G04 APERTURE LIST*
G04 Aperture macros list*
%AMRoundRect*
0 Rectangle with rounded corners*
0 $1 Rounding radius*
0 $2 $3 $4 $5 $6 $7 $8 $9 X,Y pos of 4 corners*
0 Add a 4 corners polygon primitive as box body*
4,1,4,$2,$3,$4,$5,$6,$7,$8,$9,$2,$3,0*
0 Add four circle primitives for the rounded corners*
1,1,$1+$1,$2,$3*
1,1,$1+$1,$4,$5*
1,1,$1+$1,$6,$7*
1,1,$1+$1,$8,$9*
0 Add four rect primitives between the rounded corners*
20,1,$1+$1,$2,$3,$4,$5,0*
20,1,$1+$1,$4,$5,$6,$7,0*
20,1,$1+$1,$6,$7,$8,$9,0*
20,1,$1+$1,$8,$9,$2,$3,0*%
G04 Aperture macros list end*
%TA.AperFunction,ComponentPad*%
%ADD10C,1.700000*%
%TD*%
%TA.AperFunction,ComponentPad*%
%ADD11RoundRect,0.250000X0.600000X0.600000X-0.600000X0.600000X-0.600000X-0.600000X0.600000X-0.600000X0*%
%TD*%
%TA.AperFunction,ComponentPad*%
%ADD12C,1.800000*%
%TD*%
%TA.AperFunction,ComponentPad*%
%ADD13R,1.800000X1.800000*%
%TD*%
%TA.AperFunction,ViaPad*%
%ADD14C,0.600000*%
%TD*%
%TA.AperFunction,Conductor*%
%ADD15C,0.200000*%
%TD*%
%TA.AperFunction,Conductor*%
%ADD16C,0.400000*%
%TD*%
G04 APERTURE END LIST*
D10*
%TO.P,J1,20,Pin_20*%
%TO.N,SRC_{15}*%
X170627330Y-100500000D03*
%TO.P,J1,19,Pin_19*%
%TO.N,SRC_{14}*%
X173167330Y-100500000D03*
%TO.P,J1,18,Pin_18*%
%TO.N,SRC_{13}*%
X170627330Y-97960000D03*
%TO.P,J1,17,Pin_17*%
%TO.N,SRC_{12}*%
X173167330Y-97960000D03*
%TO.P,J1,16,Pin_16*%
%TO.N,SRC_{11}*%
X170627330Y-95420000D03*
%TO.P,J1,15,Pin_15*%
%TO.N,SRC_{10}*%
X173167330Y-95420000D03*
%TO.P,J1,14,Pin_14*%
%TO.N,SRC_{09}*%
X170627330Y-92880000D03*
%TO.P,J1,13,Pin_13*%
%TO.N,SRC_{08}*%
X173167330Y-92880000D03*
%TO.P,J1,12,Pin_12*%
%TO.N,SRC_{07}*%
X170627330Y-90340000D03*
%TO.P,J1,11,Pin_11*%
%TO.N,SRC_{06}*%
X173167330Y-90340000D03*
%TO.P,J1,10,Pin_10*%
%TO.N,SRC_{05}*%
X170627330Y-87800000D03*
%TO.P,J1,9,Pin_9*%
%TO.N,SRC_{04}*%
X173167330Y-87800000D03*
%TO.P,J1,8,Pin_8*%
%TO.N,SRC_{03}*%
X170627330Y-85260000D03*
%TO.P,J1,7,Pin_7*%
%TO.N,SRC_{02}*%
X173167330Y-85260000D03*
%TO.P,J1,6,Pin_6*%
%TO.N,SRC_{01}*%
X170627330Y-82720000D03*
%TO.P,J1,5,Pin_5*%
%TO.N,SRC_{00}*%
X173167330Y-82720000D03*
%TO.P,J1,4,Pin_4*%
%TO.N,SINK_{03}*%
X170627330Y-80180000D03*
%TO.P,J1,3,Pin_3*%
%TO.N,SINK_{02}*%
X173167330Y-80180000D03*
%TO.P,J1,2,Pin_2*%
%TO.N,SINK_{01}*%
X170627330Y-77640000D03*
D11*
%TO.P,J1,1,Pin_1*%
%TO.N,SINK_{00}*%
X173167330Y-77640000D03*
%TD*%
D12*
%TO.P,D50,2,A*%
%TO.N,SRC_{01}*%
X104453044Y-114714285D03*
D13*
%TO.P,D50,1,K*%
%TO.N,SINK_{03}*%
X101913044Y-114714285D03*
%TD*%
D12*
%TO.P,D17,2,A*%
%TO.N,SRC_{00}*%
X94167330Y-73571428D03*
D13*
%TO.P,D17,1,K*%
%TO.N,SINK_{01}*%
X91627330Y-73571428D03*
%TD*%
D12*
%TO.P,D39,2,A*%
%TO.N,SRC_{06}*%
X155881615Y-94142857D03*
D13*
%TO.P,D39,1,K*%
%TO.N,SINK_{02}*%
X153341615Y-94142857D03*
%TD*%
D12*
%TO.P,D34,2,A*%
%TO.N,SRC_{01}*%
X104453044Y-94142857D03*
D13*
%TO.P,D34,1,K*%
%TO.N,SINK_{02}*%
X101913044Y-94142857D03*
%TD*%
D12*
%TO.P,D31,2,A*%
%TO.N,SRC_{14}*%
X155881615Y-83857142D03*
D13*
%TO.P,D31,1,K*%
%TO.N,SINK_{01}*%
X153341615Y-83857142D03*
%TD*%
D12*
%TO.P,D46,2,A*%
%TO.N,SRC_{13}*%
X145595901Y-104428571D03*
D13*
%TO.P,D46,1,K*%
%TO.N,SINK_{02}*%
X143055901Y-104428571D03*
%TD*%
D12*
%TO.P,D7,2,A*%
%TO.N,SRC_{06}*%
X155881615Y-53000000D03*
D13*
%TO.P,D7,1,K*%
%TO.N,SINK_{00}*%
X153341615Y-53000000D03*
%TD*%
D12*
%TO.P,D16,2,A*%
%TO.N,SRC_{15}*%
X166167330Y-63285714D03*
D13*
%TO.P,D16,1,K*%
%TO.N,SINK_{00}*%
X163627330Y-63285714D03*
%TD*%
D12*
%TO.P,D20,2,A*%
%TO.N,SRC_{03}*%
X125024472Y-73571428D03*
D13*
%TO.P,D20,1,K*%
%TO.N,SINK_{01}*%
X122484472Y-73571428D03*
%TD*%
D12*
%TO.P,D45,2,A*%
%TO.N,SRC_{12}*%
X135310187Y-104428571D03*
D13*
%TO.P,D45,1,K*%
%TO.N,SINK_{02}*%
X132770187Y-104428571D03*
%TD*%
D12*
%TO.P,D47,2,A*%
%TO.N,SRC_{14}*%
X155881615Y-104428571D03*
D13*
%TO.P,D47,1,K*%
%TO.N,SINK_{02}*%
X153341615Y-104428571D03*
%TD*%
D12*
%TO.P,D51,2,A*%
%TO.N,SRC_{02}*%
X114738758Y-114714285D03*
D13*
%TO.P,D51,1,K*%
%TO.N,SINK_{03}*%
X112198758Y-114714285D03*
%TD*%
D12*
%TO.P,D56,2,A*%
%TO.N,SRC_{07}*%
X166167330Y-114714285D03*
D13*
%TO.P,D56,1,K*%
%TO.N,SINK_{03}*%
X163627330Y-114714285D03*
%TD*%
D12*
%TO.P,D3,2,A*%
%TO.N,SRC_{02}*%
X114738758Y-53000000D03*
D13*
%TO.P,D3,1,K*%
%TO.N,SINK_{00}*%
X112198758Y-53000000D03*
%TD*%
D12*
%TO.P,D58,2,A*%
%TO.N,SRC_{09}*%
X104453044Y-125000000D03*
D13*
%TO.P,D58,1,K*%
%TO.N,SINK_{03}*%
X101913044Y-125000000D03*
%TD*%
D12*
%TO.P,D13,2,A*%
%TO.N,SRC_{12}*%
X135310187Y-63285714D03*
D13*
%TO.P,D13,1,K*%
%TO.N,SINK_{00}*%
X132770187Y-63285714D03*
%TD*%
D12*
%TO.P,D25,2,A*%
%TO.N,SRC_{08}*%
X94167330Y-83857142D03*
D13*
%TO.P,D25,1,K*%
%TO.N,SINK_{01}*%
X91627330Y-83857142D03*
%TD*%
D12*
%TO.P,D44,2,A*%
%TO.N,SRC_{11}*%
X125024472Y-104428571D03*
D13*
%TO.P,D44,1,K*%
%TO.N,SINK_{02}*%
X122484472Y-104428571D03*
%TD*%
D12*
%TO.P,D41,2,A*%
%TO.N,SRC_{08}*%
X94167330Y-104428571D03*
D13*
%TO.P,D41,1,K*%
%TO.N,SINK_{02}*%
X91627330Y-104428571D03*
%TD*%
D12*
%TO.P,D48,2,A*%
%TO.N,SRC_{15}*%
X166167330Y-104428571D03*
D13*
%TO.P,D48,1,K*%
%TO.N,SINK_{02}*%
X163627330Y-104428571D03*
%TD*%
%TO.P,D1,1,K*%
%TO.N,SINK_{00}*%
X91627330Y-53000000D03*
D12*
%TO.P,D1,2,A*%
%TO.N,SRC_{00}*%
X94167330Y-53000000D03*
%TD*%
%TO.P,D38,2,A*%
%TO.N,SRC_{05}*%
X145595901Y-94142857D03*
D13*
%TO.P,D38,1,K*%
%TO.N,SINK_{02}*%
X143055901Y-94142857D03*
%TD*%
D12*
%TO.P,D61,2,A*%
%TO.N,SRC_{12}*%
X135310187Y-125000000D03*
D13*
%TO.P,D61,1,K*%
%TO.N,SINK_{03}*%
X132770187Y-125000000D03*
%TD*%
D12*
%TO.P,D15,2,A*%
%TO.N,SRC_{14}*%
X155881615Y-63285714D03*
D13*
%TO.P,D15,1,K*%
%TO.N,SINK_{00}*%
X153341615Y-63285714D03*
%TD*%
D12*
%TO.P,D10,2,A*%
%TO.N,SRC_{09}*%
X104453044Y-63285714D03*
D13*
%TO.P,D10,1,K*%
%TO.N,SINK_{00}*%
X101913044Y-63285714D03*
%TD*%
D12*
%TO.P,D9,2,A*%
%TO.N,SRC_{08}*%
X94167330Y-63285714D03*
D13*
%TO.P,D9,1,K*%
%TO.N,SINK_{00}*%
X91627330Y-63285714D03*
%TD*%
D12*
%TO.P,D2,2,A*%
%TO.N,SRC_{01}*%
X104453044Y-53000000D03*
D13*
%TO.P,D2,1,K*%
%TO.N,SINK_{00}*%
X101913044Y-53000000D03*
%TD*%
D12*
%TO.P,D59,2,A*%
%TO.N,SRC_{10}*%
X114738758Y-125000000D03*
D13*
%TO.P,D59,1,K*%
%TO.N,SINK_{03}*%
X112198758Y-125000000D03*
%TD*%
D12*
%TO.P,D22,2,A*%
%TO.N,SRC_{05}*%
X145595901Y-73571428D03*
D13*
%TO.P,D22,1,K*%
%TO.N,SINK_{01}*%
X143055901Y-73571428D03*
%TD*%
D12*
%TO.P,D8,2,A*%
%TO.N,SRC_{07}*%
X166167330Y-53000000D03*
D13*
%TO.P,D8,1,K*%
%TO.N,SINK_{00}*%
X163627330Y-53000000D03*
%TD*%
D12*
%TO.P,D11,2,A*%
%TO.N,SRC_{10}*%
X114738758Y-63285714D03*
D13*
%TO.P,D11,1,K*%
%TO.N,SINK_{00}*%
X112198758Y-63285714D03*
%TD*%
D12*
%TO.P,D62,2,A*%
%TO.N,SRC_{13}*%
X145595901Y-125000000D03*
D13*
%TO.P,D62,1,K*%
%TO.N,SINK_{03}*%
X143055901Y-125000000D03*
%TD*%
D12*
%TO.P,D53,2,A*%
%TO.N,SRC_{04}*%
X135310187Y-114714285D03*
D13*
%TO.P,D53,1,K*%
%TO.N,SINK_{03}*%
X132770187Y-114714285D03*
%TD*%
D12*
%TO.P,D40,2,A*%
%TO.N,SRC_{07}*%
X166167330Y-94142857D03*
D13*
%TO.P,D40,1,K*%
%TO.N,SINK_{02}*%
X163627330Y-94142857D03*
%TD*%
D12*
%TO.P,D19,2,A*%
%TO.N,SRC_{02}*%
X114738758Y-73571428D03*
D13*
%TO.P,D19,1,K*%
%TO.N,SINK_{01}*%
X112198758Y-73571428D03*
%TD*%
D12*
%TO.P,D28,2,A*%
%TO.N,SRC_{11}*%
X125024472Y-83857142D03*
D13*
%TO.P,D28,1,K*%
%TO.N,SINK_{01}*%
X122484472Y-83857142D03*
%TD*%
D12*
%TO.P,D64,2,A*%
%TO.N,SRC_{15}*%
X166167330Y-125000000D03*
D13*
%TO.P,D64,1,K*%
%TO.N,SINK_{03}*%
X163627330Y-125000000D03*
%TD*%
D12*
%TO.P,D60,2,A*%
%TO.N,SRC_{11}*%
X125024472Y-125000000D03*
D13*
%TO.P,D60,1,K*%
%TO.N,SINK_{03}*%
X122484472Y-125000000D03*
%TD*%
D12*
%TO.P,D26,2,A*%
%TO.N,SRC_{09}*%
X104453044Y-83857142D03*
D13*
%TO.P,D26,1,K*%
%TO.N,SINK_{01}*%
X101913044Y-83857142D03*
%TD*%
D12*
%TO.P,D12,2,A*%
%TO.N,SRC_{11}*%
X125024472Y-63285714D03*
D13*
%TO.P,D12,1,K*%
%TO.N,SINK_{00}*%
X122484472Y-63285714D03*
%TD*%
D12*
%TO.P,D43,2,A*%
%TO.N,SRC_{10}*%
X114738758Y-104428571D03*
D13*
%TO.P,D43,1,K*%
%TO.N,SINK_{02}*%
X112198758Y-104428571D03*
%TD*%
D12*
%TO.P,D57,2,A*%
%TO.N,SRC_{08}*%
X94167330Y-125000000D03*
D13*
%TO.P,D57,1,K*%
%TO.N,SINK_{03}*%
X91627330Y-125000000D03*
%TD*%
D12*
%TO.P,D21,2,A*%
%TO.N,SRC_{04}*%
X135310187Y-73571428D03*
D13*
%TO.P,D21,1,K*%
%TO.N,SINK_{01}*%
X132770187Y-73571428D03*
%TD*%
D12*
%TO.P,D6,2,A*%
%TO.N,SRC_{05}*%
X145595901Y-53000000D03*
D13*
%TO.P,D6,1,K*%
%TO.N,SINK_{00}*%
X143055901Y-53000000D03*
%TD*%
D12*
%TO.P,D14,2,A*%
%TO.N,SRC_{13}*%
X145595901Y-63285714D03*
D13*
%TO.P,D14,1,K*%
%TO.N,SINK_{00}*%
X143055901Y-63285714D03*
%TD*%
D12*
%TO.P,D30,2,A*%
%TO.N,SRC_{13}*%
X145595901Y-83857142D03*
D13*
%TO.P,D30,1,K*%
%TO.N,SINK_{01}*%
X143055901Y-83857142D03*
%TD*%
D12*
%TO.P,D27,2,A*%
%TO.N,SRC_{10}*%
X114738758Y-83857142D03*
D13*
%TO.P,D27,1,K*%
%TO.N,SINK_{01}*%
X112198758Y-83857142D03*
%TD*%
D12*
%TO.P,D4,2,A*%
%TO.N,SRC_{03}*%
X125024472Y-53000000D03*
D13*
%TO.P,D4,1,K*%
%TO.N,SINK_{00}*%
X122484472Y-53000000D03*
%TD*%
D12*
%TO.P,D42,2,A*%
%TO.N,SRC_{09}*%
X104453044Y-104428571D03*
D13*
%TO.P,D42,1,K*%
%TO.N,SINK_{02}*%
X101913044Y-104428571D03*
%TD*%
D12*
%TO.P,D32,2,A*%
%TO.N,SRC_{15}*%
X166167330Y-83857142D03*
D13*
%TO.P,D32,1,K*%
%TO.N,SINK_{01}*%
X163627330Y-83857142D03*
%TD*%
D12*
%TO.P,D33,2,A*%
%TO.N,SRC_{00}*%
X94167330Y-94142857D03*
D13*
%TO.P,D33,1,K*%
%TO.N,SINK_{02}*%
X91627330Y-94142857D03*
%TD*%
D12*
%TO.P,D54,2,A*%
%TO.N,SRC_{05}*%
X145595901Y-114714285D03*
D13*
%TO.P,D54,1,K*%
%TO.N,SINK_{03}*%
X143055901Y-114714285D03*
%TD*%
D12*
%TO.P,D55,2,A*%
%TO.N,SRC_{06}*%
X155881615Y-114714285D03*
D13*
%TO.P,D55,1,K*%
%TO.N,SINK_{03}*%
X153341615Y-114714285D03*
%TD*%
D12*
%TO.P,D52,2,A*%
%TO.N,SRC_{03}*%
X125024472Y-114714285D03*
D13*
%TO.P,D52,1,K*%
%TO.N,SINK_{03}*%
X122484472Y-114714285D03*
%TD*%
D12*
%TO.P,D18,2,A*%
%TO.N,SRC_{01}*%
X104453044Y-73571428D03*
D13*
%TO.P,D18,1,K*%
%TO.N,SINK_{01}*%
X101913044Y-73571428D03*
%TD*%
D12*
%TO.P,D63,2,A*%
%TO.N,SRC_{14}*%
X155881615Y-125000000D03*
D13*
%TO.P,D63,1,K*%
%TO.N,SINK_{03}*%
X153341615Y-125000000D03*
%TD*%
D12*
%TO.P,D37,2,A*%
%TO.N,SRC_{04}*%
X135310187Y-94142857D03*
D13*
%TO.P,D37,1,K*%
%TO.N,SINK_{02}*%
X132770187Y-94142857D03*
%TD*%
D12*
%TO.P,D36,2,A*%
%TO.N,SRC_{03}*%
X125024472Y-94142857D03*
D13*
%TO.P,D36,1,K*%
%TO.N,SINK_{02}*%
X122484472Y-94142857D03*
%TD*%
D12*
%TO.P,D23,2,A*%
%TO.N,SRC_{06}*%
X155881615Y-73571428D03*
D13*
%TO.P,D23,1,K*%
%TO.N,SINK_{01}*%
X153341615Y-73571428D03*
%TD*%
D12*
%TO.P,D5,2,A*%
%TO.N,SRC_{04}*%
X135310187Y-53000000D03*
D13*
%TO.P,D5,1,K*%
%TO.N,SINK_{00}*%
X132770187Y-53000000D03*
%TD*%
D12*
%TO.P,D35,2,A*%
%TO.N,SRC_{02}*%
X114738758Y-94142857D03*
D13*
%TO.P,D35,1,K*%
%TO.N,SINK_{02}*%
X112198758Y-94142857D03*
%TD*%
D12*
%TO.P,D29,2,A*%
%TO.N,SRC_{12}*%
X135310187Y-83857142D03*
D13*
%TO.P,D29,1,K*%
%TO.N,SINK_{01}*%
X132770187Y-83857142D03*
%TD*%
D12*
%TO.P,D24,2,A*%
%TO.N,SRC_{07}*%
X166167330Y-73571428D03*
D13*
%TO.P,D24,1,K*%
%TO.N,SINK_{01}*%
X163627330Y-73571428D03*
%TD*%
D12*
%TO.P,D49,2,A*%
%TO.N,SRC_{00}*%
X94167330Y-114714285D03*
D13*
%TO.P,D49,1,K*%
%TO.N,SINK_{03}*%
X91627330Y-114714285D03*
%TD*%
D14*
%TO.N,SRC_{11}*%
X125127330Y-100500000D03*
%TO.N,SRC_{09}*%
X104627330Y-100500000D03*
%TO.N,SRC_{07}*%
X166127330Y-90500000D03*
%TO.N,SRC_{06}*%
X155627330Y-98500000D03*
%TO.N,SRC_{04}*%
X135627330Y-101500000D03*
%TO.N,SRC_{05}*%
X148127330Y-50500000D03*
%TD*%
D15*
%TO.N,SRC_{02}*%
X166830901Y-51398000D02*
X116340758Y-51398000D01*
%TO.N,SRC_{09}*%
X103114044Y-64624714D02*
X104453044Y-63285714D01*
%TO.N,SRC_{02}*%
X115939758Y-113513285D02*
X115939758Y-95343857D01*
%TO.N,SRC_{07}*%
X166167330Y-114714285D02*
X167368330Y-113513285D01*
%TO.N,SRC_{08}*%
X92966330Y-123799000D02*
X94167330Y-125000000D01*
%TO.N,SRC_{14}*%
X154680615Y-105629571D02*
X155881615Y-104428571D01*
%TO.N,SRC_{02}*%
X115939758Y-74772428D02*
X114738758Y-73571428D01*
%TO.N,SRC_{11}*%
X125024472Y-63285714D02*
X123823472Y-64486714D01*
%TO.N,SRC_{02}*%
X115939758Y-72370428D02*
X114738758Y-73571428D01*
%TO.N,SRC_{04}*%
X136511187Y-113513285D02*
X135310187Y-114714285D01*
X135310187Y-94142857D02*
X136511187Y-95343857D01*
%TO.N,SRC_{12}*%
X136912187Y-126602000D02*
X166830901Y-126602000D01*
%TO.N,SRC_{05}*%
X148127330Y-50500000D02*
X166500000Y-50500000D01*
%TO.N,SRC_{15}*%
X166167330Y-83857142D02*
X164966330Y-82656142D01*
%TO.N,SRC_{01}*%
X105654044Y-113513285D02*
X105654044Y-95343857D01*
%TO.N,SRC_{10}*%
X113537758Y-82656142D02*
X113537758Y-64486714D01*
%TO.N,SRC_{04}*%
X136511187Y-72370428D02*
X135310187Y-73571428D01*
%TO.N,SRC_{05}*%
X146796901Y-92941857D02*
X146796901Y-74772428D01*
%TO.N,SRC_{12}*%
X134109187Y-82656142D02*
X134109187Y-64486714D01*
%TO.N,SRC_{02}*%
X172016330Y-56583429D02*
X166830901Y-51398000D01*
%TO.N,SRC_{00}*%
X94167330Y-53000000D02*
X95368330Y-54201000D01*
%TO.N,SRC_{01}*%
X105654044Y-54201000D02*
X104453044Y-53000000D01*
%TO.N,SRC_{05}*%
X145595901Y-94142857D02*
X146796901Y-92941857D01*
X146796901Y-95343857D02*
X145595901Y-94142857D01*
X146796901Y-113513285D02*
X146796901Y-95343857D01*
%TO.N,SRC_{01}*%
X104453044Y-114714285D02*
X105654044Y-113513285D01*
%TO.N,SRC_{11}*%
X123823472Y-105629571D02*
X125024472Y-104428571D01*
%TO.N,SRC_{10}*%
X116741758Y-127003000D02*
X166997001Y-127003000D01*
X114738758Y-125000000D02*
X116741758Y-127003000D01*
%TO.N,SRC_{08}*%
X175120330Y-102000000D02*
X175120330Y-94833000D01*
%TO.N,SRC_{10}*%
X166997001Y-127003000D02*
X171063665Y-122936335D01*
%TO.N,SRC_{06}*%
X155627330Y-98500000D02*
X155881615Y-98245715D01*
%TO.N,SRC_{01}*%
X105654044Y-72370428D02*
X105654044Y-54201000D01*
%TO.N,SRC_{13}*%
X144394901Y-85058142D02*
X145595901Y-83857142D01*
%TO.N,SRC_{03}*%
X167769330Y-52903529D02*
X166664801Y-51799000D01*
%TO.N,SRC_{11}*%
X123823472Y-85058142D02*
X125024472Y-83857142D01*
%TO.N,SRC_{03}*%
X126225472Y-95343857D02*
X125024472Y-94142857D01*
%TO.N,SRC_{13}*%
X145595901Y-83857142D02*
X144394901Y-82656142D01*
%TO.N,SRC_{01}*%
X105654044Y-95343857D02*
X104453044Y-94142857D01*
%TO.N,SRC_{11}*%
X123823472Y-103227571D02*
X123823472Y-85058142D01*
%TO.N,SRC_{09}*%
X103114044Y-82518142D02*
X103114044Y-64624714D01*
%TO.N,SRC_{05}*%
X145595901Y-73571428D02*
X146796901Y-72370428D01*
%TO.N,SRC_{12}*%
X166830901Y-126602000D02*
X169530115Y-123902785D01*
%TO.N,SRC_{10}*%
X113537758Y-103227571D02*
X113537758Y-85058142D01*
X113537758Y-85058142D02*
X114738758Y-83857142D01*
%TO.N,SRC_{03}*%
X126225472Y-113513285D02*
X126225472Y-95343857D01*
%TO.N,SRC_{02}*%
X172016330Y-84109000D02*
X172016330Y-56583429D01*
%TO.N,SRC_{00}*%
X95368330Y-92941857D02*
X95368330Y-74772428D01*
%TO.N,SRC_{11}*%
X125024472Y-100602858D02*
X125024472Y-104428571D01*
%TO.N,SRC_{07}*%
X166167330Y-73571428D02*
X167368330Y-72370428D01*
%TO.N,SRC_{14}*%
X155881615Y-104428571D02*
X154680615Y-103227571D01*
%TO.N,SRC_{07}*%
X167368330Y-72370428D02*
X167368330Y-54201000D01*
%TO.N,SRC_{03}*%
X125024472Y-94142857D02*
X126225472Y-92941857D01*
%TO.N,SRC_{09}*%
X103252044Y-105629571D02*
X104453044Y-104428571D01*
%TO.N,SRC_{08}*%
X175120330Y-94833000D02*
X173167330Y-92880000D01*
%TO.N,SRC_{03}*%
X125024472Y-114714285D02*
X126225472Y-113513285D01*
%TO.N,SRC_{08}*%
X94167330Y-104428571D02*
X92966330Y-105629571D01*
%TO.N,SRC_{12}*%
X134109187Y-103227571D02*
X134109187Y-85058142D01*
%TO.N,SRC_{03}*%
X126225472Y-92941857D02*
X126225472Y-74772428D01*
%TO.N,SRC_{04}*%
X136511187Y-92941857D02*
X136511187Y-74772428D01*
%TO.N,SRC_{15}*%
X164966330Y-116500000D02*
X166080086Y-116500000D01*
X166080086Y-116500000D02*
X170627330Y-111952756D01*
%TO.N,SRC_{12}*%
X135310187Y-125000000D02*
X136912187Y-126602000D01*
%TO.N,SRC_{14}*%
X157082615Y-126201000D02*
X155881615Y-125000000D01*
X166664801Y-126201000D02*
X157082615Y-126201000D01*
%TO.N,SRC_{12}*%
X134109187Y-123799000D02*
X134109187Y-105629571D01*
D16*
%TO.N,SINK_{02}*%
X163627330Y-94142857D02*
X163627330Y-104428571D01*
D15*
%TO.N,SRC_{01}*%
X104453044Y-94142857D02*
X105654044Y-92941857D01*
%TO.N,SRC_{06}*%
X157082615Y-54201000D02*
X157082615Y-72370428D01*
%TO.N,SRC_{03}*%
X170627330Y-85260000D02*
X167769330Y-82402000D01*
%TO.N,SRC_{08}*%
X172330330Y-104790000D02*
X175120330Y-102000000D01*
%TO.N,SRC_{10}*%
X174719330Y-96972000D02*
X173167330Y-95420000D01*
%TO.N,SRC_{12}*%
X171528330Y-103790000D02*
X174318330Y-101000000D01*
X174318330Y-101000000D02*
X174318330Y-99111000D01*
X169530115Y-123902785D02*
X171528330Y-121904572D01*
%TO.N,SRC_{08}*%
X172330330Y-122236772D02*
X172330330Y-104790000D01*
%TO.N,SRC_{12}*%
X134109187Y-64486714D02*
X135310187Y-63285714D01*
%TO.N,SRC_{08}*%
X92828330Y-103089571D02*
X94167330Y-104428571D01*
%TO.N,SRC_{12}*%
X134109187Y-85058142D02*
X135310187Y-83857142D01*
%TO.N,SRC_{11}*%
X125127330Y-100500000D02*
X125024472Y-100602858D01*
%TO.N,SRC_{04}*%
X135627330Y-100000000D02*
X135310187Y-99682857D01*
%TO.N,SRC_{13}*%
X144394901Y-64486714D02*
X145595901Y-63285714D01*
X144394901Y-123799000D02*
X145595901Y-125000000D01*
%TO.N,SRC_{07}*%
X166287330Y-90340000D02*
X166127330Y-90500000D01*
%TO.N,SRC_{06}*%
X157082615Y-113513285D02*
X155881615Y-114714285D01*
%TO.N,SRC_{03}*%
X126225472Y-74772428D02*
X125024472Y-73571428D01*
%TO.N,SRC_{09}*%
X104453044Y-100674286D02*
X104453044Y-104428571D01*
%TO.N,SRC_{05}*%
X172016330Y-86411000D02*
X170627330Y-87800000D01*
%TO.N,SRC_{12}*%
X174318330Y-99111000D02*
X173167330Y-97960000D01*
%TO.N,SRC_{10}*%
X171929330Y-104290000D02*
X174719330Y-101500000D01*
%TO.N,SRC_{08}*%
X94167330Y-63285714D02*
X92828330Y-64624714D01*
%TO.N,SRC_{02}*%
X115939758Y-95343857D02*
X114738758Y-94142857D01*
%TO.N,SRC_{05}*%
X146796901Y-72370428D02*
X146796901Y-54201000D01*
%TO.N,SRC_{06}*%
X155881615Y-94142857D02*
X157082615Y-95343857D01*
%TO.N,SRC_{10}*%
X171063665Y-122936335D02*
X171929330Y-122070672D01*
%TO.N,SRC_{06}*%
X155881615Y-73571428D02*
X157082615Y-74772428D01*
%TO.N,SRC_{11}*%
X123823472Y-64486714D02*
X123823472Y-82656142D01*
X123823472Y-82656142D02*
X125024472Y-83857142D01*
%TO.N,SRC_{04}*%
X136511187Y-95343857D02*
X136511187Y-113513285D01*
%TO.N,SRC_{12}*%
X135310187Y-104428571D02*
X134109187Y-103227571D01*
%TO.N,SRC_{04}*%
X135310187Y-99682857D02*
X135310187Y-94142857D01*
%TO.N,SRC_{09}*%
X103252044Y-123799000D02*
X103252044Y-105629571D01*
%TO.N,SRC_{15}*%
X164966330Y-85058142D02*
X166167330Y-83857142D01*
X164966330Y-103227571D02*
X164966330Y-85058142D01*
%TO.N,SRC_{07}*%
X166167330Y-94142857D02*
X167368330Y-92941857D01*
%TO.N,SRC_{15}*%
X166167330Y-125000000D02*
X164966330Y-123799000D01*
%TO.N,SRC_{05}*%
X146796901Y-54201000D02*
X145595901Y-53000000D01*
%TO.N,SRC_{02}*%
X114738758Y-53000000D02*
X115939758Y-54201000D01*
%TO.N,SRC_{08}*%
X92828330Y-64624714D02*
X92828330Y-82518142D01*
%TO.N,SRC_{10}*%
X113537758Y-64486714D02*
X114738758Y-63285714D01*
X171929330Y-122070672D02*
X171929330Y-104290000D01*
%TO.N,SRC_{00}*%
X95368330Y-72370428D02*
X94167330Y-73571428D01*
%TO.N,SRC_{05}*%
X173644090Y-86411000D02*
X172016330Y-86411000D01*
%TO.N,SRC_{08}*%
X92966330Y-105629571D02*
X92966330Y-123799000D01*
%TO.N,SRC_{02}*%
X115939758Y-92941857D02*
X115939758Y-74772428D01*
%TO.N,SRC_{15}*%
X164966330Y-64486714D02*
X166167330Y-63285714D01*
X164966330Y-82656142D02*
X164966330Y-64486714D01*
%TO.N,SRC_{12}*%
X134109187Y-105629571D02*
X135310187Y-104428571D01*
%TO.N,SRC_{08}*%
X92828330Y-85196142D02*
X92828330Y-103089571D01*
%TO.N,SRC_{02}*%
X173167330Y-85260000D02*
X172016330Y-84109000D01*
%TO.N,SRC_{08}*%
X94167330Y-83857142D02*
X92828330Y-85196142D01*
%TO.N,SRC_{15}*%
X164966330Y-116500000D02*
X164966330Y-105629571D01*
%TO.N,SRC_{09}*%
X104453044Y-125000000D02*
X103252044Y-123799000D01*
%TO.N,SRC_{03}*%
X125024472Y-53000000D02*
X126225472Y-54201000D01*
%TO.N,SRC_{09}*%
X103252044Y-85058142D02*
X104453044Y-83857142D01*
X103252044Y-103227571D02*
X103252044Y-85058142D01*
%TO.N,SRC_{15}*%
X166167330Y-104428571D02*
X164966330Y-103227571D01*
%TO.N,SRC_{05}*%
X145595901Y-114714285D02*
X146796901Y-113513285D01*
%TO.N,SRC_{02}*%
X116340758Y-51398000D02*
X114738758Y-53000000D01*
%TO.N,SRC_{00}*%
X94167330Y-94142857D02*
X95368330Y-92941857D01*
%TO.N,SRC_{07}*%
X167368330Y-74772428D02*
X166167330Y-73571428D01*
%TO.N,SRC_{10}*%
X113537758Y-123799000D02*
X113537758Y-105629571D01*
%TO.N,SRC_{01}*%
X104453044Y-73571428D02*
X105654044Y-72370428D01*
%TO.N,SRC_{14}*%
X154680615Y-85058142D02*
X155881615Y-83857142D01*
%TO.N,SRC_{03}*%
X126225472Y-72370428D02*
X125024472Y-73571428D01*
%TO.N,SRC_{08}*%
X172097215Y-122469885D02*
X172330330Y-122236772D01*
%TO.N,SRC_{10}*%
X174719330Y-101500000D02*
X174719330Y-96972000D01*
%TO.N,SRC_{08}*%
X167163101Y-127404000D02*
X172097215Y-122469885D01*
%TO.N,SRC_{06}*%
X157082615Y-72370428D02*
X155881615Y-73571428D01*
D16*
%TO.N,SINK_{01}*%
X153341615Y-83857142D02*
X153341615Y-73571428D01*
D15*
%TO.N,SRC_{00}*%
X95368330Y-54201000D02*
X95368330Y-72370428D01*
%TO.N,SRC_{07}*%
X167368330Y-92941857D02*
X167368330Y-74772428D01*
%TO.N,SRC_{12}*%
X135310187Y-125000000D02*
X134109187Y-123799000D01*
%TO.N,SRC_{05}*%
X166500000Y-50500000D02*
X174318330Y-58318330D01*
%TO.N,SRC_{14}*%
X155881615Y-125000000D02*
X154680615Y-123799000D01*
%TO.N,SRC_{12}*%
X171528330Y-121904572D02*
X171528330Y-103790000D01*
%TO.N,SRC_{08}*%
X96571330Y-127404000D02*
X167163101Y-127404000D01*
X94167330Y-125000000D02*
X96571330Y-127404000D01*
%TO.N,SRC_{11}*%
X125024472Y-104428571D02*
X123823472Y-103227571D01*
%TO.N,SRC_{02}*%
X114738758Y-94142857D02*
X115939758Y-92941857D01*
%TO.N,SRC_{04}*%
X135627330Y-101500000D02*
X135627330Y-100000000D01*
%TO.N,SRC_{00}*%
X95368330Y-113513285D02*
X94167330Y-114714285D01*
X95368330Y-95343857D02*
X95368330Y-113513285D01*
%TO.N,SRC_{05}*%
X174318330Y-58318330D02*
X174318330Y-85736760D01*
%TO.N,SRC_{09}*%
X104453044Y-104428571D02*
X103252044Y-103227571D01*
%TO.N,SRC_{15}*%
X164966330Y-105629571D02*
X166167330Y-104428571D01*
%TO.N,SRC_{13}*%
X144394901Y-105629571D02*
X144394901Y-123799000D01*
%TO.N,SRC_{15}*%
X164966330Y-123799000D02*
X164966330Y-116500000D01*
%TO.N,SRC_{10}*%
X113537758Y-105629571D02*
X114738758Y-104428571D01*
X114738758Y-83857142D02*
X113537758Y-82656142D01*
%TO.N,SRC_{11}*%
X123823472Y-123799000D02*
X123823472Y-105629571D01*
%TO.N,SRC_{15}*%
X170627330Y-111952756D02*
X170627330Y-100500000D01*
%TO.N,SRC_{05}*%
X146796901Y-74772428D02*
X145595901Y-73571428D01*
%TO.N,SRC_{06}*%
X155881615Y-53000000D02*
X157082615Y-54201000D01*
%TO.N,SRC_{07}*%
X167368330Y-54201000D02*
X166167330Y-53000000D01*
%TO.N,SRC_{00}*%
X94167330Y-94142857D02*
X95368330Y-95343857D01*
%TO.N,SRC_{14}*%
X154680615Y-103227571D02*
X154680615Y-85058142D01*
%TO.N,SRC_{04}*%
X136511187Y-74772428D02*
X135310187Y-73571428D01*
%TO.N,SRC_{14}*%
X173167330Y-100500000D02*
X171127330Y-102540000D01*
X154680615Y-123799000D02*
X154680615Y-105629571D01*
%TO.N,SRC_{13}*%
X145595901Y-104428571D02*
X144394901Y-105629571D01*
%TO.N,SRC_{04}*%
X135310187Y-94142857D02*
X136511187Y-92941857D01*
%TO.N,SRC_{01}*%
X105654044Y-74772428D02*
X104453044Y-73571428D01*
%TO.N,SRC_{13}*%
X145595901Y-104428571D02*
X144394901Y-103227571D01*
%TO.N,SRC_{09}*%
X104453044Y-83857142D02*
X103114044Y-82518142D01*
%TO.N,SRC_{10}*%
X114738758Y-104428571D02*
X113537758Y-103227571D01*
%TO.N,SRC_{06}*%
X157082615Y-95343857D02*
X157082615Y-113513285D01*
X157082615Y-74772428D02*
X157082615Y-92941857D01*
X157082615Y-92941857D02*
X155881615Y-94142857D01*
%TO.N,SRC_{07}*%
X167368330Y-95343857D02*
X166167330Y-94142857D01*
%TO.N,SRC_{02}*%
X115939758Y-54201000D02*
X115939758Y-72370428D01*
%TO.N,SRC_{08}*%
X92828330Y-82518142D02*
X94167330Y-83857142D01*
%TO.N,SRC_{03}*%
X167769330Y-82402000D02*
X167769330Y-52903529D01*
%TO.N,SRC_{14}*%
X155881615Y-63285714D02*
X154680615Y-64486714D01*
%TO.N,SRC_{13}*%
X144394901Y-103227571D02*
X144394901Y-85058142D01*
X144394901Y-82656142D02*
X144394901Y-64486714D01*
%TO.N,SRC_{14}*%
X171127330Y-102540000D02*
X171127330Y-121738472D01*
X171127330Y-121738472D02*
X166664801Y-126201000D01*
%TO.N,SRC_{00}*%
X95368330Y-74772428D02*
X94167330Y-73571428D01*
%TO.N,SRC_{03}*%
X126225472Y-54201000D02*
X126225472Y-72370428D01*
%TO.N,SRC_{04}*%
X135310187Y-53000000D02*
X136511187Y-54201000D01*
X136511187Y-54201000D02*
X136511187Y-72370428D01*
%TO.N,SRC_{05}*%
X174318330Y-85736760D02*
X173644090Y-86411000D01*
%TO.N,SRC_{03}*%
X166664801Y-51799000D02*
X126225472Y-51799000D01*
%TO.N,SRC_{14}*%
X154680615Y-64486714D02*
X154680615Y-82656142D01*
X154680615Y-82656142D02*
X155881615Y-83857142D01*
%TO.N,SRC_{07}*%
X167368330Y-113513285D02*
X167368330Y-95343857D01*
%TO.N,SRC_{06}*%
X155881615Y-98245715D02*
X155881615Y-94142857D01*
%TO.N,SRC_{12}*%
X135310187Y-83857142D02*
X134109187Y-82656142D01*
%TO.N,SRC_{02}*%
X114738758Y-114714285D02*
X115939758Y-113513285D01*
%TO.N,SRC_{09}*%
X104627330Y-100500000D02*
X104453044Y-100674286D01*
%TO.N,SRC_{03}*%
X126225472Y-51799000D02*
X125024472Y-53000000D01*
%TO.N,SRC_{07}*%
X170627330Y-90340000D02*
X166287330Y-90340000D01*
%TO.N,SRC_{10}*%
X114738758Y-125000000D02*
X113537758Y-123799000D01*
%TO.N,SRC_{11}*%
X125024472Y-125000000D02*
X123823472Y-123799000D01*
%TO.N,SRC_{01}*%
X105654044Y-92941857D02*
X105654044Y-74772428D01*
%TD*%
M02*
