%TF.GenerationSoftware,KiCad,Pcbnew,9.0.6-9.0.6~ubuntu22.04.1*%
%TF.CreationDate,2026-01-06T15:49:18-05:00*%
%TF.ProjectId,Hyperdrift-Grid,48797065-7264-4726-9966-742d47726964,rev?*%
%TF.SameCoordinates,Original*%
%TF.FileFunction,Copper,L2,Bot*%
%TF.FilePolarity,Positive*%
%FSLAX46Y46*%
G04 Gerber Fmt 4.6, Leading zero omitted, Abs format (unit mm)*
G04 Created by KiCad (PCBNEW 9.0.6-9.0.6~ubuntu22.04.1) date 2026-01-06 15:49:18*
%MOMM*%
%LPD*%
G01*
G04 APERTURE LIST*
G04 Aperture macros list*
%AMRoundRect*
0 Rectangle with rounded corners*
0 $1 Rounding radius*
0 $2 $3 $4 $5 $6 $7 $8 $9 X,Y pos of 4 corners*
0 Add a 4 corners polygon primitive as box body*
4,1,4,$2,$3,$4,$5,$6,$7,$8,$9,$2,$3,0*
0 Add four circle primitives for the rounded corners*
1,1,$1+$1,$2,$3*
1,1,$1+$1,$4,$5*
1,1,$1+$1,$6,$7*
1,1,$1+$1,$8,$9*
0 Add four rect primitives between the rounded corners*
20,1,$1+$1,$2,$3,$4,$5,0*
20,1,$1+$1,$4,$5,$6,$7,0*
20,1,$1+$1,$6,$7,$8,$9,0*
20,1,$1+$1,$8,$9,$2,$3,0*%
G04 Aperture macros list end*
%TA.AperFunction,ComponentPad*%
%ADD10C,1.700000*%
%TD*%
%TA.AperFunction,ComponentPad*%
%ADD11RoundRect,0.250000X0.600000X0.600000X-0.600000X0.600000X-0.600000X-0.600000X0.600000X-0.600000X0*%
%TD*%
%TA.AperFunction,ComponentPad*%
%ADD12C,1.800000*%
%TD*%
%TA.AperFunction,ComponentPad*%
%ADD13R,1.800000X1.800000*%
%TD*%
%TA.AperFunction,ViaPad*%
%ADD14C,0.600000*%
%TD*%
%TA.AperFunction,Conductor*%
%ADD15C,0.400000*%
%TD*%
%TA.AperFunction,Conductor*%
%ADD16C,0.200000*%
%TD*%
G04 APERTURE END LIST*
D10*
%TO.P,J1,20,Pin_20*%
%TO.N,SRC_{15}*%
X170627330Y-100500000D03*
%TO.P,J1,19,Pin_19*%
%TO.N,SRC_{14}*%
X173167330Y-100500000D03*
%TO.P,J1,18,Pin_18*%
%TO.N,SRC_{13}*%
X170627330Y-97960000D03*
%TO.P,J1,17,Pin_17*%
%TO.N,SRC_{12}*%
X173167330Y-97960000D03*
%TO.P,J1,16,Pin_16*%
%TO.N,SRC_{11}*%
X170627330Y-95420000D03*
%TO.P,J1,15,Pin_15*%
%TO.N,SRC_{10}*%
X173167330Y-95420000D03*
%TO.P,J1,14,Pin_14*%
%TO.N,SRC_{09}*%
X170627330Y-92880000D03*
%TO.P,J1,13,Pin_13*%
%TO.N,SRC_{08}*%
X173167330Y-92880000D03*
%TO.P,J1,12,Pin_12*%
%TO.N,SRC_{07}*%
X170627330Y-90340000D03*
%TO.P,J1,11,Pin_11*%
%TO.N,SRC_{06}*%
X173167330Y-90340000D03*
%TO.P,J1,10,Pin_10*%
%TO.N,SRC_{05}*%
X170627330Y-87800000D03*
%TO.P,J1,9,Pin_9*%
%TO.N,SRC_{04}*%
X173167330Y-87800000D03*
%TO.P,J1,8,Pin_8*%
%TO.N,SRC_{03}*%
X170627330Y-85260000D03*
%TO.P,J1,7,Pin_7*%
%TO.N,SRC_{02}*%
X173167330Y-85260000D03*
%TO.P,J1,6,Pin_6*%
%TO.N,SRC_{01}*%
X170627330Y-82720000D03*
%TO.P,J1,5,Pin_5*%
%TO.N,SRC_{00}*%
X173167330Y-82720000D03*
%TO.P,J1,4,Pin_4*%
%TO.N,SINK_{03}*%
X170627330Y-80180000D03*
%TO.P,J1,3,Pin_3*%
%TO.N,SINK_{02}*%
X173167330Y-80180000D03*
%TO.P,J1,2,Pin_2*%
%TO.N,SINK_{01}*%
X170627330Y-77640000D03*
D11*
%TO.P,J1,1,Pin_1*%
%TO.N,SINK_{00}*%
X173167330Y-77640000D03*
%TD*%
D12*
%TO.P,D50,2,A*%
%TO.N,SRC_{01}*%
X104453044Y-114714285D03*
D13*
%TO.P,D50,1,K*%
%TO.N,SINK_{03}*%
X101913044Y-114714285D03*
%TD*%
D12*
%TO.P,D17,2,A*%
%TO.N,SRC_{00}*%
X94167330Y-73571428D03*
D13*
%TO.P,D17,1,K*%
%TO.N,SINK_{01}*%
X91627330Y-73571428D03*
%TD*%
D12*
%TO.P,D39,2,A*%
%TO.N,SRC_{06}*%
X155881615Y-94142857D03*
D13*
%TO.P,D39,1,K*%
%TO.N,SINK_{02}*%
X153341615Y-94142857D03*
%TD*%
D12*
%TO.P,D34,2,A*%
%TO.N,SRC_{01}*%
X104453044Y-94142857D03*
D13*
%TO.P,D34,1,K*%
%TO.N,SINK_{02}*%
X101913044Y-94142857D03*
%TD*%
D12*
%TO.P,D31,2,A*%
%TO.N,SRC_{14}*%
X155881615Y-83857142D03*
D13*
%TO.P,D31,1,K*%
%TO.N,SINK_{01}*%
X153341615Y-83857142D03*
%TD*%
D12*
%TO.P,D46,2,A*%
%TO.N,SRC_{13}*%
X145595901Y-104428571D03*
D13*
%TO.P,D46,1,K*%
%TO.N,SINK_{02}*%
X143055901Y-104428571D03*
%TD*%
D12*
%TO.P,D7,2,A*%
%TO.N,SRC_{06}*%
X155881615Y-53000000D03*
D13*
%TO.P,D7,1,K*%
%TO.N,SINK_{00}*%
X153341615Y-53000000D03*
%TD*%
D12*
%TO.P,D16,2,A*%
%TO.N,SRC_{15}*%
X166167330Y-63285714D03*
D13*
%TO.P,D16,1,K*%
%TO.N,SINK_{00}*%
X163627330Y-63285714D03*
%TD*%
D12*
%TO.P,D20,2,A*%
%TO.N,SRC_{03}*%
X125024472Y-73571428D03*
D13*
%TO.P,D20,1,K*%
%TO.N,SINK_{01}*%
X122484472Y-73571428D03*
%TD*%
D12*
%TO.P,D45,2,A*%
%TO.N,SRC_{12}*%
X135310187Y-104428571D03*
D13*
%TO.P,D45,1,K*%
%TO.N,SINK_{02}*%
X132770187Y-104428571D03*
%TD*%
D12*
%TO.P,D47,2,A*%
%TO.N,SRC_{14}*%
X155881615Y-104428571D03*
D13*
%TO.P,D47,1,K*%
%TO.N,SINK_{02}*%
X153341615Y-104428571D03*
%TD*%
D12*
%TO.P,D51,2,A*%
%TO.N,SRC_{02}*%
X114738758Y-114714285D03*
D13*
%TO.P,D51,1,K*%
%TO.N,SINK_{03}*%
X112198758Y-114714285D03*
%TD*%
D12*
%TO.P,D56,2,A*%
%TO.N,SRC_{07}*%
X166167330Y-114714285D03*
D13*
%TO.P,D56,1,K*%
%TO.N,SINK_{03}*%
X163627330Y-114714285D03*
%TD*%
D12*
%TO.P,D3,2,A*%
%TO.N,SRC_{02}*%
X114738758Y-53000000D03*
D13*
%TO.P,D3,1,K*%
%TO.N,SINK_{00}*%
X112198758Y-53000000D03*
%TD*%
D12*
%TO.P,D58,2,A*%
%TO.N,SRC_{09}*%
X104453044Y-125000000D03*
D13*
%TO.P,D58,1,K*%
%TO.N,SINK_{03}*%
X101913044Y-125000000D03*
%TD*%
D12*
%TO.P,D13,2,A*%
%TO.N,SRC_{12}*%
X135310187Y-63285714D03*
D13*
%TO.P,D13,1,K*%
%TO.N,SINK_{00}*%
X132770187Y-63285714D03*
%TD*%
D12*
%TO.P,D25,2,A*%
%TO.N,SRC_{08}*%
X94167330Y-83857142D03*
D13*
%TO.P,D25,1,K*%
%TO.N,SINK_{01}*%
X91627330Y-83857142D03*
%TD*%
D12*
%TO.P,D44,2,A*%
%TO.N,SRC_{11}*%
X125024472Y-104428571D03*
D13*
%TO.P,D44,1,K*%
%TO.N,SINK_{02}*%
X122484472Y-104428571D03*
%TD*%
D12*
%TO.P,D41,2,A*%
%TO.N,SRC_{08}*%
X94167330Y-104428571D03*
D13*
%TO.P,D41,1,K*%
%TO.N,SINK_{02}*%
X91627330Y-104428571D03*
%TD*%
D12*
%TO.P,D48,2,A*%
%TO.N,SRC_{15}*%
X166167330Y-104428571D03*
D13*
%TO.P,D48,1,K*%
%TO.N,SINK_{02}*%
X163627330Y-104428571D03*
%TD*%
%TO.P,D1,1,K*%
%TO.N,SINK_{00}*%
X91627330Y-53000000D03*
D12*
%TO.P,D1,2,A*%
%TO.N,SRC_{00}*%
X94167330Y-53000000D03*
%TD*%
%TO.P,D38,2,A*%
%TO.N,SRC_{05}*%
X145595901Y-94142857D03*
D13*
%TO.P,D38,1,K*%
%TO.N,SINK_{02}*%
X143055901Y-94142857D03*
%TD*%
D12*
%TO.P,D61,2,A*%
%TO.N,SRC_{12}*%
X135310187Y-125000000D03*
D13*
%TO.P,D61,1,K*%
%TO.N,SINK_{03}*%
X132770187Y-125000000D03*
%TD*%
D12*
%TO.P,D15,2,A*%
%TO.N,SRC_{14}*%
X155881615Y-63285714D03*
D13*
%TO.P,D15,1,K*%
%TO.N,SINK_{00}*%
X153341615Y-63285714D03*
%TD*%
D12*
%TO.P,D10,2,A*%
%TO.N,SRC_{09}*%
X104453044Y-63285714D03*
D13*
%TO.P,D10,1,K*%
%TO.N,SINK_{00}*%
X101913044Y-63285714D03*
%TD*%
D12*
%TO.P,D9,2,A*%
%TO.N,SRC_{08}*%
X94167330Y-63285714D03*
D13*
%TO.P,D9,1,K*%
%TO.N,SINK_{00}*%
X91627330Y-63285714D03*
%TD*%
D12*
%TO.P,D2,2,A*%
%TO.N,SRC_{01}*%
X104453044Y-53000000D03*
D13*
%TO.P,D2,1,K*%
%TO.N,SINK_{00}*%
X101913044Y-53000000D03*
%TD*%
D12*
%TO.P,D59,2,A*%
%TO.N,SRC_{10}*%
X114738758Y-125000000D03*
D13*
%TO.P,D59,1,K*%
%TO.N,SINK_{03}*%
X112198758Y-125000000D03*
%TD*%
D12*
%TO.P,D22,2,A*%
%TO.N,SRC_{05}*%
X145595901Y-73571428D03*
D13*
%TO.P,D22,1,K*%
%TO.N,SINK_{01}*%
X143055901Y-73571428D03*
%TD*%
D12*
%TO.P,D8,2,A*%
%TO.N,SRC_{07}*%
X166167330Y-53000000D03*
D13*
%TO.P,D8,1,K*%
%TO.N,SINK_{00}*%
X163627330Y-53000000D03*
%TD*%
D12*
%TO.P,D11,2,A*%
%TO.N,SRC_{10}*%
X114738758Y-63285714D03*
D13*
%TO.P,D11,1,K*%
%TO.N,SINK_{00}*%
X112198758Y-63285714D03*
%TD*%
D12*
%TO.P,D62,2,A*%
%TO.N,SRC_{13}*%
X145595901Y-125000000D03*
D13*
%TO.P,D62,1,K*%
%TO.N,SINK_{03}*%
X143055901Y-125000000D03*
%TD*%
D12*
%TO.P,D53,2,A*%
%TO.N,SRC_{04}*%
X135310187Y-114714285D03*
D13*
%TO.P,D53,1,K*%
%TO.N,SINK_{03}*%
X132770187Y-114714285D03*
%TD*%
D12*
%TO.P,D40,2,A*%
%TO.N,SRC_{07}*%
X166167330Y-94142857D03*
D13*
%TO.P,D40,1,K*%
%TO.N,SINK_{02}*%
X163627330Y-94142857D03*
%TD*%
D12*
%TO.P,D19,2,A*%
%TO.N,SRC_{02}*%
X114738758Y-73571428D03*
D13*
%TO.P,D19,1,K*%
%TO.N,SINK_{01}*%
X112198758Y-73571428D03*
%TD*%
D12*
%TO.P,D28,2,A*%
%TO.N,SRC_{11}*%
X125024472Y-83857142D03*
D13*
%TO.P,D28,1,K*%
%TO.N,SINK_{01}*%
X122484472Y-83857142D03*
%TD*%
D12*
%TO.P,D64,2,A*%
%TO.N,SRC_{15}*%
X166167330Y-125000000D03*
D13*
%TO.P,D64,1,K*%
%TO.N,SINK_{03}*%
X163627330Y-125000000D03*
%TD*%
D12*
%TO.P,D60,2,A*%
%TO.N,SRC_{11}*%
X125024472Y-125000000D03*
D13*
%TO.P,D60,1,K*%
%TO.N,SINK_{03}*%
X122484472Y-125000000D03*
%TD*%
D12*
%TO.P,D26,2,A*%
%TO.N,SRC_{09}*%
X104453044Y-83857142D03*
D13*
%TO.P,D26,1,K*%
%TO.N,SINK_{01}*%
X101913044Y-83857142D03*
%TD*%
D12*
%TO.P,D12,2,A*%
%TO.N,SRC_{11}*%
X125024472Y-63285714D03*
D13*
%TO.P,D12,1,K*%
%TO.N,SINK_{00}*%
X122484472Y-63285714D03*
%TD*%
D12*
%TO.P,D43,2,A*%
%TO.N,SRC_{10}*%
X114738758Y-104428571D03*
D13*
%TO.P,D43,1,K*%
%TO.N,SINK_{02}*%
X112198758Y-104428571D03*
%TD*%
D12*
%TO.P,D57,2,A*%
%TO.N,SRC_{08}*%
X94167330Y-125000000D03*
D13*
%TO.P,D57,1,K*%
%TO.N,SINK_{03}*%
X91627330Y-125000000D03*
%TD*%
D12*
%TO.P,D21,2,A*%
%TO.N,SRC_{04}*%
X135310187Y-73571428D03*
D13*
%TO.P,D21,1,K*%
%TO.N,SINK_{01}*%
X132770187Y-73571428D03*
%TD*%
D12*
%TO.P,D6,2,A*%
%TO.N,SRC_{05}*%
X145595901Y-53000000D03*
D13*
%TO.P,D6,1,K*%
%TO.N,SINK_{00}*%
X143055901Y-53000000D03*
%TD*%
D12*
%TO.P,D14,2,A*%
%TO.N,SRC_{13}*%
X145595901Y-63285714D03*
D13*
%TO.P,D14,1,K*%
%TO.N,SINK_{00}*%
X143055901Y-63285714D03*
%TD*%
D12*
%TO.P,D30,2,A*%
%TO.N,SRC_{13}*%
X145595901Y-83857142D03*
D13*
%TO.P,D30,1,K*%
%TO.N,SINK_{01}*%
X143055901Y-83857142D03*
%TD*%
D12*
%TO.P,D27,2,A*%
%TO.N,SRC_{10}*%
X114738758Y-83857142D03*
D13*
%TO.P,D27,1,K*%
%TO.N,SINK_{01}*%
X112198758Y-83857142D03*
%TD*%
D12*
%TO.P,D4,2,A*%
%TO.N,SRC_{03}*%
X125024472Y-53000000D03*
D13*
%TO.P,D4,1,K*%
%TO.N,SINK_{00}*%
X122484472Y-53000000D03*
%TD*%
D12*
%TO.P,D42,2,A*%
%TO.N,SRC_{09}*%
X104453044Y-104428571D03*
D13*
%TO.P,D42,1,K*%
%TO.N,SINK_{02}*%
X101913044Y-104428571D03*
%TD*%
D12*
%TO.P,D32,2,A*%
%TO.N,SRC_{15}*%
X166167330Y-83857142D03*
D13*
%TO.P,D32,1,K*%
%TO.N,SINK_{01}*%
X163627330Y-83857142D03*
%TD*%
D12*
%TO.P,D33,2,A*%
%TO.N,SRC_{00}*%
X94167330Y-94142857D03*
D13*
%TO.P,D33,1,K*%
%TO.N,SINK_{02}*%
X91627330Y-94142857D03*
%TD*%
D12*
%TO.P,D54,2,A*%
%TO.N,SRC_{05}*%
X145595901Y-114714285D03*
D13*
%TO.P,D54,1,K*%
%TO.N,SINK_{03}*%
X143055901Y-114714285D03*
%TD*%
D12*
%TO.P,D55,2,A*%
%TO.N,SRC_{06}*%
X155881615Y-114714285D03*
D13*
%TO.P,D55,1,K*%
%TO.N,SINK_{03}*%
X153341615Y-114714285D03*
%TD*%
D12*
%TO.P,D52,2,A*%
%TO.N,SRC_{03}*%
X125024472Y-114714285D03*
D13*
%TO.P,D52,1,K*%
%TO.N,SINK_{03}*%
X122484472Y-114714285D03*
%TD*%
D12*
%TO.P,D18,2,A*%
%TO.N,SRC_{01}*%
X104453044Y-73571428D03*
D13*
%TO.P,D18,1,K*%
%TO.N,SINK_{01}*%
X101913044Y-73571428D03*
%TD*%
D12*
%TO.P,D63,2,A*%
%TO.N,SRC_{14}*%
X155881615Y-125000000D03*
D13*
%TO.P,D63,1,K*%
%TO.N,SINK_{03}*%
X153341615Y-125000000D03*
%TD*%
D12*
%TO.P,D37,2,A*%
%TO.N,SRC_{04}*%
X135310187Y-94142857D03*
D13*
%TO.P,D37,1,K*%
%TO.N,SINK_{02}*%
X132770187Y-94142857D03*
%TD*%
D12*
%TO.P,D36,2,A*%
%TO.N,SRC_{03}*%
X125024472Y-94142857D03*
D13*
%TO.P,D36,1,K*%
%TO.N,SINK_{02}*%
X122484472Y-94142857D03*
%TD*%
D12*
%TO.P,D23,2,A*%
%TO.N,SRC_{06}*%
X155881615Y-73571428D03*
D13*
%TO.P,D23,1,K*%
%TO.N,SINK_{01}*%
X153341615Y-73571428D03*
%TD*%
D12*
%TO.P,D5,2,A*%
%TO.N,SRC_{04}*%
X135310187Y-53000000D03*
D13*
%TO.P,D5,1,K*%
%TO.N,SINK_{00}*%
X132770187Y-53000000D03*
%TD*%
D12*
%TO.P,D35,2,A*%
%TO.N,SRC_{02}*%
X114738758Y-94142857D03*
D13*
%TO.P,D35,1,K*%
%TO.N,SINK_{02}*%
X112198758Y-94142857D03*
%TD*%
D12*
%TO.P,D29,2,A*%
%TO.N,SRC_{12}*%
X135310187Y-83857142D03*
D13*
%TO.P,D29,1,K*%
%TO.N,SINK_{01}*%
X132770187Y-83857142D03*
%TD*%
D12*
%TO.P,D24,2,A*%
%TO.N,SRC_{07}*%
X166167330Y-73571428D03*
D13*
%TO.P,D24,1,K*%
%TO.N,SINK_{01}*%
X163627330Y-73571428D03*
%TD*%
D12*
%TO.P,D49,2,A*%
%TO.N,SRC_{00}*%
X94167330Y-114714285D03*
D13*
%TO.P,D49,1,K*%
%TO.N,SINK_{03}*%
X91627330Y-114714285D03*
%TD*%
D14*
%TO.N,SRC_{11}*%
X125127330Y-100500000D03*
%TO.N,SRC_{09}*%
X104627330Y-100500000D03*
%TO.N,SRC_{07}*%
X166127330Y-90500000D03*
%TO.N,SRC_{06}*%
X155627330Y-98500000D03*
%TO.N,SRC_{04}*%
X135627330Y-101500000D03*
%TO.N,SRC_{05}*%
X148127330Y-50500000D03*
%TD*%
D15*
%TO.N,SINK_{03}*%
X123785472Y-123699000D02*
X131469187Y-123699000D01*
%TO.N,SINK_{01}*%
X100612044Y-72270428D02*
X101913044Y-73571428D01*
%TO.N,SINK_{00}*%
X110897758Y-61984714D02*
X112198758Y-63285714D01*
%TO.N,SINK_{02}*%
X122484472Y-104428571D02*
X123785472Y-103127571D01*
%TO.N,SINK_{00}*%
X121183472Y-61984714D02*
X122484472Y-63285714D01*
%TO.N,SINK_{01}*%
X101913044Y-83857142D02*
X103214044Y-82556142D01*
%TO.N,SINK_{03}*%
X153341615Y-114714285D02*
X151627330Y-113000000D01*
%TO.N,SINK_{02}*%
X152040615Y-92841857D02*
X153341615Y-94142857D01*
%TO.N,SINK_{00}*%
X132770187Y-63285714D02*
X134071187Y-61984714D01*
X173167330Y-72825714D02*
X163627330Y-63285714D01*
X123785472Y-51699000D02*
X131469187Y-51699000D01*
%TO.N,SINK_{03}*%
X113499758Y-113413285D02*
X121183472Y-113413285D01*
D16*
%TO.N,SRC_{09}*%
X108981473Y-96145857D02*
X104627330Y-100500000D01*
D15*
%TO.N,SINK_{03}*%
X154841615Y-123500000D02*
X153341615Y-125000000D01*
%TO.N,SINK_{00}*%
X122484472Y-63285714D02*
X123785472Y-61984714D01*
%TO.N,SINK_{02}*%
X92928330Y-92841857D02*
X100612044Y-92841857D01*
%TO.N,SINK_{01}*%
X121183472Y-72270428D02*
X122484472Y-73571428D01*
X113555900Y-82500000D02*
X121127330Y-82500000D01*
D16*
%TO.N,SRC_{07}*%
X166167330Y-90540000D02*
X166167330Y-94142857D01*
D15*
%TO.N,SINK_{02}*%
X121183472Y-103127571D02*
X122484472Y-104428571D01*
%TO.N,SINK_{01}*%
X141754901Y-72270428D02*
X143055901Y-73571428D01*
%TO.N,SINK_{02}*%
X153341615Y-94142857D02*
X154984472Y-92500000D01*
%TO.N,SINK_{01}*%
X110897758Y-82556142D02*
X112198758Y-83857142D01*
%TO.N,SINK_{03}*%
X121183472Y-113413285D02*
X122484472Y-114714285D01*
%TO.N,SINK_{00}*%
X100612044Y-51699000D02*
X101913044Y-53000000D01*
%TO.N,SINK_{02}*%
X143055901Y-94142857D02*
X144356901Y-92841857D01*
%TO.N,SINK_{01}*%
X162055902Y-72000000D02*
X154913043Y-72000000D01*
X144356901Y-72270428D02*
X152040615Y-72270428D01*
%TO.N,SINK_{02}*%
X163627330Y-89000000D02*
X168775330Y-83852000D01*
D16*
%TO.N,SRC_{09}*%
X167361473Y-96145857D02*
X108981473Y-96145857D01*
D15*
%TO.N,SINK_{01}*%
X131469187Y-72270428D02*
X132770187Y-73571428D01*
%TO.N,SINK_{00}*%
X143055901Y-63285714D02*
X144356901Y-61984714D01*
%TO.N,SINK_{03}*%
X162127330Y-123500000D02*
X154841615Y-123500000D01*
%TO.N,SINK_{00}*%
X162127330Y-51500000D02*
X154841615Y-51500000D01*
%TO.N,SINK_{01}*%
X100612044Y-82556142D02*
X101913044Y-83857142D01*
%TO.N,SINK_{03}*%
X152040615Y-123699000D02*
X153341615Y-125000000D01*
X113499758Y-123699000D02*
X121183472Y-123699000D01*
%TO.N,SINK_{00}*%
X162326330Y-61984714D02*
X163627330Y-63285714D01*
%TO.N,SINK_{01}*%
X112198758Y-73571428D02*
X113499758Y-72270428D01*
%TO.N,SINK_{00}*%
X154642615Y-61984714D02*
X162326330Y-61984714D01*
%TO.N,SINK_{02}*%
X132770187Y-94142857D02*
X134071187Y-92841857D01*
%TO.N,SINK_{00}*%
X113499758Y-51699000D02*
X121183472Y-51699000D01*
X123785472Y-61984714D02*
X131469187Y-61984714D01*
X173167330Y-77640000D02*
X173167330Y-72825714D01*
%TO.N,SINK_{03}*%
X151627330Y-113000000D02*
X144770186Y-113000000D01*
%TO.N,SINK_{00}*%
X152040615Y-61984714D02*
X153341615Y-63285714D01*
%TO.N,SINK_{03}*%
X143055901Y-114714285D02*
X141754901Y-113413285D01*
%TO.N,SINK_{00}*%
X150140614Y-49799000D02*
X153341615Y-53000000D01*
X146256901Y-49799000D02*
X150140614Y-49799000D01*
%TO.N,SINK_{01}*%
X91627330Y-73571428D02*
X92928330Y-72270428D01*
D16*
%TO.N,SRC_{06}*%
X165574430Y-98500000D02*
X155627330Y-98500000D01*
D15*
%TO.N,SINK_{03}*%
X163627330Y-114714285D02*
X174819330Y-103522286D01*
X100612044Y-123699000D02*
X101913044Y-125000000D01*
D16*
%TO.N,SRC_{01}*%
X167368330Y-94640328D02*
X166664801Y-95343857D01*
D15*
%TO.N,SINK_{03}*%
X101913044Y-125000000D02*
X103214044Y-123699000D01*
X163627330Y-125000000D02*
X163627330Y-114714285D01*
%TO.N,SINK_{01}*%
X122484472Y-73571428D02*
X123785472Y-72270428D01*
%TO.N,SINK_{00}*%
X92928330Y-61984714D02*
X100612044Y-61984714D01*
%TO.N,SINK_{01}*%
X154913043Y-72000000D02*
X153341615Y-73571428D01*
%TO.N,SINK_{03}*%
X123785472Y-113413285D02*
X131469187Y-113413285D01*
X122484472Y-114714285D02*
X123785472Y-113413285D01*
X91627330Y-114714285D02*
X92928330Y-113413285D01*
X112198758Y-125000000D02*
X113499758Y-123699000D01*
%TO.N,SINK_{01}*%
X123785472Y-82556142D02*
X131469187Y-82556142D01*
%TO.N,SINK_{03}*%
X163627330Y-125000000D02*
X162127330Y-123500000D01*
%TO.N,SINK_{01}*%
X103214044Y-82556142D02*
X110897758Y-82556142D01*
%TO.N,SINK_{00}*%
X91627330Y-63285714D02*
X92928330Y-61984714D01*
%TO.N,SINK_{01}*%
X152040615Y-72270428D02*
X153341615Y-73571428D01*
%TO.N,SINK_{02}*%
X91627330Y-94142857D02*
X92928330Y-92841857D01*
X122484472Y-94142857D02*
X123785472Y-92841857D01*
%TO.N,SINK_{03}*%
X131469187Y-123699000D02*
X132770187Y-125000000D01*
%TO.N,SINK_{02}*%
X101913044Y-94142857D02*
X103214044Y-92841857D01*
D16*
%TO.N,SRC_{13}*%
X151667330Y-110500000D02*
X145595901Y-104428571D01*
D15*
%TO.N,SINK_{03}*%
X91627330Y-125000000D02*
X92928330Y-123699000D01*
%TO.N,SINK_{00}*%
X134071187Y-61984714D02*
X141754901Y-61984714D01*
%TO.N,SINK_{03}*%
X92928330Y-123699000D02*
X100612044Y-123699000D01*
%TO.N,SINK_{02}*%
X134071187Y-92841857D02*
X141754901Y-92841857D01*
X132770187Y-104428571D02*
X134071187Y-103127571D01*
%TO.N,SINK_{01}*%
X101913044Y-73571428D02*
X103214044Y-72270428D01*
%TO.N,SINK_{03}*%
X100612044Y-113413285D02*
X101913044Y-114714285D01*
%TO.N,SINK_{02}*%
X110897758Y-92841857D02*
X112198758Y-94142857D01*
%TO.N,SINK_{00}*%
X92928330Y-51699000D02*
X100612044Y-51699000D01*
D16*
%TO.N,SRC_{06}*%
X171104090Y-94031000D02*
X170043430Y-94031000D01*
D15*
%TO.N,SINK_{00}*%
X132770187Y-53000000D02*
X134270187Y-51500000D01*
%TO.N,SINK_{01}*%
X110897758Y-72270428D02*
X112198758Y-73571428D01*
%TO.N,SINK_{03}*%
X110897758Y-123699000D02*
X112198758Y-125000000D01*
%TO.N,SINK_{02}*%
X144356901Y-103127571D02*
X152040615Y-103127571D01*
X154984472Y-92500000D02*
X161984473Y-92500000D01*
%TO.N,SINK_{00}*%
X110897758Y-51699000D02*
X112198758Y-53000000D01*
%TO.N,SINK_{01}*%
X103214044Y-72270428D02*
X110897758Y-72270428D01*
D16*
%TO.N,SRC_{05}*%
X146611615Y-51984285D02*
X145595901Y-53000000D01*
D15*
%TO.N,SINK_{02}*%
X91627330Y-94142857D02*
X91627330Y-104428571D01*
%TO.N,SINK_{01}*%
X163627330Y-73571428D02*
X162055902Y-72000000D01*
D16*
%TO.N,SRC_{00}*%
X167769330Y-94806428D02*
X166830901Y-95744857D01*
D15*
%TO.N,SINK_{02}*%
X112198758Y-94142857D02*
X113499758Y-92841857D01*
D16*
%TO.N,SRC_{04}*%
X165221570Y-101500000D02*
X135627330Y-101500000D01*
X173644090Y-94031000D02*
X172690570Y-94031000D01*
D15*
%TO.N,SINK_{01}*%
X143055901Y-83857142D02*
X144356901Y-82556142D01*
X121127330Y-82500000D02*
X122484472Y-83857142D01*
X153341615Y-83857142D02*
X154642615Y-82556142D01*
D16*
%TO.N,SRC_{13}*%
X172016330Y-105611000D02*
X167127330Y-110500000D01*
D15*
%TO.N,SINK_{01}*%
X112198758Y-83857142D02*
X113555900Y-82500000D01*
D16*
%TO.N,SRC_{07}*%
X166127330Y-90500000D02*
X166167330Y-90540000D01*
D15*
%TO.N,SINK_{03}*%
X112198758Y-114714285D02*
X113499758Y-113413285D01*
%TO.N,SINK_{02}*%
X121183472Y-92841857D02*
X122484472Y-94142857D01*
%TO.N,SINK_{01}*%
X154642615Y-82556142D02*
X162326330Y-82556142D01*
%TO.N,SINK_{03}*%
X91627330Y-114714285D02*
X91627330Y-125000000D01*
D16*
%TO.N,SRC_{13}*%
X172016330Y-99349000D02*
X172016330Y-105611000D01*
%TO.N,SRC_{00}*%
X167769330Y-86358000D02*
X167769330Y-94806428D01*
D15*
%TO.N,SINK_{03}*%
X92928330Y-113413285D02*
X100612044Y-113413285D01*
X103214044Y-113413285D02*
X110897758Y-113413285D01*
X110897758Y-113413285D02*
X112198758Y-114714285D01*
X174819330Y-103522286D02*
X174819330Y-82602818D01*
%TO.N,SINK_{02}*%
X143055901Y-104428571D02*
X144356901Y-103127571D01*
D16*
%TO.N,SRC_{09}*%
X170627330Y-92880000D02*
X167361473Y-96145857D01*
D15*
%TO.N,SINK_{01}*%
X170627330Y-77640000D02*
X167695902Y-77640000D01*
X91627330Y-83857142D02*
X92928330Y-82556142D01*
D16*
%TO.N,SRC_{00}*%
X166830901Y-95744857D02*
X95769330Y-95744857D01*
%TO.N,SRC_{04}*%
X171778330Y-94943240D02*
X171778330Y-95896760D01*
X171104090Y-96571000D02*
X170150570Y-96571000D01*
X174318330Y-93356760D02*
X173644090Y-94031000D01*
D15*
%TO.N,SINK_{01}*%
X141754901Y-82556142D02*
X143055901Y-83857142D01*
%TO.N,SINK_{03}*%
X101913044Y-114714285D02*
X103214044Y-113413285D01*
D16*
%TO.N,SRC_{00}*%
X95769330Y-95744857D02*
X94167330Y-94142857D01*
%TO.N,SRC_{04}*%
X174318330Y-88951000D02*
X174318330Y-93356760D01*
X170150570Y-96571000D02*
X165221570Y-101500000D01*
X173167330Y-87800000D02*
X174318330Y-88951000D01*
D15*
%TO.N,SINK_{03}*%
X141754901Y-113413285D02*
X134071187Y-113413285D01*
%TO.N,SINK_{02}*%
X154642615Y-103127571D02*
X162326330Y-103127571D01*
X162326330Y-103127571D02*
X163627330Y-104428571D01*
X153341615Y-104428571D02*
X154642615Y-103127571D01*
%TO.N,SINK_{00}*%
X163627330Y-53000000D02*
X162127330Y-51500000D01*
D16*
%TO.N,SRC_{06}*%
X171778330Y-93356760D02*
X171104090Y-94031000D01*
D15*
%TO.N,SINK_{00}*%
X112198758Y-53000000D02*
X113499758Y-51699000D01*
X163627330Y-63285714D02*
X163627330Y-53000000D01*
%TO.N,SINK_{02}*%
X171916330Y-78929000D02*
X173167330Y-80180000D01*
D16*
%TO.N,SRC_{00}*%
X173167330Y-82720000D02*
X172016330Y-83871000D01*
D15*
%TO.N,SINK_{02}*%
X123785472Y-103127571D02*
X131469187Y-103127571D01*
%TO.N,SINK_{01}*%
X91627330Y-83857142D02*
X91627330Y-73571428D01*
%TO.N,SINK_{03}*%
X134071187Y-113413285D02*
X132770187Y-114714285D01*
D16*
%TO.N,SRC_{06}*%
X173167330Y-90340000D02*
X171778330Y-91729000D01*
D15*
%TO.N,SINK_{01}*%
X122484472Y-83857142D02*
X123785472Y-82556142D01*
D16*
%TO.N,SRC_{01}*%
X166664801Y-95343857D02*
X105654044Y-95343857D01*
D15*
%TO.N,SINK_{02}*%
X141754901Y-92841857D02*
X143055901Y-94142857D01*
X91627330Y-104428571D02*
X92928330Y-103127571D01*
%TO.N,SINK_{01}*%
X143055901Y-73571428D02*
X144356901Y-72270428D01*
%TO.N,SINK_{00}*%
X153341615Y-63285714D02*
X154642615Y-61984714D01*
D16*
%TO.N,SRC_{13}*%
X170627330Y-97960000D02*
X172016330Y-99349000D01*
%TO.N,SRC_{00}*%
X172016330Y-83871000D02*
X170256330Y-83871000D01*
D15*
%TO.N,SINK_{03}*%
X171916330Y-81469000D02*
X170627330Y-80180000D01*
%TO.N,SINK_{02}*%
X103214044Y-103127571D02*
X110897758Y-103127571D01*
%TO.N,SINK_{03}*%
X154642615Y-113413285D02*
X153341615Y-114714285D01*
%TO.N,SINK_{00}*%
X112198758Y-63285714D02*
X113499758Y-61984714D01*
%TO.N,SINK_{03}*%
X103214044Y-123699000D02*
X110897758Y-123699000D01*
%TO.N,SINK_{01}*%
X132770187Y-83857142D02*
X134071187Y-82556142D01*
%TO.N,SINK_{02}*%
X110897758Y-103127571D02*
X112198758Y-104428571D01*
%TO.N,SINK_{01}*%
X152040615Y-82556142D02*
X153341615Y-83857142D01*
D16*
%TO.N,SRC_{06}*%
X170043430Y-94031000D02*
X165574430Y-98500000D01*
D15*
%TO.N,SINK_{02}*%
X168775330Y-83852000D02*
X168775330Y-80262818D01*
%TO.N,SINK_{03}*%
X144356901Y-123699000D02*
X152040615Y-123699000D01*
%TO.N,SINK_{01}*%
X134071187Y-82556142D02*
X141754901Y-82556142D01*
%TO.N,SINK_{03}*%
X143055901Y-125000000D02*
X144356901Y-123699000D01*
%TO.N,SINK_{02}*%
X141754901Y-103127571D02*
X143055901Y-104428571D01*
X92928330Y-103127571D02*
X100612044Y-103127571D01*
D16*
%TO.N,SRC_{05}*%
X146643045Y-51984285D02*
X148127330Y-50500000D01*
D15*
%TO.N,SINK_{03}*%
X122484472Y-125000000D02*
X123785472Y-123699000D01*
%TO.N,SINK_{02}*%
X113499758Y-92841857D02*
X121183472Y-92841857D01*
%TO.N,SINK_{03}*%
X144770186Y-113000000D02*
X143055901Y-114714285D01*
%TO.N,SINK_{02}*%
X112198758Y-104428571D02*
X113499758Y-103127571D01*
D16*
%TO.N,SRC_{04}*%
X172690570Y-94031000D02*
X171778330Y-94943240D01*
X171778330Y-95896760D02*
X171104090Y-96571000D01*
%TO.N,SRC_{11}*%
X165547330Y-100500000D02*
X125127330Y-100500000D01*
D15*
%TO.N,SINK_{00}*%
X141555901Y-51500000D02*
X143055901Y-53000000D01*
D16*
%TO.N,SRC_{06}*%
X171778330Y-91729000D02*
X171778330Y-93356760D01*
D15*
%TO.N,SINK_{02}*%
X163627330Y-94142857D02*
X163627330Y-89000000D01*
%TO.N,SINK_{00}*%
X134270187Y-51500000D02*
X141555901Y-51500000D01*
X101913044Y-53000000D02*
X103214044Y-51699000D01*
D16*
%TO.N,SRC_{01}*%
X105654044Y-95343857D02*
X104453044Y-94142857D01*
D15*
%TO.N,SINK_{01}*%
X144356901Y-82556142D02*
X152040615Y-82556142D01*
%TO.N,SINK_{00}*%
X91627330Y-63285714D02*
X91627330Y-53000000D01*
X143055901Y-53000000D02*
X146256901Y-49799000D01*
%TO.N,SINK_{02}*%
X113499758Y-103127571D02*
X121183472Y-103127571D01*
X100612044Y-92841857D02*
X101913044Y-94142857D01*
%TO.N,SINK_{03}*%
X134071187Y-123699000D02*
X141754901Y-123699000D01*
%TO.N,SINK_{02}*%
X100612044Y-103127571D02*
X101913044Y-104428571D01*
%TO.N,SINK_{03}*%
X141754901Y-123699000D02*
X143055901Y-125000000D01*
%TO.N,SINK_{02}*%
X161984473Y-92500000D02*
X163627330Y-94142857D01*
%TO.N,SINK_{01}*%
X163627330Y-73571428D02*
X163627330Y-83857142D01*
%TO.N,SINK_{02}*%
X170109148Y-78929000D02*
X171916330Y-78929000D01*
D16*
%TO.N,SRC_{11}*%
X170627330Y-95420000D02*
X165547330Y-100500000D01*
D15*
%TO.N,SINK_{02}*%
X152040615Y-103127571D02*
X153341615Y-104428571D01*
%TO.N,SINK_{01}*%
X123785472Y-72270428D02*
X131469187Y-72270428D01*
X134071187Y-72270428D02*
X141754901Y-72270428D01*
%TO.N,SINK_{00}*%
X101913044Y-63285714D02*
X103214044Y-61984714D01*
%TO.N,SINK_{02}*%
X103214044Y-92841857D02*
X110897758Y-92841857D01*
%TO.N,SINK_{03}*%
X173685512Y-81469000D02*
X171916330Y-81469000D01*
%TO.N,SINK_{02}*%
X168775330Y-80262818D02*
X170109148Y-78929000D01*
%TO.N,SINK_{03}*%
X132770187Y-125000000D02*
X134071187Y-123699000D01*
D16*
%TO.N,SRC_{00}*%
X170256330Y-83871000D02*
X167769330Y-86358000D01*
D15*
%TO.N,SINK_{02}*%
X144356901Y-92841857D02*
X152040615Y-92841857D01*
%TO.N,SINK_{03}*%
X174819330Y-82602818D02*
X173685512Y-81469000D01*
D16*
%TO.N,SRC_{05}*%
X146611615Y-51984285D02*
X146643045Y-51984285D01*
D15*
%TO.N,SINK_{02}*%
X123785472Y-92841857D02*
X131469187Y-92841857D01*
%TO.N,SINK_{00}*%
X103214044Y-61984714D02*
X110897758Y-61984714D01*
%TO.N,SINK_{02}*%
X131469187Y-103127571D02*
X132770187Y-104428571D01*
%TO.N,SINK_{00}*%
X121183472Y-51699000D02*
X122484472Y-53000000D01*
%TO.N,SINK_{02}*%
X101913044Y-104428571D02*
X103214044Y-103127571D01*
%TO.N,SINK_{01}*%
X92928330Y-72270428D02*
X100612044Y-72270428D01*
%TO.N,SINK_{00}*%
X144356901Y-61984714D02*
X152040615Y-61984714D01*
X91627330Y-53000000D02*
X92928330Y-51699000D01*
%TO.N,SINK_{01}*%
X113499758Y-72270428D02*
X121183472Y-72270428D01*
%TO.N,SINK_{00}*%
X131469187Y-61984714D02*
X132770187Y-63285714D01*
X122484472Y-53000000D02*
X123785472Y-51699000D01*
X141754901Y-61984714D02*
X143055901Y-63285714D01*
%TO.N,SINK_{01}*%
X132770187Y-73571428D02*
X134071187Y-72270428D01*
X131469187Y-82556142D02*
X132770187Y-83857142D01*
%TO.N,SINK_{00}*%
X103214044Y-51699000D02*
X110897758Y-51699000D01*
D16*
%TO.N,SRC_{01}*%
X170627330Y-82720000D02*
X167368330Y-85979000D01*
X167368330Y-85979000D02*
X167368330Y-94640328D01*
D15*
%TO.N,SINK_{01}*%
X162326330Y-82556142D02*
X163627330Y-83857142D01*
%TO.N,SINK_{03}*%
X121183472Y-123699000D02*
X122484472Y-125000000D01*
X162326330Y-113413285D02*
X154642615Y-113413285D01*
%TO.N,SINK_{02}*%
X131469187Y-92841857D02*
X132770187Y-94142857D01*
X134071187Y-103127571D02*
X141754901Y-103127571D01*
%TO.N,SINK_{01}*%
X167695902Y-77640000D02*
X163627330Y-73571428D01*
%TO.N,SINK_{00}*%
X131469187Y-51699000D02*
X132770187Y-53000000D01*
X100612044Y-61984714D02*
X101913044Y-63285714D01*
%TO.N,SINK_{03}*%
X163627330Y-114714285D02*
X162326330Y-113413285D01*
%TO.N,SINK_{00}*%
X113499758Y-61984714D02*
X121183472Y-61984714D01*
X154841615Y-51500000D02*
X153341615Y-53000000D01*
D16*
%TO.N,SRC_{13}*%
X167127330Y-110500000D02*
X151667330Y-110500000D01*
D15*
%TO.N,SINK_{03}*%
X131469187Y-113413285D02*
X132770187Y-114714285D01*
%TO.N,SINK_{01}*%
X92928330Y-82556142D02*
X100612044Y-82556142D01*
%TD*%
M02*
