%TF.GenerationSoftware,KiCad,Pcbnew,9.0.6-9.0.6~ubuntu22.04.1*%
%TF.CreationDate,2026-01-07T10:26:54-05:00*%
%TF.ProjectId,Hyperdrift-Display-Controller,48797065-7264-4726-9966-742d44697370,rev?*%
%TF.SameCoordinates,Original*%
%TF.FileFunction,Soldermask,Top*%
%TF.FilePolarity,Negative*%
%FSLAX46Y46*%
G04 Gerber Fmt 4.6, Leading zero omitted, Abs format (unit mm)*
G04 Created by KiCad (PCBNEW 9.0.6-9.0.6~ubuntu22.04.1) date 2026-01-07 10:26:54*
%MOMM*%
%LPD*%
G01*
G04 APERTURE LIST*
G04 Aperture macros list*
%AMRoundRect*
0 Rectangle with rounded corners*
0 $1 Rounding radius*
0 $2 $3 $4 $5 $6 $7 $8 $9 X,Y pos of 4 corners*
0 Add a 4 corners polygon primitive as box body*
4,1,4,$2,$3,$4,$5,$6,$7,$8,$9,$2,$3,0*
0 Add four circle primitives for the rounded corners*
1,1,$1+$1,$2,$3*
1,1,$1+$1,$4,$5*
1,1,$1+$1,$6,$7*
1,1,$1+$1,$8,$9*
0 Add four rect primitives between the rounded corners*
20,1,$1+$1,$2,$3,$4,$5,0*
20,1,$1+$1,$4,$5,$6,$7,0*
20,1,$1+$1,$6,$7,$8,$9,0*
20,1,$1+$1,$8,$9,$2,$3,0*%
%AMFreePoly0*
4,1,6,0.500000,-0.750000,-0.650000,-0.750000,-0.150000,0.000000,-0.650000,0.750000,0.500000,0.750000,0.500000,-0.750000,0.500000,-0.750000,$1*%
%AMFreePoly1*
4,1,6,1.000000,0.000000,0.500000,-0.750000,-0.500000,-0.750000,-0.500000,0.750000,0.500000,0.750000,1.000000,0.000000,1.000000,0.000000,$1*%
G04 Aperture macros list end*
%ADD10FreePoly0,0.000000*%
%ADD11FreePoly1,0.000000*%
%ADD12FreePoly0,180.000000*%
%ADD13FreePoly1,180.000000*%
%ADD14RoundRect,0.250000X-0.600000X-0.600000X0.600000X-0.600000X0.600000X0.600000X-0.600000X0.600000X0*%
%ADD15C,1.700000*%
%ADD16C,3.200000*%
%ADD17R,1.700000X1.700000*%
%ADD18O,1.700000X1.700000*%
G04 APERTURE END LIST*
D10*
%TO.C,JP7*%
X140725000Y-60000000D03*
D11*
X139275000Y-60000000D03*
%TD*%
D12*
%TO.C,JP2*%
X127275000Y-55000000D03*
D13*
X128725000Y-55000000D03*
%TD*%
D10*
%TO.C,JP5*%
X140725000Y-50000000D03*
D11*
X139275000Y-50000000D03*
%TD*%
D14*
%TO.C,J1*%
X128000000Y-88620000D03*
D15*
X130540000Y-88620000D03*
X128000000Y-91160000D03*
X130540000Y-91160000D03*
X128000000Y-93700000D03*
X130540000Y-93700000D03*
X128000000Y-96240000D03*
X130540000Y-96240000D03*
X128000000Y-98780000D03*
X130540000Y-98780000D03*
X128000000Y-101320000D03*
X130540000Y-101320000D03*
X128000000Y-103860000D03*
X130540000Y-103860000D03*
X128000000Y-106400000D03*
X130540000Y-106400000D03*
X128000000Y-108940000D03*
X130540000Y-108940000D03*
X128000000Y-111480000D03*
X130540000Y-111480000D03*
%TD*%
D16*
%TO.C,H1*%
X84000000Y-51500000D03*
%TD*%
D14*
%TO.C,J4*%
X85500000Y-88000000D03*
D15*
X88040000Y-88000000D03*
X85500000Y-90540000D03*
X88040000Y-90540000D03*
X85500000Y-93080000D03*
X88040000Y-93080000D03*
X85500000Y-95620000D03*
X88040000Y-95620000D03*
X85500000Y-98160000D03*
X88040000Y-98160000D03*
%TD*%
D16*
%TO.C,H3*%
X174000000Y-116500000D03*
%TD*%
D17*
%TO.C,J6*%
X169000000Y-64140000D03*
D18*
X169000000Y-66680000D03*
X169000000Y-69220000D03*
X169000000Y-71760000D03*
X169000000Y-74300000D03*
X169000000Y-76840000D03*
X169000000Y-79380000D03*
X169000000Y-81920000D03*
X169000000Y-84460000D03*
X169000000Y-87000000D03*
%TD*%
D11*
%TO.C,JP8*%
X139275000Y-65000000D03*
D10*
X140725000Y-65000000D03*
%TD*%
D13*
%TO.C,JP4*%
X128725000Y-65000000D03*
D12*
X127275000Y-65000000D03*
%TD*%
D14*
%TO.C,J2*%
X141960000Y-88620000D03*
D15*
X144500000Y-88620000D03*
X141960000Y-91160000D03*
X144500000Y-91160000D03*
X141960000Y-93700000D03*
X144500000Y-93700000D03*
X141960000Y-96240000D03*
X144500000Y-96240000D03*
X141960000Y-98780000D03*
X144500000Y-98780000D03*
X141960000Y-101320000D03*
X144500000Y-101320000D03*
X141960000Y-103860000D03*
X144500000Y-103860000D03*
X141960000Y-106400000D03*
X144500000Y-106400000D03*
X141960000Y-108940000D03*
X144500000Y-108940000D03*
X141960000Y-111480000D03*
X144500000Y-111480000D03*
%TD*%
D16*
%TO.C,H2*%
X174000000Y-51500000D03*
%TD*%
D10*
%TO.C,JP6*%
X140725000Y-55000000D03*
D11*
X139275000Y-55000000D03*
%TD*%
D14*
%TO.C,J5*%
X169000000Y-96840000D03*
D15*
X171540000Y-96840000D03*
X169000000Y-99380000D03*
X171540000Y-99380000D03*
X169000000Y-101920000D03*
X171540000Y-101920000D03*
X169000000Y-104460000D03*
X171540000Y-104460000D03*
X169000000Y-107000000D03*
X171540000Y-107000000D03*
%TD*%
D14*
%TO.C,J3*%
X155960000Y-88620000D03*
D15*
X158500000Y-88620000D03*
X155960000Y-91160000D03*
X158500000Y-91160000D03*
X155960000Y-93700000D03*
X158500000Y-93700000D03*
X155960000Y-96240000D03*
X158500000Y-96240000D03*
X155960000Y-98780000D03*
X158500000Y-98780000D03*
X155960000Y-101320000D03*
X158500000Y-101320000D03*
X155960000Y-103860000D03*
X158500000Y-103860000D03*
X155960000Y-106400000D03*
X158500000Y-106400000D03*
X155960000Y-108940000D03*
X158500000Y-108940000D03*
X155960000Y-111480000D03*
X158500000Y-111480000D03*
%TD*%
D16*
%TO.C,H4*%
X84000000Y-116500000D03*
%TD*%
D12*
%TO.C,JP3*%
X127275000Y-60000000D03*
D13*
X128725000Y-60000000D03*
%TD*%
D12*
%TO.C,JP1*%
X127275000Y-50000000D03*
D13*
X128725000Y-50000000D03*
%TD*%
M02*
