%TF.GenerationSoftware,KiCad,Pcbnew,9.0.6-9.0.6~ubuntu22.04.1*%
%TF.CreationDate,2026-01-07T10:52:52-05:00*%
%TF.ProjectId,Hyperdrift-Display-Controller,48797065-7264-4726-9966-742d44697370,rev?*%
%TF.SameCoordinates,Original*%
%TF.FileFunction,Paste,Bot*%
%TF.FilePolarity,Positive*%
%FSLAX46Y46*%
G04 Gerber Fmt 4.6, Leading zero omitted, Abs format (unit mm)*
G04 Created by KiCad (PCBNEW 9.0.6-9.0.6~ubuntu22.04.1) date 2026-01-07 10:52:52*
%MOMM*%
%LPD*%
G01*
G04 APERTURE LIST*
G04 Aperture macros list*
%AMRoundRect*
0 Rectangle with rounded corners*
0 $1 Rounding radius*
0 $2 $3 $4 $5 $6 $7 $8 $9 X,Y pos of 4 corners*
0 Add a 4 corners polygon primitive as box body*
4,1,4,$2,$3,$4,$5,$6,$7,$8,$9,$2,$3,0*
0 Add four circle primitives for the rounded corners*
1,1,$1+$1,$2,$3*
1,1,$1+$1,$4,$5*
1,1,$1+$1,$6,$7*
1,1,$1+$1,$8,$9*
0 Add four rect primitives between the rounded corners*
20,1,$1+$1,$2,$3,$4,$5,0*
20,1,$1+$1,$4,$5,$6,$7,0*
20,1,$1+$1,$6,$7,$8,$9,0*
20,1,$1+$1,$8,$9,$2,$3,0*%
G04 Aperture macros list end*
%ADD10RoundRect,0.250000X-0.350000X-0.450000X0.350000X-0.450000X0.350000X0.450000X-0.350000X0.450000X0*%
%ADD11R,1.400000X3.000000*%
%ADD12RoundRect,0.250000X0.537500X0.425000X-0.537500X0.425000X-0.537500X-0.425000X0.537500X-0.425000X0*%
%ADD13RoundRect,0.250000X0.350000X0.450000X-0.350000X0.450000X-0.350000X-0.450000X0.350000X-0.450000X0*%
%ADD14RoundRect,0.250000X-0.625000X0.400000X-0.625000X-0.400000X0.625000X-0.400000X0.625000X0.400000X0*%
%ADD15RoundRect,0.250000X-0.900000X1.000000X-0.900000X-1.000000X0.900000X-1.000000X0.900000X1.000000X0*%
%ADD16RoundRect,0.250000X0.250000X0.475000X-0.250000X0.475000X-0.250000X-0.475000X0.250000X-0.475000X0*%
%ADD17RoundRect,0.250000X-0.475000X0.250000X-0.475000X-0.250000X0.475000X-0.250000X0.475000X0.250000X0*%
%ADD18R,1.600000X1.800000*%
%ADD19RoundRect,0.375000X0.375000X-0.625000X0.375000X0.625000X-0.375000X0.625000X-0.375000X-0.625000X0*%
%ADD20RoundRect,0.500000X1.400000X-0.500000X1.400000X0.500000X-1.400000X0.500000X-1.400000X-0.500000X0*%
%ADD21RoundRect,0.250000X-0.255000X0.255000X-0.255000X-0.255000X0.255000X-0.255000X0.255000X0.255000X0*%
%ADD22RoundRect,0.075000X-0.075000X0.662500X-0.075000X-0.662500X0.075000X-0.662500X0.075000X0.662500X0*%
%ADD23RoundRect,0.075000X-0.662500X0.075000X-0.662500X-0.075000X0.662500X-0.075000X0.662500X0.075000X0*%
G04 APERTURE END LIST*
D10*
%TO.C,R3*%
X157000000Y-74500000D03*
X159000000Y-74500000D03*
%TD*%
D11*
%TO.C,C3*%
X124000000Y-73000000D03*
X124000000Y-77800000D03*
%TD*%
D12*
%TO.C,C9*%
X131437500Y-78120000D03*
X128562500Y-78120000D03*
%TD*%
D13*
%TO.C,R6*%
X137500000Y-65000000D03*
X135500000Y-65000000D03*
%TD*%
D14*
%TO.C,RV1*%
X91500000Y-88200000D03*
X91500000Y-91300000D03*
%TD*%
D13*
%TO.C,R5*%
X116250000Y-87500000D03*
X114250000Y-87500000D03*
%TD*%
D12*
%TO.C,C7*%
X145500000Y-65000000D03*
X142625000Y-65000000D03*
%TD*%
D15*
%TO.C,D1*%
X96500000Y-87200000D03*
X96500000Y-91500000D03*
%TD*%
D16*
%TO.C,C4*%
X111750000Y-87500000D03*
X109850000Y-87500000D03*
%TD*%
D17*
%TO.C,C1*%
X104750000Y-89850000D03*
X104750000Y-91750000D03*
%TD*%
D13*
%TO.C,R4*%
X116250000Y-90750000D03*
X114250000Y-90750000D03*
%TD*%
%TO.C,R2*%
X138250000Y-81500000D03*
X136250000Y-81500000D03*
%TD*%
D17*
%TO.C,C2*%
X102500000Y-89850000D03*
X102500000Y-91750000D03*
%TD*%
D18*
%TO.C,F1*%
X95100000Y-83750000D03*
X97900000Y-83750000D03*
%TD*%
D19*
%TO.C,U2*%
X107100000Y-87500000D03*
X104800000Y-87500000D03*
D20*
X104800000Y-81200000D03*
D19*
X102500000Y-87500000D03*
%TD*%
D21*
%TO.C,U1*%
X144875000Y-74625000D03*
X143625000Y-74625000D03*
X142375000Y-74625000D03*
X141125000Y-74625000D03*
X144875000Y-75875000D03*
X143625000Y-75875000D03*
X142375000Y-75875000D03*
X141125000Y-75875000D03*
X144875000Y-77125000D03*
X143625000Y-77125000D03*
X142375000Y-77125000D03*
X141125000Y-77125000D03*
X144875000Y-78375000D03*
X143625000Y-78375000D03*
X142375000Y-78375000D03*
X141125000Y-78375000D03*
D22*
X140250000Y-72337500D03*
X140750000Y-72337500D03*
X141250000Y-72337500D03*
X141750000Y-72337500D03*
X142250000Y-72337500D03*
X142750000Y-72337500D03*
X143250000Y-72337500D03*
X143750000Y-72337500D03*
X144250000Y-72337500D03*
X144750000Y-72337500D03*
X145250000Y-72337500D03*
X145750000Y-72337500D03*
D23*
X147162500Y-73750000D03*
X147162500Y-74250000D03*
X147162500Y-74750000D03*
X147162500Y-75250000D03*
X147162500Y-75750000D03*
X147162500Y-76250000D03*
X147162500Y-76750000D03*
X147162500Y-77250000D03*
X147162500Y-77750000D03*
X147162500Y-78250000D03*
X147162500Y-78750000D03*
X147162500Y-79250000D03*
D22*
X145750000Y-80662500D03*
X145250000Y-80662500D03*
X144750000Y-80662500D03*
X144250000Y-80662500D03*
X143750000Y-80662500D03*
X143250000Y-80662500D03*
X142750000Y-80662500D03*
X142250000Y-80662500D03*
X141750000Y-80662500D03*
X141250000Y-80662500D03*
X140750000Y-80662500D03*
X140250000Y-80662500D03*
D23*
X138837500Y-79250000D03*
X138837500Y-78750000D03*
X138837500Y-78250000D03*
X138837500Y-77750000D03*
X138837500Y-77250000D03*
X138837500Y-76750000D03*
X138837500Y-76250000D03*
X138837500Y-75750000D03*
X138837500Y-75250000D03*
X138837500Y-74750000D03*
X138837500Y-74250000D03*
X138837500Y-73750000D03*
%TD*%
D10*
%TO.C,R7*%
X131500000Y-65000000D03*
X133500000Y-65000000D03*
%TD*%
%TO.C,R9*%
X157000000Y-79500000D03*
X159000000Y-79500000D03*
%TD*%
D12*
%TO.C,C8*%
X144500000Y-86000000D03*
X141625000Y-86000000D03*
%TD*%
D13*
%TO.C,R1*%
X159000000Y-72000000D03*
X157000000Y-72000000D03*
%TD*%
D10*
%TO.C,R8*%
X157000000Y-77000000D03*
X159000000Y-77000000D03*
%TD*%
M02*
