%TF.GenerationSoftware,KiCad,Pcbnew,9.0.6-9.0.6~ubuntu22.04.1*%
%TF.CreationDate,2026-01-07T10:52:52-05:00*%
%TF.ProjectId,Hyperdrift-Display-Controller,48797065-7264-4726-9966-742d44697370,rev?*%
%TF.SameCoordinates,Original*%
%TF.FileFunction,Copper,L1,Top*%
%TF.FilePolarity,Positive*%
%FSLAX46Y46*%
G04 Gerber Fmt 4.6, Leading zero omitted, Abs format (unit mm)*
G04 Created by KiCad (PCBNEW 9.0.6-9.0.6~ubuntu22.04.1) date 2026-01-07 10:52:52*
%MOMM*%
%LPD*%
G01*
G04 APERTURE LIST*
G04 Aperture macros list*
%AMRoundRect*
0 Rectangle with rounded corners*
0 $1 Rounding radius*
0 $2 $3 $4 $5 $6 $7 $8 $9 X,Y pos of 4 corners*
0 Add a 4 corners polygon primitive as box body*
4,1,4,$2,$3,$4,$5,$6,$7,$8,$9,$2,$3,0*
0 Add four circle primitives for the rounded corners*
1,1,$1+$1,$2,$3*
1,1,$1+$1,$4,$5*
1,1,$1+$1,$6,$7*
1,1,$1+$1,$8,$9*
0 Add four rect primitives between the rounded corners*
20,1,$1+$1,$2,$3,$4,$5,0*
20,1,$1+$1,$4,$5,$6,$7,0*
20,1,$1+$1,$6,$7,$8,$9,0*
20,1,$1+$1,$8,$9,$2,$3,0*%
%AMFreePoly0*
4,1,6,1.000000,0.000000,0.500000,-0.750000,-0.500000,-0.750000,-0.500000,0.750000,0.500000,0.750000,1.000000,0.000000,1.000000,0.000000,$1*%
%AMFreePoly1*
4,1,6,0.500000,-0.750000,-0.650000,-0.750000,-0.150000,0.000000,-0.650000,0.750000,0.500000,0.750000,0.500000,-0.750000,0.500000,-0.750000,$1*%
G04 Aperture macros list end*
%TA.AperFunction,SMDPad,CuDef*%
%ADD10FreePoly0,0.000000*%
%TD*%
%TA.AperFunction,SMDPad,CuDef*%
%ADD11FreePoly1,0.000000*%
%TD*%
%TA.AperFunction,SMDPad,CuDef*%
%ADD12FreePoly0,180.000000*%
%TD*%
%TA.AperFunction,SMDPad,CuDef*%
%ADD13FreePoly1,180.000000*%
%TD*%
%TA.AperFunction,ComponentPad*%
%ADD14RoundRect,0.250000X-0.600000X-0.600000X0.600000X-0.600000X0.600000X0.600000X-0.600000X0.600000X0*%
%TD*%
%TA.AperFunction,ComponentPad*%
%ADD15C,1.700000*%
%TD*%
%TA.AperFunction,ComponentPad*%
%ADD16R,1.700000X1.700000*%
%TD*%
%TA.AperFunction,ComponentPad*%
%ADD17O,1.700000X1.700000*%
%TD*%
%TA.AperFunction,ViaPad*%
%ADD18C,0.600000*%
%TD*%
%TA.AperFunction,Conductor*%
%ADD19C,0.150000*%
%TD*%
%TA.AperFunction,Conductor*%
%ADD20C,0.250000*%
%TD*%
G04 APERTURE END LIST*
D10*
%TO.P,JP7,1,A*%
%TO.N,SCL*%
X139275000Y-60000000D03*
D11*
%TO.P,JP7,2,B*%
%TO.N,ADDR1*%
X140725000Y-60000000D03*
%TD*%
D12*
%TO.P,JP2,1,A*%
%TO.N,SDA*%
X128725000Y-55000000D03*
D13*
%TO.P,JP2,2,B*%
%TO.N,ADDR2*%
X127275000Y-55000000D03*
%TD*%
D10*
%TO.P,JP5,1,A*%
%TO.N,GND*%
X139275000Y-50000000D03*
D11*
%TO.P,JP5,2,B*%
%TO.N,ADDR1*%
X140725000Y-50000000D03*
%TD*%
D14*
%TO.P,J1,1,Pin_1*%
%TO.N,SINK_{00}*%
X128000000Y-88620000D03*
D15*
%TO.P,J1,2,Pin_2*%
%TO.N,SINK_{01}*%
X130540000Y-88620000D03*
%TO.P,J1,3,Pin_3*%
%TO.N,SINK_{02}*%
X128000000Y-91160000D03*
%TO.P,J1,4,Pin_4*%
%TO.N,SINK_{03}*%
X130540000Y-91160000D03*
%TO.P,J1,5,Pin_5*%
%TO.N,SRC_{00}*%
X128000000Y-93700000D03*
%TO.P,J1,6,Pin_6*%
%TO.N,SRC_{01}*%
X130540000Y-93700000D03*
%TO.P,J1,7,Pin_7*%
%TO.N,SRC_{02}*%
X128000000Y-96240000D03*
%TO.P,J1,8,Pin_8*%
%TO.N,SRC_{03}*%
X130540000Y-96240000D03*
%TO.P,J1,9,Pin_9*%
%TO.N,SRC_{04}*%
X128000000Y-98780000D03*
%TO.P,J1,10,Pin_10*%
%TO.N,SRC_{05}*%
X130540000Y-98780000D03*
%TO.P,J1,11,Pin_11*%
%TO.N,SRC_{06}*%
X128000000Y-101320000D03*
%TO.P,J1,12,Pin_12*%
%TO.N,SRC_{07}*%
X130540000Y-101320000D03*
%TO.P,J1,13,Pin_13*%
%TO.N,SRC_{08}*%
X128000000Y-103860000D03*
%TO.P,J1,14,Pin_14*%
%TO.N,SRC_{09}*%
X130540000Y-103860000D03*
%TO.P,J1,15,Pin_15*%
%TO.N,SRC_{10}*%
X128000000Y-106400000D03*
%TO.P,J1,16,Pin_16*%
%TO.N,SRC_{11}*%
X130540000Y-106400000D03*
%TO.P,J1,17,Pin_17*%
%TO.N,SRC_{12}*%
X128000000Y-108940000D03*
%TO.P,J1,18,Pin_18*%
%TO.N,SRC_{13}*%
X130540000Y-108940000D03*
%TO.P,J1,19,Pin_19*%
%TO.N,SRC_{14}*%
X128000000Y-111480000D03*
%TO.P,J1,20,Pin_20*%
%TO.N,SRC_{15}*%
X130540000Y-111480000D03*
%TD*%
D14*
%TO.P,J4,1,Pin_1*%
%TO.N,VIN*%
X85500000Y-88000000D03*
D15*
%TO.P,J4,2,Pin_2*%
X88040000Y-88000000D03*
%TO.P,J4,3,Pin_3*%
X85500000Y-90540000D03*
%TO.P,J4,4,Pin_4*%
%TO.N,GND*%
X88040000Y-90540000D03*
%TO.P,J4,5,Pin_5*%
X85500000Y-93080000D03*
%TO.P,J4,6,Pin_6*%
X88040000Y-93080000D03*
%TO.P,J4,7,Pin_7*%
%TO.N,SDA*%
X85500000Y-95620000D03*
%TO.P,J4,8,Pin_8*%
%TO.N,SCL*%
X88040000Y-95620000D03*
%TO.P,J4,9,Pin_9*%
%TO.N,IICRST*%
X85500000Y-98160000D03*
%TO.P,J4,10,Pin_10*%
%TO.N,SDB*%
X88040000Y-98160000D03*
%TD*%
D12*
%TO.P,JP3,1,A*%
%TO.N,SCL*%
X128725000Y-60000000D03*
D13*
%TO.P,JP3,2,B*%
%TO.N,ADDR2*%
X127275000Y-60000000D03*
%TD*%
D16*
%TO.P,J6,1,Pin_1*%
%TO.N,VIN*%
X169000000Y-64140000D03*
D17*
%TO.P,J6,2,Pin_2*%
%TO.N,12V*%
X169000000Y-66680000D03*
%TO.P,J6,3,Pin_3*%
%TO.N,5V*%
X169000000Y-69220000D03*
%TO.P,J6,4,Pin_4*%
%TO.N,3.3V*%
X169000000Y-71760000D03*
%TO.P,J6,5,Pin_5*%
%TO.N,GND*%
X169000000Y-74300000D03*
%TO.P,J6,6,Pin_6*%
X169000000Y-76840000D03*
%TO.P,J6,7,Pin_7*%
%TO.N,IICRST*%
X169000000Y-79380000D03*
%TO.P,J6,8,Pin_8*%
%TO.N,SDB*%
X169000000Y-81920000D03*
%TO.P,J6,9,Pin_9*%
%TO.N,SDA*%
X169000000Y-84460000D03*
%TO.P,J6,10,Pin_10*%
%TO.N,SCL*%
X169000000Y-87000000D03*
%TD*%
D10*
%TO.P,JP8,1,A*%
%TO.N,5V*%
X139275000Y-65000000D03*
D11*
%TO.P,JP8,2,B*%
%TO.N,ADDR1*%
X140725000Y-65000000D03*
%TD*%
D12*
%TO.P,JP4,1,A*%
%TO.N,5V*%
X128725000Y-65000000D03*
D13*
%TO.P,JP4,2,B*%
%TO.N,ADDR2*%
X127275000Y-65000000D03*
%TD*%
D14*
%TO.P,J2,1,Pin_1*%
%TO.N,SINK_{04}*%
X141960000Y-88620000D03*
D15*
%TO.P,J2,2,Pin_2*%
%TO.N,SINK_{05}*%
X144500000Y-88620000D03*
%TO.P,J2,3,Pin_3*%
%TO.N,SINK_{06}*%
X141960000Y-91160000D03*
%TO.P,J2,4,Pin_4*%
%TO.N,SINK_{07}*%
X144500000Y-91160000D03*
%TO.P,J2,5,Pin_5*%
%TO.N,SRC_{00}*%
X141960000Y-93700000D03*
%TO.P,J2,6,Pin_6*%
%TO.N,SRC_{01}*%
X144500000Y-93700000D03*
%TO.P,J2,7,Pin_7*%
%TO.N,SRC_{02}*%
X141960000Y-96240000D03*
%TO.P,J2,8,Pin_8*%
%TO.N,SRC_{03}*%
X144500000Y-96240000D03*
%TO.P,J2,9,Pin_9*%
%TO.N,SRC_{04}*%
X141960000Y-98780000D03*
%TO.P,J2,10,Pin_10*%
%TO.N,SRC_{05}*%
X144500000Y-98780000D03*
%TO.P,J2,11,Pin_11*%
%TO.N,SRC_{06}*%
X141960000Y-101320000D03*
%TO.P,J2,12,Pin_12*%
%TO.N,SRC_{07}*%
X144500000Y-101320000D03*
%TO.P,J2,13,Pin_13*%
%TO.N,SRC_{08}*%
X141960000Y-103860000D03*
%TO.P,J2,14,Pin_14*%
%TO.N,SRC_{09}*%
X144500000Y-103860000D03*
%TO.P,J2,15,Pin_15*%
%TO.N,SRC_{10}*%
X141960000Y-106400000D03*
%TO.P,J2,16,Pin_16*%
%TO.N,SRC_{11}*%
X144500000Y-106400000D03*
%TO.P,J2,17,Pin_17*%
%TO.N,SRC_{12}*%
X141960000Y-108940000D03*
%TO.P,J2,18,Pin_18*%
%TO.N,SRC_{13}*%
X144500000Y-108940000D03*
%TO.P,J2,19,Pin_19*%
%TO.N,SRC_{14}*%
X141960000Y-111480000D03*
%TO.P,J2,20,Pin_20*%
%TO.N,SRC_{15}*%
X144500000Y-111480000D03*
%TD*%
D10*
%TO.P,JP6,1,A*%
%TO.N,SDA*%
X139275000Y-55000000D03*
D11*
%TO.P,JP6,2,B*%
%TO.N,ADDR1*%
X140725000Y-55000000D03*
%TD*%
D14*
%TO.P,J5,1,Pin_1*%
%TO.N,VIN*%
X169000000Y-96840000D03*
D15*
%TO.P,J5,2,Pin_2*%
X171540000Y-96840000D03*
%TO.P,J5,3,Pin_3*%
X169000000Y-99380000D03*
%TO.P,J5,4,Pin_4*%
%TO.N,GND*%
X171540000Y-99380000D03*
%TO.P,J5,5,Pin_5*%
X169000000Y-101920000D03*
%TO.P,J5,6,Pin_6*%
X171540000Y-101920000D03*
%TO.P,J5,7,Pin_7*%
%TO.N,SDA*%
X169000000Y-104460000D03*
%TO.P,J5,8,Pin_8*%
%TO.N,SCL*%
X171540000Y-104460000D03*
%TO.P,J5,9,Pin_9*%
%TO.N,IICRST*%
X169000000Y-107000000D03*
%TO.P,J5,10,Pin_10*%
%TO.N,SDB*%
X171540000Y-107000000D03*
%TD*%
D14*
%TO.P,J3,1,Pin_1*%
%TO.N,SINK_{08}*%
X155960000Y-88620000D03*
D15*
%TO.P,J3,2,Pin_2*%
%TO.N,SINK_{09}*%
X158500000Y-88620000D03*
%TO.P,J3,3,Pin_3*%
%TO.N,SINK_{10}*%
X155960000Y-91160000D03*
%TO.P,J3,4,Pin_4*%
%TO.N,SINK_{11}*%
X158500000Y-91160000D03*
%TO.P,J3,5,Pin_5*%
%TO.N,SRC_{00}*%
X155960000Y-93700000D03*
%TO.P,J3,6,Pin_6*%
%TO.N,SRC_{01}*%
X158500000Y-93700000D03*
%TO.P,J3,7,Pin_7*%
%TO.N,SRC_{02}*%
X155960000Y-96240000D03*
%TO.P,J3,8,Pin_8*%
%TO.N,SRC_{03}*%
X158500000Y-96240000D03*
%TO.P,J3,9,Pin_9*%
%TO.N,SRC_{04}*%
X155960000Y-98780000D03*
%TO.P,J3,10,Pin_10*%
%TO.N,SRC_{05}*%
X158500000Y-98780000D03*
%TO.P,J3,11,Pin_11*%
%TO.N,SRC_{06}*%
X155960000Y-101320000D03*
%TO.P,J3,12,Pin_12*%
%TO.N,SRC_{07}*%
X158500000Y-101320000D03*
%TO.P,J3,13,Pin_13*%
%TO.N,SRC_{08}*%
X155960000Y-103860000D03*
%TO.P,J3,14,Pin_14*%
%TO.N,SRC_{09}*%
X158500000Y-103860000D03*
%TO.P,J3,15,Pin_15*%
%TO.N,SRC_{10}*%
X155960000Y-106400000D03*
%TO.P,J3,16,Pin_16*%
%TO.N,SRC_{11}*%
X158500000Y-106400000D03*
%TO.P,J3,17,Pin_17*%
%TO.N,SRC_{12}*%
X155960000Y-108940000D03*
%TO.P,J3,18,Pin_18*%
%TO.N,SRC_{13}*%
X158500000Y-108940000D03*
%TO.P,J3,19,Pin_19*%
%TO.N,SRC_{14}*%
X155960000Y-111480000D03*
%TO.P,J3,20,Pin_20*%
%TO.N,SRC_{15}*%
X158500000Y-111480000D03*
%TD*%
D12*
%TO.P,JP1,1,A*%
%TO.N,GND*%
X128725000Y-50000000D03*
D13*
%TO.P,JP1,2,B*%
%TO.N,ADDR2*%
X127275000Y-50000000D03*
%TD*%
D18*
%TO.N,SINK_{00}*%
X137000000Y-72500000D03*
%TO.N,SINK_{01}*%
X137282724Y-71750000D03*
%TO.N,SINK_{02}*%
X137771529Y-70675529D03*
%TO.N,SINK_{03}*%
X136531587Y-71031587D03*
%TO.N,5V*%
X125750000Y-73500000D03*
X146500000Y-86250000D03*
X145000000Y-66250000D03*
X106000000Y-79500000D03*
X144893414Y-82856586D03*
X145927002Y-77779822D03*
X137000000Y-79250000D03*
X131550000Y-76100000D03*
%TO.N,GND*%
X157000000Y-73250000D03*
X143500000Y-73500000D03*
X138733058Y-73175000D03*
X142250000Y-69500000D03*
X128850000Y-72350000D03*
X142750000Y-62750000D03*
X147000000Y-71750000D03*
%TO.N,SINK_{07}*%
X155466000Y-86250000D03*
%TO.N,SINK_{06}*%
X156091000Y-85000000D03*
X148500000Y-91999000D03*
%TO.N,SINK_{05}*%
X130500000Y-71500000D03*
X143750000Y-67250000D03*
%TO.N,SINK_{04}*%
X143125000Y-67875000D03*
X131419232Y-71464652D03*
%TO.N,SDB*%
X140002000Y-75257114D03*
X132750000Y-79875000D03*
%TO.N,SDA*%
X136550000Y-77493058D03*
X130500000Y-55000000D03*
X160000000Y-81425000D03*
%TO.N,IICRST*%
X137500000Y-74175000D03*
%TO.N,SCL*%
X131750000Y-60000000D03*
X135481833Y-76800000D03*
X159000000Y-82075000D03*
%TO.N,ADDR2*%
X137000000Y-66250000D03*
%TO.N,ADDR1*%
X140000000Y-63349000D03*
%TD*%
D19*
%TO.N,SRC_{00}*%
X140834000Y-92574000D02*
X129126000Y-92574000D01*
X141960000Y-93700000D02*
X140834000Y-92574000D01*
X154834000Y-92574000D02*
X143086000Y-92574000D01*
X129126000Y-92574000D02*
X128000000Y-93700000D01*
X155960000Y-93700000D02*
X154834000Y-92574000D01*
X143086000Y-92574000D02*
X141960000Y-93700000D01*
D20*
%TO.N,SINK_{00}*%
X134855833Y-74644167D02*
X137000000Y-72500000D01*
X129796000Y-89796000D02*
X131027116Y-89796000D01*
X128000000Y-88620000D02*
X128620000Y-88620000D01*
X134855833Y-85967283D02*
X134855833Y-74644167D01*
X128620000Y-88620000D02*
X129796000Y-89796000D01*
X131027116Y-89796000D02*
X134855833Y-85967283D01*
D19*
%TO.N,SRC_{01}*%
X145626000Y-94826000D02*
X157374000Y-94826000D01*
X131666000Y-94826000D02*
X143374000Y-94826000D01*
X144500000Y-93700000D02*
X145626000Y-94826000D01*
X130540000Y-93700000D02*
X131666000Y-94826000D01*
X157374000Y-94826000D02*
X158500000Y-93700000D01*
X143374000Y-94826000D02*
X144500000Y-93700000D01*
%TO.N,SRC_{02}*%
X141960000Y-96240000D02*
X140834000Y-95114000D01*
X143086000Y-95114000D02*
X141960000Y-96240000D01*
X129126000Y-95114000D02*
X128000000Y-96240000D01*
X140834000Y-95114000D02*
X129126000Y-95114000D01*
X154834000Y-95114000D02*
X143086000Y-95114000D01*
X155960000Y-96240000D02*
X154834000Y-95114000D01*
%TO.N,SRC_{03}*%
X144500000Y-96240000D02*
X143374000Y-97366000D01*
X157374000Y-97366000D02*
X158500000Y-96240000D01*
X143374000Y-97366000D02*
X131666000Y-97366000D01*
X144500000Y-96240000D02*
X145626000Y-97366000D01*
X145626000Y-97366000D02*
X157374000Y-97366000D01*
X131666000Y-97366000D02*
X130540000Y-96240000D01*
%TO.N,SRC_{04}*%
X140834000Y-97654000D02*
X141960000Y-98780000D01*
X129126000Y-97654000D02*
X140834000Y-97654000D01*
X128000000Y-98780000D02*
X129126000Y-97654000D01*
X154834000Y-97654000D02*
X155960000Y-98780000D01*
X143086000Y-97654000D02*
X154834000Y-97654000D01*
X141960000Y-98780000D02*
X143086000Y-97654000D01*
%TO.N,SRC_{05}*%
X131666000Y-99906000D02*
X130540000Y-98780000D01*
X144500000Y-98780000D02*
X143374000Y-99906000D01*
X143374000Y-99906000D02*
X131666000Y-99906000D01*
X145626000Y-99906000D02*
X144500000Y-98780000D01*
X157374000Y-99906000D02*
X145626000Y-99906000D01*
X158500000Y-98780000D02*
X157374000Y-99906000D01*
%TO.N,SRC_{06}*%
X140834000Y-100194000D02*
X141960000Y-101320000D01*
X141960000Y-101320000D02*
X143086000Y-100194000D01*
X154834000Y-100194000D02*
X155960000Y-101320000D01*
X129126000Y-100194000D02*
X140834000Y-100194000D01*
X128000000Y-101320000D02*
X129126000Y-100194000D01*
X143086000Y-100194000D02*
X154834000Y-100194000D01*
%TO.N,SRC_{07}*%
X157374000Y-102446000D02*
X145626000Y-102446000D01*
X158500000Y-101320000D02*
X157374000Y-102446000D01*
X143374000Y-102446000D02*
X144500000Y-101320000D01*
X131666000Y-102446000D02*
X143374000Y-102446000D01*
X145626000Y-102446000D02*
X144500000Y-101320000D01*
X130540000Y-101320000D02*
X131666000Y-102446000D01*
%TO.N,SRC_{08}*%
X143086000Y-102734000D02*
X154834000Y-102734000D01*
X154834000Y-102734000D02*
X155960000Y-103860000D01*
X128000000Y-103860000D02*
X129126000Y-102734000D01*
X141960000Y-103860000D02*
X143086000Y-102734000D01*
X140834000Y-102734000D02*
X141960000Y-103860000D01*
X129126000Y-102734000D02*
X140834000Y-102734000D01*
%TO.N,SRC_{09}*%
X144500000Y-103860000D02*
X143374000Y-104986000D01*
X145626000Y-104986000D02*
X144500000Y-103860000D01*
X143374000Y-104986000D02*
X131666000Y-104986000D01*
X157374000Y-104986000D02*
X145626000Y-104986000D01*
X131666000Y-104986000D02*
X130540000Y-103860000D01*
X158500000Y-103860000D02*
X157374000Y-104986000D01*
%TO.N,SRC_{10}*%
X129126000Y-105274000D02*
X140834000Y-105274000D01*
X143086000Y-105274000D02*
X154834000Y-105274000D01*
X141960000Y-106400000D02*
X143086000Y-105274000D01*
X128000000Y-106400000D02*
X129126000Y-105274000D01*
X140834000Y-105274000D02*
X141960000Y-106400000D01*
X154834000Y-105274000D02*
X155960000Y-106400000D01*
%TO.N,SRC_{11}*%
X157374000Y-107526000D02*
X145626000Y-107526000D01*
X130540000Y-106400000D02*
X131666000Y-107526000D01*
X143374000Y-107526000D02*
X144500000Y-106400000D01*
X145626000Y-107526000D02*
X144500000Y-106400000D01*
X131666000Y-107526000D02*
X143374000Y-107526000D01*
X158500000Y-106400000D02*
X157374000Y-107526000D01*
%TO.N,SRC_{12}*%
X154834000Y-107814000D02*
X155960000Y-108940000D01*
X140834000Y-107814000D02*
X141960000Y-108940000D01*
X141960000Y-108940000D02*
X143086000Y-107814000D01*
X128000000Y-108940000D02*
X129126000Y-107814000D01*
X129126000Y-107814000D02*
X140834000Y-107814000D01*
X143086000Y-107814000D02*
X154834000Y-107814000D01*
%TO.N,SRC_{13}*%
X144500000Y-108940000D02*
X143374000Y-110066000D01*
X143374000Y-110066000D02*
X131666000Y-110066000D01*
X131666000Y-110066000D02*
X130540000Y-108940000D01*
X145626000Y-110066000D02*
X144500000Y-108940000D01*
X158500000Y-108940000D02*
X157374000Y-110066000D01*
X157374000Y-110066000D02*
X145626000Y-110066000D01*
%TO.N,SRC_{14}*%
X154834000Y-110354000D02*
X155960000Y-111480000D01*
X141960000Y-111480000D02*
X143086000Y-110354000D01*
X128000000Y-111480000D02*
X129126000Y-110354000D01*
X143086000Y-110354000D02*
X154834000Y-110354000D01*
X140834000Y-110354000D02*
X141960000Y-111480000D01*
X129126000Y-110354000D02*
X140834000Y-110354000D01*
%TO.N,SRC_{15}*%
X144500000Y-111480000D02*
X143374000Y-112606000D01*
X131666000Y-112606000D02*
X130540000Y-111480000D01*
X158500000Y-111480000D02*
X157374000Y-112606000D01*
X157374000Y-112606000D02*
X145626000Y-112606000D01*
X145626000Y-112606000D02*
X144500000Y-111480000D01*
X143374000Y-112606000D02*
X131666000Y-112606000D01*
D20*
%TO.N,SINK_{01}*%
X135000000Y-71750000D02*
X134091000Y-72659000D01*
X134091000Y-85069000D02*
X130540000Y-88620000D01*
X134091000Y-72659000D02*
X134091000Y-85069000D01*
X137282724Y-71750000D02*
X135000000Y-71750000D01*
%TO.N,SINK_{02}*%
X137426768Y-70330768D02*
X137771529Y-70675529D01*
X135330768Y-70330768D02*
X137426768Y-70330768D01*
X133380558Y-72280978D02*
X135330768Y-70330768D01*
X133380558Y-80129740D02*
X133380558Y-72280978D01*
X126159000Y-89319000D02*
X126159000Y-87351298D01*
X128000000Y-91160000D02*
X126159000Y-89319000D01*
X126159000Y-87351298D02*
X133380558Y-80129740D01*
%TO.N,SINK_{03}*%
X135250000Y-71000000D02*
X133750000Y-72500000D01*
X133750000Y-80750000D02*
X126500000Y-88000000D01*
X126500000Y-89141514D02*
X127154486Y-89796000D01*
X129176000Y-89796000D02*
X130540000Y-91160000D01*
X136500000Y-71000000D02*
X135250000Y-71000000D01*
X126500000Y-88000000D02*
X126500000Y-89141514D01*
X136531587Y-71031587D02*
X136500000Y-71000000D01*
X127154486Y-89796000D02*
X129176000Y-89796000D01*
X133750000Y-72500000D02*
X133750000Y-80750000D01*
%TO.N,5V*%
X128725000Y-65000000D02*
X139275000Y-65000000D01*
X128350000Y-76100000D02*
X131550000Y-76100000D01*
X144893414Y-82856586D02*
X146500000Y-84463172D01*
X145927002Y-74062300D02*
X145927002Y-77779822D01*
X140106894Y-66250000D02*
X145000000Y-66250000D01*
X111750000Y-73750000D02*
X106000000Y-79500000D01*
X143000000Y-68626000D02*
X142238702Y-68626000D01*
X146500000Y-84463172D02*
X146500000Y-86250000D01*
X128350000Y-76100000D02*
X126375000Y-74125000D01*
X145927002Y-77779822D02*
X146381824Y-77325000D01*
X145432351Y-73567649D02*
X141624000Y-69759298D01*
X143000000Y-68626000D02*
X143259298Y-68626000D01*
X150637297Y-77325000D02*
X160895000Y-77325000D01*
X126375000Y-74125000D02*
X126000000Y-73750000D01*
X139275000Y-65000000D02*
X139275000Y-65418106D01*
X126000000Y-73750000D02*
X111750000Y-73750000D01*
X144893414Y-82856586D02*
X140606586Y-82856586D01*
X145000000Y-66885298D02*
X145000000Y-66250000D01*
X146381824Y-77325000D02*
X150637297Y-77325000D01*
X141624000Y-69240702D02*
X141624000Y-69759298D01*
X142238702Y-68626000D02*
X141624000Y-69240702D01*
X145432351Y-73567649D02*
X145927002Y-74062300D01*
X140606586Y-82856586D02*
X137000000Y-79250000D01*
X160895000Y-77325000D02*
X169000000Y-69220000D01*
X139275000Y-65418106D02*
X140106894Y-66250000D01*
X126000000Y-73750000D02*
X125750000Y-73500000D01*
X143259298Y-68626000D02*
X145000000Y-66885298D01*
%TO.N,GND*%
X155500000Y-71750000D02*
X157000000Y-73250000D01*
X147750000Y-71750000D02*
X155500000Y-71750000D01*
X139275000Y-49582032D02*
X139275000Y-50000000D01*
X145750000Y-65750000D02*
X145750000Y-69750000D01*
X167434178Y-78405822D02*
X145405822Y-78405822D01*
X134970464Y-69468000D02*
X138129536Y-69468000D01*
X139938032Y-48919000D02*
X139275000Y-49582032D01*
X128850000Y-72350000D02*
X128867000Y-72367000D01*
X145500000Y-69500000D02*
X142250000Y-69500000D01*
X145750000Y-69750000D02*
X145500000Y-69500000D01*
X138879529Y-73028529D02*
X138733058Y-73175000D01*
X144500000Y-77500000D02*
X144500000Y-74500000D01*
X142750000Y-50306894D02*
X141362106Y-48919000D01*
X169000000Y-76840000D02*
X167434178Y-78405822D01*
X88040000Y-90540000D02*
X106213000Y-72367000D01*
X138879529Y-70217993D02*
X138879529Y-73028529D01*
X128725000Y-50000000D02*
X139275000Y-50000000D01*
X144500000Y-74500000D02*
X143500000Y-73500000D01*
X142750000Y-62750000D02*
X142750000Y-50306894D01*
X142750000Y-62750000D02*
X145750000Y-65750000D01*
X128500000Y-72367000D02*
X128833000Y-72367000D01*
X145405822Y-78405822D02*
X144500000Y-77500000D01*
X128833000Y-72367000D02*
X128850000Y-72350000D01*
X132071464Y-72367000D02*
X134970464Y-69468000D01*
X147000000Y-71750000D02*
X147750000Y-71750000D01*
X128867000Y-72367000D02*
X132071464Y-72367000D01*
X141362106Y-48919000D02*
X139938032Y-48919000D01*
X138129536Y-69468000D02*
X138879529Y-70217993D01*
X147750000Y-71750000D02*
X145750000Y-69750000D01*
X106213000Y-72367000D02*
X128500000Y-72367000D01*
%TO.N,VIN*%
X169000000Y-99380000D02*
X169000000Y-96840000D01*
X169000000Y-96840000D02*
X171540000Y-96840000D01*
%TO.N,SINK_{07}*%
X154250000Y-86250000D02*
X149250000Y-91250000D01*
X155466000Y-86250000D02*
X154250000Y-86250000D01*
X149250000Y-91250000D02*
X149160000Y-91160000D01*
X149160000Y-91160000D02*
X144500000Y-91160000D01*
%TO.N,SINK_{06}*%
X155725298Y-86876000D02*
X156091000Y-86510298D01*
X150501000Y-91999000D02*
X155624000Y-86876000D01*
X148500000Y-91999000D02*
X150501000Y-91999000D01*
X155624000Y-86876000D02*
X155725298Y-86876000D01*
X156091000Y-86510298D02*
X156091000Y-85000000D01*
%TO.N,SINK_{05}*%
X134750000Y-67250000D02*
X143750000Y-67250000D01*
X130500000Y-71500000D02*
X134750000Y-67250000D01*
%TO.N,SINK_{04}*%
X143125000Y-67875000D02*
X135008884Y-67875000D01*
X135008884Y-67875000D02*
X131419232Y-71464652D01*
D19*
%TO.N,SDB*%
X88040000Y-98160000D02*
X112500000Y-98160000D01*
X169000000Y-81920000D02*
X166186500Y-79106500D01*
X143851386Y-79106500D02*
X140002000Y-75257114D01*
X112500000Y-98160000D02*
X130785000Y-79875000D01*
X166186500Y-79106500D02*
X143851386Y-79106500D01*
X130785000Y-79875000D02*
X132750000Y-79875000D01*
%TO.N,SDA*%
X166040000Y-81500000D02*
X169000000Y-84460000D01*
X127526000Y-73059000D02*
X127150000Y-72683000D01*
X85500000Y-95620000D02*
X86870000Y-94250000D01*
X135091000Y-69759000D02*
X131800000Y-73050000D01*
X131800000Y-73050000D02*
X131450000Y-73050000D01*
X136550000Y-77493058D02*
X136551000Y-77492058D01*
X139275000Y-55000000D02*
X130500000Y-55000000D01*
X138009000Y-69759000D02*
X135091000Y-69759000D01*
X127150000Y-72683000D02*
X110317405Y-72683000D01*
X164500000Y-81500000D02*
X166040000Y-81500000D01*
X131450000Y-73050000D02*
X131441000Y-73059000D01*
X136551000Y-77492058D02*
X140992058Y-77492058D01*
X130500000Y-55000000D02*
X128725000Y-55000000D01*
X110317405Y-72683000D02*
X88506405Y-94494000D01*
X138588529Y-72066884D02*
X138588529Y-70338529D01*
X138588529Y-70338529D02*
X138075000Y-69825000D01*
X138588529Y-72066884D02*
X136550000Y-74105413D01*
X131441000Y-73059000D02*
X127526000Y-73059000D01*
X141000000Y-77500000D02*
X145000000Y-81500000D01*
X136550000Y-74105413D02*
X136550000Y-77493058D01*
X145000000Y-81500000D02*
X164500000Y-81500000D01*
X86870000Y-94250000D02*
X88780000Y-94250000D01*
X88506405Y-94494000D02*
X86626000Y-94494000D01*
X86626000Y-94494000D02*
X85500000Y-95620000D01*
%TO.N,IICRST*%
X139250000Y-70641942D02*
X139308058Y-70700000D01*
X144423558Y-78865500D02*
X139733058Y-74175000D01*
X130250000Y-72076000D02*
X131674000Y-72076000D01*
X168462706Y-78842706D02*
X159842706Y-78842706D01*
X139250000Y-69700000D02*
X139250000Y-70641942D01*
X127500000Y-71750000D02*
X129924000Y-71750000D01*
X138550000Y-69000000D02*
X139250000Y-69700000D01*
X159819912Y-78865500D02*
X144423558Y-78865500D01*
X139733058Y-74175000D02*
X139300000Y-74175000D01*
X131674000Y-72076000D02*
X134750000Y-69000000D01*
X84374000Y-97034000D02*
X84374000Y-87175196D01*
X127174000Y-72076000D02*
X127500000Y-71750000D01*
X84374000Y-87175196D02*
X99473196Y-72076000D01*
X139308058Y-74166942D02*
X139300000Y-74175000D01*
X134750000Y-69000000D02*
X138550000Y-69000000D01*
X169000000Y-79380000D02*
X168462706Y-78842706D01*
X85500000Y-98160000D02*
X84374000Y-97034000D01*
X99473196Y-72076000D02*
X127174000Y-72076000D01*
X159842706Y-78842706D02*
X159819912Y-78865500D01*
X139300000Y-74175000D02*
X137500000Y-74175000D01*
X139308058Y-73750000D02*
X139308058Y-74166942D01*
X139308058Y-70700000D02*
X139308058Y-73750000D01*
X129924000Y-71750000D02*
X130250000Y-72076000D01*
%TO.N,SCL*%
X139275000Y-60000000D02*
X131750000Y-60000000D01*
X127426000Y-73300000D02*
X127050000Y-72924000D01*
X144250000Y-82000000D02*
X158925000Y-82000000D01*
X158925000Y-82000000D02*
X159000000Y-82075000D01*
X135481833Y-74832755D02*
X138347529Y-71967059D01*
X164000000Y-82000000D02*
X169000000Y-87000000D01*
X110736000Y-72924000D02*
X88040000Y-95620000D01*
X144750000Y-82000000D02*
X144250000Y-82000000D01*
X135761412Y-78068058D02*
X140318058Y-78068058D01*
X135250000Y-70000000D02*
X131950000Y-73300000D01*
X135481833Y-76800000D02*
X135481833Y-76982121D01*
X131750000Y-60000000D02*
X128725000Y-60000000D01*
X135424000Y-77730646D02*
X135761412Y-78068058D01*
X135481833Y-76982121D02*
X135424000Y-77039954D01*
X135424000Y-77039954D02*
X135424000Y-77730646D01*
X127050000Y-72924000D02*
X110736000Y-72924000D01*
X131950000Y-73300000D02*
X127426000Y-73300000D01*
X137909174Y-70000000D02*
X135250000Y-70000000D01*
X138347529Y-70438355D02*
X137909174Y-70000000D01*
X144750000Y-82000000D02*
X164000000Y-82000000D01*
X140318058Y-78068058D02*
X144250000Y-82000000D01*
X135481833Y-76800000D02*
X135481833Y-74832755D01*
X138347529Y-71967059D02*
X138347529Y-70438355D01*
%TO.N,ADDR2*%
X127275000Y-50000000D02*
X127275000Y-55000000D01*
X128327605Y-66250000D02*
X137000000Y-66250000D01*
X127275000Y-55000000D02*
X127275000Y-60000000D01*
X127275000Y-65197395D02*
X128327605Y-66250000D01*
X127275000Y-65000000D02*
X127275000Y-65197395D01*
X127275000Y-60000000D02*
X127275000Y-65000000D01*
%TO.N,ADDR1*%
X140725000Y-65000000D02*
X140725000Y-60000000D01*
X140725000Y-55000000D02*
X140725000Y-50000000D01*
X140725000Y-60000000D02*
X140725000Y-55000000D01*
X140725000Y-64074000D02*
X140725000Y-65000000D01*
X140000000Y-63349000D02*
X140725000Y-64074000D01*
%TD*%
%TA.AperFunction,Conductor*%
%TO.N,GND*%
G36*
X87574075Y-90732993D02*
G01*
X87639901Y-90847007D01*
X87732993Y-90940099D01*
X87847007Y-91005925D01*
X87910591Y-91022962D01*
X87309971Y-91623581D01*
X87388711Y-91740895D01*
X87389920Y-91744729D01*
X87392844Y-91747491D01*
X87400343Y-91777778D01*
X87409727Y-91807529D01*
X87408671Y-91811408D01*
X87409638Y-91815312D01*
X87399573Y-91844844D01*
X87391383Y-91874947D01*
X87388397Y-91877640D01*
X87387100Y-91881447D01*
X87342051Y-91920483D01*
X87332440Y-91925380D01*
X87278282Y-91964727D01*
X87278282Y-91964728D01*
X87910591Y-92597037D01*
X87847007Y-92614075D01*
X87732993Y-92679901D01*
X87639901Y-92772993D01*
X87574075Y-92887007D01*
X87557037Y-92950591D01*
X86924728Y-92318282D01*
X86924727Y-92318282D01*
X86885380Y-92372440D01*
X86880483Y-92382051D01*
X86832506Y-92432845D01*
X86764684Y-92449638D01*
X86698550Y-92427098D01*
X86659516Y-92382048D01*
X86654626Y-92372452D01*
X86615270Y-92318282D01*
X86615269Y-92318282D01*
X85982962Y-92950589D01*
X85965925Y-92887007D01*
X85900099Y-92772993D01*
X85807007Y-92679901D01*
X85692993Y-92614075D01*
X85629407Y-92597036D01*
X86261716Y-91964728D01*
X86207547Y-91925373D01*
X86207547Y-91925372D01*
X86198500Y-91920763D01*
X86147706Y-91872788D01*
X86130912Y-91804966D01*
X86153451Y-91738832D01*
X86198508Y-91699793D01*
X86207816Y-91695051D01*
X86308845Y-91621650D01*
X86379786Y-91570109D01*
X86379788Y-91570106D01*
X86379792Y-91570104D01*
X86530104Y-91419792D01*
X86530106Y-91419788D01*
X86530109Y-91419786D01*
X86615890Y-91301717D01*
X86655051Y-91247816D01*
X86659793Y-91238508D01*
X86707763Y-91187711D01*
X86775583Y-91170911D01*
X86841719Y-91193445D01*
X86880763Y-91238500D01*
X86885373Y-91247547D01*
X86924728Y-91301716D01*
X87557037Y-90669408D01*
X87574075Y-90732993D01*
G37*
%TD.AperFunction*%
%TA.AperFunction,Conductor*%
G36*
X109302702Y-72671185D02*
G01*
X109348457Y-72723989D01*
X109358401Y-72793147D01*
X109329376Y-72856703D01*
X109323344Y-72863181D01*
X89516000Y-92670523D01*
X89454677Y-92704008D01*
X89384985Y-92699024D01*
X89329052Y-92657152D01*
X89310388Y-92621159D01*
X89291096Y-92561784D01*
X89194624Y-92372449D01*
X89155270Y-92318282D01*
X89155269Y-92318282D01*
X88522962Y-92950589D01*
X88505925Y-92887007D01*
X88440099Y-92772993D01*
X88347007Y-92679901D01*
X88232993Y-92614075D01*
X88169409Y-92597037D01*
X88801716Y-91964728D01*
X88747550Y-91925375D01*
X88737954Y-91920486D01*
X88687157Y-91872512D01*
X88670361Y-91804692D01*
X88692897Y-91738556D01*
X88737954Y-91699514D01*
X88747554Y-91694622D01*
X88801716Y-91655270D01*
X88801717Y-91655270D01*
X88169408Y-91022962D01*
X88232993Y-91005925D01*
X88347007Y-90940099D01*
X88440099Y-90847007D01*
X88505925Y-90732993D01*
X88522962Y-90669409D01*
X89155270Y-91301717D01*
X89155270Y-91301716D01*
X89194622Y-91247554D01*
X89291095Y-91058217D01*
X89356757Y-90856130D01*
X89356757Y-90856127D01*
X89390000Y-90646246D01*
X89390000Y-90433753D01*
X89356757Y-90223872D01*
X89356757Y-90223869D01*
X89291095Y-90021782D01*
X89194624Y-89832449D01*
X89155270Y-89778282D01*
X89155269Y-89778282D01*
X88522962Y-90410590D01*
X88505925Y-90347007D01*
X88440099Y-90232993D01*
X88347007Y-90139901D01*
X88232993Y-90074075D01*
X88169409Y-90057037D01*
X88801716Y-89424728D01*
X88747547Y-89385373D01*
X88747547Y-89385372D01*
X88738500Y-89380763D01*
X88687706Y-89332788D01*
X88670912Y-89264966D01*
X88693451Y-89198832D01*
X88738508Y-89159793D01*
X88747816Y-89155051D01*
X88866728Y-89068657D01*
X88919786Y-89030109D01*
X88919788Y-89030106D01*
X88919792Y-89030104D01*
X89070104Y-88879792D01*
X89070106Y-88879788D01*
X89070109Y-88879786D01*
X89195048Y-88707820D01*
X89195047Y-88707820D01*
X89195051Y-88707816D01*
X89291557Y-88518412D01*
X89357246Y-88316243D01*
X89390500Y-88106287D01*
X89390500Y-87893713D01*
X89357246Y-87683757D01*
X89291557Y-87481588D01*
X89195051Y-87292184D01*
X89195049Y-87292181D01*
X89195048Y-87292179D01*
X89070109Y-87120213D01*
X88919786Y-86969890D01*
X88747820Y-86844951D01*
X88558414Y-86748444D01*
X88558413Y-86748443D01*
X88558412Y-86748443D01*
X88356243Y-86682754D01*
X88356241Y-86682753D01*
X88356240Y-86682753D01*
X88194957Y-86657208D01*
X88146287Y-86649500D01*
X87933713Y-86649500D01*
X87885042Y-86657208D01*
X87723760Y-86682753D01*
X87521585Y-86748444D01*
X87332179Y-86844951D01*
X87160213Y-86969890D01*
X87009894Y-87120209D01*
X87009885Y-87120219D01*
X87006330Y-87125113D01*
X86950997Y-87167775D01*
X86881383Y-87173748D01*
X86819591Y-87141137D01*
X86788312Y-87091223D01*
X86784815Y-87080670D01*
X86784814Y-87080666D01*
X86692712Y-86931344D01*
X86568656Y-86807288D01*
X86419334Y-86715186D01*
X86252797Y-86660001D01*
X86252795Y-86660000D01*
X86150016Y-86649500D01*
X86150009Y-86649500D01*
X86012937Y-86649500D01*
X85945898Y-86629815D01*
X85900143Y-86577011D01*
X85890199Y-86507853D01*
X85919224Y-86444297D01*
X85925256Y-86437819D01*
X92733891Y-79629185D01*
X99675257Y-72687819D01*
X99736580Y-72654334D01*
X99762938Y-72651500D01*
X109235663Y-72651500D01*
X109302702Y-72671185D01*
G37*
%TD.AperFunction*%
%TA.AperFunction,Conductor*%
G36*
X86961374Y-88836821D02*
G01*
X87006334Y-88874891D01*
X87009890Y-88879785D01*
X87009894Y-88879790D01*
X87160213Y-89030109D01*
X87332179Y-89155048D01*
X87332181Y-89155049D01*
X87332184Y-89155051D01*
X87341493Y-89159794D01*
X87392290Y-89207766D01*
X87409087Y-89275587D01*
X87386552Y-89341722D01*
X87341505Y-89380760D01*
X87332446Y-89385376D01*
X87332440Y-89385380D01*
X87278282Y-89424727D01*
X87278282Y-89424728D01*
X87910591Y-90057037D01*
X87847007Y-90074075D01*
X87732993Y-90139901D01*
X87639901Y-90232993D01*
X87574075Y-90347007D01*
X87557037Y-90410591D01*
X86924728Y-89778282D01*
X86924727Y-89778282D01*
X86885380Y-89832440D01*
X86885376Y-89832446D01*
X86880760Y-89841505D01*
X86832781Y-89892297D01*
X86764959Y-89909087D01*
X86698826Y-89886543D01*
X86659794Y-89841493D01*
X86655051Y-89832184D01*
X86655049Y-89832181D01*
X86655048Y-89832179D01*
X86530109Y-89660213D01*
X86379790Y-89509894D01*
X86379785Y-89509890D01*
X86374891Y-89506334D01*
X86332227Y-89451003D01*
X86326249Y-89381390D01*
X86358857Y-89319595D01*
X86408774Y-89288312D01*
X86419334Y-89284814D01*
X86568656Y-89192712D01*
X86692712Y-89068656D01*
X86784814Y-88919334D01*
X86788312Y-88908775D01*
X86828082Y-88851332D01*
X86892598Y-88824507D01*
X86961374Y-88836821D01*
G37*
%TD.AperFunction*%
%TA.AperFunction,Conductor*%
G36*
X141247288Y-68520185D02*
G01*
X141293043Y-68572989D01*
X141302987Y-68642147D01*
X141273962Y-68705703D01*
X141267930Y-68712181D01*
X141138144Y-68841966D01*
X141138138Y-68841974D01*
X141069690Y-68944410D01*
X141069688Y-68944415D01*
X141022540Y-69058240D01*
X141022535Y-69058256D01*
X141001559Y-69163716D01*
X141001559Y-69163719D01*
X140998500Y-69179096D01*
X140998500Y-69820904D01*
X141019765Y-69927816D01*
X141019766Y-69927819D01*
X141019765Y-69927819D01*
X141022535Y-69941743D01*
X141022536Y-69941746D01*
X141022537Y-69941749D01*
X141069688Y-70055584D01*
X141083174Y-70075766D01*
X141083175Y-70075767D01*
X141083176Y-70075769D01*
X141138140Y-70158029D01*
X141138141Y-70158030D01*
X141138142Y-70158031D01*
X141225267Y-70245156D01*
X141225268Y-70245156D01*
X141232335Y-70252223D01*
X141232334Y-70252223D01*
X141232338Y-70252226D01*
X145037937Y-74057827D01*
X145037959Y-74057847D01*
X145265183Y-74285071D01*
X145298668Y-74346394D01*
X145301502Y-74372752D01*
X145301502Y-77237472D01*
X145281817Y-77304511D01*
X145280604Y-77306363D01*
X145217611Y-77400637D01*
X145217604Y-77400650D01*
X145157266Y-77546320D01*
X145157263Y-77546332D01*
X145126502Y-77700975D01*
X145126502Y-77858668D01*
X145157263Y-78013311D01*
X145157266Y-78013323D01*
X145200851Y-78118548D01*
X145208320Y-78188018D01*
X145177044Y-78250497D01*
X145116955Y-78286148D01*
X145086290Y-78290000D01*
X144713300Y-78290000D01*
X144646261Y-78270315D01*
X144625619Y-78253681D01*
X140086425Y-73714487D01*
X140086423Y-73714485D01*
X139955193Y-73638719D01*
X139955192Y-73638718D01*
X139948154Y-73634655D01*
X139949544Y-73632246D01*
X139905695Y-73596902D01*
X139883637Y-73530606D01*
X139883558Y-73526192D01*
X139883558Y-70624235D01*
X139883558Y-70624234D01*
X139880135Y-70611460D01*
X139844339Y-70477865D01*
X139834919Y-70461549D01*
X139830769Y-70447771D01*
X139830653Y-70431242D01*
X139825500Y-70412008D01*
X139825500Y-69624236D01*
X139825500Y-69624234D01*
X139796575Y-69516285D01*
X139786281Y-69477865D01*
X139776264Y-69460515D01*
X139710515Y-69346635D01*
X139603365Y-69239485D01*
X139076061Y-68712181D01*
X139042576Y-68650858D01*
X139047560Y-68581166D01*
X139089432Y-68525233D01*
X139154896Y-68500816D01*
X139163742Y-68500500D01*
X141180249Y-68500500D01*
X141247288Y-68520185D01*
G37*
%TD.AperFunction*%
%TA.AperFunction,Conductor*%
G36*
X167568834Y-71638269D02*
G01*
X167624767Y-71680141D01*
X167649184Y-71745605D01*
X167649500Y-71754451D01*
X167649500Y-71866286D01*
X167682753Y-72076239D01*
X167748444Y-72278414D01*
X167844951Y-72467820D01*
X167969890Y-72639786D01*
X168120213Y-72790109D01*
X168292179Y-72915048D01*
X168292181Y-72915049D01*
X168292184Y-72915051D01*
X168301493Y-72919794D01*
X168352290Y-72967766D01*
X168369087Y-73035587D01*
X168346552Y-73101722D01*
X168301502Y-73140762D01*
X168292443Y-73145378D01*
X168120540Y-73270272D01*
X168120535Y-73270276D01*
X167970276Y-73420535D01*
X167970272Y-73420540D01*
X167845379Y-73592442D01*
X167748904Y-73781782D01*
X167683242Y-73983870D01*
X167683242Y-73983873D01*
X167672769Y-74050000D01*
X168566988Y-74050000D01*
X168534075Y-74107007D01*
X168500000Y-74234174D01*
X168500000Y-74365826D01*
X168534075Y-74492993D01*
X168566988Y-74550000D01*
X167672769Y-74550000D01*
X167683242Y-74616126D01*
X167683242Y-74616129D01*
X167748904Y-74818217D01*
X167845379Y-75007557D01*
X167970272Y-75179459D01*
X167970276Y-75179464D01*
X168120535Y-75329723D01*
X168120540Y-75329727D01*
X168292444Y-75454622D01*
X168302048Y-75459516D01*
X168352844Y-75507491D01*
X168369638Y-75575312D01*
X168347100Y-75641447D01*
X168302048Y-75680484D01*
X168292444Y-75685377D01*
X168120540Y-75810272D01*
X168120535Y-75810276D01*
X167970276Y-75960535D01*
X167970272Y-75960540D01*
X167845379Y-76132442D01*
X167748904Y-76321782D01*
X167683242Y-76523870D01*
X167683242Y-76523873D01*
X167672769Y-76590000D01*
X168566988Y-76590000D01*
X168534075Y-76647007D01*
X168500000Y-76774174D01*
X168500000Y-76905826D01*
X168534075Y-77032993D01*
X168566988Y-77090000D01*
X167672769Y-77090000D01*
X167683242Y-77156126D01*
X167683242Y-77156129D01*
X167748904Y-77358217D01*
X167845379Y-77547557D01*
X167970272Y-77719459D01*
X167970276Y-77719464D01*
X168120535Y-77869723D01*
X168120540Y-77869727D01*
X168292444Y-77994622D01*
X168301495Y-77999234D01*
X168305870Y-78003365D01*
X168311654Y-78005029D01*
X168330975Y-78027076D01*
X168352292Y-78047208D01*
X168353738Y-78053050D01*
X168357704Y-78057575D01*
X168362038Y-78086567D01*
X168369087Y-78115029D01*
X168367146Y-78120724D01*
X168368036Y-78126677D01*
X168356006Y-78153412D01*
X168346550Y-78181164D01*
X168341203Y-78186315D01*
X168339368Y-78190394D01*
X168326262Y-78200709D01*
X168312825Y-78213656D01*
X168307326Y-78217233D01*
X168292184Y-78224949D01*
X168264040Y-78245396D01*
X168261356Y-78247143D01*
X168230839Y-78256290D01*
X168200812Y-78267004D01*
X168194493Y-78267184D01*
X168194428Y-78267204D01*
X168194371Y-78267187D01*
X168193732Y-78267206D01*
X159766940Y-78267206D01*
X159697639Y-78285775D01*
X159665546Y-78290000D01*
X146767714Y-78290000D01*
X146736240Y-78280758D01*
X146704441Y-78272642D01*
X146702876Y-78270961D01*
X146700675Y-78270315D01*
X146679201Y-78245533D01*
X146656830Y-78221505D01*
X146656422Y-78219244D01*
X146654920Y-78217511D01*
X146650252Y-78185050D01*
X146644424Y-78152746D01*
X146645181Y-78149779D01*
X146644976Y-78148353D01*
X146653153Y-78118548D01*
X146691053Y-78027048D01*
X146734893Y-77972644D01*
X146801188Y-77950579D01*
X146805614Y-77950500D01*
X160956607Y-77950500D01*
X161017029Y-77938481D01*
X161077452Y-77926463D01*
X161110792Y-77912652D01*
X161191286Y-77879312D01*
X161247982Y-77841428D01*
X161247983Y-77841428D01*
X161278273Y-77821187D01*
X161293733Y-77810858D01*
X161380858Y-77723733D01*
X161380859Y-77723730D01*
X161387925Y-77716665D01*
X161387928Y-77716661D01*
X167437819Y-71666770D01*
X167499142Y-71633285D01*
X167568834Y-71638269D01*
G37*
%TD.AperFunction*%
%TA.AperFunction,Conductor*%
G36*
X169250000Y-76406988D02*
G01*
X169192993Y-76374075D01*
X169065826Y-76340000D01*
X168934174Y-76340000D01*
X168807007Y-76374075D01*
X168750000Y-76406988D01*
X168750000Y-74733012D01*
X168807007Y-74765925D01*
X168934174Y-74800000D01*
X169065826Y-74800000D01*
X169192993Y-74765925D01*
X169250000Y-74733012D01*
X169250000Y-76406988D01*
G37*
%TD.AperFunction*%
%TA.AperFunction,Conductor*%
G36*
X138651892Y-72919914D02*
G01*
X138707825Y-72961786D01*
X138732242Y-73027250D01*
X138732558Y-73036096D01*
X138732558Y-73475500D01*
X138712873Y-73542539D01*
X138660069Y-73588294D01*
X138608558Y-73599500D01*
X138169154Y-73599500D01*
X138102115Y-73579815D01*
X138056360Y-73527011D01*
X138046416Y-73457853D01*
X138075441Y-73394297D01*
X138081473Y-73387819D01*
X138328530Y-73140762D01*
X138520878Y-72948414D01*
X138582200Y-72914930D01*
X138651892Y-72919914D01*
G37*
%TD.AperFunction*%
%TA.AperFunction,Conductor*%
G36*
X171074075Y-102112993D02*
G01*
X171139901Y-102227007D01*
X171232993Y-102320099D01*
X171347007Y-102385925D01*
X171410590Y-102402962D01*
X170778282Y-103035269D01*
X170778282Y-103035270D01*
X170832452Y-103074626D01*
X170832451Y-103074626D01*
X170841495Y-103079234D01*
X170892292Y-103127208D01*
X170909087Y-103195029D01*
X170886550Y-103261164D01*
X170841499Y-103300202D01*
X170832182Y-103304949D01*
X170660213Y-103429890D01*
X170509890Y-103580213D01*
X170384949Y-103752182D01*
X170380484Y-103760946D01*
X170332509Y-103811742D01*
X170264688Y-103828536D01*
X170198553Y-103805998D01*
X170159516Y-103760946D01*
X170155050Y-103752182D01*
X170030109Y-103580213D01*
X169879786Y-103429890D01*
X169707817Y-103304949D01*
X169698504Y-103300204D01*
X169647707Y-103252230D01*
X169630912Y-103184409D01*
X169653449Y-103118274D01*
X169698507Y-103079232D01*
X169707555Y-103074622D01*
X169761716Y-103035270D01*
X169761717Y-103035270D01*
X169129408Y-102402962D01*
X169192993Y-102385925D01*
X169307007Y-102320099D01*
X169400099Y-102227007D01*
X169465925Y-102112993D01*
X169482962Y-102049408D01*
X170115270Y-102681717D01*
X170115270Y-102681716D01*
X170154622Y-102627554D01*
X170159514Y-102617954D01*
X170207488Y-102567157D01*
X170275308Y-102550361D01*
X170341444Y-102572897D01*
X170380486Y-102617954D01*
X170385375Y-102627550D01*
X170424728Y-102681716D01*
X171057037Y-102049408D01*
X171074075Y-102112993D01*
G37*
%TD.AperFunction*%
%TA.AperFunction,Conductor*%
G36*
X171074075Y-99572993D02*
G01*
X171139901Y-99687007D01*
X171232993Y-99780099D01*
X171347007Y-99845925D01*
X171410591Y-99862962D01*
X170809971Y-100463581D01*
X170888711Y-100580895D01*
X170889920Y-100584729D01*
X170892844Y-100587491D01*
X170900343Y-100617778D01*
X170909727Y-100647529D01*
X170908671Y-100651408D01*
X170909638Y-100655312D01*
X170899573Y-100684844D01*
X170891383Y-100714947D01*
X170888397Y-100717640D01*
X170887100Y-100721447D01*
X170842051Y-100760483D01*
X170832440Y-100765380D01*
X170778282Y-100804727D01*
X170778282Y-100804728D01*
X171410591Y-101437037D01*
X171347007Y-101454075D01*
X171232993Y-101519901D01*
X171139901Y-101612993D01*
X171074075Y-101727007D01*
X171057037Y-101790591D01*
X170424728Y-101158282D01*
X170424727Y-101158282D01*
X170385380Y-101212440D01*
X170380483Y-101222051D01*
X170332506Y-101272845D01*
X170264684Y-101289638D01*
X170198550Y-101267098D01*
X170159516Y-101222048D01*
X170154626Y-101212452D01*
X170115270Y-101158282D01*
X170115269Y-101158282D01*
X169482962Y-101790590D01*
X169465925Y-101727007D01*
X169400099Y-101612993D01*
X169307007Y-101519901D01*
X169192993Y-101454075D01*
X169129409Y-101437037D01*
X169761716Y-100804728D01*
X169707547Y-100765373D01*
X169707547Y-100765372D01*
X169698500Y-100760763D01*
X169647706Y-100712788D01*
X169630912Y-100644966D01*
X169653451Y-100578832D01*
X169698508Y-100539793D01*
X169707816Y-100535051D01*
X169806187Y-100463581D01*
X169879786Y-100410109D01*
X169879788Y-100410106D01*
X169879792Y-100410104D01*
X170030104Y-100259792D01*
X170030106Y-100259788D01*
X170030109Y-100259786D01*
X170099011Y-100164949D01*
X170155051Y-100087816D01*
X170159793Y-100078508D01*
X170207763Y-100027711D01*
X170275583Y-100010911D01*
X170341719Y-100033445D01*
X170380763Y-100078500D01*
X170385373Y-100087547D01*
X170424728Y-100141716D01*
X171057037Y-99509408D01*
X171074075Y-99572993D01*
G37*
%TD.AperFunction*%
%TA.AperFunction,Conductor*%
G36*
X170461374Y-97676821D02*
G01*
X170506334Y-97714891D01*
X170509890Y-97719785D01*
X170509894Y-97719790D01*
X170660213Y-97870109D01*
X170832179Y-97995048D01*
X170832181Y-97995049D01*
X170832184Y-97995051D01*
X170841493Y-97999794D01*
X170892290Y-98047766D01*
X170909087Y-98115587D01*
X170886552Y-98181722D01*
X170841505Y-98220760D01*
X170832446Y-98225376D01*
X170832440Y-98225380D01*
X170778282Y-98264727D01*
X170778282Y-98264728D01*
X171410591Y-98897037D01*
X171347007Y-98914075D01*
X171232993Y-98979901D01*
X171139901Y-99072993D01*
X171074075Y-99187007D01*
X171057037Y-99250591D01*
X170424728Y-98618282D01*
X170424727Y-98618282D01*
X170385380Y-98672440D01*
X170385376Y-98672446D01*
X170380760Y-98681505D01*
X170332781Y-98732297D01*
X170264959Y-98749087D01*
X170198826Y-98726543D01*
X170159794Y-98681493D01*
X170155051Y-98672184D01*
X170155049Y-98672181D01*
X170155048Y-98672179D01*
X170030109Y-98500213D01*
X169879790Y-98349894D01*
X169879785Y-98349890D01*
X169874891Y-98346334D01*
X169832227Y-98291003D01*
X169826249Y-98221390D01*
X169858857Y-98159595D01*
X169908774Y-98128312D01*
X169919334Y-98124814D01*
X170068656Y-98032712D01*
X170192712Y-97908656D01*
X170284814Y-97759334D01*
X170288312Y-97748775D01*
X170328082Y-97691332D01*
X170392598Y-97664507D01*
X170461374Y-97676821D01*
G37*
%TD.AperFunction*%
%TA.AperFunction,Conductor*%
G36*
X177943039Y-47519685D02*
G01*
X177988794Y-47572489D01*
X178000000Y-47624000D01*
X178000000Y-120376000D01*
X177980315Y-120443039D01*
X177927511Y-120488794D01*
X177876000Y-120500000D01*
X80124000Y-120500000D01*
X80056961Y-120480315D01*
X80011206Y-120427511D01*
X80000000Y-120376000D01*
X80000000Y-116378711D01*
X82149500Y-116378711D01*
X82149500Y-116621288D01*
X82181161Y-116861785D01*
X82243947Y-117096104D01*
X82336773Y-117320205D01*
X82336776Y-117320212D01*
X82458064Y-117530289D01*
X82458066Y-117530292D01*
X82458067Y-117530293D01*
X82605733Y-117722736D01*
X82605739Y-117722743D01*
X82777256Y-117894260D01*
X82777262Y-117894265D01*
X82969711Y-118041936D01*
X83179788Y-118163224D01*
X83403900Y-118256054D01*
X83638211Y-118318838D01*
X83818586Y-118342584D01*
X83878711Y-118350500D01*
X83878712Y-118350500D01*
X84121289Y-118350500D01*
X84169388Y-118344167D01*
X84361789Y-118318838D01*
X84596100Y-118256054D01*
X84820212Y-118163224D01*
X85030289Y-118041936D01*
X85222738Y-117894265D01*
X85394265Y-117722738D01*
X85541936Y-117530289D01*
X85663224Y-117320212D01*
X85756054Y-117096100D01*
X85818838Y-116861789D01*
X85850500Y-116621288D01*
X85850500Y-116378712D01*
X85850500Y-116378711D01*
X172149500Y-116378711D01*
X172149500Y-116621288D01*
X172181161Y-116861785D01*
X172243947Y-117096104D01*
X172336773Y-117320205D01*
X172336776Y-117320212D01*
X172458064Y-117530289D01*
X172458066Y-117530292D01*
X172458067Y-117530293D01*
X172605733Y-117722736D01*
X172605739Y-117722743D01*
X172777256Y-117894260D01*
X172777262Y-117894265D01*
X172969711Y-118041936D01*
X173179788Y-118163224D01*
X173403900Y-118256054D01*
X173638211Y-118318838D01*
X173818586Y-118342584D01*
X173878711Y-118350500D01*
X173878712Y-118350500D01*
X174121289Y-118350500D01*
X174169388Y-118344167D01*
X174361789Y-118318838D01*
X174596100Y-118256054D01*
X174820212Y-118163224D01*
X175030289Y-118041936D01*
X175222738Y-117894265D01*
X175394265Y-117722738D01*
X175541936Y-117530289D01*
X175663224Y-117320212D01*
X175756054Y-117096100D01*
X175818838Y-116861789D01*
X175850500Y-116621288D01*
X175850500Y-116378712D01*
X175818838Y-116138211D01*
X175756054Y-115903900D01*
X175663224Y-115679788D01*
X175541936Y-115469711D01*
X175394265Y-115277262D01*
X175394260Y-115277256D01*
X175222743Y-115105739D01*
X175222736Y-115105733D01*
X175030293Y-114958067D01*
X175030292Y-114958066D01*
X175030289Y-114958064D01*
X174820212Y-114836776D01*
X174820205Y-114836773D01*
X174596104Y-114743947D01*
X174361785Y-114681161D01*
X174121289Y-114649500D01*
X174121288Y-114649500D01*
X173878712Y-114649500D01*
X173878711Y-114649500D01*
X173638214Y-114681161D01*
X173403895Y-114743947D01*
X173179794Y-114836773D01*
X173179785Y-114836777D01*
X172969706Y-114958067D01*
X172777263Y-115105733D01*
X172777256Y-115105739D01*
X172605739Y-115277256D01*
X172605733Y-115277263D01*
X172458067Y-115469706D01*
X172336777Y-115679785D01*
X172336773Y-115679794D01*
X172243947Y-115903895D01*
X172181161Y-116138214D01*
X172149500Y-116378711D01*
X85850500Y-116378711D01*
X85818838Y-116138211D01*
X85756054Y-115903900D01*
X85663224Y-115679788D01*
X85541936Y-115469711D01*
X85394265Y-115277262D01*
X85394260Y-115277256D01*
X85222743Y-115105739D01*
X85222736Y-115105733D01*
X85030293Y-114958067D01*
X85030292Y-114958066D01*
X85030289Y-114958064D01*
X84820212Y-114836776D01*
X84820205Y-114836773D01*
X84596104Y-114743947D01*
X84361785Y-114681161D01*
X84121289Y-114649500D01*
X84121288Y-114649500D01*
X83878712Y-114649500D01*
X83878711Y-114649500D01*
X83638214Y-114681161D01*
X83403895Y-114743947D01*
X83179794Y-114836773D01*
X83179785Y-114836777D01*
X82969706Y-114958067D01*
X82777263Y-115105733D01*
X82777256Y-115105739D01*
X82605739Y-115277256D01*
X82605733Y-115277263D01*
X82458067Y-115469706D01*
X82336777Y-115679785D01*
X82336773Y-115679794D01*
X82243947Y-115903895D01*
X82181161Y-116138214D01*
X82149500Y-116378711D01*
X80000000Y-116378711D01*
X80000000Y-87099430D01*
X83798500Y-87099430D01*
X83798500Y-96958234D01*
X83798500Y-97109766D01*
X83803892Y-97129890D01*
X83837719Y-97256136D01*
X83851620Y-97280213D01*
X83913485Y-97387365D01*
X83913487Y-97387367D01*
X84174911Y-97648791D01*
X84208396Y-97710114D01*
X84205162Y-97774788D01*
X84182753Y-97843757D01*
X84152826Y-98032712D01*
X84149500Y-98053713D01*
X84149500Y-98266287D01*
X84158407Y-98322523D01*
X84162741Y-98349890D01*
X84182754Y-98476243D01*
X84246916Y-98673713D01*
X84248444Y-98678414D01*
X84344951Y-98867820D01*
X84469890Y-99039786D01*
X84620213Y-99190109D01*
X84792179Y-99315048D01*
X84792181Y-99315049D01*
X84792184Y-99315051D01*
X84981588Y-99411557D01*
X85183757Y-99477246D01*
X85393713Y-99510500D01*
X85393714Y-99510500D01*
X85606286Y-99510500D01*
X85606287Y-99510500D01*
X85816243Y-99477246D01*
X86018412Y-99411557D01*
X86207816Y-99315051D01*
X86314590Y-99237476D01*
X86379786Y-99190109D01*
X86379788Y-99190106D01*
X86379792Y-99190104D01*
X86530104Y-99039792D01*
X86530106Y-99039788D01*
X86530109Y-99039786D01*
X86655048Y-98867820D01*
X86655049Y-98867819D01*
X86655051Y-98867816D01*
X86659514Y-98859054D01*
X86707488Y-98808259D01*
X86775308Y-98791463D01*
X86841444Y-98813999D01*
X86880486Y-98859056D01*
X86884951Y-98867820D01*
X87009890Y-99039786D01*
X87160213Y-99190109D01*
X87332179Y-99315048D01*
X87332181Y-99315049D01*
X87332184Y-99315051D01*
X87521588Y-99411557D01*
X87723757Y-99477246D01*
X87933713Y-99510500D01*
X87933714Y-99510500D01*
X88146286Y-99510500D01*
X88146287Y-99510500D01*
X88356243Y-99477246D01*
X88558412Y-99411557D01*
X88747816Y-99315051D01*
X88854590Y-99237476D01*
X88919786Y-99190109D01*
X88919788Y-99190106D01*
X88919792Y-99190104D01*
X89070104Y-99039792D01*
X89070106Y-99039788D01*
X89070109Y-99039786D01*
X89161442Y-98914075D01*
X89195051Y-98867816D01*
X89227972Y-98803205D01*
X89275947Y-98752409D01*
X89338457Y-98735500D01*
X112575764Y-98735500D01*
X112575766Y-98735500D01*
X112722135Y-98696281D01*
X112853365Y-98620515D01*
X130987061Y-80486819D01*
X131048384Y-80453334D01*
X131074742Y-80450500D01*
X131875846Y-80450500D01*
X131942885Y-80470185D01*
X131988640Y-80522989D01*
X131998584Y-80592147D01*
X131969559Y-80655703D01*
X131963527Y-80662181D01*
X125763162Y-86862544D01*
X125763154Y-86862552D01*
X125760270Y-86865437D01*
X125760267Y-86865440D01*
X125673142Y-86952565D01*
X125641781Y-86999500D01*
X125637287Y-87006224D01*
X125637282Y-87006231D01*
X125604690Y-87055008D01*
X125604685Y-87055017D01*
X125580517Y-87113367D01*
X125580517Y-87113368D01*
X125557537Y-87168845D01*
X125557535Y-87168853D01*
X125546792Y-87222859D01*
X125546793Y-87222860D01*
X125535429Y-87279995D01*
X125535429Y-87279996D01*
X125533500Y-87289694D01*
X125533500Y-89380611D01*
X125557535Y-89501444D01*
X125557540Y-89501461D01*
X125604685Y-89615281D01*
X125604688Y-89615286D01*
X125634705Y-89660208D01*
X125673142Y-89717733D01*
X125760267Y-89804858D01*
X125760270Y-89804860D01*
X125767750Y-89812340D01*
X126657571Y-90702161D01*
X126691056Y-90763484D01*
X126687822Y-90828158D01*
X126682753Y-90843757D01*
X126657069Y-91005925D01*
X126649500Y-91053713D01*
X126649500Y-91266287D01*
X126655112Y-91301717D01*
X126673812Y-91419790D01*
X126682754Y-91476243D01*
X126730627Y-91623581D01*
X126748444Y-91678414D01*
X126844951Y-91867820D01*
X126969890Y-92039786D01*
X127120213Y-92190109D01*
X127292182Y-92315050D01*
X127300946Y-92319516D01*
X127351742Y-92367491D01*
X127368536Y-92435312D01*
X127345998Y-92501447D01*
X127300946Y-92540484D01*
X127292182Y-92544949D01*
X127120213Y-92669890D01*
X126969890Y-92820213D01*
X126844951Y-92992179D01*
X126748444Y-93181585D01*
X126682753Y-93383760D01*
X126682239Y-93387007D01*
X126649500Y-93593713D01*
X126649500Y-93806287D01*
X126682754Y-94016243D01*
X126748262Y-94217856D01*
X126748444Y-94218414D01*
X126844951Y-94407820D01*
X126969890Y-94579786D01*
X127120213Y-94730109D01*
X127292182Y-94855050D01*
X127300946Y-94859516D01*
X127351742Y-94907491D01*
X127368536Y-94975312D01*
X127345998Y-95041447D01*
X127300946Y-95080484D01*
X127292182Y-95084949D01*
X127120213Y-95209890D01*
X126969890Y-95360213D01*
X126844951Y-95532179D01*
X126748444Y-95721585D01*
X126682753Y-95923760D01*
X126649500Y-96133713D01*
X126649500Y-96346286D01*
X126677608Y-96523757D01*
X126682754Y-96556243D01*
X126748262Y-96757856D01*
X126748444Y-96758414D01*
X126844951Y-96947820D01*
X126969890Y-97119786D01*
X127120213Y-97270109D01*
X127292182Y-97395050D01*
X127300946Y-97399516D01*
X127351742Y-97447491D01*
X127368536Y-97515312D01*
X127345998Y-97581447D01*
X127300946Y-97620484D01*
X127292182Y-97624949D01*
X127120213Y-97749890D01*
X126969890Y-97900213D01*
X126844951Y-98072179D01*
X126748444Y-98261585D01*
X126682753Y-98463760D01*
X126649500Y-98673713D01*
X126649500Y-98886286D01*
X126679071Y-99072993D01*
X126682754Y-99096243D01*
X126748262Y-99297856D01*
X126748444Y-99298414D01*
X126844951Y-99487820D01*
X126969890Y-99659786D01*
X127120213Y-99810109D01*
X127292182Y-99935050D01*
X127300946Y-99939516D01*
X127351742Y-99987491D01*
X127368536Y-100055312D01*
X127345998Y-100121447D01*
X127300946Y-100160484D01*
X127292182Y-100164949D01*
X127120213Y-100289890D01*
X126969890Y-100440213D01*
X126844951Y-100612179D01*
X126748444Y-100801585D01*
X126682753Y-101003760D01*
X126649500Y-101213713D01*
X126649500Y-101426286D01*
X126679071Y-101612993D01*
X126682754Y-101636243D01*
X126748262Y-101837856D01*
X126748444Y-101838414D01*
X126844951Y-102027820D01*
X126969890Y-102199786D01*
X127120213Y-102350109D01*
X127292182Y-102475050D01*
X127300946Y-102479516D01*
X127351742Y-102527491D01*
X127368536Y-102595312D01*
X127345998Y-102661447D01*
X127300946Y-102700484D01*
X127292182Y-102704949D01*
X127120213Y-102829890D01*
X126969890Y-102980213D01*
X126844951Y-103152179D01*
X126748444Y-103341585D01*
X126682753Y-103543760D01*
X126649500Y-103753713D01*
X126649500Y-103966286D01*
X126677608Y-104143757D01*
X126682754Y-104176243D01*
X126748262Y-104377856D01*
X126748444Y-104378414D01*
X126844951Y-104567820D01*
X126969890Y-104739786D01*
X127120213Y-104890109D01*
X127292182Y-105015050D01*
X127300946Y-105019516D01*
X127351742Y-105067491D01*
X127368536Y-105135312D01*
X127345998Y-105201447D01*
X127300946Y-105240484D01*
X127292182Y-105244949D01*
X127120213Y-105369890D01*
X126969890Y-105520213D01*
X126844951Y-105692179D01*
X126748444Y-105881585D01*
X126682753Y-106083760D01*
X126649500Y-106293713D01*
X126649500Y-106506286D01*
X126677608Y-106683757D01*
X126682754Y-106716243D01*
X126748262Y-106917856D01*
X126748444Y-106918414D01*
X126844951Y-107107820D01*
X126969890Y-107279786D01*
X127120213Y-107430109D01*
X127292182Y-107555050D01*
X127300946Y-107559516D01*
X127351742Y-107607491D01*
X127368536Y-107675312D01*
X127345998Y-107741447D01*
X127300946Y-107780484D01*
X127292182Y-107784949D01*
X127120213Y-107909890D01*
X126969890Y-108060213D01*
X126844951Y-108232179D01*
X126748444Y-108421585D01*
X126682753Y-108623760D01*
X126649500Y-108833713D01*
X126649500Y-109046287D01*
X126682754Y-109256243D01*
X126748262Y-109457856D01*
X126748444Y-109458414D01*
X126844951Y-109647820D01*
X126969890Y-109819786D01*
X127120213Y-109970109D01*
X127292182Y-110095050D01*
X127300946Y-110099516D01*
X127351742Y-110147491D01*
X127368536Y-110215312D01*
X127345998Y-110281447D01*
X127300946Y-110320484D01*
X127292182Y-110324949D01*
X127120213Y-110449890D01*
X126969890Y-110600213D01*
X126844951Y-110772179D01*
X126748444Y-110961585D01*
X126682753Y-111163760D01*
X126649500Y-111373713D01*
X126649500Y-111586287D01*
X126682754Y-111796243D01*
X126748262Y-111997856D01*
X126748444Y-111998414D01*
X126844951Y-112187820D01*
X126969890Y-112359786D01*
X127120213Y-112510109D01*
X127292179Y-112635048D01*
X127292181Y-112635049D01*
X127292184Y-112635051D01*
X127481588Y-112731557D01*
X127683757Y-112797246D01*
X127893713Y-112830500D01*
X127893714Y-112830500D01*
X128106286Y-112830500D01*
X128106287Y-112830500D01*
X128316243Y-112797246D01*
X128518412Y-112731557D01*
X128707816Y-112635051D01*
X128729789Y-112619086D01*
X128879786Y-112510109D01*
X128879788Y-112510106D01*
X128879792Y-112510104D01*
X129030104Y-112359792D01*
X129030106Y-112359788D01*
X129030109Y-112359786D01*
X129155048Y-112187820D01*
X129155047Y-112187820D01*
X129155051Y-112187816D01*
X129159514Y-112179054D01*
X129207488Y-112128259D01*
X129275308Y-112111463D01*
X129341444Y-112133999D01*
X129380486Y-112179056D01*
X129384951Y-112187820D01*
X129509890Y-112359786D01*
X129660213Y-112510109D01*
X129832179Y-112635048D01*
X129832181Y-112635049D01*
X129832184Y-112635051D01*
X130021588Y-112731557D01*
X130223757Y-112797246D01*
X130433713Y-112830500D01*
X130433714Y-112830500D01*
X130646286Y-112830500D01*
X130646287Y-112830500D01*
X130856243Y-112797246D01*
X130925210Y-112774836D01*
X130995048Y-112772842D01*
X131051207Y-112805087D01*
X131205485Y-112959365D01*
X131312635Y-113066515D01*
X131443865Y-113142281D01*
X131590233Y-113181500D01*
X131590234Y-113181500D01*
X131590235Y-113181500D01*
X143449764Y-113181500D01*
X143449766Y-113181500D01*
X143596135Y-113142281D01*
X143727365Y-113066515D01*
X143988794Y-112805084D01*
X144050113Y-112771602D01*
X144114789Y-112774836D01*
X144183757Y-112797246D01*
X144393713Y-112830500D01*
X144393714Y-112830500D01*
X144606286Y-112830500D01*
X144606287Y-112830500D01*
X144816243Y-112797246D01*
X144885210Y-112774836D01*
X144955048Y-112772842D01*
X145011207Y-112805087D01*
X145165485Y-112959365D01*
X145272635Y-113066515D01*
X145403865Y-113142281D01*
X145550233Y-113181500D01*
X145550234Y-113181500D01*
X145550235Y-113181500D01*
X157449764Y-113181500D01*
X157449766Y-113181500D01*
X157596135Y-113142281D01*
X157727365Y-113066515D01*
X157988794Y-112805084D01*
X158050113Y-112771602D01*
X158114789Y-112774836D01*
X158183757Y-112797246D01*
X158393713Y-112830500D01*
X158393714Y-112830500D01*
X158606286Y-112830500D01*
X158606287Y-112830500D01*
X158816243Y-112797246D01*
X159018412Y-112731557D01*
X159207816Y-112635051D01*
X159229789Y-112619086D01*
X159379786Y-112510109D01*
X159379788Y-112510106D01*
X159379792Y-112510104D01*
X159530104Y-112359792D01*
X159530106Y-112359788D01*
X159530109Y-112359786D01*
X159655048Y-112187820D01*
X159655047Y-112187820D01*
X159655051Y-112187816D01*
X159751557Y-111998412D01*
X159817246Y-111796243D01*
X159850500Y-111586287D01*
X159850500Y-111373713D01*
X159817246Y-111163757D01*
X159751557Y-110961588D01*
X159655051Y-110772184D01*
X159655049Y-110772181D01*
X159655048Y-110772179D01*
X159530109Y-110600213D01*
X159379786Y-110449890D01*
X159207820Y-110324951D01*
X159207115Y-110324591D01*
X159199054Y-110320485D01*
X159148259Y-110272512D01*
X159131463Y-110204692D01*
X159153999Y-110138556D01*
X159199054Y-110099515D01*
X159207816Y-110095051D01*
X159229789Y-110079086D01*
X159379786Y-109970109D01*
X159379788Y-109970106D01*
X159379792Y-109970104D01*
X159530104Y-109819792D01*
X159530106Y-109819788D01*
X159530109Y-109819786D01*
X159655048Y-109647820D01*
X159655047Y-109647820D01*
X159655051Y-109647816D01*
X159751557Y-109458412D01*
X159817246Y-109256243D01*
X159850500Y-109046287D01*
X159850500Y-108833713D01*
X159817246Y-108623757D01*
X159751557Y-108421588D01*
X159655051Y-108232184D01*
X159655049Y-108232181D01*
X159655048Y-108232179D01*
X159530109Y-108060213D01*
X159379786Y-107909890D01*
X159207820Y-107784951D01*
X159207115Y-107784591D01*
X159199054Y-107780485D01*
X159148259Y-107732512D01*
X159131463Y-107664692D01*
X159153999Y-107598556D01*
X159199054Y-107559515D01*
X159207816Y-107555051D01*
X159258246Y-107518412D01*
X159379786Y-107430109D01*
X159379788Y-107430106D01*
X159379792Y-107430104D01*
X159530104Y-107279792D01*
X159530106Y-107279788D01*
X159530109Y-107279786D01*
X159655048Y-107107820D01*
X159655047Y-107107820D01*
X159655051Y-107107816D01*
X159751557Y-106918412D01*
X159817246Y-106716243D01*
X159850500Y-106506287D01*
X159850500Y-106293713D01*
X159817246Y-106083757D01*
X159751557Y-105881588D01*
X159655051Y-105692184D01*
X159655049Y-105692181D01*
X159655048Y-105692179D01*
X159530109Y-105520213D01*
X159379786Y-105369890D01*
X159207820Y-105244951D01*
X159207115Y-105244591D01*
X159199054Y-105240485D01*
X159148259Y-105192512D01*
X159131463Y-105124692D01*
X159153999Y-105058556D01*
X159199054Y-105019515D01*
X159207816Y-105015051D01*
X159258246Y-104978412D01*
X159379786Y-104890109D01*
X159379788Y-104890106D01*
X159379792Y-104890104D01*
X159530104Y-104739792D01*
X159530106Y-104739788D01*
X159530109Y-104739786D01*
X159655048Y-104567820D01*
X159655047Y-104567820D01*
X159655051Y-104567816D01*
X159751557Y-104378412D01*
X159817246Y-104176243D01*
X159850500Y-103966287D01*
X159850500Y-103753713D01*
X159817246Y-103543757D01*
X159751557Y-103341588D01*
X159655051Y-103152184D01*
X159655049Y-103152181D01*
X159655048Y-103152179D01*
X159530109Y-102980213D01*
X159379786Y-102829890D01*
X159207820Y-102704951D01*
X159207115Y-102704591D01*
X159199054Y-102700485D01*
X159148259Y-102652512D01*
X159131463Y-102584692D01*
X159153999Y-102518556D01*
X159199054Y-102479515D01*
X159207816Y-102475051D01*
X159283588Y-102420000D01*
X159379786Y-102350109D01*
X159379788Y-102350106D01*
X159379792Y-102350104D01*
X159530104Y-102199792D01*
X159530106Y-102199788D01*
X159530109Y-102199786D01*
X159655048Y-102027820D01*
X159655047Y-102027820D01*
X159655051Y-102027816D01*
X159751557Y-101838412D01*
X159817246Y-101636243D01*
X159850500Y-101426287D01*
X159850500Y-101213713D01*
X159817246Y-101003757D01*
X159751557Y-100801588D01*
X159655051Y-100612184D01*
X159655049Y-100612181D01*
X159655048Y-100612179D01*
X159530109Y-100440213D01*
X159379786Y-100289890D01*
X159207820Y-100164951D01*
X159207115Y-100164591D01*
X159199054Y-100160485D01*
X159148259Y-100112512D01*
X159131463Y-100044692D01*
X159153999Y-99978556D01*
X159199054Y-99939515D01*
X159207816Y-99935051D01*
X159283588Y-99880000D01*
X159379786Y-99810109D01*
X159379788Y-99810106D01*
X159379792Y-99810104D01*
X159530104Y-99659792D01*
X159530106Y-99659788D01*
X159530109Y-99659786D01*
X159655048Y-99487820D01*
X159655047Y-99487820D01*
X159655051Y-99487816D01*
X159751557Y-99298412D01*
X159817246Y-99096243D01*
X159850500Y-98886287D01*
X159850500Y-98673713D01*
X159817246Y-98463757D01*
X159751557Y-98261588D01*
X159655051Y-98072184D01*
X159655049Y-98072181D01*
X159655048Y-98072179D01*
X159530109Y-97900213D01*
X159379786Y-97749890D01*
X159207820Y-97624951D01*
X159207115Y-97624591D01*
X159199054Y-97620485D01*
X159148259Y-97572512D01*
X159131463Y-97504692D01*
X159153999Y-97438556D01*
X159199054Y-97399515D01*
X159207816Y-97395051D01*
X159258246Y-97358412D01*
X159379786Y-97270109D01*
X159379788Y-97270106D01*
X159379792Y-97270104D01*
X159530104Y-97119792D01*
X159530106Y-97119788D01*
X159530109Y-97119786D01*
X159655048Y-96947820D01*
X159655047Y-96947820D01*
X159655051Y-96947816D01*
X159751557Y-96758412D01*
X159817246Y-96556243D01*
X159850500Y-96346287D01*
X159850500Y-96189983D01*
X167649500Y-96189983D01*
X167649500Y-97490001D01*
X167649501Y-97490018D01*
X167660000Y-97592796D01*
X167660001Y-97592799D01*
X167698876Y-97710114D01*
X167715186Y-97759334D01*
X167807288Y-97908656D01*
X167931344Y-98032712D01*
X168080666Y-98124814D01*
X168091223Y-98128312D01*
X168148668Y-98168084D01*
X168175492Y-98232600D01*
X168163177Y-98301376D01*
X168125113Y-98346330D01*
X168120219Y-98349885D01*
X168120209Y-98349894D01*
X167969890Y-98500213D01*
X167844951Y-98672179D01*
X167748444Y-98861585D01*
X167682753Y-99063760D01*
X167649500Y-99273713D01*
X167649500Y-99486286D01*
X167682735Y-99696127D01*
X167682754Y-99696243D01*
X167719751Y-99810109D01*
X167748444Y-99898414D01*
X167844951Y-100087820D01*
X167969890Y-100259786D01*
X168120213Y-100410109D01*
X168292179Y-100535048D01*
X168292181Y-100535049D01*
X168292184Y-100535051D01*
X168301493Y-100539794D01*
X168352290Y-100587766D01*
X168369087Y-100655587D01*
X168346552Y-100721722D01*
X168301505Y-100760760D01*
X168292446Y-100765376D01*
X168292440Y-100765380D01*
X168238282Y-100804727D01*
X168238282Y-100804728D01*
X168870591Y-101437037D01*
X168807007Y-101454075D01*
X168692993Y-101519901D01*
X168599901Y-101612993D01*
X168534075Y-101727007D01*
X168517037Y-101790591D01*
X167884728Y-101158282D01*
X167884727Y-101158282D01*
X167845380Y-101212439D01*
X167748904Y-101401782D01*
X167683242Y-101603869D01*
X167683242Y-101603872D01*
X167650000Y-101813753D01*
X167650000Y-102026246D01*
X167683242Y-102236127D01*
X167683242Y-102236130D01*
X167748904Y-102438217D01*
X167845375Y-102627550D01*
X167884728Y-102681716D01*
X168517036Y-102049407D01*
X168534075Y-102112993D01*
X168599901Y-102227007D01*
X168692993Y-102320099D01*
X168807007Y-102385925D01*
X168870590Y-102402962D01*
X168238282Y-103035269D01*
X168238282Y-103035270D01*
X168292452Y-103074626D01*
X168292451Y-103074626D01*
X168301495Y-103079234D01*
X168352292Y-103127208D01*
X168369087Y-103195029D01*
X168346550Y-103261164D01*
X168301499Y-103300202D01*
X168292182Y-103304949D01*
X168120213Y-103429890D01*
X167969890Y-103580213D01*
X167844951Y-103752179D01*
X167748444Y-103941585D01*
X167682753Y-104143760D01*
X167649500Y-104353713D01*
X167649500Y-104566286D01*
X167676980Y-104739792D01*
X167682754Y-104776243D01*
X167719751Y-104890109D01*
X167748444Y-104978414D01*
X167844951Y-105167820D01*
X167969890Y-105339786D01*
X168120213Y-105490109D01*
X168292182Y-105615050D01*
X168300946Y-105619516D01*
X168351742Y-105667491D01*
X168368536Y-105735312D01*
X168345998Y-105801447D01*
X168300946Y-105840484D01*
X168292182Y-105844949D01*
X168120213Y-105969890D01*
X167969890Y-106120213D01*
X167844951Y-106292179D01*
X167748444Y-106481585D01*
X167682753Y-106683760D01*
X167649500Y-106893713D01*
X167649500Y-107106286D01*
X167676980Y-107279792D01*
X167682754Y-107316243D01*
X167719751Y-107430109D01*
X167748444Y-107518414D01*
X167844951Y-107707820D01*
X167969890Y-107879786D01*
X168120213Y-108030109D01*
X168292179Y-108155048D01*
X168292181Y-108155049D01*
X168292184Y-108155051D01*
X168481588Y-108251557D01*
X168683757Y-108317246D01*
X168893713Y-108350500D01*
X168893714Y-108350500D01*
X169106286Y-108350500D01*
X169106287Y-108350500D01*
X169316243Y-108317246D01*
X169518412Y-108251557D01*
X169707816Y-108155051D01*
X169781523Y-108101500D01*
X169879786Y-108030109D01*
X169879788Y-108030106D01*
X169879792Y-108030104D01*
X170030104Y-107879792D01*
X170030106Y-107879788D01*
X170030109Y-107879786D01*
X170155048Y-107707820D01*
X170155047Y-107707820D01*
X170155051Y-107707816D01*
X170159514Y-107699054D01*
X170207488Y-107648259D01*
X170275308Y-107631463D01*
X170341444Y-107653999D01*
X170380486Y-107699056D01*
X170384951Y-107707820D01*
X170509890Y-107879786D01*
X170660213Y-108030109D01*
X170832179Y-108155048D01*
X170832181Y-108155049D01*
X170832184Y-108155051D01*
X171021588Y-108251557D01*
X171223757Y-108317246D01*
X171433713Y-108350500D01*
X171433714Y-108350500D01*
X171646286Y-108350500D01*
X171646287Y-108350500D01*
X171856243Y-108317246D01*
X172058412Y-108251557D01*
X172247816Y-108155051D01*
X172321523Y-108101500D01*
X172419786Y-108030109D01*
X172419788Y-108030106D01*
X172419792Y-108030104D01*
X172570104Y-107879792D01*
X172570106Y-107879788D01*
X172570109Y-107879786D01*
X172695048Y-107707820D01*
X172695047Y-107707820D01*
X172695051Y-107707816D01*
X172791557Y-107518412D01*
X172857246Y-107316243D01*
X172890500Y-107106287D01*
X172890500Y-106893713D01*
X172857246Y-106683757D01*
X172791557Y-106481588D01*
X172695051Y-106292184D01*
X172695049Y-106292181D01*
X172695048Y-106292179D01*
X172570109Y-106120213D01*
X172419786Y-105969890D01*
X172247820Y-105844951D01*
X172247115Y-105844591D01*
X172239054Y-105840485D01*
X172188259Y-105792512D01*
X172171463Y-105724692D01*
X172193999Y-105658556D01*
X172239054Y-105619515D01*
X172247816Y-105615051D01*
X172321523Y-105561500D01*
X172419786Y-105490109D01*
X172419788Y-105490106D01*
X172419792Y-105490104D01*
X172570104Y-105339792D01*
X172570106Y-105339788D01*
X172570109Y-105339786D01*
X172695048Y-105167820D01*
X172695047Y-105167820D01*
X172695051Y-105167816D01*
X172791557Y-104978412D01*
X172857246Y-104776243D01*
X172890500Y-104566287D01*
X172890500Y-104353713D01*
X172857246Y-104143757D01*
X172791557Y-103941588D01*
X172695051Y-103752184D01*
X172695049Y-103752181D01*
X172695048Y-103752179D01*
X172570109Y-103580213D01*
X172419786Y-103429890D01*
X172247817Y-103304949D01*
X172238504Y-103300204D01*
X172187707Y-103252230D01*
X172170912Y-103184409D01*
X172193449Y-103118274D01*
X172238507Y-103079232D01*
X172247555Y-103074622D01*
X172301716Y-103035270D01*
X172301717Y-103035270D01*
X171669408Y-102402962D01*
X171732993Y-102385925D01*
X171847007Y-102320099D01*
X171940099Y-102227007D01*
X172005925Y-102112993D01*
X172022962Y-102049408D01*
X172655270Y-102681717D01*
X172655270Y-102681716D01*
X172694622Y-102627554D01*
X172791095Y-102438217D01*
X172856757Y-102236130D01*
X172856757Y-102236127D01*
X172890000Y-102026246D01*
X172890000Y-101813753D01*
X172856757Y-101603872D01*
X172856757Y-101603869D01*
X172791095Y-101401782D01*
X172694624Y-101212449D01*
X172655270Y-101158282D01*
X172655269Y-101158282D01*
X172022962Y-101790590D01*
X172005925Y-101727007D01*
X171940099Y-101612993D01*
X171847007Y-101519901D01*
X171732993Y-101454075D01*
X171669409Y-101437037D01*
X172301716Y-100804728D01*
X172247550Y-100765375D01*
X172237954Y-100760486D01*
X172187157Y-100712512D01*
X172170361Y-100644692D01*
X172192897Y-100578556D01*
X172237954Y-100539514D01*
X172247554Y-100534622D01*
X172301716Y-100495270D01*
X172301717Y-100495270D01*
X171669408Y-99862962D01*
X171732993Y-99845925D01*
X171847007Y-99780099D01*
X171940099Y-99687007D01*
X172005925Y-99572993D01*
X172022962Y-99509408D01*
X172655270Y-100141717D01*
X172655270Y-100141716D01*
X172694622Y-100087554D01*
X172791095Y-99898217D01*
X172856757Y-99696130D01*
X172856757Y-99696127D01*
X172890000Y-99486246D01*
X172890000Y-99273753D01*
X172856757Y-99063872D01*
X172856757Y-99063869D01*
X172791095Y-98861782D01*
X172694624Y-98672449D01*
X172655270Y-98618282D01*
X172655269Y-98618282D01*
X172022962Y-99250590D01*
X172005925Y-99187007D01*
X171940099Y-99072993D01*
X171847007Y-98979901D01*
X171732993Y-98914075D01*
X171669409Y-98897037D01*
X172301716Y-98264728D01*
X172247547Y-98225373D01*
X172247547Y-98225372D01*
X172238500Y-98220763D01*
X172187706Y-98172788D01*
X172170912Y-98104966D01*
X172193451Y-98038832D01*
X172238508Y-97999793D01*
X172247816Y-97995051D01*
X172366728Y-97908657D01*
X172419786Y-97870109D01*
X172419788Y-97870106D01*
X172419792Y-97870104D01*
X172570104Y-97719792D01*
X172570106Y-97719788D01*
X172570109Y-97719786D01*
X172695048Y-97547820D01*
X172695047Y-97547820D01*
X172695051Y-97547816D01*
X172791557Y-97358412D01*
X172857246Y-97156243D01*
X172890500Y-96946287D01*
X172890500Y-96733713D01*
X172857246Y-96523757D01*
X172791557Y-96321588D01*
X172695051Y-96132184D01*
X172695049Y-96132181D01*
X172695048Y-96132179D01*
X172570109Y-95960213D01*
X172419786Y-95809890D01*
X172247820Y-95684951D01*
X172058414Y-95588444D01*
X172058413Y-95588443D01*
X172058412Y-95588443D01*
X171856243Y-95522754D01*
X171856241Y-95522753D01*
X171856240Y-95522753D01*
X171694957Y-95497208D01*
X171646287Y-95489500D01*
X171433713Y-95489500D01*
X171385042Y-95497208D01*
X171223760Y-95522753D01*
X171021585Y-95588444D01*
X170832179Y-95684951D01*
X170660213Y-95809890D01*
X170509894Y-95960209D01*
X170509885Y-95960219D01*
X170506330Y-95965113D01*
X170450997Y-96007775D01*
X170381383Y-96013748D01*
X170319591Y-95981137D01*
X170288312Y-95931223D01*
X170284815Y-95920670D01*
X170284814Y-95920666D01*
X170192712Y-95771344D01*
X170068656Y-95647288D01*
X169919334Y-95555186D01*
X169752797Y-95500001D01*
X169752795Y-95500000D01*
X169650010Y-95489500D01*
X168349998Y-95489500D01*
X168349981Y-95489501D01*
X168247203Y-95500000D01*
X168247200Y-95500001D01*
X168080668Y-95555185D01*
X168080663Y-95555187D01*
X167931342Y-95647289D01*
X167807289Y-95771342D01*
X167715187Y-95920663D01*
X167715185Y-95920668D01*
X167710024Y-95936243D01*
X167660001Y-96087203D01*
X167660001Y-96087204D01*
X167660000Y-96087204D01*
X167649500Y-96189983D01*
X159850500Y-96189983D01*
X159850500Y-96133713D01*
X159817246Y-95923757D01*
X159751557Y-95721588D01*
X159655051Y-95532184D01*
X159655049Y-95532181D01*
X159655048Y-95532179D01*
X159530109Y-95360213D01*
X159379786Y-95209890D01*
X159207820Y-95084951D01*
X159207115Y-95084591D01*
X159199054Y-95080485D01*
X159148259Y-95032512D01*
X159131463Y-94964692D01*
X159153999Y-94898556D01*
X159199054Y-94859515D01*
X159207816Y-94855051D01*
X159229789Y-94839086D01*
X159379786Y-94730109D01*
X159379788Y-94730106D01*
X159379792Y-94730104D01*
X159530104Y-94579792D01*
X159530106Y-94579788D01*
X159530109Y-94579786D01*
X159655048Y-94407820D01*
X159655047Y-94407820D01*
X159655051Y-94407816D01*
X159751557Y-94218412D01*
X159817246Y-94016243D01*
X159850500Y-93806287D01*
X159850500Y-93593713D01*
X159817246Y-93383757D01*
X159751557Y-93181588D01*
X159655051Y-92992184D01*
X159655049Y-92992181D01*
X159655048Y-92992179D01*
X159530109Y-92820213D01*
X159379786Y-92669890D01*
X159207820Y-92544951D01*
X159207115Y-92544591D01*
X159199054Y-92540485D01*
X159148259Y-92492512D01*
X159131463Y-92424692D01*
X159153999Y-92358556D01*
X159199054Y-92319515D01*
X159207816Y-92315051D01*
X159229789Y-92299086D01*
X159379786Y-92190109D01*
X159379788Y-92190106D01*
X159379792Y-92190104D01*
X159530104Y-92039792D01*
X159530106Y-92039788D01*
X159530109Y-92039786D01*
X159655048Y-91867820D01*
X159655047Y-91867820D01*
X159655051Y-91867816D01*
X159751557Y-91678412D01*
X159817246Y-91476243D01*
X159850500Y-91266287D01*
X159850500Y-91053713D01*
X159817246Y-90843757D01*
X159751557Y-90641588D01*
X159655051Y-90452184D01*
X159655049Y-90452181D01*
X159655048Y-90452179D01*
X159530109Y-90280213D01*
X159379786Y-90129890D01*
X159207820Y-90004951D01*
X159207115Y-90004591D01*
X159199054Y-90000485D01*
X159148259Y-89952512D01*
X159131463Y-89884692D01*
X159153999Y-89818556D01*
X159199054Y-89779515D01*
X159207816Y-89775051D01*
X159286708Y-89717733D01*
X159379786Y-89650109D01*
X159379788Y-89650106D01*
X159379792Y-89650104D01*
X159530104Y-89499792D01*
X159530106Y-89499788D01*
X159530109Y-89499786D01*
X159655048Y-89327820D01*
X159655047Y-89327820D01*
X159655051Y-89327816D01*
X159751557Y-89138412D01*
X159817246Y-88936243D01*
X159850500Y-88726287D01*
X159850500Y-88513713D01*
X159817246Y-88303757D01*
X159751557Y-88101588D01*
X159655051Y-87912184D01*
X159655049Y-87912181D01*
X159655048Y-87912179D01*
X159530109Y-87740213D01*
X159379786Y-87589890D01*
X159207820Y-87464951D01*
X159018414Y-87368444D01*
X159018413Y-87368443D01*
X159018412Y-87368443D01*
X158816243Y-87302754D01*
X158816241Y-87302753D01*
X158816240Y-87302753D01*
X158654957Y-87277208D01*
X158606287Y-87269500D01*
X158393713Y-87269500D01*
X158345042Y-87277208D01*
X158183760Y-87302753D01*
X157981585Y-87368444D01*
X157792179Y-87464951D01*
X157620213Y-87589890D01*
X157469894Y-87740209D01*
X157469885Y-87740219D01*
X157466330Y-87745113D01*
X157410997Y-87787775D01*
X157341383Y-87793748D01*
X157279591Y-87761137D01*
X157248312Y-87711223D01*
X157244814Y-87700666D01*
X157152712Y-87551344D01*
X157028656Y-87427288D01*
X156933253Y-87368443D01*
X156879336Y-87335187D01*
X156879331Y-87335185D01*
X156867613Y-87331302D01*
X156712797Y-87280001D01*
X156712795Y-87280000D01*
X156610016Y-87269500D01*
X156610009Y-87269500D01*
X156515751Y-87269500D01*
X156448712Y-87249815D01*
X156402957Y-87197011D01*
X156393013Y-87127853D01*
X156422038Y-87064297D01*
X156428070Y-87057818D01*
X156486388Y-86999500D01*
X156576858Y-86909031D01*
X156645312Y-86806583D01*
X156645315Y-86806576D01*
X156678774Y-86725799D01*
X156684876Y-86711064D01*
X156692463Y-86692750D01*
X156716500Y-86571904D01*
X156716500Y-85542350D01*
X156736185Y-85475311D01*
X156737398Y-85473459D01*
X156753407Y-85449500D01*
X156800394Y-85379179D01*
X156860737Y-85233497D01*
X156891500Y-85078842D01*
X156891500Y-84921158D01*
X156891500Y-84921155D01*
X156891499Y-84921153D01*
X156862674Y-84776243D01*
X156860737Y-84766503D01*
X156842412Y-84722262D01*
X156800397Y-84620827D01*
X156800390Y-84620814D01*
X156712789Y-84489711D01*
X156712786Y-84489707D01*
X156601292Y-84378213D01*
X156601288Y-84378210D01*
X156470185Y-84290609D01*
X156470172Y-84290602D01*
X156324501Y-84230264D01*
X156324489Y-84230261D01*
X156169845Y-84199500D01*
X156169842Y-84199500D01*
X156012158Y-84199500D01*
X156012155Y-84199500D01*
X155857510Y-84230261D01*
X155857498Y-84230264D01*
X155711827Y-84290602D01*
X155711814Y-84290609D01*
X155580711Y-84378210D01*
X155580707Y-84378213D01*
X155469213Y-84489707D01*
X155469210Y-84489711D01*
X155381609Y-84620814D01*
X155381602Y-84620827D01*
X155321264Y-84766498D01*
X155321261Y-84766510D01*
X155290500Y-84921153D01*
X155290500Y-85078846D01*
X155321261Y-85233489D01*
X155321264Y-85233501D01*
X155351118Y-85305575D01*
X155358587Y-85375044D01*
X155327311Y-85437523D01*
X155267222Y-85473175D01*
X155260749Y-85474644D01*
X155232508Y-85480261D01*
X155232498Y-85480264D01*
X155086827Y-85540602D01*
X155086815Y-85540609D01*
X154992541Y-85603602D01*
X154925864Y-85624480D01*
X154923650Y-85624500D01*
X154188389Y-85624500D01*
X154137535Y-85634615D01*
X154137530Y-85634616D01*
X154127971Y-85636518D01*
X154067548Y-85648537D01*
X154020397Y-85668067D01*
X153953715Y-85695688D01*
X153953714Y-85695689D01*
X153931347Y-85710633D01*
X153931344Y-85710635D01*
X153851268Y-85764140D01*
X153822897Y-85792512D01*
X153764142Y-85851267D01*
X153764139Y-85851270D01*
X149117229Y-90498181D01*
X149055906Y-90531666D01*
X149029548Y-90534500D01*
X145772981Y-90534500D01*
X145705942Y-90514815D01*
X145662497Y-90466797D01*
X145655049Y-90452180D01*
X145530109Y-90280213D01*
X145379786Y-90129890D01*
X145207820Y-90004951D01*
X145207115Y-90004591D01*
X145199054Y-90000485D01*
X145148259Y-89952512D01*
X145131463Y-89884692D01*
X145153999Y-89818556D01*
X145199054Y-89779515D01*
X145207816Y-89775051D01*
X145286708Y-89717733D01*
X145379786Y-89650109D01*
X145379788Y-89650106D01*
X145379792Y-89650104D01*
X145530104Y-89499792D01*
X145530106Y-89499788D01*
X145530109Y-89499786D01*
X145655048Y-89327820D01*
X145655047Y-89327820D01*
X145655051Y-89327816D01*
X145751557Y-89138412D01*
X145817246Y-88936243D01*
X145850500Y-88726287D01*
X145850500Y-88513713D01*
X145817246Y-88303757D01*
X145751557Y-88101588D01*
X145655051Y-87912184D01*
X145655049Y-87912181D01*
X145655048Y-87912179D01*
X145530109Y-87740213D01*
X145379786Y-87589890D01*
X145207820Y-87464951D01*
X145018414Y-87368444D01*
X145018413Y-87368443D01*
X145018412Y-87368443D01*
X144816243Y-87302754D01*
X144816241Y-87302753D01*
X144816240Y-87302753D01*
X144654957Y-87277208D01*
X144606287Y-87269500D01*
X144393713Y-87269500D01*
X144345042Y-87277208D01*
X144183760Y-87302753D01*
X143981585Y-87368444D01*
X143792179Y-87464951D01*
X143620213Y-87589890D01*
X143469894Y-87740209D01*
X143469885Y-87740219D01*
X143466330Y-87745113D01*
X143410997Y-87787775D01*
X143341383Y-87793748D01*
X143279591Y-87761137D01*
X143248312Y-87711223D01*
X143244814Y-87700666D01*
X143152712Y-87551344D01*
X143028656Y-87427288D01*
X142933253Y-87368443D01*
X142879336Y-87335187D01*
X142879331Y-87335185D01*
X142867613Y-87331302D01*
X142712797Y-87280001D01*
X142712795Y-87280000D01*
X142610010Y-87269500D01*
X141309998Y-87269500D01*
X141309981Y-87269501D01*
X141207203Y-87280000D01*
X141207200Y-87280001D01*
X141040668Y-87335185D01*
X141040663Y-87335187D01*
X140891342Y-87427289D01*
X140767289Y-87551342D01*
X140675187Y-87700663D01*
X140675185Y-87700668D01*
X140662083Y-87740208D01*
X140620001Y-87867203D01*
X140620001Y-87867204D01*
X140620000Y-87867204D01*
X140609500Y-87969983D01*
X140609500Y-89270001D01*
X140609501Y-89270018D01*
X140620000Y-89372796D01*
X140620001Y-89372799D01*
X140665431Y-89509896D01*
X140675186Y-89539334D01*
X140767288Y-89688656D01*
X140891344Y-89812712D01*
X141040666Y-89904814D01*
X141051223Y-89908312D01*
X141108668Y-89948084D01*
X141135492Y-90012600D01*
X141123177Y-90081376D01*
X141085113Y-90126330D01*
X141080219Y-90129885D01*
X141080209Y-90129894D01*
X140929890Y-90280213D01*
X140804951Y-90452179D01*
X140708444Y-90641585D01*
X140642753Y-90843760D01*
X140627495Y-90940099D01*
X140609500Y-91053713D01*
X140609500Y-91266287D01*
X140615112Y-91301717D01*
X140633812Y-91419790D01*
X140642754Y-91476243D01*
X140690627Y-91623581D01*
X140708444Y-91678414D01*
X140779671Y-91818205D01*
X140792567Y-91886874D01*
X140766291Y-91951615D01*
X140709184Y-91991872D01*
X140669186Y-91998500D01*
X131830814Y-91998500D01*
X131763775Y-91978815D01*
X131718020Y-91926011D01*
X131708076Y-91856853D01*
X131720329Y-91818205D01*
X131736993Y-91785500D01*
X131791557Y-91678412D01*
X131857246Y-91476243D01*
X131890500Y-91266287D01*
X131890500Y-91053713D01*
X131857246Y-90843757D01*
X131791557Y-90641588D01*
X131695051Y-90452184D01*
X131618636Y-90347007D01*
X131572343Y-90283289D01*
X131548864Y-90217482D01*
X131564690Y-90149428D01*
X131584977Y-90122727D01*
X135341691Y-86366016D01*
X135410145Y-86263568D01*
X135457296Y-86149734D01*
X135481334Y-86028889D01*
X135481334Y-85905676D01*
X135481334Y-85900566D01*
X135481333Y-85900540D01*
X135481333Y-78750412D01*
X135501018Y-78683373D01*
X135553822Y-78637618D01*
X135622980Y-78627674D01*
X135637412Y-78630634D01*
X135685646Y-78643558D01*
X135837179Y-78643558D01*
X136210470Y-78643558D01*
X136277509Y-78663243D01*
X136323264Y-78716047D01*
X136333208Y-78785205D01*
X136313572Y-78836449D01*
X136290609Y-78870814D01*
X136290602Y-78870827D01*
X136230264Y-79016498D01*
X136230261Y-79016510D01*
X136199500Y-79171153D01*
X136199500Y-79328846D01*
X136230261Y-79483489D01*
X136230264Y-79483501D01*
X136290602Y-79629172D01*
X136290609Y-79629185D01*
X136378210Y-79760288D01*
X136378213Y-79760292D01*
X136489707Y-79871786D01*
X136489711Y-79871789D01*
X136620814Y-79959390D01*
X136620827Y-79959397D01*
X136708230Y-79995599D01*
X136766503Y-80019737D01*
X136877716Y-80041858D01*
X136939623Y-80074241D01*
X136941203Y-80075793D01*
X140117602Y-83252192D01*
X140117631Y-83252223D01*
X140207850Y-83342442D01*
X140207853Y-83342444D01*
X140244417Y-83366875D01*
X140310301Y-83410898D01*
X140356167Y-83429896D01*
X140424134Y-83458049D01*
X140484557Y-83470067D01*
X140544979Y-83482086D01*
X140544980Y-83482086D01*
X144351064Y-83482086D01*
X144418103Y-83501771D01*
X144419955Y-83502984D01*
X144514235Y-83565980D01*
X144514237Y-83565981D01*
X144514241Y-83565983D01*
X144601644Y-83602185D01*
X144659917Y-83626323D01*
X144771130Y-83648444D01*
X144833037Y-83680827D01*
X144834617Y-83682379D01*
X145838181Y-84685943D01*
X145871666Y-84747266D01*
X145874500Y-84773624D01*
X145874500Y-85707650D01*
X145854815Y-85774689D01*
X145853602Y-85776541D01*
X145790609Y-85870815D01*
X145790602Y-85870828D01*
X145730264Y-86016498D01*
X145730261Y-86016510D01*
X145699500Y-86171153D01*
X145699500Y-86328846D01*
X145730261Y-86483489D01*
X145730264Y-86483501D01*
X145790602Y-86629172D01*
X145790609Y-86629185D01*
X145878210Y-86760288D01*
X145878213Y-86760292D01*
X145989707Y-86871786D01*
X145989711Y-86871789D01*
X146120814Y-86959390D01*
X146120827Y-86959397D01*
X146217646Y-86999500D01*
X146266503Y-87019737D01*
X146421153Y-87050499D01*
X146421156Y-87050500D01*
X146421158Y-87050500D01*
X146578844Y-87050500D01*
X146578845Y-87050499D01*
X146733497Y-87019737D01*
X146879179Y-86959394D01*
X147010289Y-86871789D01*
X147121789Y-86760289D01*
X147209394Y-86629179D01*
X147269737Y-86483497D01*
X147300500Y-86328842D01*
X147300500Y-86171158D01*
X147300500Y-86171155D01*
X147300499Y-86171153D01*
X147272201Y-86028891D01*
X147269737Y-86016503D01*
X147209394Y-85870821D01*
X147146397Y-85776539D01*
X147125520Y-85709863D01*
X147125500Y-85707650D01*
X147125500Y-84401565D01*
X147125499Y-84401561D01*
X147120855Y-84378213D01*
X147101463Y-84280720D01*
X147097379Y-84270862D01*
X147080563Y-84230262D01*
X147054315Y-84166893D01*
X147054308Y-84166880D01*
X146985858Y-84064439D01*
X146985855Y-84064435D01*
X145719207Y-82797789D01*
X145710141Y-82781186D01*
X145697007Y-82767572D01*
X145686610Y-82738092D01*
X145685722Y-82736466D01*
X145685295Y-82734421D01*
X145683159Y-82723678D01*
X145689394Y-82654088D01*
X145732262Y-82598915D01*
X145798154Y-82575677D01*
X145804779Y-82575500D01*
X158317060Y-82575500D01*
X158384099Y-82595185D01*
X158404736Y-82611814D01*
X158489711Y-82696789D01*
X158489712Y-82696790D01*
X158620814Y-82784390D01*
X158620827Y-82784397D01*
X158766498Y-82844735D01*
X158766503Y-82844737D01*
X158921153Y-82875499D01*
X158921156Y-82875500D01*
X158921158Y-82875500D01*
X159078844Y-82875500D01*
X159078845Y-82875499D01*
X159233497Y-82844737D01*
X159379179Y-82784394D01*
X159510289Y-82696789D01*
X159595260Y-82611817D01*
X159656581Y-82578334D01*
X159682940Y-82575500D01*
X163710258Y-82575500D01*
X163777297Y-82595185D01*
X163797939Y-82611819D01*
X167674911Y-86488791D01*
X167708396Y-86550114D01*
X167705162Y-86614788D01*
X167682753Y-86683757D01*
X167653978Y-86865440D01*
X167649500Y-86893713D01*
X167649500Y-87106287D01*
X167650622Y-87113368D01*
X167680617Y-87302754D01*
X167682754Y-87316243D01*
X167731072Y-87464951D01*
X167748444Y-87518414D01*
X167844951Y-87707820D01*
X167969890Y-87879786D01*
X168120213Y-88030109D01*
X168292179Y-88155048D01*
X168292181Y-88155049D01*
X168292184Y-88155051D01*
X168481588Y-88251557D01*
X168683757Y-88317246D01*
X168893713Y-88350500D01*
X168893714Y-88350500D01*
X169106286Y-88350500D01*
X169106287Y-88350500D01*
X169316243Y-88317246D01*
X169518412Y-88251557D01*
X169707816Y-88155051D01*
X169729789Y-88139086D01*
X169879786Y-88030109D01*
X169879788Y-88030106D01*
X169879792Y-88030104D01*
X170030104Y-87879792D01*
X170030106Y-87879788D01*
X170030109Y-87879786D01*
X170155048Y-87707820D01*
X170155047Y-87707820D01*
X170155051Y-87707816D01*
X170251557Y-87518412D01*
X170317246Y-87316243D01*
X170350500Y-87106287D01*
X170350500Y-86893713D01*
X170317246Y-86683757D01*
X170251557Y-86481588D01*
X170155051Y-86292184D01*
X170155049Y-86292181D01*
X170155048Y-86292179D01*
X170030109Y-86120213D01*
X169879786Y-85969890D01*
X169707820Y-85844951D01*
X169707115Y-85844591D01*
X169699054Y-85840485D01*
X169648259Y-85792512D01*
X169631463Y-85724692D01*
X169653999Y-85658556D01*
X169699054Y-85619515D01*
X169707816Y-85615051D01*
X169729789Y-85599086D01*
X169879786Y-85490109D01*
X169879788Y-85490106D01*
X169879792Y-85490104D01*
X170030104Y-85339792D01*
X170030106Y-85339788D01*
X170030109Y-85339786D01*
X170155048Y-85167820D01*
X170155047Y-85167820D01*
X170155051Y-85167816D01*
X170251557Y-84978412D01*
X170317246Y-84776243D01*
X170350500Y-84566287D01*
X170350500Y-84353713D01*
X170317246Y-84143757D01*
X170251557Y-83941588D01*
X170155051Y-83752184D01*
X170155049Y-83752181D01*
X170155048Y-83752179D01*
X170030109Y-83580213D01*
X169879786Y-83429890D01*
X169707820Y-83304951D01*
X169707115Y-83304591D01*
X169699054Y-83300485D01*
X169648259Y-83252512D01*
X169631463Y-83184692D01*
X169653999Y-83118556D01*
X169699054Y-83079515D01*
X169707816Y-83075051D01*
X169729789Y-83059086D01*
X169879786Y-82950109D01*
X169879788Y-82950106D01*
X169879792Y-82950104D01*
X170030104Y-82799792D01*
X170030106Y-82799788D01*
X170030109Y-82799786D01*
X170155048Y-82627820D01*
X170155047Y-82627820D01*
X170155051Y-82627816D01*
X170251557Y-82438412D01*
X170317246Y-82236243D01*
X170350500Y-82026287D01*
X170350500Y-81813713D01*
X170317246Y-81603757D01*
X170251557Y-81401588D01*
X170155051Y-81212184D01*
X170155049Y-81212181D01*
X170155048Y-81212179D01*
X170030109Y-81040213D01*
X169879786Y-80889890D01*
X169707820Y-80764951D01*
X169707115Y-80764591D01*
X169699054Y-80760485D01*
X169648259Y-80712512D01*
X169631463Y-80644692D01*
X169653999Y-80578556D01*
X169699054Y-80539515D01*
X169707816Y-80535051D01*
X169820291Y-80453334D01*
X169879786Y-80410109D01*
X169879788Y-80410106D01*
X169879792Y-80410104D01*
X170030104Y-80259792D01*
X170030106Y-80259788D01*
X170030109Y-80259786D01*
X170155048Y-80087820D01*
X170155047Y-80087820D01*
X170155051Y-80087816D01*
X170251557Y-79898412D01*
X170317246Y-79696243D01*
X170350500Y-79486287D01*
X170350500Y-79273713D01*
X170317246Y-79063757D01*
X170251557Y-78861588D01*
X170155051Y-78672184D01*
X170155049Y-78672181D01*
X170155048Y-78672179D01*
X170030109Y-78500213D01*
X169879786Y-78349890D01*
X169707817Y-78224949D01*
X169698504Y-78220204D01*
X169647707Y-78172230D01*
X169630912Y-78104409D01*
X169653449Y-78038274D01*
X169698507Y-77999232D01*
X169707558Y-77994620D01*
X169879459Y-77869727D01*
X169879464Y-77869723D01*
X170029723Y-77719464D01*
X170029727Y-77719459D01*
X170154620Y-77547557D01*
X170251095Y-77358217D01*
X170316757Y-77156129D01*
X170316757Y-77156126D01*
X170327231Y-77090000D01*
X169433012Y-77090000D01*
X169465925Y-77032993D01*
X169500000Y-76905826D01*
X169500000Y-76774174D01*
X169465925Y-76647007D01*
X169433012Y-76590000D01*
X170327231Y-76590000D01*
X170316757Y-76523873D01*
X170316757Y-76523870D01*
X170251095Y-76321782D01*
X170154620Y-76132442D01*
X170029727Y-75960540D01*
X170029723Y-75960535D01*
X169879464Y-75810276D01*
X169879459Y-75810272D01*
X169707558Y-75685379D01*
X169697954Y-75680486D01*
X169647157Y-75632512D01*
X169630361Y-75564692D01*
X169652897Y-75498556D01*
X169697954Y-75459514D01*
X169707558Y-75454620D01*
X169879459Y-75329727D01*
X169879464Y-75329723D01*
X170029723Y-75179464D01*
X170029727Y-75179459D01*
X170154620Y-75007557D01*
X170251095Y-74818217D01*
X170316757Y-74616129D01*
X170316757Y-74616126D01*
X170327231Y-74550000D01*
X169433012Y-74550000D01*
X169465925Y-74492993D01*
X169500000Y-74365826D01*
X169500000Y-74234174D01*
X169465925Y-74107007D01*
X169433012Y-74050000D01*
X170327231Y-74050000D01*
X170316757Y-73983873D01*
X170316757Y-73983870D01*
X170251095Y-73781782D01*
X170154620Y-73592442D01*
X170029727Y-73420540D01*
X170029723Y-73420535D01*
X169879464Y-73270276D01*
X169879459Y-73270272D01*
X169707555Y-73145377D01*
X169698500Y-73140763D01*
X169647706Y-73092788D01*
X169630912Y-73024966D01*
X169653451Y-72958832D01*
X169698508Y-72919793D01*
X169707816Y-72915051D01*
X169875604Y-72793147D01*
X169879786Y-72790109D01*
X169879788Y-72790106D01*
X169879792Y-72790104D01*
X170030104Y-72639792D01*
X170030106Y-72639788D01*
X170030109Y-72639786D01*
X170155048Y-72467820D01*
X170155047Y-72467820D01*
X170155051Y-72467816D01*
X170251557Y-72278412D01*
X170317246Y-72076243D01*
X170350500Y-71866287D01*
X170350500Y-71653713D01*
X170317246Y-71443757D01*
X170251557Y-71241588D01*
X170155051Y-71052184D01*
X170155049Y-71052181D01*
X170155048Y-71052179D01*
X170030109Y-70880213D01*
X169879786Y-70729890D01*
X169707820Y-70604951D01*
X169707115Y-70604591D01*
X169699054Y-70600485D01*
X169648259Y-70552512D01*
X169631463Y-70484692D01*
X169653999Y-70418556D01*
X169699054Y-70379515D01*
X169707816Y-70375051D01*
X169729789Y-70359086D01*
X169879786Y-70250109D01*
X169879788Y-70250106D01*
X169879792Y-70250104D01*
X170030104Y-70099792D01*
X170030106Y-70099788D01*
X170030109Y-70099786D01*
X170144928Y-69941749D01*
X170155051Y-69927816D01*
X170251557Y-69738412D01*
X170317246Y-69536243D01*
X170350500Y-69326287D01*
X170350500Y-69113713D01*
X170317246Y-68903757D01*
X170251557Y-68701588D01*
X170155051Y-68512184D01*
X170155049Y-68512181D01*
X170155048Y-68512179D01*
X170030109Y-68340213D01*
X169879786Y-68189890D01*
X169707820Y-68064951D01*
X169707115Y-68064591D01*
X169699054Y-68060485D01*
X169648259Y-68012512D01*
X169631463Y-67944692D01*
X169653999Y-67878556D01*
X169699054Y-67839515D01*
X169707816Y-67835051D01*
X169729789Y-67819086D01*
X169879786Y-67710109D01*
X169879788Y-67710106D01*
X169879792Y-67710104D01*
X170030104Y-67559792D01*
X170030106Y-67559788D01*
X170030109Y-67559786D01*
X170155048Y-67387820D01*
X170155047Y-67387820D01*
X170155051Y-67387816D01*
X170251557Y-67198412D01*
X170317246Y-66996243D01*
X170350500Y-66786287D01*
X170350500Y-66573713D01*
X170317246Y-66363757D01*
X170251557Y-66161588D01*
X170155051Y-65972184D01*
X170155049Y-65972181D01*
X170155048Y-65972179D01*
X170030109Y-65800213D01*
X169916569Y-65686673D01*
X169883084Y-65625350D01*
X169888068Y-65555658D01*
X169929940Y-65499725D01*
X169960915Y-65482810D01*
X170092331Y-65433796D01*
X170207546Y-65347546D01*
X170293796Y-65232331D01*
X170344091Y-65097483D01*
X170350500Y-65037873D01*
X170350499Y-63242128D01*
X170344091Y-63182517D01*
X170319096Y-63115503D01*
X170293797Y-63047671D01*
X170293793Y-63047664D01*
X170207547Y-62932455D01*
X170207544Y-62932452D01*
X170092335Y-62846206D01*
X170092328Y-62846202D01*
X169957482Y-62795908D01*
X169957483Y-62795908D01*
X169897883Y-62789501D01*
X169897881Y-62789500D01*
X169897873Y-62789500D01*
X169897864Y-62789500D01*
X168102129Y-62789500D01*
X168102123Y-62789501D01*
X168042516Y-62795908D01*
X167907671Y-62846202D01*
X167907664Y-62846206D01*
X167792455Y-62932452D01*
X167792452Y-62932455D01*
X167706206Y-63047664D01*
X167706202Y-63047671D01*
X167655908Y-63182517D01*
X167649501Y-63242116D01*
X167649501Y-63242123D01*
X167649500Y-63242135D01*
X167649500Y-65037870D01*
X167649501Y-65037876D01*
X167655908Y-65097483D01*
X167706202Y-65232328D01*
X167706206Y-65232335D01*
X167792452Y-65347544D01*
X167792455Y-65347547D01*
X167907664Y-65433793D01*
X167907671Y-65433797D01*
X168039082Y-65482810D01*
X168095016Y-65524681D01*
X168119433Y-65590145D01*
X168104582Y-65658418D01*
X168083431Y-65686673D01*
X167969889Y-65800215D01*
X167844951Y-65972179D01*
X167748444Y-66161585D01*
X167748443Y-66161587D01*
X167748443Y-66161588D01*
X167745334Y-66171158D01*
X167682753Y-66363760D01*
X167649500Y-66573713D01*
X167649500Y-66786286D01*
X167678145Y-66967147D01*
X167682754Y-66996243D01*
X167742975Y-67181584D01*
X167748444Y-67198414D01*
X167844951Y-67387820D01*
X167969890Y-67559786D01*
X168120213Y-67710109D01*
X168292182Y-67835050D01*
X168300946Y-67839516D01*
X168351742Y-67887491D01*
X168368536Y-67955312D01*
X168345998Y-68021447D01*
X168300946Y-68060484D01*
X168292182Y-68064949D01*
X168120213Y-68189890D01*
X167969890Y-68340213D01*
X167844951Y-68512179D01*
X167748444Y-68701585D01*
X167682753Y-68903760D01*
X167649500Y-69113713D01*
X167649500Y-69326286D01*
X167682753Y-69536241D01*
X167682754Y-69536243D01*
X167687077Y-69549549D01*
X167687821Y-69551837D01*
X167689816Y-69621678D01*
X167657571Y-69677837D01*
X160672229Y-76663181D01*
X160610906Y-76696666D01*
X160584548Y-76699500D01*
X146676502Y-76699500D01*
X146609463Y-76679815D01*
X146563708Y-76627011D01*
X146552502Y-76575500D01*
X146552502Y-74000695D01*
X146552502Y-74000694D01*
X146546821Y-73972135D01*
X146528465Y-73879849D01*
X146528187Y-73879179D01*
X146510419Y-73836281D01*
X146509505Y-73834075D01*
X146481316Y-73766018D01*
X146481314Y-73766015D01*
X146481314Y-73766014D01*
X146441498Y-73706427D01*
X146412860Y-73663567D01*
X146325735Y-73576442D01*
X146325731Y-73576439D01*
X145922549Y-73173257D01*
X145922529Y-73173235D01*
X142336973Y-69587680D01*
X142332634Y-69579734D01*
X142325387Y-69574309D01*
X142316152Y-69549549D01*
X142303488Y-69526357D01*
X142304133Y-69517327D01*
X142300970Y-69508845D01*
X142306586Y-69483024D01*
X142308472Y-69456665D01*
X142314290Y-69447610D01*
X142315822Y-69440572D01*
X142336967Y-69412324D01*
X142461475Y-69287816D01*
X142522796Y-69254334D01*
X142549154Y-69251500D01*
X143320905Y-69251500D01*
X143381327Y-69239481D01*
X143441750Y-69227463D01*
X143496014Y-69204986D01*
X143501765Y-69202603D01*
X143501768Y-69202603D01*
X143555579Y-69180314D01*
X143555578Y-69180314D01*
X143555584Y-69180312D01*
X143606807Y-69146084D01*
X143658031Y-69111858D01*
X143745156Y-69024733D01*
X143745156Y-69024731D01*
X143755364Y-69014524D01*
X143755365Y-69014521D01*
X145485857Y-67284032D01*
X145508932Y-67249499D01*
X145554311Y-67181584D01*
X145601463Y-67067750D01*
X145610616Y-67021731D01*
X145623017Y-66959393D01*
X145625499Y-66946908D01*
X145625500Y-66946905D01*
X145625500Y-66792350D01*
X145645185Y-66725311D01*
X145646398Y-66723459D01*
X145655047Y-66710515D01*
X145709394Y-66629179D01*
X145769737Y-66483497D01*
X145800500Y-66328842D01*
X145800500Y-66171158D01*
X145800500Y-66171155D01*
X145800499Y-66171153D01*
X145782573Y-66081034D01*
X145769737Y-66016503D01*
X145751378Y-65972179D01*
X145709397Y-65870827D01*
X145709390Y-65870814D01*
X145621789Y-65739711D01*
X145621786Y-65739707D01*
X145510292Y-65628213D01*
X145510288Y-65628210D01*
X145379185Y-65540609D01*
X145379172Y-65540602D01*
X145233501Y-65480264D01*
X145233489Y-65480261D01*
X145078845Y-65449500D01*
X145078842Y-65449500D01*
X144921158Y-65449500D01*
X144921155Y-65449500D01*
X144766510Y-65480261D01*
X144766498Y-65480264D01*
X144620827Y-65540602D01*
X144620815Y-65540609D01*
X144526541Y-65603602D01*
X144459864Y-65624480D01*
X144457650Y-65624500D01*
X141854500Y-65624500D01*
X141787461Y-65604815D01*
X141741706Y-65552011D01*
X141730500Y-65500500D01*
X141730500Y-64250000D01*
X141730500Y-64249999D01*
X141725355Y-64178060D01*
X141684819Y-64040008D01*
X141607031Y-63918968D01*
X141548173Y-63867967D01*
X141498299Y-63824750D01*
X141498297Y-63824749D01*
X141498294Y-63824746D01*
X141422612Y-63790183D01*
X141372988Y-63767520D01*
X141320184Y-63721765D01*
X141300500Y-63654726D01*
X141300500Y-61342134D01*
X141320185Y-61275095D01*
X141372989Y-61229340D01*
X141389556Y-61223159D01*
X141434992Y-61209819D01*
X141556032Y-61132031D01*
X141650254Y-61023294D01*
X141710024Y-60892416D01*
X141730500Y-60750000D01*
X141730500Y-59250000D01*
X141725355Y-59178060D01*
X141684819Y-59040008D01*
X141607031Y-58918968D01*
X141548173Y-58867967D01*
X141498299Y-58824750D01*
X141498297Y-58824749D01*
X141498294Y-58824746D01*
X141422612Y-58790183D01*
X141372988Y-58767520D01*
X141320184Y-58721765D01*
X141300500Y-58654726D01*
X141300500Y-56342134D01*
X141320185Y-56275095D01*
X141372989Y-56229340D01*
X141389556Y-56223159D01*
X141434992Y-56209819D01*
X141556032Y-56132031D01*
X141650254Y-56023294D01*
X141710024Y-55892416D01*
X141730500Y-55750000D01*
X141730500Y-54250000D01*
X141725355Y-54178060D01*
X141684819Y-54040008D01*
X141607031Y-53918968D01*
X141548173Y-53867967D01*
X141498299Y-53824750D01*
X141498297Y-53824749D01*
X141498294Y-53824746D01*
X141422612Y-53790183D01*
X141372988Y-53767520D01*
X141320184Y-53721765D01*
X141300500Y-53654726D01*
X141300500Y-51378711D01*
X172149500Y-51378711D01*
X172149500Y-51621288D01*
X172181161Y-51861785D01*
X172243947Y-52096104D01*
X172336773Y-52320205D01*
X172336776Y-52320212D01*
X172458064Y-52530289D01*
X172458066Y-52530292D01*
X172458067Y-52530293D01*
X172605733Y-52722736D01*
X172605739Y-52722743D01*
X172777256Y-52894260D01*
X172777262Y-52894265D01*
X172969711Y-53041936D01*
X173179788Y-53163224D01*
X173403900Y-53256054D01*
X173638211Y-53318838D01*
X173818586Y-53342584D01*
X173878711Y-53350500D01*
X173878712Y-53350500D01*
X174121289Y-53350500D01*
X174169388Y-53344167D01*
X174361789Y-53318838D01*
X174596100Y-53256054D01*
X174820212Y-53163224D01*
X175030289Y-53041936D01*
X175222738Y-52894265D01*
X175394265Y-52722738D01*
X175541936Y-52530289D01*
X175663224Y-52320212D01*
X175756054Y-52096100D01*
X175818838Y-51861789D01*
X175850500Y-51621288D01*
X175850500Y-51378712D01*
X175845684Y-51342134D01*
X175823715Y-51175255D01*
X175818838Y-51138211D01*
X175756054Y-50903900D01*
X175663224Y-50679788D01*
X175541936Y-50469711D01*
X175394265Y-50277262D01*
X175394260Y-50277256D01*
X175222743Y-50105739D01*
X175222736Y-50105733D01*
X175030293Y-49958067D01*
X175030292Y-49958066D01*
X175030289Y-49958064D01*
X174820212Y-49836776D01*
X174820205Y-49836773D01*
X174596104Y-49743947D01*
X174361785Y-49681161D01*
X174121289Y-49649500D01*
X174121288Y-49649500D01*
X173878712Y-49649500D01*
X173878711Y-49649500D01*
X173638214Y-49681161D01*
X173403895Y-49743947D01*
X173179794Y-49836773D01*
X173179785Y-49836777D01*
X172969706Y-49958067D01*
X172777263Y-50105733D01*
X172777256Y-50105739D01*
X172605739Y-50277256D01*
X172605733Y-50277263D01*
X172458067Y-50469706D01*
X172336777Y-50679785D01*
X172336773Y-50679794D01*
X172243947Y-50903895D01*
X172181161Y-51138214D01*
X172149500Y-51378711D01*
X141300500Y-51378711D01*
X141300500Y-51342134D01*
X141320185Y-51275095D01*
X141372989Y-51229340D01*
X141389556Y-51223159D01*
X141434992Y-51209819D01*
X141556032Y-51132031D01*
X141650254Y-51023294D01*
X141691542Y-50932884D01*
X141710023Y-50892419D01*
X141710024Y-50892414D01*
X141730500Y-50750000D01*
X141730500Y-49250000D01*
X141725355Y-49178060D01*
X141684819Y-49040008D01*
X141607031Y-48918968D01*
X141548173Y-48867967D01*
X141498299Y-48824750D01*
X141498297Y-48824748D01*
X141498294Y-48824746D01*
X141498290Y-48824744D01*
X141367419Y-48764976D01*
X141367414Y-48764975D01*
X141225000Y-48744500D01*
X140075000Y-48744500D01*
X140074978Y-48744500D01*
X139994669Y-48750923D01*
X139994656Y-48750926D01*
X139857310Y-48793773D01*
X139857308Y-48793775D01*
X139737595Y-48873584D01*
X139645211Y-48983894D01*
X139587651Y-49115754D01*
X139569570Y-49258490D01*
X139592438Y-49400545D01*
X139592439Y-49400548D01*
X139654399Y-49530401D01*
X139921609Y-49931216D01*
X139942417Y-49997915D01*
X139923862Y-50065276D01*
X139921609Y-50068782D01*
X139654399Y-50469598D01*
X139615182Y-50540005D01*
X139615179Y-50540012D01*
X139574645Y-50678058D01*
X139574645Y-50678060D01*
X139574645Y-50821940D01*
X139598709Y-50903895D01*
X139615182Y-50959994D01*
X139692967Y-51081030D01*
X139692971Y-51081034D01*
X139758956Y-51138211D01*
X139801706Y-51175254D01*
X139801713Y-51175257D01*
X139932580Y-51235023D01*
X139932583Y-51235023D01*
X139932584Y-51235024D01*
X140043146Y-51250920D01*
X140106702Y-51279945D01*
X140144477Y-51338723D01*
X140149500Y-51373658D01*
X140149500Y-53624062D01*
X140140256Y-53655542D01*
X140132141Y-53687336D01*
X140130461Y-53688899D01*
X140129815Y-53691101D01*
X140105026Y-53712580D01*
X140081004Y-53734946D01*
X140078366Y-53735681D01*
X140077011Y-53736856D01*
X140047516Y-53746092D01*
X140041482Y-53747180D01*
X139994662Y-53750925D01*
X139958914Y-53762076D01*
X139951342Y-53763443D01*
X139938201Y-53762030D01*
X139911680Y-53764151D01*
X139775000Y-53744500D01*
X138775000Y-53744500D01*
X138774997Y-53744500D01*
X138703059Y-53749644D01*
X138565005Y-53790182D01*
X138443969Y-53867967D01*
X138443965Y-53867971D01*
X138349750Y-53976700D01*
X138349744Y-53976709D01*
X138289976Y-54107580D01*
X138289975Y-54107585D01*
X138269500Y-54249999D01*
X138269500Y-54300500D01*
X138249815Y-54367539D01*
X138197011Y-54413294D01*
X138145500Y-54424500D01*
X131107941Y-54424500D01*
X131040902Y-54404815D01*
X131020260Y-54388181D01*
X131010292Y-54378213D01*
X131010288Y-54378210D01*
X130879185Y-54290609D01*
X130879172Y-54290602D01*
X130733501Y-54230264D01*
X130733489Y-54230261D01*
X130578845Y-54199500D01*
X130578842Y-54199500D01*
X130421158Y-54199500D01*
X130421155Y-54199500D01*
X130266510Y-54230261D01*
X130266498Y-54230264D01*
X130120827Y-54290602D01*
X130120814Y-54290609D01*
X129989711Y-54378210D01*
X129989707Y-54378213D01*
X129979740Y-54388181D01*
X129952812Y-54402884D01*
X129926994Y-54419477D01*
X129920793Y-54420368D01*
X129918417Y-54421666D01*
X129892059Y-54424500D01*
X129854500Y-54424500D01*
X129787461Y-54404815D01*
X129741706Y-54352011D01*
X129730500Y-54300500D01*
X129730500Y-54250000D01*
X129730500Y-54249999D01*
X129725355Y-54178060D01*
X129684819Y-54040008D01*
X129607031Y-53918968D01*
X129548173Y-53867967D01*
X129498299Y-53824750D01*
X129498297Y-53824748D01*
X129498294Y-53824746D01*
X129498290Y-53824744D01*
X129367419Y-53764976D01*
X129367414Y-53764975D01*
X129225000Y-53744500D01*
X128225000Y-53744500D01*
X128224984Y-53744500D01*
X128161481Y-53748506D01*
X128153553Y-53750690D01*
X128114889Y-53761340D01*
X128105264Y-53761947D01*
X128099609Y-53764530D01*
X128064315Y-53764530D01*
X127956853Y-53749079D01*
X127893297Y-53720054D01*
X127855523Y-53661276D01*
X127850500Y-53626341D01*
X127850500Y-51375937D01*
X127870185Y-51308898D01*
X127922989Y-51263143D01*
X127964616Y-51252332D01*
X128005330Y-51249076D01*
X128005332Y-51249075D01*
X128005338Y-51249075D01*
X128142689Y-51206226D01*
X128262405Y-51126415D01*
X128354786Y-51016110D01*
X128412348Y-50884246D01*
X128429353Y-50750000D01*
X128430429Y-50741509D01*
X128430429Y-50741506D01*
X128407562Y-50599454D01*
X128345601Y-50469599D01*
X128078389Y-50068782D01*
X128057582Y-50002084D01*
X128076137Y-49934723D01*
X128078390Y-49931217D01*
X128141353Y-49836773D01*
X128345601Y-49530401D01*
X128384819Y-49459992D01*
X128425355Y-49321940D01*
X128425355Y-49178060D01*
X128384819Y-49040008D01*
X128307031Y-48918968D01*
X128248173Y-48867967D01*
X128198299Y-48824750D01*
X128198297Y-48824748D01*
X128198294Y-48824746D01*
X128198290Y-48824744D01*
X128067419Y-48764976D01*
X128067414Y-48764975D01*
X127925000Y-48744500D01*
X126775000Y-48744500D01*
X126774997Y-48744500D01*
X126703059Y-48749644D01*
X126565005Y-48790182D01*
X126443969Y-48867967D01*
X126443965Y-48867971D01*
X126349750Y-48976700D01*
X126349744Y-48976709D01*
X126289976Y-49107580D01*
X126289975Y-49107585D01*
X126269500Y-49249999D01*
X126269500Y-50750002D01*
X126274644Y-50821940D01*
X126315182Y-50959994D01*
X126392967Y-51081030D01*
X126392971Y-51081034D01*
X126458956Y-51138211D01*
X126501706Y-51175254D01*
X126501710Y-51175256D01*
X126501712Y-51175257D01*
X126627011Y-51232479D01*
X126679815Y-51278233D01*
X126699500Y-51345273D01*
X126699500Y-53657865D01*
X126679815Y-53724904D01*
X126627011Y-53770659D01*
X126610436Y-53776842D01*
X126565008Y-53790181D01*
X126565004Y-53790183D01*
X126443969Y-53867967D01*
X126443965Y-53867971D01*
X126349750Y-53976700D01*
X126349744Y-53976709D01*
X126289976Y-54107580D01*
X126289975Y-54107585D01*
X126269500Y-54249999D01*
X126269500Y-55750002D01*
X126274644Y-55821940D01*
X126315182Y-55959994D01*
X126392967Y-56081030D01*
X126392971Y-56081034D01*
X126501700Y-56175249D01*
X126501706Y-56175254D01*
X126501710Y-56175256D01*
X126501712Y-56175257D01*
X126627011Y-56232479D01*
X126679815Y-56278233D01*
X126699500Y-56345273D01*
X126699500Y-58657865D01*
X126679815Y-58724904D01*
X126627011Y-58770659D01*
X126610436Y-58776842D01*
X126565008Y-58790181D01*
X126565004Y-58790183D01*
X126443969Y-58867967D01*
X126443965Y-58867971D01*
X126349750Y-58976700D01*
X126349744Y-58976709D01*
X126289976Y-59107580D01*
X126289975Y-59107585D01*
X126269500Y-59249999D01*
X126269500Y-60750002D01*
X126274644Y-60821940D01*
X126315182Y-60959994D01*
X126392967Y-61081030D01*
X126392971Y-61081034D01*
X126501700Y-61175249D01*
X126501706Y-61175254D01*
X126501710Y-61175256D01*
X126501712Y-61175257D01*
X126627011Y-61232479D01*
X126679815Y-61278233D01*
X126699500Y-61345273D01*
X126699500Y-63657865D01*
X126679815Y-63724904D01*
X126627011Y-63770659D01*
X126610436Y-63776842D01*
X126565008Y-63790181D01*
X126565004Y-63790183D01*
X126443969Y-63867967D01*
X126443965Y-63867971D01*
X126349750Y-63976700D01*
X126349744Y-63976709D01*
X126289976Y-64107580D01*
X126289975Y-64107585D01*
X126269500Y-64249999D01*
X126269500Y-65750002D01*
X126274644Y-65821940D01*
X126315182Y-65959994D01*
X126392967Y-66081030D01*
X126392971Y-66081034D01*
X126496979Y-66171158D01*
X126501706Y-66175254D01*
X126542174Y-66193735D01*
X126632580Y-66235023D01*
X126632583Y-66235023D01*
X126632584Y-66235024D01*
X126775000Y-66255500D01*
X127467864Y-66255500D01*
X127534903Y-66275185D01*
X127555545Y-66291819D01*
X127862749Y-66599023D01*
X127862759Y-66599034D01*
X127867089Y-66603364D01*
X127867090Y-66603365D01*
X127974240Y-66710515D01*
X128092064Y-66778541D01*
X128105470Y-66786281D01*
X128251838Y-66825500D01*
X128251839Y-66825500D01*
X133990547Y-66825500D01*
X134057586Y-66845185D01*
X134103341Y-66897989D01*
X134113285Y-66967147D01*
X134084260Y-67030703D01*
X134078228Y-67037181D01*
X130441203Y-70674205D01*
X130379880Y-70707690D01*
X130377714Y-70708141D01*
X130266508Y-70730261D01*
X130266498Y-70730264D01*
X130120827Y-70790602D01*
X130120814Y-70790609D01*
X129989711Y-70878210D01*
X129989707Y-70878213D01*
X129878213Y-70989707D01*
X129878210Y-70989711D01*
X129791561Y-71119391D01*
X129737949Y-71164196D01*
X129688459Y-71174500D01*
X127424234Y-71174500D01*
X127277865Y-71213719D01*
X127277862Y-71213720D01*
X127159250Y-71282201D01*
X127146633Y-71289485D01*
X126971939Y-71464181D01*
X126910616Y-71497666D01*
X126884258Y-71500500D01*
X99397430Y-71500500D01*
X99251059Y-71539719D01*
X99119831Y-71615485D01*
X99119828Y-71615487D01*
X83913487Y-86821828D01*
X83913485Y-86821831D01*
X83837719Y-86953059D01*
X83803528Y-87080666D01*
X83798500Y-87099430D01*
X80000000Y-87099430D01*
X80000000Y-51378711D01*
X82149500Y-51378711D01*
X82149500Y-51621288D01*
X82181161Y-51861785D01*
X82243947Y-52096104D01*
X82336773Y-52320205D01*
X82336776Y-52320212D01*
X82458064Y-52530289D01*
X82458066Y-52530292D01*
X82458067Y-52530293D01*
X82605733Y-52722736D01*
X82605739Y-52722743D01*
X82777256Y-52894260D01*
X82777262Y-52894265D01*
X82969711Y-53041936D01*
X83179788Y-53163224D01*
X83403900Y-53256054D01*
X83638211Y-53318838D01*
X83818586Y-53342584D01*
X83878711Y-53350500D01*
X83878712Y-53350500D01*
X84121289Y-53350500D01*
X84169388Y-53344167D01*
X84361789Y-53318838D01*
X84596100Y-53256054D01*
X84820212Y-53163224D01*
X85030289Y-53041936D01*
X85222738Y-52894265D01*
X85394265Y-52722738D01*
X85541936Y-52530289D01*
X85663224Y-52320212D01*
X85756054Y-52096100D01*
X85818838Y-51861789D01*
X85850500Y-51621288D01*
X85850500Y-51378712D01*
X85845684Y-51342134D01*
X85823715Y-51175255D01*
X85818838Y-51138211D01*
X85756054Y-50903900D01*
X85663224Y-50679788D01*
X85541936Y-50469711D01*
X85394265Y-50277262D01*
X85394260Y-50277256D01*
X85222743Y-50105739D01*
X85222736Y-50105733D01*
X85030293Y-49958067D01*
X85030292Y-49958066D01*
X85030289Y-49958064D01*
X84820212Y-49836776D01*
X84820205Y-49836773D01*
X84596104Y-49743947D01*
X84361785Y-49681161D01*
X84121289Y-49649500D01*
X84121288Y-49649500D01*
X83878712Y-49649500D01*
X83878711Y-49649500D01*
X83638214Y-49681161D01*
X83403895Y-49743947D01*
X83179794Y-49836773D01*
X83179785Y-49836777D01*
X82969706Y-49958067D01*
X82777263Y-50105733D01*
X82777256Y-50105739D01*
X82605739Y-50277256D01*
X82605733Y-50277263D01*
X82458067Y-50469706D01*
X82336777Y-50679785D01*
X82336773Y-50679794D01*
X82243947Y-50903895D01*
X82181161Y-51138214D01*
X82149500Y-51378711D01*
X80000000Y-51378711D01*
X80000000Y-47624000D01*
X80019685Y-47556961D01*
X80072489Y-47511206D01*
X80124000Y-47500000D01*
X177876000Y-47500000D01*
X177943039Y-47519685D01*
G37*
%TD.AperFunction*%
%TD*%
M02*
