M48
; DRILL file {KiCad 9.0.6-9.0.6~ubuntu22.04.1} date 2026-01-07T10:52:49-0500
; FORMAT={-:-/ absolute / metric / decimal}
; #@! TF.CreationDate,2026-01-07T10:52:49-05:00
; #@! TF.GenerationSoftware,Kicad,Pcbnew,9.0.6-9.0.6~ubuntu22.04.1
; #@! TF.FileFunction,Plated,1,2,PTH
FMAT,2
METRIC
; #@! TA.AperFunction,Plated,PTH,ViaDrill
T1C0.300
; #@! TA.AperFunction,Plated,PTH,ComponentDrill
T2C1.000
%
G90
G05
T1
X106.0Y-79.5
X125.75Y-73.5
X128.85Y-72.35
X130.5Y-55.0
X130.5Y-71.5
X131.419Y-71.465
X131.55Y-76.1
X131.75Y-60.0
X132.75Y-79.875
X135.482Y-76.8
X136.532Y-71.032
X136.55Y-77.493
X137.0Y-66.25
X137.0Y-72.5
X137.0Y-79.25
X137.283Y-71.75
X137.5Y-74.175
X137.772Y-70.676
X138.733Y-73.175
X140.0Y-63.349
X140.002Y-75.257
X142.25Y-69.5
X142.75Y-62.75
X143.125Y-67.875
X143.5Y-73.5
X143.75Y-67.25
X144.893Y-82.857
X145.0Y-66.25
X145.927Y-77.78
X146.5Y-86.25
X147.0Y-71.75
X148.5Y-91.999
X155.466Y-86.25
X156.091Y-85.0
X157.0Y-73.25
X159.0Y-82.075
X160.0Y-81.425
T2
X85.5Y-88.0
X85.5Y-90.54
X85.5Y-93.08
X85.5Y-95.62
X85.5Y-98.16
X88.04Y-88.0
X88.04Y-90.54
X88.04Y-93.08
X88.04Y-95.62
X88.04Y-98.16
X128.0Y-88.62
X128.0Y-91.16
X128.0Y-93.7
X128.0Y-96.24
X128.0Y-98.78
X128.0Y-101.32
X128.0Y-103.86
X128.0Y-106.4
X128.0Y-108.94
X128.0Y-111.48
X130.54Y-88.62
X130.54Y-91.16
X130.54Y-93.7
X130.54Y-96.24
X130.54Y-98.78
X130.54Y-101.32
X130.54Y-103.86
X130.54Y-106.4
X130.54Y-108.94
X130.54Y-111.48
X141.96Y-88.62
X141.96Y-91.16
X141.96Y-93.7
X141.96Y-96.24
X141.96Y-98.78
X141.96Y-101.32
X141.96Y-103.86
X141.96Y-106.4
X141.96Y-108.94
X141.96Y-111.48
X144.5Y-88.62
X144.5Y-91.16
X144.5Y-93.7
X144.5Y-96.24
X144.5Y-98.78
X144.5Y-101.32
X144.5Y-103.86
X144.5Y-106.4
X144.5Y-108.94
X144.5Y-111.48
X155.96Y-88.62
X155.96Y-91.16
X155.96Y-93.7
X155.96Y-96.24
X155.96Y-98.78
X155.96Y-101.32
X155.96Y-103.86
X155.96Y-106.4
X155.96Y-108.94
X155.96Y-111.48
X158.5Y-88.62
X158.5Y-91.16
X158.5Y-93.7
X158.5Y-96.24
X158.5Y-98.78
X158.5Y-101.32
X158.5Y-103.86
X158.5Y-106.4
X158.5Y-108.94
X158.5Y-111.48
X169.0Y-64.14
X169.0Y-66.68
X169.0Y-69.22
X169.0Y-71.76
X169.0Y-74.3
X169.0Y-76.84
X169.0Y-79.38
X169.0Y-81.92
X169.0Y-84.46
X169.0Y-87.0
X169.0Y-96.84
X169.0Y-99.38
X169.0Y-101.92
X169.0Y-104.46
X169.0Y-107.0
X171.54Y-96.84
X171.54Y-99.38
X171.54Y-101.92
X171.54Y-104.46
X171.54Y-107.0
M30
