%TF.GenerationSoftware,KiCad,Pcbnew,9.0.6-9.0.6~ubuntu22.04.1*%
%TF.CreationDate,2026-01-07T10:26:53-05:00*%
%TF.ProjectId,Hyperdrift-Display-Controller,48797065-7264-4726-9966-742d44697370,rev?*%
%TF.SameCoordinates,Original*%
%TF.FileFunction,Legend,Bot*%
%TF.FilePolarity,Positive*%
%FSLAX46Y46*%
G04 Gerber Fmt 4.6, Leading zero omitted, Abs format (unit mm)*
G04 Created by KiCad (PCBNEW 9.0.6-9.0.6~ubuntu22.04.1) date 2026-01-07 10:26:53*
%MOMM*%
%LPD*%
G01*
G04 APERTURE LIST*
%ADD10C,0.150000*%
%ADD11C,0.120000*%
%ADD12C,0.203200*%
G04 APERTURE END LIST*
D10*
X120501316Y-116780290D02*
X120558458Y-116818385D01*
X120558458Y-116818385D02*
X120672744Y-116818385D01*
X120672744Y-116818385D02*
X120729887Y-116780290D01*
X120729887Y-116780290D02*
X120758458Y-116742194D01*
X120758458Y-116742194D02*
X120787030Y-116666004D01*
X120787030Y-116666004D02*
X120787030Y-116437432D01*
X120787030Y-116437432D02*
X120758458Y-116361242D01*
X120758458Y-116361242D02*
X120729887Y-116323147D01*
X120729887Y-116323147D02*
X120672744Y-116285051D01*
X120672744Y-116285051D02*
X120558458Y-116285051D01*
X120558458Y-116285051D02*
X120501316Y-116323147D01*
X120244172Y-116818385D02*
X120244172Y-116018385D01*
X119987030Y-116818385D02*
X119987030Y-116399337D01*
X119987030Y-116399337D02*
X120015601Y-116323147D01*
X120015601Y-116323147D02*
X120072744Y-116285051D01*
X120072744Y-116285051D02*
X120158458Y-116285051D01*
X120158458Y-116285051D02*
X120215601Y-116323147D01*
X120215601Y-116323147D02*
X120244172Y-116361242D01*
X119701315Y-116818385D02*
X119701315Y-116285051D01*
X119701315Y-116437432D02*
X119672744Y-116361242D01*
X119672744Y-116361242D02*
X119644173Y-116323147D01*
X119644173Y-116323147D02*
X119587030Y-116285051D01*
X119587030Y-116285051D02*
X119529887Y-116285051D01*
X119329886Y-116818385D02*
X119329886Y-116285051D01*
X119329886Y-116018385D02*
X119358458Y-116056480D01*
X119358458Y-116056480D02*
X119329886Y-116094575D01*
X119329886Y-116094575D02*
X119301315Y-116056480D01*
X119301315Y-116056480D02*
X119329886Y-116018385D01*
X119329886Y-116018385D02*
X119329886Y-116094575D01*
X119072744Y-116780290D02*
X119015601Y-116818385D01*
X119015601Y-116818385D02*
X118901315Y-116818385D01*
X118901315Y-116818385D02*
X118844172Y-116780290D01*
X118844172Y-116780290D02*
X118815601Y-116704099D01*
X118815601Y-116704099D02*
X118815601Y-116666004D01*
X118815601Y-116666004D02*
X118844172Y-116589813D01*
X118844172Y-116589813D02*
X118901315Y-116551718D01*
X118901315Y-116551718D02*
X118987030Y-116551718D01*
X118987030Y-116551718D02*
X119044172Y-116513623D01*
X119044172Y-116513623D02*
X119072744Y-116437432D01*
X119072744Y-116437432D02*
X119072744Y-116399337D01*
X119072744Y-116399337D02*
X119044172Y-116323147D01*
X119044172Y-116323147D02*
X118987030Y-116285051D01*
X118987030Y-116285051D02*
X118901315Y-116285051D01*
X118901315Y-116285051D02*
X118844172Y-116323147D01*
X118301316Y-116780290D02*
X118358458Y-116818385D01*
X118358458Y-116818385D02*
X118472744Y-116818385D01*
X118472744Y-116818385D02*
X118529887Y-116780290D01*
X118529887Y-116780290D02*
X118558458Y-116742194D01*
X118558458Y-116742194D02*
X118587030Y-116666004D01*
X118587030Y-116666004D02*
X118587030Y-116437432D01*
X118587030Y-116437432D02*
X118558458Y-116361242D01*
X118558458Y-116361242D02*
X118529887Y-116323147D01*
X118529887Y-116323147D02*
X118472744Y-116285051D01*
X118472744Y-116285051D02*
X118358458Y-116285051D01*
X118358458Y-116285051D02*
X118301316Y-116323147D01*
X117958458Y-116818385D02*
X118015601Y-116780290D01*
X118015601Y-116780290D02*
X118044172Y-116742194D01*
X118044172Y-116742194D02*
X118072744Y-116666004D01*
X118072744Y-116666004D02*
X118072744Y-116437432D01*
X118072744Y-116437432D02*
X118044172Y-116361242D01*
X118044172Y-116361242D02*
X118015601Y-116323147D01*
X118015601Y-116323147D02*
X117958458Y-116285051D01*
X117958458Y-116285051D02*
X117872744Y-116285051D01*
X117872744Y-116285051D02*
X117815601Y-116323147D01*
X117815601Y-116323147D02*
X117787030Y-116361242D01*
X117787030Y-116361242D02*
X117758458Y-116437432D01*
X117758458Y-116437432D02*
X117758458Y-116666004D01*
X117758458Y-116666004D02*
X117787030Y-116742194D01*
X117787030Y-116742194D02*
X117815601Y-116780290D01*
X117815601Y-116780290D02*
X117872744Y-116818385D01*
X117872744Y-116818385D02*
X117958458Y-116818385D01*
X117501315Y-116818385D02*
X117501315Y-116285051D01*
X117501315Y-116361242D02*
X117472744Y-116323147D01*
X117472744Y-116323147D02*
X117415601Y-116285051D01*
X117415601Y-116285051D02*
X117329887Y-116285051D01*
X117329887Y-116285051D02*
X117272744Y-116323147D01*
X117272744Y-116323147D02*
X117244173Y-116399337D01*
X117244173Y-116399337D02*
X117244173Y-116818385D01*
X117244173Y-116399337D02*
X117215601Y-116323147D01*
X117215601Y-116323147D02*
X117158458Y-116285051D01*
X117158458Y-116285051D02*
X117072744Y-116285051D01*
X117072744Y-116285051D02*
X117015601Y-116323147D01*
X117015601Y-116323147D02*
X116987030Y-116399337D01*
X116987030Y-116399337D02*
X116987030Y-116818385D01*
X116701315Y-116818385D02*
X116701315Y-116018385D01*
X116701315Y-116323147D02*
X116644173Y-116285051D01*
X116644173Y-116285051D02*
X116529887Y-116285051D01*
X116529887Y-116285051D02*
X116472744Y-116323147D01*
X116472744Y-116323147D02*
X116444173Y-116361242D01*
X116444173Y-116361242D02*
X116415601Y-116437432D01*
X116415601Y-116437432D02*
X116415601Y-116666004D01*
X116415601Y-116666004D02*
X116444173Y-116742194D01*
X116444173Y-116742194D02*
X116472744Y-116780290D01*
X116472744Y-116780290D02*
X116529887Y-116818385D01*
X116529887Y-116818385D02*
X116644173Y-116818385D01*
X116644173Y-116818385D02*
X116701315Y-116780290D01*
X116187030Y-116780290D02*
X116129887Y-116818385D01*
X116129887Y-116818385D02*
X116015601Y-116818385D01*
X116015601Y-116818385D02*
X115958458Y-116780290D01*
X115958458Y-116780290D02*
X115929887Y-116704099D01*
X115929887Y-116704099D02*
X115929887Y-116666004D01*
X115929887Y-116666004D02*
X115958458Y-116589813D01*
X115958458Y-116589813D02*
X116015601Y-116551718D01*
X116015601Y-116551718D02*
X116101316Y-116551718D01*
X116101316Y-116551718D02*
X116158458Y-116513623D01*
X116158458Y-116513623D02*
X116187030Y-116437432D01*
X116187030Y-116437432D02*
X116187030Y-116399337D01*
X116187030Y-116399337D02*
X116158458Y-116323147D01*
X116158458Y-116323147D02*
X116101316Y-116285051D01*
X116101316Y-116285051D02*
X116015601Y-116285051D01*
X116015601Y-116285051D02*
X115958458Y-116323147D01*
X115672744Y-116742194D02*
X115644173Y-116780290D01*
X115644173Y-116780290D02*
X115672744Y-116818385D01*
X115672744Y-116818385D02*
X115701316Y-116780290D01*
X115701316Y-116780290D02*
X115672744Y-116742194D01*
X115672744Y-116742194D02*
X115672744Y-116818385D01*
X115387030Y-116285051D02*
X115387030Y-116818385D01*
X115387030Y-116361242D02*
X115358459Y-116323147D01*
X115358459Y-116323147D02*
X115301316Y-116285051D01*
X115301316Y-116285051D02*
X115215602Y-116285051D01*
X115215602Y-116285051D02*
X115158459Y-116323147D01*
X115158459Y-116323147D02*
X115129888Y-116399337D01*
X115129888Y-116399337D02*
X115129888Y-116818385D01*
X114615602Y-116780290D02*
X114672745Y-116818385D01*
X114672745Y-116818385D02*
X114787031Y-116818385D01*
X114787031Y-116818385D02*
X114844173Y-116780290D01*
X114844173Y-116780290D02*
X114872745Y-116704099D01*
X114872745Y-116704099D02*
X114872745Y-116399337D01*
X114872745Y-116399337D02*
X114844173Y-116323147D01*
X114844173Y-116323147D02*
X114787031Y-116285051D01*
X114787031Y-116285051D02*
X114672745Y-116285051D01*
X114672745Y-116285051D02*
X114615602Y-116323147D01*
X114615602Y-116323147D02*
X114587031Y-116399337D01*
X114587031Y-116399337D02*
X114587031Y-116475528D01*
X114587031Y-116475528D02*
X114872745Y-116551718D01*
X114415602Y-116285051D02*
X114187030Y-116285051D01*
X114329887Y-116018385D02*
X114329887Y-116704099D01*
X114329887Y-116704099D02*
X114301316Y-116780290D01*
X114301316Y-116780290D02*
X114244173Y-116818385D01*
X114244173Y-116818385D02*
X114187030Y-116818385D01*
X120587030Y-117306340D02*
X120587030Y-117877768D01*
X120587030Y-117877768D02*
X120615601Y-117992054D01*
X120615601Y-117992054D02*
X120672744Y-118068245D01*
X120672744Y-118068245D02*
X120758458Y-118106340D01*
X120758458Y-118106340D02*
X120815601Y-118106340D01*
X120015601Y-118106340D02*
X120301315Y-118106340D01*
X120301315Y-118106340D02*
X120301315Y-117306340D01*
X119472744Y-118030149D02*
X119501316Y-118068245D01*
X119501316Y-118068245D02*
X119587030Y-118106340D01*
X119587030Y-118106340D02*
X119644173Y-118106340D01*
X119644173Y-118106340D02*
X119729887Y-118068245D01*
X119729887Y-118068245D02*
X119787030Y-117992054D01*
X119787030Y-117992054D02*
X119815601Y-117915864D01*
X119815601Y-117915864D02*
X119844173Y-117763483D01*
X119844173Y-117763483D02*
X119844173Y-117649197D01*
X119844173Y-117649197D02*
X119815601Y-117496816D01*
X119815601Y-117496816D02*
X119787030Y-117420625D01*
X119787030Y-117420625D02*
X119729887Y-117344435D01*
X119729887Y-117344435D02*
X119644173Y-117306340D01*
X119644173Y-117306340D02*
X119587030Y-117306340D01*
X119587030Y-117306340D02*
X119501316Y-117344435D01*
X119501316Y-117344435D02*
X119472744Y-117382530D01*
X119044173Y-117306340D02*
X119044173Y-117877768D01*
X119044173Y-117877768D02*
X119072744Y-117992054D01*
X119072744Y-117992054D02*
X119129887Y-118068245D01*
X119129887Y-118068245D02*
X119215601Y-118106340D01*
X119215601Y-118106340D02*
X119272744Y-118106340D01*
X118472744Y-118106340D02*
X118758458Y-118106340D01*
X118758458Y-118106340D02*
X118758458Y-117306340D01*
X117929887Y-118030149D02*
X117958459Y-118068245D01*
X117958459Y-118068245D02*
X118044173Y-118106340D01*
X118044173Y-118106340D02*
X118101316Y-118106340D01*
X118101316Y-118106340D02*
X118187030Y-118068245D01*
X118187030Y-118068245D02*
X118244173Y-117992054D01*
X118244173Y-117992054D02*
X118272744Y-117915864D01*
X118272744Y-117915864D02*
X118301316Y-117763483D01*
X118301316Y-117763483D02*
X118301316Y-117649197D01*
X118301316Y-117649197D02*
X118272744Y-117496816D01*
X118272744Y-117496816D02*
X118244173Y-117420625D01*
X118244173Y-117420625D02*
X118187030Y-117344435D01*
X118187030Y-117344435D02*
X118101316Y-117306340D01*
X118101316Y-117306340D02*
X118044173Y-117306340D01*
X118044173Y-117306340D02*
X117958459Y-117344435D01*
X117958459Y-117344435D02*
X117929887Y-117382530D01*
X117501316Y-117306340D02*
X117501316Y-117877768D01*
X117501316Y-117877768D02*
X117529887Y-117992054D01*
X117529887Y-117992054D02*
X117587030Y-118068245D01*
X117587030Y-118068245D02*
X117672744Y-118106340D01*
X117672744Y-118106340D02*
X117729887Y-118106340D01*
X116929887Y-118106340D02*
X117215601Y-118106340D01*
X117215601Y-118106340D02*
X117215601Y-117306340D01*
X116387030Y-118030149D02*
X116415602Y-118068245D01*
X116415602Y-118068245D02*
X116501316Y-118106340D01*
X116501316Y-118106340D02*
X116558459Y-118106340D01*
X116558459Y-118106340D02*
X116644173Y-118068245D01*
X116644173Y-118068245D02*
X116701316Y-117992054D01*
X116701316Y-117992054D02*
X116729887Y-117915864D01*
X116729887Y-117915864D02*
X116758459Y-117763483D01*
X116758459Y-117763483D02*
X116758459Y-117649197D01*
X116758459Y-117649197D02*
X116729887Y-117496816D01*
X116729887Y-117496816D02*
X116701316Y-117420625D01*
X116701316Y-117420625D02*
X116644173Y-117344435D01*
X116644173Y-117344435D02*
X116558459Y-117306340D01*
X116558459Y-117306340D02*
X116501316Y-117306340D01*
X116501316Y-117306340D02*
X116415602Y-117344435D01*
X116415602Y-117344435D02*
X116387030Y-117382530D01*
X115958459Y-117306340D02*
X115958459Y-117877768D01*
X115958459Y-117877768D02*
X115987030Y-117992054D01*
X115987030Y-117992054D02*
X116044173Y-118068245D01*
X116044173Y-118068245D02*
X116129887Y-118106340D01*
X116129887Y-118106340D02*
X116187030Y-118106340D01*
X115387030Y-118106340D02*
X115672744Y-118106340D01*
X115672744Y-118106340D02*
X115672744Y-117306340D01*
X114844173Y-118030149D02*
X114872745Y-118068245D01*
X114872745Y-118068245D02*
X114958459Y-118106340D01*
X114958459Y-118106340D02*
X115015602Y-118106340D01*
X115015602Y-118106340D02*
X115101316Y-118068245D01*
X115101316Y-118068245D02*
X115158459Y-117992054D01*
X115158459Y-117992054D02*
X115187030Y-117915864D01*
X115187030Y-117915864D02*
X115215602Y-117763483D01*
X115215602Y-117763483D02*
X115215602Y-117649197D01*
X115215602Y-117649197D02*
X115187030Y-117496816D01*
X115187030Y-117496816D02*
X115158459Y-117420625D01*
X115158459Y-117420625D02*
X115101316Y-117344435D01*
X115101316Y-117344435D02*
X115015602Y-117306340D01*
X115015602Y-117306340D02*
X114958459Y-117306340D01*
X114958459Y-117306340D02*
X114872745Y-117344435D01*
X114872745Y-117344435D02*
X114844173Y-117382530D01*
X120787030Y-118670485D02*
X120758458Y-118632390D01*
X120758458Y-118632390D02*
X120701316Y-118594295D01*
X120701316Y-118594295D02*
X120558458Y-118594295D01*
X120558458Y-118594295D02*
X120501316Y-118632390D01*
X120501316Y-118632390D02*
X120472744Y-118670485D01*
X120472744Y-118670485D02*
X120444173Y-118746676D01*
X120444173Y-118746676D02*
X120444173Y-118822866D01*
X120444173Y-118822866D02*
X120472744Y-118937152D01*
X120472744Y-118937152D02*
X120815601Y-119394295D01*
X120815601Y-119394295D02*
X120444173Y-119394295D01*
X120072744Y-118594295D02*
X120015601Y-118594295D01*
X120015601Y-118594295D02*
X119958458Y-118632390D01*
X119958458Y-118632390D02*
X119929887Y-118670485D01*
X119929887Y-118670485D02*
X119901315Y-118746676D01*
X119901315Y-118746676D02*
X119872744Y-118899057D01*
X119872744Y-118899057D02*
X119872744Y-119089533D01*
X119872744Y-119089533D02*
X119901315Y-119241914D01*
X119901315Y-119241914D02*
X119929887Y-119318104D01*
X119929887Y-119318104D02*
X119958458Y-119356200D01*
X119958458Y-119356200D02*
X120015601Y-119394295D01*
X120015601Y-119394295D02*
X120072744Y-119394295D01*
X120072744Y-119394295D02*
X120129887Y-119356200D01*
X120129887Y-119356200D02*
X120158458Y-119318104D01*
X120158458Y-119318104D02*
X120187029Y-119241914D01*
X120187029Y-119241914D02*
X120215601Y-119089533D01*
X120215601Y-119089533D02*
X120215601Y-118899057D01*
X120215601Y-118899057D02*
X120187029Y-118746676D01*
X120187029Y-118746676D02*
X120158458Y-118670485D01*
X120158458Y-118670485D02*
X120129887Y-118632390D01*
X120129887Y-118632390D02*
X120072744Y-118594295D01*
X119644172Y-118670485D02*
X119615600Y-118632390D01*
X119615600Y-118632390D02*
X119558458Y-118594295D01*
X119558458Y-118594295D02*
X119415600Y-118594295D01*
X119415600Y-118594295D02*
X119358458Y-118632390D01*
X119358458Y-118632390D02*
X119329886Y-118670485D01*
X119329886Y-118670485D02*
X119301315Y-118746676D01*
X119301315Y-118746676D02*
X119301315Y-118822866D01*
X119301315Y-118822866D02*
X119329886Y-118937152D01*
X119329886Y-118937152D02*
X119672743Y-119394295D01*
X119672743Y-119394295D02*
X119301315Y-119394295D01*
X118787029Y-118594295D02*
X118901314Y-118594295D01*
X118901314Y-118594295D02*
X118958457Y-118632390D01*
X118958457Y-118632390D02*
X118987029Y-118670485D01*
X118987029Y-118670485D02*
X119044171Y-118784771D01*
X119044171Y-118784771D02*
X119072743Y-118937152D01*
X119072743Y-118937152D02*
X119072743Y-119241914D01*
X119072743Y-119241914D02*
X119044171Y-119318104D01*
X119044171Y-119318104D02*
X119015600Y-119356200D01*
X119015600Y-119356200D02*
X118958457Y-119394295D01*
X118958457Y-119394295D02*
X118844171Y-119394295D01*
X118844171Y-119394295D02*
X118787029Y-119356200D01*
X118787029Y-119356200D02*
X118758457Y-119318104D01*
X118758457Y-119318104D02*
X118729886Y-119241914D01*
X118729886Y-119241914D02*
X118729886Y-119051438D01*
X118729886Y-119051438D02*
X118758457Y-118975247D01*
X118758457Y-118975247D02*
X118787029Y-118937152D01*
X118787029Y-118937152D02*
X118844171Y-118899057D01*
X118844171Y-118899057D02*
X118958457Y-118899057D01*
X118958457Y-118899057D02*
X119015600Y-118937152D01*
X119015600Y-118937152D02*
X119044171Y-118975247D01*
X119044171Y-118975247D02*
X119072743Y-119051438D01*
X118472742Y-119089533D02*
X118015600Y-119089533D01*
X117615600Y-118594295D02*
X117558457Y-118594295D01*
X117558457Y-118594295D02*
X117501314Y-118632390D01*
X117501314Y-118632390D02*
X117472743Y-118670485D01*
X117472743Y-118670485D02*
X117444171Y-118746676D01*
X117444171Y-118746676D02*
X117415600Y-118899057D01*
X117415600Y-118899057D02*
X117415600Y-119089533D01*
X117415600Y-119089533D02*
X117444171Y-119241914D01*
X117444171Y-119241914D02*
X117472743Y-119318104D01*
X117472743Y-119318104D02*
X117501314Y-119356200D01*
X117501314Y-119356200D02*
X117558457Y-119394295D01*
X117558457Y-119394295D02*
X117615600Y-119394295D01*
X117615600Y-119394295D02*
X117672743Y-119356200D01*
X117672743Y-119356200D02*
X117701314Y-119318104D01*
X117701314Y-119318104D02*
X117729885Y-119241914D01*
X117729885Y-119241914D02*
X117758457Y-119089533D01*
X117758457Y-119089533D02*
X117758457Y-118899057D01*
X117758457Y-118899057D02*
X117729885Y-118746676D01*
X117729885Y-118746676D02*
X117701314Y-118670485D01*
X117701314Y-118670485D02*
X117672743Y-118632390D01*
X117672743Y-118632390D02*
X117615600Y-118594295D01*
X116844171Y-119394295D02*
X117187028Y-119394295D01*
X117015599Y-119394295D02*
X117015599Y-118594295D01*
X117015599Y-118594295D02*
X117072742Y-118708580D01*
X117072742Y-118708580D02*
X117129885Y-118784771D01*
X117129885Y-118784771D02*
X117187028Y-118822866D01*
X116587027Y-119089533D02*
X116129885Y-119089533D01*
X115729885Y-118594295D02*
X115672742Y-118594295D01*
X115672742Y-118594295D02*
X115615599Y-118632390D01*
X115615599Y-118632390D02*
X115587028Y-118670485D01*
X115587028Y-118670485D02*
X115558456Y-118746676D01*
X115558456Y-118746676D02*
X115529885Y-118899057D01*
X115529885Y-118899057D02*
X115529885Y-119089533D01*
X115529885Y-119089533D02*
X115558456Y-119241914D01*
X115558456Y-119241914D02*
X115587028Y-119318104D01*
X115587028Y-119318104D02*
X115615599Y-119356200D01*
X115615599Y-119356200D02*
X115672742Y-119394295D01*
X115672742Y-119394295D02*
X115729885Y-119394295D01*
X115729885Y-119394295D02*
X115787028Y-119356200D01*
X115787028Y-119356200D02*
X115815599Y-119318104D01*
X115815599Y-119318104D02*
X115844170Y-119241914D01*
X115844170Y-119241914D02*
X115872742Y-119089533D01*
X115872742Y-119089533D02*
X115872742Y-118899057D01*
X115872742Y-118899057D02*
X115844170Y-118746676D01*
X115844170Y-118746676D02*
X115815599Y-118670485D01*
X115815599Y-118670485D02*
X115787028Y-118632390D01*
X115787028Y-118632390D02*
X115729885Y-118594295D01*
X115329884Y-118594295D02*
X114929884Y-118594295D01*
X114929884Y-118594295D02*
X115187027Y-119394295D01*
X154915601Y-79394295D02*
X155115601Y-79013342D01*
X155258458Y-79394295D02*
X155258458Y-78594295D01*
X155258458Y-78594295D02*
X155029887Y-78594295D01*
X155029887Y-78594295D02*
X154972744Y-78632390D01*
X154972744Y-78632390D02*
X154944173Y-78670485D01*
X154944173Y-78670485D02*
X154915601Y-78746676D01*
X154915601Y-78746676D02*
X154915601Y-78860961D01*
X154915601Y-78860961D02*
X154944173Y-78937152D01*
X154944173Y-78937152D02*
X154972744Y-78975247D01*
X154972744Y-78975247D02*
X155029887Y-79013342D01*
X155029887Y-79013342D02*
X155258458Y-79013342D01*
X154629887Y-79394295D02*
X154515601Y-79394295D01*
X154515601Y-79394295D02*
X154458458Y-79356200D01*
X154458458Y-79356200D02*
X154429887Y-79318104D01*
X154429887Y-79318104D02*
X154372744Y-79203819D01*
X154372744Y-79203819D02*
X154344173Y-79051438D01*
X154344173Y-79051438D02*
X154344173Y-78746676D01*
X154344173Y-78746676D02*
X154372744Y-78670485D01*
X154372744Y-78670485D02*
X154401316Y-78632390D01*
X154401316Y-78632390D02*
X154458458Y-78594295D01*
X154458458Y-78594295D02*
X154572744Y-78594295D01*
X154572744Y-78594295D02*
X154629887Y-78632390D01*
X154629887Y-78632390D02*
X154658458Y-78670485D01*
X154658458Y-78670485D02*
X154687030Y-78746676D01*
X154687030Y-78746676D02*
X154687030Y-78937152D01*
X154687030Y-78937152D02*
X154658458Y-79013342D01*
X154658458Y-79013342D02*
X154629887Y-79051438D01*
X154629887Y-79051438D02*
X154572744Y-79089533D01*
X154572744Y-79089533D02*
X154458458Y-79089533D01*
X154458458Y-79089533D02*
X154401316Y-79051438D01*
X154401316Y-79051438D02*
X154372744Y-79013342D01*
X154372744Y-79013342D02*
X154344173Y-78937152D01*
X154915601Y-74394295D02*
X155115601Y-74013342D01*
X155258458Y-74394295D02*
X155258458Y-73594295D01*
X155258458Y-73594295D02*
X155029887Y-73594295D01*
X155029887Y-73594295D02*
X154972744Y-73632390D01*
X154972744Y-73632390D02*
X154944173Y-73670485D01*
X154944173Y-73670485D02*
X154915601Y-73746676D01*
X154915601Y-73746676D02*
X154915601Y-73860961D01*
X154915601Y-73860961D02*
X154944173Y-73937152D01*
X154944173Y-73937152D02*
X154972744Y-73975247D01*
X154972744Y-73975247D02*
X155029887Y-74013342D01*
X155029887Y-74013342D02*
X155258458Y-74013342D01*
X154715601Y-73594295D02*
X154344173Y-73594295D01*
X154344173Y-73594295D02*
X154544173Y-73899057D01*
X154544173Y-73899057D02*
X154458458Y-73899057D01*
X154458458Y-73899057D02*
X154401316Y-73937152D01*
X154401316Y-73937152D02*
X154372744Y-73975247D01*
X154372744Y-73975247D02*
X154344173Y-74051438D01*
X154344173Y-74051438D02*
X154344173Y-74241914D01*
X154344173Y-74241914D02*
X154372744Y-74318104D01*
X154372744Y-74318104D02*
X154401316Y-74356200D01*
X154401316Y-74356200D02*
X154458458Y-74394295D01*
X154458458Y-74394295D02*
X154629887Y-74394295D01*
X154629887Y-74394295D02*
X154687030Y-74356200D01*
X154687030Y-74356200D02*
X154715601Y-74318104D01*
X133915601Y-77818104D02*
X133944173Y-77856200D01*
X133944173Y-77856200D02*
X134029887Y-77894295D01*
X134029887Y-77894295D02*
X134087030Y-77894295D01*
X134087030Y-77894295D02*
X134172744Y-77856200D01*
X134172744Y-77856200D02*
X134229887Y-77780009D01*
X134229887Y-77780009D02*
X134258458Y-77703819D01*
X134258458Y-77703819D02*
X134287030Y-77551438D01*
X134287030Y-77551438D02*
X134287030Y-77437152D01*
X134287030Y-77437152D02*
X134258458Y-77284771D01*
X134258458Y-77284771D02*
X134229887Y-77208580D01*
X134229887Y-77208580D02*
X134172744Y-77132390D01*
X134172744Y-77132390D02*
X134087030Y-77094295D01*
X134087030Y-77094295D02*
X134029887Y-77094295D01*
X134029887Y-77094295D02*
X133944173Y-77132390D01*
X133944173Y-77132390D02*
X133915601Y-77170485D01*
X133629887Y-77894295D02*
X133515601Y-77894295D01*
X133515601Y-77894295D02*
X133458458Y-77856200D01*
X133458458Y-77856200D02*
X133429887Y-77818104D01*
X133429887Y-77818104D02*
X133372744Y-77703819D01*
X133372744Y-77703819D02*
X133344173Y-77551438D01*
X133344173Y-77551438D02*
X133344173Y-77246676D01*
X133344173Y-77246676D02*
X133372744Y-77170485D01*
X133372744Y-77170485D02*
X133401316Y-77132390D01*
X133401316Y-77132390D02*
X133458458Y-77094295D01*
X133458458Y-77094295D02*
X133572744Y-77094295D01*
X133572744Y-77094295D02*
X133629887Y-77132390D01*
X133629887Y-77132390D02*
X133658458Y-77170485D01*
X133658458Y-77170485D02*
X133687030Y-77246676D01*
X133687030Y-77246676D02*
X133687030Y-77437152D01*
X133687030Y-77437152D02*
X133658458Y-77513342D01*
X133658458Y-77513342D02*
X133629887Y-77551438D01*
X133629887Y-77551438D02*
X133572744Y-77589533D01*
X133572744Y-77589533D02*
X133458458Y-77589533D01*
X133458458Y-77589533D02*
X133401316Y-77551438D01*
X133401316Y-77551438D02*
X133372744Y-77513342D01*
X133372744Y-77513342D02*
X133344173Y-77437152D01*
X137415601Y-66894295D02*
X137615601Y-66513342D01*
X137758458Y-66894295D02*
X137758458Y-66094295D01*
X137758458Y-66094295D02*
X137529887Y-66094295D01*
X137529887Y-66094295D02*
X137472744Y-66132390D01*
X137472744Y-66132390D02*
X137444173Y-66170485D01*
X137444173Y-66170485D02*
X137415601Y-66246676D01*
X137415601Y-66246676D02*
X137415601Y-66360961D01*
X137415601Y-66360961D02*
X137444173Y-66437152D01*
X137444173Y-66437152D02*
X137472744Y-66475247D01*
X137472744Y-66475247D02*
X137529887Y-66513342D01*
X137529887Y-66513342D02*
X137758458Y-66513342D01*
X136901316Y-66094295D02*
X137015601Y-66094295D01*
X137015601Y-66094295D02*
X137072744Y-66132390D01*
X137072744Y-66132390D02*
X137101316Y-66170485D01*
X137101316Y-66170485D02*
X137158458Y-66284771D01*
X137158458Y-66284771D02*
X137187030Y-66437152D01*
X137187030Y-66437152D02*
X137187030Y-66741914D01*
X137187030Y-66741914D02*
X137158458Y-66818104D01*
X137158458Y-66818104D02*
X137129887Y-66856200D01*
X137129887Y-66856200D02*
X137072744Y-66894295D01*
X137072744Y-66894295D02*
X136958458Y-66894295D01*
X136958458Y-66894295D02*
X136901316Y-66856200D01*
X136901316Y-66856200D02*
X136872744Y-66818104D01*
X136872744Y-66818104D02*
X136844173Y-66741914D01*
X136844173Y-66741914D02*
X136844173Y-66551438D01*
X136844173Y-66551438D02*
X136872744Y-66475247D01*
X136872744Y-66475247D02*
X136901316Y-66437152D01*
X136901316Y-66437152D02*
X136958458Y-66399057D01*
X136958458Y-66399057D02*
X137072744Y-66399057D01*
X137072744Y-66399057D02*
X137129887Y-66437152D01*
X137129887Y-66437152D02*
X137158458Y-66475247D01*
X137158458Y-66475247D02*
X137187030Y-66551438D01*
X92915601Y-85894295D02*
X93115601Y-85513342D01*
X93258458Y-85894295D02*
X93258458Y-85094295D01*
X93258458Y-85094295D02*
X93029887Y-85094295D01*
X93029887Y-85094295D02*
X92972744Y-85132390D01*
X92972744Y-85132390D02*
X92944173Y-85170485D01*
X92944173Y-85170485D02*
X92915601Y-85246676D01*
X92915601Y-85246676D02*
X92915601Y-85360961D01*
X92915601Y-85360961D02*
X92944173Y-85437152D01*
X92944173Y-85437152D02*
X92972744Y-85475247D01*
X92972744Y-85475247D02*
X93029887Y-85513342D01*
X93029887Y-85513342D02*
X93258458Y-85513342D01*
X92744173Y-85094295D02*
X92544173Y-85894295D01*
X92544173Y-85894295D02*
X92344173Y-85094295D01*
X91829887Y-85894295D02*
X92172744Y-85894295D01*
X92001315Y-85894295D02*
X92001315Y-85094295D01*
X92001315Y-85094295D02*
X92058458Y-85208580D01*
X92058458Y-85208580D02*
X92115601Y-85284771D01*
X92115601Y-85284771D02*
X92172744Y-85322866D01*
X117915601Y-87644295D02*
X118115601Y-87263342D01*
X118258458Y-87644295D02*
X118258458Y-86844295D01*
X118258458Y-86844295D02*
X118029887Y-86844295D01*
X118029887Y-86844295D02*
X117972744Y-86882390D01*
X117972744Y-86882390D02*
X117944173Y-86920485D01*
X117944173Y-86920485D02*
X117915601Y-86996676D01*
X117915601Y-86996676D02*
X117915601Y-87110961D01*
X117915601Y-87110961D02*
X117944173Y-87187152D01*
X117944173Y-87187152D02*
X117972744Y-87225247D01*
X117972744Y-87225247D02*
X118029887Y-87263342D01*
X118029887Y-87263342D02*
X118258458Y-87263342D01*
X117372744Y-86844295D02*
X117658458Y-86844295D01*
X117658458Y-86844295D02*
X117687030Y-87225247D01*
X117687030Y-87225247D02*
X117658458Y-87187152D01*
X117658458Y-87187152D02*
X117601316Y-87149057D01*
X117601316Y-87149057D02*
X117458458Y-87149057D01*
X117458458Y-87149057D02*
X117401316Y-87187152D01*
X117401316Y-87187152D02*
X117372744Y-87225247D01*
X117372744Y-87225247D02*
X117344173Y-87301438D01*
X117344173Y-87301438D02*
X117344173Y-87491914D01*
X117344173Y-87491914D02*
X117372744Y-87568104D01*
X117372744Y-87568104D02*
X117401316Y-87606200D01*
X117401316Y-87606200D02*
X117458458Y-87644295D01*
X117458458Y-87644295D02*
X117601316Y-87644295D01*
X117601316Y-87644295D02*
X117658458Y-87606200D01*
X117658458Y-87606200D02*
X117687030Y-87568104D01*
X140478101Y-64818104D02*
X140506673Y-64856200D01*
X140506673Y-64856200D02*
X140592387Y-64894295D01*
X140592387Y-64894295D02*
X140649530Y-64894295D01*
X140649530Y-64894295D02*
X140735244Y-64856200D01*
X140735244Y-64856200D02*
X140792387Y-64780009D01*
X140792387Y-64780009D02*
X140820958Y-64703819D01*
X140820958Y-64703819D02*
X140849530Y-64551438D01*
X140849530Y-64551438D02*
X140849530Y-64437152D01*
X140849530Y-64437152D02*
X140820958Y-64284771D01*
X140820958Y-64284771D02*
X140792387Y-64208580D01*
X140792387Y-64208580D02*
X140735244Y-64132390D01*
X140735244Y-64132390D02*
X140649530Y-64094295D01*
X140649530Y-64094295D02*
X140592387Y-64094295D01*
X140592387Y-64094295D02*
X140506673Y-64132390D01*
X140506673Y-64132390D02*
X140478101Y-64170485D01*
X140278101Y-64094295D02*
X139878101Y-64094295D01*
X139878101Y-64094295D02*
X140135244Y-64894295D01*
X99758458Y-93394295D02*
X99758458Y-92594295D01*
X99758458Y-92594295D02*
X99615601Y-92594295D01*
X99615601Y-92594295D02*
X99529887Y-92632390D01*
X99529887Y-92632390D02*
X99472744Y-92708580D01*
X99472744Y-92708580D02*
X99444173Y-92784771D01*
X99444173Y-92784771D02*
X99415601Y-92937152D01*
X99415601Y-92937152D02*
X99415601Y-93051438D01*
X99415601Y-93051438D02*
X99444173Y-93203819D01*
X99444173Y-93203819D02*
X99472744Y-93280009D01*
X99472744Y-93280009D02*
X99529887Y-93356200D01*
X99529887Y-93356200D02*
X99615601Y-93394295D01*
X99615601Y-93394295D02*
X99758458Y-93394295D01*
X98844173Y-93394295D02*
X99187030Y-93394295D01*
X99015601Y-93394295D02*
X99015601Y-92594295D01*
X99015601Y-92594295D02*
X99072744Y-92708580D01*
X99072744Y-92708580D02*
X99129887Y-92784771D01*
X99129887Y-92784771D02*
X99187030Y-92822866D01*
X117915601Y-90644295D02*
X118115601Y-90263342D01*
X118258458Y-90644295D02*
X118258458Y-89844295D01*
X118258458Y-89844295D02*
X118029887Y-89844295D01*
X118029887Y-89844295D02*
X117972744Y-89882390D01*
X117972744Y-89882390D02*
X117944173Y-89920485D01*
X117944173Y-89920485D02*
X117915601Y-89996676D01*
X117915601Y-89996676D02*
X117915601Y-90110961D01*
X117915601Y-90110961D02*
X117944173Y-90187152D01*
X117944173Y-90187152D02*
X117972744Y-90225247D01*
X117972744Y-90225247D02*
X118029887Y-90263342D01*
X118029887Y-90263342D02*
X118258458Y-90263342D01*
X117401316Y-90110961D02*
X117401316Y-90644295D01*
X117544173Y-89806200D02*
X117687030Y-90377628D01*
X117687030Y-90377628D02*
X117315601Y-90377628D01*
X134515601Y-81394295D02*
X134715601Y-81013342D01*
X134858458Y-81394295D02*
X134858458Y-80594295D01*
X134858458Y-80594295D02*
X134629887Y-80594295D01*
X134629887Y-80594295D02*
X134572744Y-80632390D01*
X134572744Y-80632390D02*
X134544173Y-80670485D01*
X134544173Y-80670485D02*
X134515601Y-80746676D01*
X134515601Y-80746676D02*
X134515601Y-80860961D01*
X134515601Y-80860961D02*
X134544173Y-80937152D01*
X134544173Y-80937152D02*
X134572744Y-80975247D01*
X134572744Y-80975247D02*
X134629887Y-81013342D01*
X134629887Y-81013342D02*
X134858458Y-81013342D01*
X134287030Y-80670485D02*
X134258458Y-80632390D01*
X134258458Y-80632390D02*
X134201316Y-80594295D01*
X134201316Y-80594295D02*
X134058458Y-80594295D01*
X134058458Y-80594295D02*
X134001316Y-80632390D01*
X134001316Y-80632390D02*
X133972744Y-80670485D01*
X133972744Y-80670485D02*
X133944173Y-80746676D01*
X133944173Y-80746676D02*
X133944173Y-80822866D01*
X133944173Y-80822866D02*
X133972744Y-80937152D01*
X133972744Y-80937152D02*
X134315601Y-81394295D01*
X134315601Y-81394295D02*
X133944173Y-81394295D01*
X133415601Y-66894295D02*
X133615601Y-66513342D01*
X133758458Y-66894295D02*
X133758458Y-66094295D01*
X133758458Y-66094295D02*
X133529887Y-66094295D01*
X133529887Y-66094295D02*
X133472744Y-66132390D01*
X133472744Y-66132390D02*
X133444173Y-66170485D01*
X133444173Y-66170485D02*
X133415601Y-66246676D01*
X133415601Y-66246676D02*
X133415601Y-66360961D01*
X133415601Y-66360961D02*
X133444173Y-66437152D01*
X133444173Y-66437152D02*
X133472744Y-66475247D01*
X133472744Y-66475247D02*
X133529887Y-66513342D01*
X133529887Y-66513342D02*
X133758458Y-66513342D01*
X133215601Y-66094295D02*
X132815601Y-66094295D01*
X132815601Y-66094295D02*
X133072744Y-66894295D01*
X139478101Y-85818104D02*
X139506673Y-85856200D01*
X139506673Y-85856200D02*
X139592387Y-85894295D01*
X139592387Y-85894295D02*
X139649530Y-85894295D01*
X139649530Y-85894295D02*
X139735244Y-85856200D01*
X139735244Y-85856200D02*
X139792387Y-85780009D01*
X139792387Y-85780009D02*
X139820958Y-85703819D01*
X139820958Y-85703819D02*
X139849530Y-85551438D01*
X139849530Y-85551438D02*
X139849530Y-85437152D01*
X139849530Y-85437152D02*
X139820958Y-85284771D01*
X139820958Y-85284771D02*
X139792387Y-85208580D01*
X139792387Y-85208580D02*
X139735244Y-85132390D01*
X139735244Y-85132390D02*
X139649530Y-85094295D01*
X139649530Y-85094295D02*
X139592387Y-85094295D01*
X139592387Y-85094295D02*
X139506673Y-85132390D01*
X139506673Y-85132390D02*
X139478101Y-85170485D01*
X139135244Y-85437152D02*
X139192387Y-85399057D01*
X139192387Y-85399057D02*
X139220958Y-85360961D01*
X139220958Y-85360961D02*
X139249530Y-85284771D01*
X139249530Y-85284771D02*
X139249530Y-85246676D01*
X139249530Y-85246676D02*
X139220958Y-85170485D01*
X139220958Y-85170485D02*
X139192387Y-85132390D01*
X139192387Y-85132390D02*
X139135244Y-85094295D01*
X139135244Y-85094295D02*
X139020958Y-85094295D01*
X139020958Y-85094295D02*
X138963816Y-85132390D01*
X138963816Y-85132390D02*
X138935244Y-85170485D01*
X138935244Y-85170485D02*
X138906673Y-85246676D01*
X138906673Y-85246676D02*
X138906673Y-85284771D01*
X138906673Y-85284771D02*
X138935244Y-85360961D01*
X138935244Y-85360961D02*
X138963816Y-85399057D01*
X138963816Y-85399057D02*
X139020958Y-85437152D01*
X139020958Y-85437152D02*
X139135244Y-85437152D01*
X139135244Y-85437152D02*
X139192387Y-85475247D01*
X139192387Y-85475247D02*
X139220958Y-85513342D01*
X139220958Y-85513342D02*
X139249530Y-85589533D01*
X139249530Y-85589533D02*
X139249530Y-85741914D01*
X139249530Y-85741914D02*
X139220958Y-85818104D01*
X139220958Y-85818104D02*
X139192387Y-85856200D01*
X139192387Y-85856200D02*
X139135244Y-85894295D01*
X139135244Y-85894295D02*
X139020958Y-85894295D01*
X139020958Y-85894295D02*
X138963816Y-85856200D01*
X138963816Y-85856200D02*
X138935244Y-85818104D01*
X138935244Y-85818104D02*
X138906673Y-85741914D01*
X138906673Y-85741914D02*
X138906673Y-85589533D01*
X138906673Y-85589533D02*
X138935244Y-85513342D01*
X138935244Y-85513342D02*
X138963816Y-85475247D01*
X138963816Y-85475247D02*
X139020958Y-85437152D01*
X154915601Y-76894295D02*
X155115601Y-76513342D01*
X155258458Y-76894295D02*
X155258458Y-76094295D01*
X155258458Y-76094295D02*
X155029887Y-76094295D01*
X155029887Y-76094295D02*
X154972744Y-76132390D01*
X154972744Y-76132390D02*
X154944173Y-76170485D01*
X154944173Y-76170485D02*
X154915601Y-76246676D01*
X154915601Y-76246676D02*
X154915601Y-76360961D01*
X154915601Y-76360961D02*
X154944173Y-76437152D01*
X154944173Y-76437152D02*
X154972744Y-76475247D01*
X154972744Y-76475247D02*
X155029887Y-76513342D01*
X155029887Y-76513342D02*
X155258458Y-76513342D01*
X154572744Y-76437152D02*
X154629887Y-76399057D01*
X154629887Y-76399057D02*
X154658458Y-76360961D01*
X154658458Y-76360961D02*
X154687030Y-76284771D01*
X154687030Y-76284771D02*
X154687030Y-76246676D01*
X154687030Y-76246676D02*
X154658458Y-76170485D01*
X154658458Y-76170485D02*
X154629887Y-76132390D01*
X154629887Y-76132390D02*
X154572744Y-76094295D01*
X154572744Y-76094295D02*
X154458458Y-76094295D01*
X154458458Y-76094295D02*
X154401316Y-76132390D01*
X154401316Y-76132390D02*
X154372744Y-76170485D01*
X154372744Y-76170485D02*
X154344173Y-76246676D01*
X154344173Y-76246676D02*
X154344173Y-76284771D01*
X154344173Y-76284771D02*
X154372744Y-76360961D01*
X154372744Y-76360961D02*
X154401316Y-76399057D01*
X154401316Y-76399057D02*
X154458458Y-76437152D01*
X154458458Y-76437152D02*
X154572744Y-76437152D01*
X154572744Y-76437152D02*
X154629887Y-76475247D01*
X154629887Y-76475247D02*
X154658458Y-76513342D01*
X154658458Y-76513342D02*
X154687030Y-76589533D01*
X154687030Y-76589533D02*
X154687030Y-76741914D01*
X154687030Y-76741914D02*
X154658458Y-76818104D01*
X154658458Y-76818104D02*
X154629887Y-76856200D01*
X154629887Y-76856200D02*
X154572744Y-76894295D01*
X154572744Y-76894295D02*
X154458458Y-76894295D01*
X154458458Y-76894295D02*
X154401316Y-76856200D01*
X154401316Y-76856200D02*
X154372744Y-76818104D01*
X154372744Y-76818104D02*
X154344173Y-76741914D01*
X154344173Y-76741914D02*
X154344173Y-76589533D01*
X154344173Y-76589533D02*
X154372744Y-76513342D01*
X154372744Y-76513342D02*
X154401316Y-76475247D01*
X154401316Y-76475247D02*
X154458458Y-76437152D01*
X148258458Y-70094295D02*
X148258458Y-70741914D01*
X148258458Y-70741914D02*
X148229887Y-70818104D01*
X148229887Y-70818104D02*
X148201316Y-70856200D01*
X148201316Y-70856200D02*
X148144173Y-70894295D01*
X148144173Y-70894295D02*
X148029887Y-70894295D01*
X148029887Y-70894295D02*
X147972744Y-70856200D01*
X147972744Y-70856200D02*
X147944173Y-70818104D01*
X147944173Y-70818104D02*
X147915601Y-70741914D01*
X147915601Y-70741914D02*
X147915601Y-70094295D01*
X147315602Y-70894295D02*
X147658459Y-70894295D01*
X147487030Y-70894295D02*
X147487030Y-70094295D01*
X147487030Y-70094295D02*
X147544173Y-70208580D01*
X147544173Y-70208580D02*
X147601316Y-70284771D01*
X147601316Y-70284771D02*
X147658459Y-70322866D01*
D11*
%TO.C,R1*%
X158227064Y-72735000D02*
X157772936Y-72735000D01*
X158227064Y-71265000D02*
X157772936Y-71265000D01*
%TO.C,R9*%
X157772936Y-80235000D02*
X158227064Y-80235000D01*
X157772936Y-78765000D02*
X158227064Y-78765000D01*
%TO.C,R3*%
X157772936Y-73765000D02*
X158227064Y-73765000D01*
X157772936Y-75235000D02*
X158227064Y-75235000D01*
D12*
%TO.C,C3*%
X120750000Y-73850000D02*
X120750000Y-78650000D01*
X120750000Y-78650000D02*
X123050000Y-78650000D01*
X122450000Y-72150000D02*
X120750000Y-73850000D01*
X123050000Y-72150000D02*
X122450000Y-72150000D01*
X124950000Y-78650000D02*
X127250000Y-78650000D01*
X125550000Y-72150000D02*
X124950000Y-72150000D01*
X127250000Y-73850000D02*
X125550000Y-72150000D01*
X127250000Y-78650000D02*
X127250000Y-73850000D01*
X123050000Y-78350000D02*
G75*
G02*
X123050000Y-72450000I950001J2950000D01*
G01*
X124950000Y-72450000D02*
G75*
G02*
X124950000Y-78350000I-950001J-2950000D01*
G01*
D11*
%TO.C,C9*%
X128400000Y-77185000D02*
X132485000Y-77185000D01*
X132485000Y-77185000D02*
X132485000Y-79055000D01*
X132485000Y-79055000D02*
X128400000Y-79055000D01*
%TO.C,R6*%
X136727064Y-64265000D02*
X136272936Y-64265000D01*
X136727064Y-65735000D02*
X136272936Y-65735000D01*
%TO.C,RV1*%
X90590000Y-89022936D02*
X90590000Y-90477064D01*
X92410000Y-89022936D02*
X92410000Y-90477064D01*
%TO.C,R5*%
X115477064Y-86765000D02*
X115022936Y-86765000D01*
X115477064Y-88235000D02*
X115022936Y-88235000D01*
%TO.C,C7*%
X142462500Y-64065000D02*
X146547500Y-64065000D01*
X146547500Y-64065000D02*
X146547500Y-65935000D01*
X146547500Y-65935000D02*
X142462500Y-65935000D01*
%TO.C,D1*%
X94350000Y-85690000D02*
X94350000Y-91500000D01*
X94350000Y-85690000D02*
X98650000Y-85690000D01*
X98650000Y-85690000D02*
X98650000Y-91500000D01*
%TO.C,C4*%
X111061252Y-86765000D02*
X110538748Y-86765000D01*
X111061252Y-88235000D02*
X110538748Y-88235000D01*
%TO.C,C1*%
X104015000Y-90538748D02*
X104015000Y-91061252D01*
X105485000Y-90538748D02*
X105485000Y-91061252D01*
%TO.C,R4*%
X115477064Y-90015000D02*
X115022936Y-90015000D01*
X115477064Y-91485000D02*
X115022936Y-91485000D01*
%TO.C,R2*%
X137477064Y-80765000D02*
X137022936Y-80765000D01*
X137477064Y-82235000D02*
X137022936Y-82235000D01*
%TO.C,C2*%
X101765000Y-90538748D02*
X101765000Y-91061252D01*
X103235000Y-90538748D02*
X103235000Y-91061252D01*
%TO.C,U2*%
X101390000Y-82440000D02*
X102650000Y-82440000D01*
X101390000Y-86200000D02*
X101390000Y-82440000D01*
X108210000Y-82440000D02*
X106950000Y-82440000D01*
X108210000Y-86200000D02*
X108210000Y-82440000D01*
%TO.C,R7*%
X132272936Y-64265000D02*
X132727064Y-64265000D01*
X132272936Y-65735000D02*
X132727064Y-65735000D01*
%TO.C,C8*%
X141462500Y-85065000D02*
X145547500Y-85065000D01*
X145547500Y-85065000D02*
X145547500Y-86935000D01*
X145547500Y-86935000D02*
X141462500Y-86935000D01*
%TO.C,R8*%
X157772936Y-76265000D02*
X158227064Y-76265000D01*
X157772936Y-77735000D02*
X158227064Y-77735000D01*
%TO.C,U1*%
X139390000Y-72890000D02*
X139840000Y-72890000D01*
X139390000Y-73340000D02*
X139390000Y-72890000D01*
X139390000Y-79660000D02*
X139390000Y-80110000D01*
X139390000Y-80110000D02*
X139840000Y-80110000D01*
X146610000Y-72890000D02*
X146160000Y-72890000D01*
X146610000Y-73340000D02*
X146610000Y-72890000D01*
X146610000Y-79660000D02*
X146610000Y-80110000D01*
X146610000Y-80110000D02*
X146160000Y-80110000D01*
X139840000Y-72300000D02*
X139370000Y-72640000D01*
X139370000Y-71960000D01*
X139840000Y-72300000D01*
G36*
X139840000Y-72300000D02*
G01*
X139370000Y-72640000D01*
X139370000Y-71960000D01*
X139840000Y-72300000D01*
G37*
%TD*%
M02*
