%TF.GenerationSoftware,KiCad,Pcbnew,9.0.6-9.0.6~ubuntu22.04.1*%
%TF.CreationDate,2026-01-07T10:26:53-05:00*%
%TF.ProjectId,Hyperdrift-Display-Controller,48797065-7264-4726-9966-742d44697370,rev?*%
%TF.SameCoordinates,Original*%
%TF.FileFunction,Legend,Top*%
%TF.FilePolarity,Positive*%
%FSLAX46Y46*%
G04 Gerber Fmt 4.6, Leading zero omitted, Abs format (unit mm)*
G04 Created by KiCad (PCBNEW 9.0.6-9.0.6~ubuntu22.04.1) date 2026-01-07 10:26:53*
%MOMM*%
%LPD*%
G01*
G04 APERTURE LIST*
%ADD10C,0.254000*%
%ADD11C,0.158750*%
%ADD12C,0.200000*%
%ADD13C,0.100000*%
%ADD14C,0.225000*%
%ADD15C,0.150000*%
%ADD16C,0.120000*%
G04 APERTURE END LIST*
D10*
X102361509Y-50211461D02*
X102966271Y-50211461D01*
X102240557Y-50574318D02*
X102663890Y-49304318D01*
X102663890Y-49304318D02*
X103087224Y-50574318D01*
X103450080Y-49425270D02*
X103510556Y-49364794D01*
X103510556Y-49364794D02*
X103631509Y-49304318D01*
X103631509Y-49304318D02*
X103933890Y-49304318D01*
X103933890Y-49304318D02*
X104054842Y-49364794D01*
X104054842Y-49364794D02*
X104115318Y-49425270D01*
X104115318Y-49425270D02*
X104175795Y-49546222D01*
X104175795Y-49546222D02*
X104175795Y-49667175D01*
X104175795Y-49667175D02*
X104115318Y-49848603D01*
X104115318Y-49848603D02*
X103389604Y-50574318D01*
X103389604Y-50574318D02*
X104175795Y-50574318D01*
X107861509Y-50211461D02*
X108466271Y-50211461D01*
X107740557Y-50574318D02*
X108163890Y-49304318D01*
X108163890Y-49304318D02*
X108587224Y-50574318D01*
X109675795Y-50574318D02*
X108950080Y-50574318D01*
X109312937Y-50574318D02*
X109312937Y-49304318D01*
X109312937Y-49304318D02*
X109191985Y-49485746D01*
X109191985Y-49485746D02*
X109071033Y-49606699D01*
X109071033Y-49606699D02*
X108950080Y-49667175D01*
X113861509Y-50211461D02*
X114466271Y-50211461D01*
X113740557Y-50574318D02*
X114163890Y-49304318D01*
X114163890Y-49304318D02*
X114587224Y-50574318D01*
X115010556Y-50574318D02*
X115010556Y-49304318D01*
X115010556Y-49304318D02*
X115312937Y-49304318D01*
X115312937Y-49304318D02*
X115494366Y-49364794D01*
X115494366Y-49364794D02*
X115615318Y-49485746D01*
X115615318Y-49485746D02*
X115675795Y-49606699D01*
X115675795Y-49606699D02*
X115736271Y-49848603D01*
X115736271Y-49848603D02*
X115736271Y-50030032D01*
X115736271Y-50030032D02*
X115675795Y-50271937D01*
X115675795Y-50271937D02*
X115615318Y-50392889D01*
X115615318Y-50392889D02*
X115494366Y-50513842D01*
X115494366Y-50513842D02*
X115312937Y-50574318D01*
X115312937Y-50574318D02*
X115010556Y-50574318D01*
X116280556Y-50574318D02*
X116280556Y-49304318D01*
X116280556Y-49304318D02*
X116582937Y-49304318D01*
X116582937Y-49304318D02*
X116764366Y-49364794D01*
X116764366Y-49364794D02*
X116885318Y-49485746D01*
X116885318Y-49485746D02*
X116945795Y-49606699D01*
X116945795Y-49606699D02*
X117006271Y-49848603D01*
X117006271Y-49848603D02*
X117006271Y-50030032D01*
X117006271Y-50030032D02*
X116945795Y-50271937D01*
X116945795Y-50271937D02*
X116885318Y-50392889D01*
X116885318Y-50392889D02*
X116764366Y-50513842D01*
X116764366Y-50513842D02*
X116582937Y-50574318D01*
X116582937Y-50574318D02*
X116280556Y-50574318D01*
X118276271Y-50574318D02*
X117852937Y-49969556D01*
X117550556Y-50574318D02*
X117550556Y-49304318D01*
X117550556Y-49304318D02*
X118034366Y-49304318D01*
X118034366Y-49304318D02*
X118155318Y-49364794D01*
X118155318Y-49364794D02*
X118215795Y-49425270D01*
X118215795Y-49425270D02*
X118276271Y-49546222D01*
X118276271Y-49546222D02*
X118276271Y-49727651D01*
X118276271Y-49727651D02*
X118215795Y-49848603D01*
X118215795Y-49848603D02*
X118155318Y-49909080D01*
X118155318Y-49909080D02*
X118034366Y-49969556D01*
X118034366Y-49969556D02*
X117550556Y-49969556D01*
D11*
X103024559Y-52369747D02*
X102903606Y-52309271D01*
X102903606Y-52309271D02*
X102722178Y-52309271D01*
X102722178Y-52309271D02*
X102540749Y-52369747D01*
X102540749Y-52369747D02*
X102419797Y-52490699D01*
X102419797Y-52490699D02*
X102359320Y-52611652D01*
X102359320Y-52611652D02*
X102298844Y-52853556D01*
X102298844Y-52853556D02*
X102298844Y-53034985D01*
X102298844Y-53034985D02*
X102359320Y-53276890D01*
X102359320Y-53276890D02*
X102419797Y-53397842D01*
X102419797Y-53397842D02*
X102540749Y-53518795D01*
X102540749Y-53518795D02*
X102722178Y-53579271D01*
X102722178Y-53579271D02*
X102843130Y-53579271D01*
X102843130Y-53579271D02*
X103024559Y-53518795D01*
X103024559Y-53518795D02*
X103085035Y-53458318D01*
X103085035Y-53458318D02*
X103085035Y-53034985D01*
X103085035Y-53034985D02*
X102843130Y-53034985D01*
X103629320Y-53579271D02*
X103629320Y-52309271D01*
X103629320Y-52309271D02*
X104355035Y-53579271D01*
X104355035Y-53579271D02*
X104355035Y-52309271D01*
X104959796Y-53579271D02*
X104959796Y-52309271D01*
X104959796Y-52309271D02*
X105262177Y-52309271D01*
X105262177Y-52309271D02*
X105443606Y-52369747D01*
X105443606Y-52369747D02*
X105564558Y-52490699D01*
X105564558Y-52490699D02*
X105625035Y-52611652D01*
X105625035Y-52611652D02*
X105685511Y-52853556D01*
X105685511Y-52853556D02*
X105685511Y-53034985D01*
X105685511Y-53034985D02*
X105625035Y-53276890D01*
X105625035Y-53276890D02*
X105564558Y-53397842D01*
X105564558Y-53397842D02*
X105443606Y-53518795D01*
X105443606Y-53518795D02*
X105262177Y-53579271D01*
X105262177Y-53579271D02*
X104959796Y-53579271D01*
X108524559Y-52369747D02*
X108403606Y-52309271D01*
X108403606Y-52309271D02*
X108222178Y-52309271D01*
X108222178Y-52309271D02*
X108040749Y-52369747D01*
X108040749Y-52369747D02*
X107919797Y-52490699D01*
X107919797Y-52490699D02*
X107859320Y-52611652D01*
X107859320Y-52611652D02*
X107798844Y-52853556D01*
X107798844Y-52853556D02*
X107798844Y-53034985D01*
X107798844Y-53034985D02*
X107859320Y-53276890D01*
X107859320Y-53276890D02*
X107919797Y-53397842D01*
X107919797Y-53397842D02*
X108040749Y-53518795D01*
X108040749Y-53518795D02*
X108222178Y-53579271D01*
X108222178Y-53579271D02*
X108343130Y-53579271D01*
X108343130Y-53579271D02*
X108524559Y-53518795D01*
X108524559Y-53518795D02*
X108585035Y-53458318D01*
X108585035Y-53458318D02*
X108585035Y-53034985D01*
X108585035Y-53034985D02*
X108343130Y-53034985D01*
X109129320Y-53579271D02*
X109129320Y-52309271D01*
X109129320Y-52309271D02*
X109855035Y-53579271D01*
X109855035Y-53579271D02*
X109855035Y-52309271D01*
X110459796Y-53579271D02*
X110459796Y-52309271D01*
X110459796Y-52309271D02*
X110762177Y-52309271D01*
X110762177Y-52309271D02*
X110943606Y-52369747D01*
X110943606Y-52369747D02*
X111064558Y-52490699D01*
X111064558Y-52490699D02*
X111125035Y-52611652D01*
X111125035Y-52611652D02*
X111185511Y-52853556D01*
X111185511Y-52853556D02*
X111185511Y-53034985D01*
X111185511Y-53034985D02*
X111125035Y-53276890D01*
X111125035Y-53276890D02*
X111064558Y-53397842D01*
X111064558Y-53397842D02*
X110943606Y-53518795D01*
X110943606Y-53518795D02*
X110762177Y-53579271D01*
X110762177Y-53579271D02*
X110459796Y-53579271D01*
D10*
X114163890Y-52304318D02*
X114284843Y-52304318D01*
X114284843Y-52304318D02*
X114405795Y-52364794D01*
X114405795Y-52364794D02*
X114466271Y-52425270D01*
X114466271Y-52425270D02*
X114526747Y-52546222D01*
X114526747Y-52546222D02*
X114587224Y-52788127D01*
X114587224Y-52788127D02*
X114587224Y-53090508D01*
X114587224Y-53090508D02*
X114526747Y-53332413D01*
X114526747Y-53332413D02*
X114466271Y-53453365D01*
X114466271Y-53453365D02*
X114405795Y-53513842D01*
X114405795Y-53513842D02*
X114284843Y-53574318D01*
X114284843Y-53574318D02*
X114163890Y-53574318D01*
X114163890Y-53574318D02*
X114042938Y-53513842D01*
X114042938Y-53513842D02*
X113982462Y-53453365D01*
X113982462Y-53453365D02*
X113921985Y-53332413D01*
X113921985Y-53332413D02*
X113861509Y-53090508D01*
X113861509Y-53090508D02*
X113861509Y-52788127D01*
X113861509Y-52788127D02*
X113921985Y-52546222D01*
X113921985Y-52546222D02*
X113982462Y-52425270D01*
X113982462Y-52425270D02*
X114042938Y-52364794D01*
X114042938Y-52364794D02*
X114163890Y-52304318D01*
X115010557Y-53574318D02*
X115675795Y-52727651D01*
X115010557Y-52727651D02*
X115675795Y-53574318D01*
X116764366Y-52304318D02*
X116159604Y-52304318D01*
X116159604Y-52304318D02*
X116099128Y-52909080D01*
X116099128Y-52909080D02*
X116159604Y-52848603D01*
X116159604Y-52848603D02*
X116280557Y-52788127D01*
X116280557Y-52788127D02*
X116582938Y-52788127D01*
X116582938Y-52788127D02*
X116703890Y-52848603D01*
X116703890Y-52848603D02*
X116764366Y-52909080D01*
X116764366Y-52909080D02*
X116824843Y-53030032D01*
X116824843Y-53030032D02*
X116824843Y-53332413D01*
X116824843Y-53332413D02*
X116764366Y-53453365D01*
X116764366Y-53453365D02*
X116703890Y-53513842D01*
X116703890Y-53513842D02*
X116582938Y-53574318D01*
X116582938Y-53574318D02*
X116280557Y-53574318D01*
X116280557Y-53574318D02*
X116159604Y-53513842D01*
X116159604Y-53513842D02*
X116099128Y-53453365D01*
X117611033Y-52304318D02*
X117731986Y-52304318D01*
X117731986Y-52304318D02*
X117852938Y-52364794D01*
X117852938Y-52364794D02*
X117913414Y-52425270D01*
X117913414Y-52425270D02*
X117973890Y-52546222D01*
X117973890Y-52546222D02*
X118034367Y-52788127D01*
X118034367Y-52788127D02*
X118034367Y-53090508D01*
X118034367Y-53090508D02*
X117973890Y-53332413D01*
X117973890Y-53332413D02*
X117913414Y-53453365D01*
X117913414Y-53453365D02*
X117852938Y-53513842D01*
X117852938Y-53513842D02*
X117731986Y-53574318D01*
X117731986Y-53574318D02*
X117611033Y-53574318D01*
X117611033Y-53574318D02*
X117490081Y-53513842D01*
X117490081Y-53513842D02*
X117429605Y-53453365D01*
X117429605Y-53453365D02*
X117369128Y-53332413D01*
X117369128Y-53332413D02*
X117308652Y-53090508D01*
X117308652Y-53090508D02*
X117308652Y-52788127D01*
X117308652Y-52788127D02*
X117369128Y-52546222D01*
X117369128Y-52546222D02*
X117429605Y-52425270D01*
X117429605Y-52425270D02*
X117490081Y-52364794D01*
X117490081Y-52364794D02*
X117611033Y-52304318D01*
D11*
X103024559Y-55369747D02*
X102903606Y-55309271D01*
X102903606Y-55309271D02*
X102722178Y-55309271D01*
X102722178Y-55309271D02*
X102540749Y-55369747D01*
X102540749Y-55369747D02*
X102419797Y-55490699D01*
X102419797Y-55490699D02*
X102359320Y-55611652D01*
X102359320Y-55611652D02*
X102298844Y-55853556D01*
X102298844Y-55853556D02*
X102298844Y-56034985D01*
X102298844Y-56034985D02*
X102359320Y-56276890D01*
X102359320Y-56276890D02*
X102419797Y-56397842D01*
X102419797Y-56397842D02*
X102540749Y-56518795D01*
X102540749Y-56518795D02*
X102722178Y-56579271D01*
X102722178Y-56579271D02*
X102843130Y-56579271D01*
X102843130Y-56579271D02*
X103024559Y-56518795D01*
X103024559Y-56518795D02*
X103085035Y-56458318D01*
X103085035Y-56458318D02*
X103085035Y-56034985D01*
X103085035Y-56034985D02*
X102843130Y-56034985D01*
X103629320Y-56579271D02*
X103629320Y-55309271D01*
X103629320Y-55309271D02*
X104355035Y-56579271D01*
X104355035Y-56579271D02*
X104355035Y-55309271D01*
X104959796Y-56579271D02*
X104959796Y-55309271D01*
X104959796Y-55309271D02*
X105262177Y-55309271D01*
X105262177Y-55309271D02*
X105443606Y-55369747D01*
X105443606Y-55369747D02*
X105564558Y-55490699D01*
X105564558Y-55490699D02*
X105625035Y-55611652D01*
X105625035Y-55611652D02*
X105685511Y-55853556D01*
X105685511Y-55853556D02*
X105685511Y-56034985D01*
X105685511Y-56034985D02*
X105625035Y-56276890D01*
X105625035Y-56276890D02*
X105564558Y-56397842D01*
X105564558Y-56397842D02*
X105443606Y-56518795D01*
X105443606Y-56518795D02*
X105262177Y-56579271D01*
X105262177Y-56579271D02*
X104959796Y-56579271D01*
X107798844Y-56518795D02*
X107980273Y-56579271D01*
X107980273Y-56579271D02*
X108282654Y-56579271D01*
X108282654Y-56579271D02*
X108403606Y-56518795D01*
X108403606Y-56518795D02*
X108464082Y-56458318D01*
X108464082Y-56458318D02*
X108524559Y-56337366D01*
X108524559Y-56337366D02*
X108524559Y-56216414D01*
X108524559Y-56216414D02*
X108464082Y-56095461D01*
X108464082Y-56095461D02*
X108403606Y-56034985D01*
X108403606Y-56034985D02*
X108282654Y-55974509D01*
X108282654Y-55974509D02*
X108040749Y-55914033D01*
X108040749Y-55914033D02*
X107919797Y-55853556D01*
X107919797Y-55853556D02*
X107859320Y-55793080D01*
X107859320Y-55793080D02*
X107798844Y-55672128D01*
X107798844Y-55672128D02*
X107798844Y-55551175D01*
X107798844Y-55551175D02*
X107859320Y-55430223D01*
X107859320Y-55430223D02*
X107919797Y-55369747D01*
X107919797Y-55369747D02*
X108040749Y-55309271D01*
X108040749Y-55309271D02*
X108343130Y-55309271D01*
X108343130Y-55309271D02*
X108524559Y-55369747D01*
X109794559Y-56458318D02*
X109734083Y-56518795D01*
X109734083Y-56518795D02*
X109552654Y-56579271D01*
X109552654Y-56579271D02*
X109431702Y-56579271D01*
X109431702Y-56579271D02*
X109250273Y-56518795D01*
X109250273Y-56518795D02*
X109129321Y-56397842D01*
X109129321Y-56397842D02*
X109068844Y-56276890D01*
X109068844Y-56276890D02*
X109008368Y-56034985D01*
X109008368Y-56034985D02*
X109008368Y-55853556D01*
X109008368Y-55853556D02*
X109068844Y-55611652D01*
X109068844Y-55611652D02*
X109129321Y-55490699D01*
X109129321Y-55490699D02*
X109250273Y-55369747D01*
X109250273Y-55369747D02*
X109431702Y-55309271D01*
X109431702Y-55309271D02*
X109552654Y-55309271D01*
X109552654Y-55309271D02*
X109734083Y-55369747D01*
X109734083Y-55369747D02*
X109794559Y-55430223D01*
X110943606Y-56579271D02*
X110338844Y-56579271D01*
X110338844Y-56579271D02*
X110338844Y-55309271D01*
D10*
X114163890Y-55304318D02*
X114284843Y-55304318D01*
X114284843Y-55304318D02*
X114405795Y-55364794D01*
X114405795Y-55364794D02*
X114466271Y-55425270D01*
X114466271Y-55425270D02*
X114526747Y-55546222D01*
X114526747Y-55546222D02*
X114587224Y-55788127D01*
X114587224Y-55788127D02*
X114587224Y-56090508D01*
X114587224Y-56090508D02*
X114526747Y-56332413D01*
X114526747Y-56332413D02*
X114466271Y-56453365D01*
X114466271Y-56453365D02*
X114405795Y-56513842D01*
X114405795Y-56513842D02*
X114284843Y-56574318D01*
X114284843Y-56574318D02*
X114163890Y-56574318D01*
X114163890Y-56574318D02*
X114042938Y-56513842D01*
X114042938Y-56513842D02*
X113982462Y-56453365D01*
X113982462Y-56453365D02*
X113921985Y-56332413D01*
X113921985Y-56332413D02*
X113861509Y-56090508D01*
X113861509Y-56090508D02*
X113861509Y-55788127D01*
X113861509Y-55788127D02*
X113921985Y-55546222D01*
X113921985Y-55546222D02*
X113982462Y-55425270D01*
X113982462Y-55425270D02*
X114042938Y-55364794D01*
X114042938Y-55364794D02*
X114163890Y-55304318D01*
X115010557Y-56574318D02*
X115675795Y-55727651D01*
X115010557Y-55727651D02*
X115675795Y-56574318D01*
X116764366Y-55304318D02*
X116159604Y-55304318D01*
X116159604Y-55304318D02*
X116099128Y-55909080D01*
X116099128Y-55909080D02*
X116159604Y-55848603D01*
X116159604Y-55848603D02*
X116280557Y-55788127D01*
X116280557Y-55788127D02*
X116582938Y-55788127D01*
X116582938Y-55788127D02*
X116703890Y-55848603D01*
X116703890Y-55848603D02*
X116764366Y-55909080D01*
X116764366Y-55909080D02*
X116824843Y-56030032D01*
X116824843Y-56030032D02*
X116824843Y-56332413D01*
X116824843Y-56332413D02*
X116764366Y-56453365D01*
X116764366Y-56453365D02*
X116703890Y-56513842D01*
X116703890Y-56513842D02*
X116582938Y-56574318D01*
X116582938Y-56574318D02*
X116280557Y-56574318D01*
X116280557Y-56574318D02*
X116159604Y-56513842D01*
X116159604Y-56513842D02*
X116099128Y-56453365D01*
X118034367Y-56574318D02*
X117308652Y-56574318D01*
X117671509Y-56574318D02*
X117671509Y-55304318D01*
X117671509Y-55304318D02*
X117550557Y-55485746D01*
X117550557Y-55485746D02*
X117429605Y-55606699D01*
X117429605Y-55606699D02*
X117308652Y-55667175D01*
D11*
X103024559Y-58369747D02*
X102903606Y-58309271D01*
X102903606Y-58309271D02*
X102722178Y-58309271D01*
X102722178Y-58309271D02*
X102540749Y-58369747D01*
X102540749Y-58369747D02*
X102419797Y-58490699D01*
X102419797Y-58490699D02*
X102359320Y-58611652D01*
X102359320Y-58611652D02*
X102298844Y-58853556D01*
X102298844Y-58853556D02*
X102298844Y-59034985D01*
X102298844Y-59034985D02*
X102359320Y-59276890D01*
X102359320Y-59276890D02*
X102419797Y-59397842D01*
X102419797Y-59397842D02*
X102540749Y-59518795D01*
X102540749Y-59518795D02*
X102722178Y-59579271D01*
X102722178Y-59579271D02*
X102843130Y-59579271D01*
X102843130Y-59579271D02*
X103024559Y-59518795D01*
X103024559Y-59518795D02*
X103085035Y-59458318D01*
X103085035Y-59458318D02*
X103085035Y-59034985D01*
X103085035Y-59034985D02*
X102843130Y-59034985D01*
X103629320Y-59579271D02*
X103629320Y-58309271D01*
X103629320Y-58309271D02*
X104355035Y-59579271D01*
X104355035Y-59579271D02*
X104355035Y-58309271D01*
X104959796Y-59579271D02*
X104959796Y-58309271D01*
X104959796Y-58309271D02*
X105262177Y-58309271D01*
X105262177Y-58309271D02*
X105443606Y-58369747D01*
X105443606Y-58369747D02*
X105564558Y-58490699D01*
X105564558Y-58490699D02*
X105625035Y-58611652D01*
X105625035Y-58611652D02*
X105685511Y-58853556D01*
X105685511Y-58853556D02*
X105685511Y-59034985D01*
X105685511Y-59034985D02*
X105625035Y-59276890D01*
X105625035Y-59276890D02*
X105564558Y-59397842D01*
X105564558Y-59397842D02*
X105443606Y-59518795D01*
X105443606Y-59518795D02*
X105262177Y-59579271D01*
X105262177Y-59579271D02*
X104959796Y-59579271D01*
X107798844Y-59518795D02*
X107980273Y-59579271D01*
X107980273Y-59579271D02*
X108282654Y-59579271D01*
X108282654Y-59579271D02*
X108403606Y-59518795D01*
X108403606Y-59518795D02*
X108464082Y-59458318D01*
X108464082Y-59458318D02*
X108524559Y-59337366D01*
X108524559Y-59337366D02*
X108524559Y-59216414D01*
X108524559Y-59216414D02*
X108464082Y-59095461D01*
X108464082Y-59095461D02*
X108403606Y-59034985D01*
X108403606Y-59034985D02*
X108282654Y-58974509D01*
X108282654Y-58974509D02*
X108040749Y-58914033D01*
X108040749Y-58914033D02*
X107919797Y-58853556D01*
X107919797Y-58853556D02*
X107859320Y-58793080D01*
X107859320Y-58793080D02*
X107798844Y-58672128D01*
X107798844Y-58672128D02*
X107798844Y-58551175D01*
X107798844Y-58551175D02*
X107859320Y-58430223D01*
X107859320Y-58430223D02*
X107919797Y-58369747D01*
X107919797Y-58369747D02*
X108040749Y-58309271D01*
X108040749Y-58309271D02*
X108343130Y-58309271D01*
X108343130Y-58309271D02*
X108524559Y-58369747D01*
X109068844Y-59579271D02*
X109068844Y-58309271D01*
X109068844Y-58309271D02*
X109371225Y-58309271D01*
X109371225Y-58309271D02*
X109552654Y-58369747D01*
X109552654Y-58369747D02*
X109673606Y-58490699D01*
X109673606Y-58490699D02*
X109734083Y-58611652D01*
X109734083Y-58611652D02*
X109794559Y-58853556D01*
X109794559Y-58853556D02*
X109794559Y-59034985D01*
X109794559Y-59034985D02*
X109734083Y-59276890D01*
X109734083Y-59276890D02*
X109673606Y-59397842D01*
X109673606Y-59397842D02*
X109552654Y-59518795D01*
X109552654Y-59518795D02*
X109371225Y-59579271D01*
X109371225Y-59579271D02*
X109068844Y-59579271D01*
X110278368Y-59216414D02*
X110883130Y-59216414D01*
X110157416Y-59579271D02*
X110580749Y-58309271D01*
X110580749Y-58309271D02*
X111004083Y-59579271D01*
D10*
X114163890Y-58304318D02*
X114284843Y-58304318D01*
X114284843Y-58304318D02*
X114405795Y-58364794D01*
X114405795Y-58364794D02*
X114466271Y-58425270D01*
X114466271Y-58425270D02*
X114526747Y-58546222D01*
X114526747Y-58546222D02*
X114587224Y-58788127D01*
X114587224Y-58788127D02*
X114587224Y-59090508D01*
X114587224Y-59090508D02*
X114526747Y-59332413D01*
X114526747Y-59332413D02*
X114466271Y-59453365D01*
X114466271Y-59453365D02*
X114405795Y-59513842D01*
X114405795Y-59513842D02*
X114284843Y-59574318D01*
X114284843Y-59574318D02*
X114163890Y-59574318D01*
X114163890Y-59574318D02*
X114042938Y-59513842D01*
X114042938Y-59513842D02*
X113982462Y-59453365D01*
X113982462Y-59453365D02*
X113921985Y-59332413D01*
X113921985Y-59332413D02*
X113861509Y-59090508D01*
X113861509Y-59090508D02*
X113861509Y-58788127D01*
X113861509Y-58788127D02*
X113921985Y-58546222D01*
X113921985Y-58546222D02*
X113982462Y-58425270D01*
X113982462Y-58425270D02*
X114042938Y-58364794D01*
X114042938Y-58364794D02*
X114163890Y-58304318D01*
X115010557Y-59574318D02*
X115675795Y-58727651D01*
X115010557Y-58727651D02*
X115675795Y-59574318D01*
X116764366Y-58304318D02*
X116159604Y-58304318D01*
X116159604Y-58304318D02*
X116099128Y-58909080D01*
X116099128Y-58909080D02*
X116159604Y-58848603D01*
X116159604Y-58848603D02*
X116280557Y-58788127D01*
X116280557Y-58788127D02*
X116582938Y-58788127D01*
X116582938Y-58788127D02*
X116703890Y-58848603D01*
X116703890Y-58848603D02*
X116764366Y-58909080D01*
X116764366Y-58909080D02*
X116824843Y-59030032D01*
X116824843Y-59030032D02*
X116824843Y-59332413D01*
X116824843Y-59332413D02*
X116764366Y-59453365D01*
X116764366Y-59453365D02*
X116703890Y-59513842D01*
X116703890Y-59513842D02*
X116582938Y-59574318D01*
X116582938Y-59574318D02*
X116280557Y-59574318D01*
X116280557Y-59574318D02*
X116159604Y-59513842D01*
X116159604Y-59513842D02*
X116099128Y-59453365D01*
X117308652Y-58425270D02*
X117369128Y-58364794D01*
X117369128Y-58364794D02*
X117490081Y-58304318D01*
X117490081Y-58304318D02*
X117792462Y-58304318D01*
X117792462Y-58304318D02*
X117913414Y-58364794D01*
X117913414Y-58364794D02*
X117973890Y-58425270D01*
X117973890Y-58425270D02*
X118034367Y-58546222D01*
X118034367Y-58546222D02*
X118034367Y-58667175D01*
X118034367Y-58667175D02*
X117973890Y-58848603D01*
X117973890Y-58848603D02*
X117248176Y-59574318D01*
X117248176Y-59574318D02*
X118034367Y-59574318D01*
D11*
X103024559Y-61369747D02*
X102903606Y-61309271D01*
X102903606Y-61309271D02*
X102722178Y-61309271D01*
X102722178Y-61309271D02*
X102540749Y-61369747D01*
X102540749Y-61369747D02*
X102419797Y-61490699D01*
X102419797Y-61490699D02*
X102359320Y-61611652D01*
X102359320Y-61611652D02*
X102298844Y-61853556D01*
X102298844Y-61853556D02*
X102298844Y-62034985D01*
X102298844Y-62034985D02*
X102359320Y-62276890D01*
X102359320Y-62276890D02*
X102419797Y-62397842D01*
X102419797Y-62397842D02*
X102540749Y-62518795D01*
X102540749Y-62518795D02*
X102722178Y-62579271D01*
X102722178Y-62579271D02*
X102843130Y-62579271D01*
X102843130Y-62579271D02*
X103024559Y-62518795D01*
X103024559Y-62518795D02*
X103085035Y-62458318D01*
X103085035Y-62458318D02*
X103085035Y-62034985D01*
X103085035Y-62034985D02*
X102843130Y-62034985D01*
X103629320Y-62579271D02*
X103629320Y-61309271D01*
X103629320Y-61309271D02*
X104355035Y-62579271D01*
X104355035Y-62579271D02*
X104355035Y-61309271D01*
X104959796Y-62579271D02*
X104959796Y-61309271D01*
X104959796Y-61309271D02*
X105262177Y-61309271D01*
X105262177Y-61309271D02*
X105443606Y-61369747D01*
X105443606Y-61369747D02*
X105564558Y-61490699D01*
X105564558Y-61490699D02*
X105625035Y-61611652D01*
X105625035Y-61611652D02*
X105685511Y-61853556D01*
X105685511Y-61853556D02*
X105685511Y-62034985D01*
X105685511Y-62034985D02*
X105625035Y-62276890D01*
X105625035Y-62276890D02*
X105564558Y-62397842D01*
X105564558Y-62397842D02*
X105443606Y-62518795D01*
X105443606Y-62518795D02*
X105262177Y-62579271D01*
X105262177Y-62579271D02*
X104959796Y-62579271D01*
X107677892Y-61309271D02*
X108101225Y-62579271D01*
X108101225Y-62579271D02*
X108524559Y-61309271D01*
X109673606Y-62458318D02*
X109613130Y-62518795D01*
X109613130Y-62518795D02*
X109431701Y-62579271D01*
X109431701Y-62579271D02*
X109310749Y-62579271D01*
X109310749Y-62579271D02*
X109129320Y-62518795D01*
X109129320Y-62518795D02*
X109008368Y-62397842D01*
X109008368Y-62397842D02*
X108947891Y-62276890D01*
X108947891Y-62276890D02*
X108887415Y-62034985D01*
X108887415Y-62034985D02*
X108887415Y-61853556D01*
X108887415Y-61853556D02*
X108947891Y-61611652D01*
X108947891Y-61611652D02*
X109008368Y-61490699D01*
X109008368Y-61490699D02*
X109129320Y-61369747D01*
X109129320Y-61369747D02*
X109310749Y-61309271D01*
X109310749Y-61309271D02*
X109431701Y-61309271D01*
X109431701Y-61309271D02*
X109613130Y-61369747D01*
X109613130Y-61369747D02*
X109673606Y-61430223D01*
X110943606Y-62458318D02*
X110883130Y-62518795D01*
X110883130Y-62518795D02*
X110701701Y-62579271D01*
X110701701Y-62579271D02*
X110580749Y-62579271D01*
X110580749Y-62579271D02*
X110399320Y-62518795D01*
X110399320Y-62518795D02*
X110278368Y-62397842D01*
X110278368Y-62397842D02*
X110217891Y-62276890D01*
X110217891Y-62276890D02*
X110157415Y-62034985D01*
X110157415Y-62034985D02*
X110157415Y-61853556D01*
X110157415Y-61853556D02*
X110217891Y-61611652D01*
X110217891Y-61611652D02*
X110278368Y-61490699D01*
X110278368Y-61490699D02*
X110399320Y-61369747D01*
X110399320Y-61369747D02*
X110580749Y-61309271D01*
X110580749Y-61309271D02*
X110701701Y-61309271D01*
X110701701Y-61309271D02*
X110883130Y-61369747D01*
X110883130Y-61369747D02*
X110943606Y-61430223D01*
D10*
X114163890Y-61304318D02*
X114284843Y-61304318D01*
X114284843Y-61304318D02*
X114405795Y-61364794D01*
X114405795Y-61364794D02*
X114466271Y-61425270D01*
X114466271Y-61425270D02*
X114526747Y-61546222D01*
X114526747Y-61546222D02*
X114587224Y-61788127D01*
X114587224Y-61788127D02*
X114587224Y-62090508D01*
X114587224Y-62090508D02*
X114526747Y-62332413D01*
X114526747Y-62332413D02*
X114466271Y-62453365D01*
X114466271Y-62453365D02*
X114405795Y-62513842D01*
X114405795Y-62513842D02*
X114284843Y-62574318D01*
X114284843Y-62574318D02*
X114163890Y-62574318D01*
X114163890Y-62574318D02*
X114042938Y-62513842D01*
X114042938Y-62513842D02*
X113982462Y-62453365D01*
X113982462Y-62453365D02*
X113921985Y-62332413D01*
X113921985Y-62332413D02*
X113861509Y-62090508D01*
X113861509Y-62090508D02*
X113861509Y-61788127D01*
X113861509Y-61788127D02*
X113921985Y-61546222D01*
X113921985Y-61546222D02*
X113982462Y-61425270D01*
X113982462Y-61425270D02*
X114042938Y-61364794D01*
X114042938Y-61364794D02*
X114163890Y-61304318D01*
X115010557Y-62574318D02*
X115675795Y-61727651D01*
X115010557Y-61727651D02*
X115675795Y-62574318D01*
X116764366Y-61304318D02*
X116159604Y-61304318D01*
X116159604Y-61304318D02*
X116099128Y-61909080D01*
X116099128Y-61909080D02*
X116159604Y-61848603D01*
X116159604Y-61848603D02*
X116280557Y-61788127D01*
X116280557Y-61788127D02*
X116582938Y-61788127D01*
X116582938Y-61788127D02*
X116703890Y-61848603D01*
X116703890Y-61848603D02*
X116764366Y-61909080D01*
X116764366Y-61909080D02*
X116824843Y-62030032D01*
X116824843Y-62030032D02*
X116824843Y-62332413D01*
X116824843Y-62332413D02*
X116764366Y-62453365D01*
X116764366Y-62453365D02*
X116703890Y-62513842D01*
X116703890Y-62513842D02*
X116582938Y-62574318D01*
X116582938Y-62574318D02*
X116280557Y-62574318D01*
X116280557Y-62574318D02*
X116159604Y-62513842D01*
X116159604Y-62513842D02*
X116099128Y-62453365D01*
X117248176Y-61304318D02*
X118034367Y-61304318D01*
X118034367Y-61304318D02*
X117611033Y-61788127D01*
X117611033Y-61788127D02*
X117792462Y-61788127D01*
X117792462Y-61788127D02*
X117913414Y-61848603D01*
X117913414Y-61848603D02*
X117973890Y-61909080D01*
X117973890Y-61909080D02*
X118034367Y-62030032D01*
X118034367Y-62030032D02*
X118034367Y-62332413D01*
X118034367Y-62332413D02*
X117973890Y-62453365D01*
X117973890Y-62453365D02*
X117913414Y-62513842D01*
X117913414Y-62513842D02*
X117792462Y-62574318D01*
X117792462Y-62574318D02*
X117429605Y-62574318D01*
X117429605Y-62574318D02*
X117308652Y-62513842D01*
X117308652Y-62513842D02*
X117248176Y-62453365D01*
D11*
X102298844Y-65518795D02*
X102480273Y-65579271D01*
X102480273Y-65579271D02*
X102782654Y-65579271D01*
X102782654Y-65579271D02*
X102903606Y-65518795D01*
X102903606Y-65518795D02*
X102964082Y-65458318D01*
X102964082Y-65458318D02*
X103024559Y-65337366D01*
X103024559Y-65337366D02*
X103024559Y-65216414D01*
X103024559Y-65216414D02*
X102964082Y-65095461D01*
X102964082Y-65095461D02*
X102903606Y-65034985D01*
X102903606Y-65034985D02*
X102782654Y-64974509D01*
X102782654Y-64974509D02*
X102540749Y-64914033D01*
X102540749Y-64914033D02*
X102419797Y-64853556D01*
X102419797Y-64853556D02*
X102359320Y-64793080D01*
X102359320Y-64793080D02*
X102298844Y-64672128D01*
X102298844Y-64672128D02*
X102298844Y-64551175D01*
X102298844Y-64551175D02*
X102359320Y-64430223D01*
X102359320Y-64430223D02*
X102419797Y-64369747D01*
X102419797Y-64369747D02*
X102540749Y-64309271D01*
X102540749Y-64309271D02*
X102843130Y-64309271D01*
X102843130Y-64309271D02*
X103024559Y-64369747D01*
X104294559Y-65458318D02*
X104234083Y-65518795D01*
X104234083Y-65518795D02*
X104052654Y-65579271D01*
X104052654Y-65579271D02*
X103931702Y-65579271D01*
X103931702Y-65579271D02*
X103750273Y-65518795D01*
X103750273Y-65518795D02*
X103629321Y-65397842D01*
X103629321Y-65397842D02*
X103568844Y-65276890D01*
X103568844Y-65276890D02*
X103508368Y-65034985D01*
X103508368Y-65034985D02*
X103508368Y-64853556D01*
X103508368Y-64853556D02*
X103568844Y-64611652D01*
X103568844Y-64611652D02*
X103629321Y-64490699D01*
X103629321Y-64490699D02*
X103750273Y-64369747D01*
X103750273Y-64369747D02*
X103931702Y-64309271D01*
X103931702Y-64309271D02*
X104052654Y-64309271D01*
X104052654Y-64309271D02*
X104234083Y-64369747D01*
X104234083Y-64369747D02*
X104294559Y-64430223D01*
X105443606Y-65579271D02*
X104838844Y-65579271D01*
X104838844Y-65579271D02*
X104838844Y-64309271D01*
X108524559Y-64369747D02*
X108403606Y-64309271D01*
X108403606Y-64309271D02*
X108222178Y-64309271D01*
X108222178Y-64309271D02*
X108040749Y-64369747D01*
X108040749Y-64369747D02*
X107919797Y-64490699D01*
X107919797Y-64490699D02*
X107859320Y-64611652D01*
X107859320Y-64611652D02*
X107798844Y-64853556D01*
X107798844Y-64853556D02*
X107798844Y-65034985D01*
X107798844Y-65034985D02*
X107859320Y-65276890D01*
X107859320Y-65276890D02*
X107919797Y-65397842D01*
X107919797Y-65397842D02*
X108040749Y-65518795D01*
X108040749Y-65518795D02*
X108222178Y-65579271D01*
X108222178Y-65579271D02*
X108343130Y-65579271D01*
X108343130Y-65579271D02*
X108524559Y-65518795D01*
X108524559Y-65518795D02*
X108585035Y-65458318D01*
X108585035Y-65458318D02*
X108585035Y-65034985D01*
X108585035Y-65034985D02*
X108343130Y-65034985D01*
X109129320Y-65579271D02*
X109129320Y-64309271D01*
X109129320Y-64309271D02*
X109855035Y-65579271D01*
X109855035Y-65579271D02*
X109855035Y-64309271D01*
X110459796Y-65579271D02*
X110459796Y-64309271D01*
X110459796Y-64309271D02*
X110762177Y-64309271D01*
X110762177Y-64309271D02*
X110943606Y-64369747D01*
X110943606Y-64369747D02*
X111064558Y-64490699D01*
X111064558Y-64490699D02*
X111125035Y-64611652D01*
X111125035Y-64611652D02*
X111185511Y-64853556D01*
X111185511Y-64853556D02*
X111185511Y-65034985D01*
X111185511Y-65034985D02*
X111125035Y-65276890D01*
X111125035Y-65276890D02*
X111064558Y-65397842D01*
X111064558Y-65397842D02*
X110943606Y-65518795D01*
X110943606Y-65518795D02*
X110762177Y-65579271D01*
X110762177Y-65579271D02*
X110459796Y-65579271D01*
D10*
X114163890Y-64304318D02*
X114284843Y-64304318D01*
X114284843Y-64304318D02*
X114405795Y-64364794D01*
X114405795Y-64364794D02*
X114466271Y-64425270D01*
X114466271Y-64425270D02*
X114526747Y-64546222D01*
X114526747Y-64546222D02*
X114587224Y-64788127D01*
X114587224Y-64788127D02*
X114587224Y-65090508D01*
X114587224Y-65090508D02*
X114526747Y-65332413D01*
X114526747Y-65332413D02*
X114466271Y-65453365D01*
X114466271Y-65453365D02*
X114405795Y-65513842D01*
X114405795Y-65513842D02*
X114284843Y-65574318D01*
X114284843Y-65574318D02*
X114163890Y-65574318D01*
X114163890Y-65574318D02*
X114042938Y-65513842D01*
X114042938Y-65513842D02*
X113982462Y-65453365D01*
X113982462Y-65453365D02*
X113921985Y-65332413D01*
X113921985Y-65332413D02*
X113861509Y-65090508D01*
X113861509Y-65090508D02*
X113861509Y-64788127D01*
X113861509Y-64788127D02*
X113921985Y-64546222D01*
X113921985Y-64546222D02*
X113982462Y-64425270D01*
X113982462Y-64425270D02*
X114042938Y-64364794D01*
X114042938Y-64364794D02*
X114163890Y-64304318D01*
X115010557Y-65574318D02*
X115675795Y-64727651D01*
X115010557Y-64727651D02*
X115675795Y-65574318D01*
X116764366Y-64304318D02*
X116159604Y-64304318D01*
X116159604Y-64304318D02*
X116099128Y-64909080D01*
X116099128Y-64909080D02*
X116159604Y-64848603D01*
X116159604Y-64848603D02*
X116280557Y-64788127D01*
X116280557Y-64788127D02*
X116582938Y-64788127D01*
X116582938Y-64788127D02*
X116703890Y-64848603D01*
X116703890Y-64848603D02*
X116764366Y-64909080D01*
X116764366Y-64909080D02*
X116824843Y-65030032D01*
X116824843Y-65030032D02*
X116824843Y-65332413D01*
X116824843Y-65332413D02*
X116764366Y-65453365D01*
X116764366Y-65453365D02*
X116703890Y-65513842D01*
X116703890Y-65513842D02*
X116582938Y-65574318D01*
X116582938Y-65574318D02*
X116280557Y-65574318D01*
X116280557Y-65574318D02*
X116159604Y-65513842D01*
X116159604Y-65513842D02*
X116099128Y-65453365D01*
X117913414Y-64727651D02*
X117913414Y-65574318D01*
X117611033Y-64243842D02*
X117308652Y-65150984D01*
X117308652Y-65150984D02*
X118094843Y-65150984D01*
D11*
X102298844Y-68518795D02*
X102480273Y-68579271D01*
X102480273Y-68579271D02*
X102782654Y-68579271D01*
X102782654Y-68579271D02*
X102903606Y-68518795D01*
X102903606Y-68518795D02*
X102964082Y-68458318D01*
X102964082Y-68458318D02*
X103024559Y-68337366D01*
X103024559Y-68337366D02*
X103024559Y-68216414D01*
X103024559Y-68216414D02*
X102964082Y-68095461D01*
X102964082Y-68095461D02*
X102903606Y-68034985D01*
X102903606Y-68034985D02*
X102782654Y-67974509D01*
X102782654Y-67974509D02*
X102540749Y-67914033D01*
X102540749Y-67914033D02*
X102419797Y-67853556D01*
X102419797Y-67853556D02*
X102359320Y-67793080D01*
X102359320Y-67793080D02*
X102298844Y-67672128D01*
X102298844Y-67672128D02*
X102298844Y-67551175D01*
X102298844Y-67551175D02*
X102359320Y-67430223D01*
X102359320Y-67430223D02*
X102419797Y-67369747D01*
X102419797Y-67369747D02*
X102540749Y-67309271D01*
X102540749Y-67309271D02*
X102843130Y-67309271D01*
X102843130Y-67309271D02*
X103024559Y-67369747D01*
X104294559Y-68458318D02*
X104234083Y-68518795D01*
X104234083Y-68518795D02*
X104052654Y-68579271D01*
X104052654Y-68579271D02*
X103931702Y-68579271D01*
X103931702Y-68579271D02*
X103750273Y-68518795D01*
X103750273Y-68518795D02*
X103629321Y-68397842D01*
X103629321Y-68397842D02*
X103568844Y-68276890D01*
X103568844Y-68276890D02*
X103508368Y-68034985D01*
X103508368Y-68034985D02*
X103508368Y-67853556D01*
X103508368Y-67853556D02*
X103568844Y-67611652D01*
X103568844Y-67611652D02*
X103629321Y-67490699D01*
X103629321Y-67490699D02*
X103750273Y-67369747D01*
X103750273Y-67369747D02*
X103931702Y-67309271D01*
X103931702Y-67309271D02*
X104052654Y-67309271D01*
X104052654Y-67309271D02*
X104234083Y-67369747D01*
X104234083Y-67369747D02*
X104294559Y-67430223D01*
X105443606Y-68579271D02*
X104838844Y-68579271D01*
X104838844Y-68579271D02*
X104838844Y-67309271D01*
X107798844Y-68518795D02*
X107980273Y-68579271D01*
X107980273Y-68579271D02*
X108282654Y-68579271D01*
X108282654Y-68579271D02*
X108403606Y-68518795D01*
X108403606Y-68518795D02*
X108464082Y-68458318D01*
X108464082Y-68458318D02*
X108524559Y-68337366D01*
X108524559Y-68337366D02*
X108524559Y-68216414D01*
X108524559Y-68216414D02*
X108464082Y-68095461D01*
X108464082Y-68095461D02*
X108403606Y-68034985D01*
X108403606Y-68034985D02*
X108282654Y-67974509D01*
X108282654Y-67974509D02*
X108040749Y-67914033D01*
X108040749Y-67914033D02*
X107919797Y-67853556D01*
X107919797Y-67853556D02*
X107859320Y-67793080D01*
X107859320Y-67793080D02*
X107798844Y-67672128D01*
X107798844Y-67672128D02*
X107798844Y-67551175D01*
X107798844Y-67551175D02*
X107859320Y-67430223D01*
X107859320Y-67430223D02*
X107919797Y-67369747D01*
X107919797Y-67369747D02*
X108040749Y-67309271D01*
X108040749Y-67309271D02*
X108343130Y-67309271D01*
X108343130Y-67309271D02*
X108524559Y-67369747D01*
X109794559Y-68458318D02*
X109734083Y-68518795D01*
X109734083Y-68518795D02*
X109552654Y-68579271D01*
X109552654Y-68579271D02*
X109431702Y-68579271D01*
X109431702Y-68579271D02*
X109250273Y-68518795D01*
X109250273Y-68518795D02*
X109129321Y-68397842D01*
X109129321Y-68397842D02*
X109068844Y-68276890D01*
X109068844Y-68276890D02*
X109008368Y-68034985D01*
X109008368Y-68034985D02*
X109008368Y-67853556D01*
X109008368Y-67853556D02*
X109068844Y-67611652D01*
X109068844Y-67611652D02*
X109129321Y-67490699D01*
X109129321Y-67490699D02*
X109250273Y-67369747D01*
X109250273Y-67369747D02*
X109431702Y-67309271D01*
X109431702Y-67309271D02*
X109552654Y-67309271D01*
X109552654Y-67309271D02*
X109734083Y-67369747D01*
X109734083Y-67369747D02*
X109794559Y-67430223D01*
X110943606Y-68579271D02*
X110338844Y-68579271D01*
X110338844Y-68579271D02*
X110338844Y-67309271D01*
D10*
X114163890Y-67304318D02*
X114284843Y-67304318D01*
X114284843Y-67304318D02*
X114405795Y-67364794D01*
X114405795Y-67364794D02*
X114466271Y-67425270D01*
X114466271Y-67425270D02*
X114526747Y-67546222D01*
X114526747Y-67546222D02*
X114587224Y-67788127D01*
X114587224Y-67788127D02*
X114587224Y-68090508D01*
X114587224Y-68090508D02*
X114526747Y-68332413D01*
X114526747Y-68332413D02*
X114466271Y-68453365D01*
X114466271Y-68453365D02*
X114405795Y-68513842D01*
X114405795Y-68513842D02*
X114284843Y-68574318D01*
X114284843Y-68574318D02*
X114163890Y-68574318D01*
X114163890Y-68574318D02*
X114042938Y-68513842D01*
X114042938Y-68513842D02*
X113982462Y-68453365D01*
X113982462Y-68453365D02*
X113921985Y-68332413D01*
X113921985Y-68332413D02*
X113861509Y-68090508D01*
X113861509Y-68090508D02*
X113861509Y-67788127D01*
X113861509Y-67788127D02*
X113921985Y-67546222D01*
X113921985Y-67546222D02*
X113982462Y-67425270D01*
X113982462Y-67425270D02*
X114042938Y-67364794D01*
X114042938Y-67364794D02*
X114163890Y-67304318D01*
X115010557Y-68574318D02*
X115675795Y-67727651D01*
X115010557Y-67727651D02*
X115675795Y-68574318D01*
X116764366Y-67304318D02*
X116159604Y-67304318D01*
X116159604Y-67304318D02*
X116099128Y-67909080D01*
X116099128Y-67909080D02*
X116159604Y-67848603D01*
X116159604Y-67848603D02*
X116280557Y-67788127D01*
X116280557Y-67788127D02*
X116582938Y-67788127D01*
X116582938Y-67788127D02*
X116703890Y-67848603D01*
X116703890Y-67848603D02*
X116764366Y-67909080D01*
X116764366Y-67909080D02*
X116824843Y-68030032D01*
X116824843Y-68030032D02*
X116824843Y-68332413D01*
X116824843Y-68332413D02*
X116764366Y-68453365D01*
X116764366Y-68453365D02*
X116703890Y-68513842D01*
X116703890Y-68513842D02*
X116582938Y-68574318D01*
X116582938Y-68574318D02*
X116280557Y-68574318D01*
X116280557Y-68574318D02*
X116159604Y-68513842D01*
X116159604Y-68513842D02*
X116099128Y-68453365D01*
X117973890Y-67304318D02*
X117369128Y-67304318D01*
X117369128Y-67304318D02*
X117308652Y-67909080D01*
X117308652Y-67909080D02*
X117369128Y-67848603D01*
X117369128Y-67848603D02*
X117490081Y-67788127D01*
X117490081Y-67788127D02*
X117792462Y-67788127D01*
X117792462Y-67788127D02*
X117913414Y-67848603D01*
X117913414Y-67848603D02*
X117973890Y-67909080D01*
X117973890Y-67909080D02*
X118034367Y-68030032D01*
X118034367Y-68030032D02*
X118034367Y-68332413D01*
X118034367Y-68332413D02*
X117973890Y-68453365D01*
X117973890Y-68453365D02*
X117913414Y-68513842D01*
X117913414Y-68513842D02*
X117792462Y-68574318D01*
X117792462Y-68574318D02*
X117490081Y-68574318D01*
X117490081Y-68574318D02*
X117369128Y-68513842D01*
X117369128Y-68513842D02*
X117308652Y-68453365D01*
D11*
X102298844Y-71518795D02*
X102480273Y-71579271D01*
X102480273Y-71579271D02*
X102782654Y-71579271D01*
X102782654Y-71579271D02*
X102903606Y-71518795D01*
X102903606Y-71518795D02*
X102964082Y-71458318D01*
X102964082Y-71458318D02*
X103024559Y-71337366D01*
X103024559Y-71337366D02*
X103024559Y-71216414D01*
X103024559Y-71216414D02*
X102964082Y-71095461D01*
X102964082Y-71095461D02*
X102903606Y-71034985D01*
X102903606Y-71034985D02*
X102782654Y-70974509D01*
X102782654Y-70974509D02*
X102540749Y-70914033D01*
X102540749Y-70914033D02*
X102419797Y-70853556D01*
X102419797Y-70853556D02*
X102359320Y-70793080D01*
X102359320Y-70793080D02*
X102298844Y-70672128D01*
X102298844Y-70672128D02*
X102298844Y-70551175D01*
X102298844Y-70551175D02*
X102359320Y-70430223D01*
X102359320Y-70430223D02*
X102419797Y-70369747D01*
X102419797Y-70369747D02*
X102540749Y-70309271D01*
X102540749Y-70309271D02*
X102843130Y-70309271D01*
X102843130Y-70309271D02*
X103024559Y-70369747D01*
X104294559Y-71458318D02*
X104234083Y-71518795D01*
X104234083Y-71518795D02*
X104052654Y-71579271D01*
X104052654Y-71579271D02*
X103931702Y-71579271D01*
X103931702Y-71579271D02*
X103750273Y-71518795D01*
X103750273Y-71518795D02*
X103629321Y-71397842D01*
X103629321Y-71397842D02*
X103568844Y-71276890D01*
X103568844Y-71276890D02*
X103508368Y-71034985D01*
X103508368Y-71034985D02*
X103508368Y-70853556D01*
X103508368Y-70853556D02*
X103568844Y-70611652D01*
X103568844Y-70611652D02*
X103629321Y-70490699D01*
X103629321Y-70490699D02*
X103750273Y-70369747D01*
X103750273Y-70369747D02*
X103931702Y-70309271D01*
X103931702Y-70309271D02*
X104052654Y-70309271D01*
X104052654Y-70309271D02*
X104234083Y-70369747D01*
X104234083Y-70369747D02*
X104294559Y-70430223D01*
X105443606Y-71579271D02*
X104838844Y-71579271D01*
X104838844Y-71579271D02*
X104838844Y-70309271D01*
X107798844Y-71518795D02*
X107980273Y-71579271D01*
X107980273Y-71579271D02*
X108282654Y-71579271D01*
X108282654Y-71579271D02*
X108403606Y-71518795D01*
X108403606Y-71518795D02*
X108464082Y-71458318D01*
X108464082Y-71458318D02*
X108524559Y-71337366D01*
X108524559Y-71337366D02*
X108524559Y-71216414D01*
X108524559Y-71216414D02*
X108464082Y-71095461D01*
X108464082Y-71095461D02*
X108403606Y-71034985D01*
X108403606Y-71034985D02*
X108282654Y-70974509D01*
X108282654Y-70974509D02*
X108040749Y-70914033D01*
X108040749Y-70914033D02*
X107919797Y-70853556D01*
X107919797Y-70853556D02*
X107859320Y-70793080D01*
X107859320Y-70793080D02*
X107798844Y-70672128D01*
X107798844Y-70672128D02*
X107798844Y-70551175D01*
X107798844Y-70551175D02*
X107859320Y-70430223D01*
X107859320Y-70430223D02*
X107919797Y-70369747D01*
X107919797Y-70369747D02*
X108040749Y-70309271D01*
X108040749Y-70309271D02*
X108343130Y-70309271D01*
X108343130Y-70309271D02*
X108524559Y-70369747D01*
X109068844Y-71579271D02*
X109068844Y-70309271D01*
X109068844Y-70309271D02*
X109371225Y-70309271D01*
X109371225Y-70309271D02*
X109552654Y-70369747D01*
X109552654Y-70369747D02*
X109673606Y-70490699D01*
X109673606Y-70490699D02*
X109734083Y-70611652D01*
X109734083Y-70611652D02*
X109794559Y-70853556D01*
X109794559Y-70853556D02*
X109794559Y-71034985D01*
X109794559Y-71034985D02*
X109734083Y-71276890D01*
X109734083Y-71276890D02*
X109673606Y-71397842D01*
X109673606Y-71397842D02*
X109552654Y-71518795D01*
X109552654Y-71518795D02*
X109371225Y-71579271D01*
X109371225Y-71579271D02*
X109068844Y-71579271D01*
X110278368Y-71216414D02*
X110883130Y-71216414D01*
X110157416Y-71579271D02*
X110580749Y-70309271D01*
X110580749Y-70309271D02*
X111004083Y-71579271D01*
D10*
X114163890Y-70304318D02*
X114284843Y-70304318D01*
X114284843Y-70304318D02*
X114405795Y-70364794D01*
X114405795Y-70364794D02*
X114466271Y-70425270D01*
X114466271Y-70425270D02*
X114526747Y-70546222D01*
X114526747Y-70546222D02*
X114587224Y-70788127D01*
X114587224Y-70788127D02*
X114587224Y-71090508D01*
X114587224Y-71090508D02*
X114526747Y-71332413D01*
X114526747Y-71332413D02*
X114466271Y-71453365D01*
X114466271Y-71453365D02*
X114405795Y-71513842D01*
X114405795Y-71513842D02*
X114284843Y-71574318D01*
X114284843Y-71574318D02*
X114163890Y-71574318D01*
X114163890Y-71574318D02*
X114042938Y-71513842D01*
X114042938Y-71513842D02*
X113982462Y-71453365D01*
X113982462Y-71453365D02*
X113921985Y-71332413D01*
X113921985Y-71332413D02*
X113861509Y-71090508D01*
X113861509Y-71090508D02*
X113861509Y-70788127D01*
X113861509Y-70788127D02*
X113921985Y-70546222D01*
X113921985Y-70546222D02*
X113982462Y-70425270D01*
X113982462Y-70425270D02*
X114042938Y-70364794D01*
X114042938Y-70364794D02*
X114163890Y-70304318D01*
X115010557Y-71574318D02*
X115675795Y-70727651D01*
X115010557Y-70727651D02*
X115675795Y-71574318D01*
X116764366Y-70304318D02*
X116159604Y-70304318D01*
X116159604Y-70304318D02*
X116099128Y-70909080D01*
X116099128Y-70909080D02*
X116159604Y-70848603D01*
X116159604Y-70848603D02*
X116280557Y-70788127D01*
X116280557Y-70788127D02*
X116582938Y-70788127D01*
X116582938Y-70788127D02*
X116703890Y-70848603D01*
X116703890Y-70848603D02*
X116764366Y-70909080D01*
X116764366Y-70909080D02*
X116824843Y-71030032D01*
X116824843Y-71030032D02*
X116824843Y-71332413D01*
X116824843Y-71332413D02*
X116764366Y-71453365D01*
X116764366Y-71453365D02*
X116703890Y-71513842D01*
X116703890Y-71513842D02*
X116582938Y-71574318D01*
X116582938Y-71574318D02*
X116280557Y-71574318D01*
X116280557Y-71574318D02*
X116159604Y-71513842D01*
X116159604Y-71513842D02*
X116099128Y-71453365D01*
X117913414Y-70304318D02*
X117671509Y-70304318D01*
X117671509Y-70304318D02*
X117550557Y-70364794D01*
X117550557Y-70364794D02*
X117490081Y-70425270D01*
X117490081Y-70425270D02*
X117369128Y-70606699D01*
X117369128Y-70606699D02*
X117308652Y-70848603D01*
X117308652Y-70848603D02*
X117308652Y-71332413D01*
X117308652Y-71332413D02*
X117369128Y-71453365D01*
X117369128Y-71453365D02*
X117429605Y-71513842D01*
X117429605Y-71513842D02*
X117550557Y-71574318D01*
X117550557Y-71574318D02*
X117792462Y-71574318D01*
X117792462Y-71574318D02*
X117913414Y-71513842D01*
X117913414Y-71513842D02*
X117973890Y-71453365D01*
X117973890Y-71453365D02*
X118034367Y-71332413D01*
X118034367Y-71332413D02*
X118034367Y-71030032D01*
X118034367Y-71030032D02*
X117973890Y-70909080D01*
X117973890Y-70909080D02*
X117913414Y-70848603D01*
X117913414Y-70848603D02*
X117792462Y-70788127D01*
X117792462Y-70788127D02*
X117550557Y-70788127D01*
X117550557Y-70788127D02*
X117429605Y-70848603D01*
X117429605Y-70848603D02*
X117369128Y-70909080D01*
X117369128Y-70909080D02*
X117308652Y-71030032D01*
D11*
X102298844Y-74518795D02*
X102480273Y-74579271D01*
X102480273Y-74579271D02*
X102782654Y-74579271D01*
X102782654Y-74579271D02*
X102903606Y-74518795D01*
X102903606Y-74518795D02*
X102964082Y-74458318D01*
X102964082Y-74458318D02*
X103024559Y-74337366D01*
X103024559Y-74337366D02*
X103024559Y-74216414D01*
X103024559Y-74216414D02*
X102964082Y-74095461D01*
X102964082Y-74095461D02*
X102903606Y-74034985D01*
X102903606Y-74034985D02*
X102782654Y-73974509D01*
X102782654Y-73974509D02*
X102540749Y-73914033D01*
X102540749Y-73914033D02*
X102419797Y-73853556D01*
X102419797Y-73853556D02*
X102359320Y-73793080D01*
X102359320Y-73793080D02*
X102298844Y-73672128D01*
X102298844Y-73672128D02*
X102298844Y-73551175D01*
X102298844Y-73551175D02*
X102359320Y-73430223D01*
X102359320Y-73430223D02*
X102419797Y-73369747D01*
X102419797Y-73369747D02*
X102540749Y-73309271D01*
X102540749Y-73309271D02*
X102843130Y-73309271D01*
X102843130Y-73309271D02*
X103024559Y-73369747D01*
X104294559Y-74458318D02*
X104234083Y-74518795D01*
X104234083Y-74518795D02*
X104052654Y-74579271D01*
X104052654Y-74579271D02*
X103931702Y-74579271D01*
X103931702Y-74579271D02*
X103750273Y-74518795D01*
X103750273Y-74518795D02*
X103629321Y-74397842D01*
X103629321Y-74397842D02*
X103568844Y-74276890D01*
X103568844Y-74276890D02*
X103508368Y-74034985D01*
X103508368Y-74034985D02*
X103508368Y-73853556D01*
X103508368Y-73853556D02*
X103568844Y-73611652D01*
X103568844Y-73611652D02*
X103629321Y-73490699D01*
X103629321Y-73490699D02*
X103750273Y-73369747D01*
X103750273Y-73369747D02*
X103931702Y-73309271D01*
X103931702Y-73309271D02*
X104052654Y-73309271D01*
X104052654Y-73309271D02*
X104234083Y-73369747D01*
X104234083Y-73369747D02*
X104294559Y-73430223D01*
X105443606Y-74579271D02*
X104838844Y-74579271D01*
X104838844Y-74579271D02*
X104838844Y-73309271D01*
X107677892Y-73309271D02*
X108101225Y-74579271D01*
X108101225Y-74579271D02*
X108524559Y-73309271D01*
X109673606Y-74458318D02*
X109613130Y-74518795D01*
X109613130Y-74518795D02*
X109431701Y-74579271D01*
X109431701Y-74579271D02*
X109310749Y-74579271D01*
X109310749Y-74579271D02*
X109129320Y-74518795D01*
X109129320Y-74518795D02*
X109008368Y-74397842D01*
X109008368Y-74397842D02*
X108947891Y-74276890D01*
X108947891Y-74276890D02*
X108887415Y-74034985D01*
X108887415Y-74034985D02*
X108887415Y-73853556D01*
X108887415Y-73853556D02*
X108947891Y-73611652D01*
X108947891Y-73611652D02*
X109008368Y-73490699D01*
X109008368Y-73490699D02*
X109129320Y-73369747D01*
X109129320Y-73369747D02*
X109310749Y-73309271D01*
X109310749Y-73309271D02*
X109431701Y-73309271D01*
X109431701Y-73309271D02*
X109613130Y-73369747D01*
X109613130Y-73369747D02*
X109673606Y-73430223D01*
X110943606Y-74458318D02*
X110883130Y-74518795D01*
X110883130Y-74518795D02*
X110701701Y-74579271D01*
X110701701Y-74579271D02*
X110580749Y-74579271D01*
X110580749Y-74579271D02*
X110399320Y-74518795D01*
X110399320Y-74518795D02*
X110278368Y-74397842D01*
X110278368Y-74397842D02*
X110217891Y-74276890D01*
X110217891Y-74276890D02*
X110157415Y-74034985D01*
X110157415Y-74034985D02*
X110157415Y-73853556D01*
X110157415Y-73853556D02*
X110217891Y-73611652D01*
X110217891Y-73611652D02*
X110278368Y-73490699D01*
X110278368Y-73490699D02*
X110399320Y-73369747D01*
X110399320Y-73369747D02*
X110580749Y-73309271D01*
X110580749Y-73309271D02*
X110701701Y-73309271D01*
X110701701Y-73309271D02*
X110883130Y-73369747D01*
X110883130Y-73369747D02*
X110943606Y-73430223D01*
D10*
X114163890Y-73304318D02*
X114284843Y-73304318D01*
X114284843Y-73304318D02*
X114405795Y-73364794D01*
X114405795Y-73364794D02*
X114466271Y-73425270D01*
X114466271Y-73425270D02*
X114526747Y-73546222D01*
X114526747Y-73546222D02*
X114587224Y-73788127D01*
X114587224Y-73788127D02*
X114587224Y-74090508D01*
X114587224Y-74090508D02*
X114526747Y-74332413D01*
X114526747Y-74332413D02*
X114466271Y-74453365D01*
X114466271Y-74453365D02*
X114405795Y-74513842D01*
X114405795Y-74513842D02*
X114284843Y-74574318D01*
X114284843Y-74574318D02*
X114163890Y-74574318D01*
X114163890Y-74574318D02*
X114042938Y-74513842D01*
X114042938Y-74513842D02*
X113982462Y-74453365D01*
X113982462Y-74453365D02*
X113921985Y-74332413D01*
X113921985Y-74332413D02*
X113861509Y-74090508D01*
X113861509Y-74090508D02*
X113861509Y-73788127D01*
X113861509Y-73788127D02*
X113921985Y-73546222D01*
X113921985Y-73546222D02*
X113982462Y-73425270D01*
X113982462Y-73425270D02*
X114042938Y-73364794D01*
X114042938Y-73364794D02*
X114163890Y-73304318D01*
X115010557Y-74574318D02*
X115675795Y-73727651D01*
X115010557Y-73727651D02*
X115675795Y-74574318D01*
X116764366Y-73304318D02*
X116159604Y-73304318D01*
X116159604Y-73304318D02*
X116099128Y-73909080D01*
X116099128Y-73909080D02*
X116159604Y-73848603D01*
X116159604Y-73848603D02*
X116280557Y-73788127D01*
X116280557Y-73788127D02*
X116582938Y-73788127D01*
X116582938Y-73788127D02*
X116703890Y-73848603D01*
X116703890Y-73848603D02*
X116764366Y-73909080D01*
X116764366Y-73909080D02*
X116824843Y-74030032D01*
X116824843Y-74030032D02*
X116824843Y-74332413D01*
X116824843Y-74332413D02*
X116764366Y-74453365D01*
X116764366Y-74453365D02*
X116703890Y-74513842D01*
X116703890Y-74513842D02*
X116582938Y-74574318D01*
X116582938Y-74574318D02*
X116280557Y-74574318D01*
X116280557Y-74574318D02*
X116159604Y-74513842D01*
X116159604Y-74513842D02*
X116099128Y-74453365D01*
X117248176Y-73304318D02*
X118094843Y-73304318D01*
X118094843Y-73304318D02*
X117550557Y-74574318D01*
D11*
X102298844Y-77518795D02*
X102480273Y-77579271D01*
X102480273Y-77579271D02*
X102782654Y-77579271D01*
X102782654Y-77579271D02*
X102903606Y-77518795D01*
X102903606Y-77518795D02*
X102964082Y-77458318D01*
X102964082Y-77458318D02*
X103024559Y-77337366D01*
X103024559Y-77337366D02*
X103024559Y-77216414D01*
X103024559Y-77216414D02*
X102964082Y-77095461D01*
X102964082Y-77095461D02*
X102903606Y-77034985D01*
X102903606Y-77034985D02*
X102782654Y-76974509D01*
X102782654Y-76974509D02*
X102540749Y-76914033D01*
X102540749Y-76914033D02*
X102419797Y-76853556D01*
X102419797Y-76853556D02*
X102359320Y-76793080D01*
X102359320Y-76793080D02*
X102298844Y-76672128D01*
X102298844Y-76672128D02*
X102298844Y-76551175D01*
X102298844Y-76551175D02*
X102359320Y-76430223D01*
X102359320Y-76430223D02*
X102419797Y-76369747D01*
X102419797Y-76369747D02*
X102540749Y-76309271D01*
X102540749Y-76309271D02*
X102843130Y-76309271D01*
X102843130Y-76309271D02*
X103024559Y-76369747D01*
X103568844Y-77579271D02*
X103568844Y-76309271D01*
X103568844Y-76309271D02*
X103871225Y-76309271D01*
X103871225Y-76309271D02*
X104052654Y-76369747D01*
X104052654Y-76369747D02*
X104173606Y-76490699D01*
X104173606Y-76490699D02*
X104234083Y-76611652D01*
X104234083Y-76611652D02*
X104294559Y-76853556D01*
X104294559Y-76853556D02*
X104294559Y-77034985D01*
X104294559Y-77034985D02*
X104234083Y-77276890D01*
X104234083Y-77276890D02*
X104173606Y-77397842D01*
X104173606Y-77397842D02*
X104052654Y-77518795D01*
X104052654Y-77518795D02*
X103871225Y-77579271D01*
X103871225Y-77579271D02*
X103568844Y-77579271D01*
X104778368Y-77216414D02*
X105383130Y-77216414D01*
X104657416Y-77579271D02*
X105080749Y-76309271D01*
X105080749Y-76309271D02*
X105504083Y-77579271D01*
X108524559Y-76369747D02*
X108403606Y-76309271D01*
X108403606Y-76309271D02*
X108222178Y-76309271D01*
X108222178Y-76309271D02*
X108040749Y-76369747D01*
X108040749Y-76369747D02*
X107919797Y-76490699D01*
X107919797Y-76490699D02*
X107859320Y-76611652D01*
X107859320Y-76611652D02*
X107798844Y-76853556D01*
X107798844Y-76853556D02*
X107798844Y-77034985D01*
X107798844Y-77034985D02*
X107859320Y-77276890D01*
X107859320Y-77276890D02*
X107919797Y-77397842D01*
X107919797Y-77397842D02*
X108040749Y-77518795D01*
X108040749Y-77518795D02*
X108222178Y-77579271D01*
X108222178Y-77579271D02*
X108343130Y-77579271D01*
X108343130Y-77579271D02*
X108524559Y-77518795D01*
X108524559Y-77518795D02*
X108585035Y-77458318D01*
X108585035Y-77458318D02*
X108585035Y-77034985D01*
X108585035Y-77034985D02*
X108343130Y-77034985D01*
X109129320Y-77579271D02*
X109129320Y-76309271D01*
X109129320Y-76309271D02*
X109855035Y-77579271D01*
X109855035Y-77579271D02*
X109855035Y-76309271D01*
X110459796Y-77579271D02*
X110459796Y-76309271D01*
X110459796Y-76309271D02*
X110762177Y-76309271D01*
X110762177Y-76309271D02*
X110943606Y-76369747D01*
X110943606Y-76369747D02*
X111064558Y-76490699D01*
X111064558Y-76490699D02*
X111125035Y-76611652D01*
X111125035Y-76611652D02*
X111185511Y-76853556D01*
X111185511Y-76853556D02*
X111185511Y-77034985D01*
X111185511Y-77034985D02*
X111125035Y-77276890D01*
X111125035Y-77276890D02*
X111064558Y-77397842D01*
X111064558Y-77397842D02*
X110943606Y-77518795D01*
X110943606Y-77518795D02*
X110762177Y-77579271D01*
X110762177Y-77579271D02*
X110459796Y-77579271D01*
D10*
X114163890Y-76304318D02*
X114284843Y-76304318D01*
X114284843Y-76304318D02*
X114405795Y-76364794D01*
X114405795Y-76364794D02*
X114466271Y-76425270D01*
X114466271Y-76425270D02*
X114526747Y-76546222D01*
X114526747Y-76546222D02*
X114587224Y-76788127D01*
X114587224Y-76788127D02*
X114587224Y-77090508D01*
X114587224Y-77090508D02*
X114526747Y-77332413D01*
X114526747Y-77332413D02*
X114466271Y-77453365D01*
X114466271Y-77453365D02*
X114405795Y-77513842D01*
X114405795Y-77513842D02*
X114284843Y-77574318D01*
X114284843Y-77574318D02*
X114163890Y-77574318D01*
X114163890Y-77574318D02*
X114042938Y-77513842D01*
X114042938Y-77513842D02*
X113982462Y-77453365D01*
X113982462Y-77453365D02*
X113921985Y-77332413D01*
X113921985Y-77332413D02*
X113861509Y-77090508D01*
X113861509Y-77090508D02*
X113861509Y-76788127D01*
X113861509Y-76788127D02*
X113921985Y-76546222D01*
X113921985Y-76546222D02*
X113982462Y-76425270D01*
X113982462Y-76425270D02*
X114042938Y-76364794D01*
X114042938Y-76364794D02*
X114163890Y-76304318D01*
X115010557Y-77574318D02*
X115675795Y-76727651D01*
X115010557Y-76727651D02*
X115675795Y-77574318D01*
X116764366Y-76304318D02*
X116159604Y-76304318D01*
X116159604Y-76304318D02*
X116099128Y-76909080D01*
X116099128Y-76909080D02*
X116159604Y-76848603D01*
X116159604Y-76848603D02*
X116280557Y-76788127D01*
X116280557Y-76788127D02*
X116582938Y-76788127D01*
X116582938Y-76788127D02*
X116703890Y-76848603D01*
X116703890Y-76848603D02*
X116764366Y-76909080D01*
X116764366Y-76909080D02*
X116824843Y-77030032D01*
X116824843Y-77030032D02*
X116824843Y-77332413D01*
X116824843Y-77332413D02*
X116764366Y-77453365D01*
X116764366Y-77453365D02*
X116703890Y-77513842D01*
X116703890Y-77513842D02*
X116582938Y-77574318D01*
X116582938Y-77574318D02*
X116280557Y-77574318D01*
X116280557Y-77574318D02*
X116159604Y-77513842D01*
X116159604Y-77513842D02*
X116099128Y-77453365D01*
X117550557Y-76848603D02*
X117429605Y-76788127D01*
X117429605Y-76788127D02*
X117369128Y-76727651D01*
X117369128Y-76727651D02*
X117308652Y-76606699D01*
X117308652Y-76606699D02*
X117308652Y-76546222D01*
X117308652Y-76546222D02*
X117369128Y-76425270D01*
X117369128Y-76425270D02*
X117429605Y-76364794D01*
X117429605Y-76364794D02*
X117550557Y-76304318D01*
X117550557Y-76304318D02*
X117792462Y-76304318D01*
X117792462Y-76304318D02*
X117913414Y-76364794D01*
X117913414Y-76364794D02*
X117973890Y-76425270D01*
X117973890Y-76425270D02*
X118034367Y-76546222D01*
X118034367Y-76546222D02*
X118034367Y-76606699D01*
X118034367Y-76606699D02*
X117973890Y-76727651D01*
X117973890Y-76727651D02*
X117913414Y-76788127D01*
X117913414Y-76788127D02*
X117792462Y-76848603D01*
X117792462Y-76848603D02*
X117550557Y-76848603D01*
X117550557Y-76848603D02*
X117429605Y-76909080D01*
X117429605Y-76909080D02*
X117369128Y-76969556D01*
X117369128Y-76969556D02*
X117308652Y-77090508D01*
X117308652Y-77090508D02*
X117308652Y-77332413D01*
X117308652Y-77332413D02*
X117369128Y-77453365D01*
X117369128Y-77453365D02*
X117429605Y-77513842D01*
X117429605Y-77513842D02*
X117550557Y-77574318D01*
X117550557Y-77574318D02*
X117792462Y-77574318D01*
X117792462Y-77574318D02*
X117913414Y-77513842D01*
X117913414Y-77513842D02*
X117973890Y-77453365D01*
X117973890Y-77453365D02*
X118034367Y-77332413D01*
X118034367Y-77332413D02*
X118034367Y-77090508D01*
X118034367Y-77090508D02*
X117973890Y-76969556D01*
X117973890Y-76969556D02*
X117913414Y-76909080D01*
X117913414Y-76909080D02*
X117792462Y-76848603D01*
D11*
X102298844Y-80518795D02*
X102480273Y-80579271D01*
X102480273Y-80579271D02*
X102782654Y-80579271D01*
X102782654Y-80579271D02*
X102903606Y-80518795D01*
X102903606Y-80518795D02*
X102964082Y-80458318D01*
X102964082Y-80458318D02*
X103024559Y-80337366D01*
X103024559Y-80337366D02*
X103024559Y-80216414D01*
X103024559Y-80216414D02*
X102964082Y-80095461D01*
X102964082Y-80095461D02*
X102903606Y-80034985D01*
X102903606Y-80034985D02*
X102782654Y-79974509D01*
X102782654Y-79974509D02*
X102540749Y-79914033D01*
X102540749Y-79914033D02*
X102419797Y-79853556D01*
X102419797Y-79853556D02*
X102359320Y-79793080D01*
X102359320Y-79793080D02*
X102298844Y-79672128D01*
X102298844Y-79672128D02*
X102298844Y-79551175D01*
X102298844Y-79551175D02*
X102359320Y-79430223D01*
X102359320Y-79430223D02*
X102419797Y-79369747D01*
X102419797Y-79369747D02*
X102540749Y-79309271D01*
X102540749Y-79309271D02*
X102843130Y-79309271D01*
X102843130Y-79309271D02*
X103024559Y-79369747D01*
X103568844Y-80579271D02*
X103568844Y-79309271D01*
X103568844Y-79309271D02*
X103871225Y-79309271D01*
X103871225Y-79309271D02*
X104052654Y-79369747D01*
X104052654Y-79369747D02*
X104173606Y-79490699D01*
X104173606Y-79490699D02*
X104234083Y-79611652D01*
X104234083Y-79611652D02*
X104294559Y-79853556D01*
X104294559Y-79853556D02*
X104294559Y-80034985D01*
X104294559Y-80034985D02*
X104234083Y-80276890D01*
X104234083Y-80276890D02*
X104173606Y-80397842D01*
X104173606Y-80397842D02*
X104052654Y-80518795D01*
X104052654Y-80518795D02*
X103871225Y-80579271D01*
X103871225Y-80579271D02*
X103568844Y-80579271D01*
X104778368Y-80216414D02*
X105383130Y-80216414D01*
X104657416Y-80579271D02*
X105080749Y-79309271D01*
X105080749Y-79309271D02*
X105504083Y-80579271D01*
X107798844Y-80518795D02*
X107980273Y-80579271D01*
X107980273Y-80579271D02*
X108282654Y-80579271D01*
X108282654Y-80579271D02*
X108403606Y-80518795D01*
X108403606Y-80518795D02*
X108464082Y-80458318D01*
X108464082Y-80458318D02*
X108524559Y-80337366D01*
X108524559Y-80337366D02*
X108524559Y-80216414D01*
X108524559Y-80216414D02*
X108464082Y-80095461D01*
X108464082Y-80095461D02*
X108403606Y-80034985D01*
X108403606Y-80034985D02*
X108282654Y-79974509D01*
X108282654Y-79974509D02*
X108040749Y-79914033D01*
X108040749Y-79914033D02*
X107919797Y-79853556D01*
X107919797Y-79853556D02*
X107859320Y-79793080D01*
X107859320Y-79793080D02*
X107798844Y-79672128D01*
X107798844Y-79672128D02*
X107798844Y-79551175D01*
X107798844Y-79551175D02*
X107859320Y-79430223D01*
X107859320Y-79430223D02*
X107919797Y-79369747D01*
X107919797Y-79369747D02*
X108040749Y-79309271D01*
X108040749Y-79309271D02*
X108343130Y-79309271D01*
X108343130Y-79309271D02*
X108524559Y-79369747D01*
X109794559Y-80458318D02*
X109734083Y-80518795D01*
X109734083Y-80518795D02*
X109552654Y-80579271D01*
X109552654Y-80579271D02*
X109431702Y-80579271D01*
X109431702Y-80579271D02*
X109250273Y-80518795D01*
X109250273Y-80518795D02*
X109129321Y-80397842D01*
X109129321Y-80397842D02*
X109068844Y-80276890D01*
X109068844Y-80276890D02*
X109008368Y-80034985D01*
X109008368Y-80034985D02*
X109008368Y-79853556D01*
X109008368Y-79853556D02*
X109068844Y-79611652D01*
X109068844Y-79611652D02*
X109129321Y-79490699D01*
X109129321Y-79490699D02*
X109250273Y-79369747D01*
X109250273Y-79369747D02*
X109431702Y-79309271D01*
X109431702Y-79309271D02*
X109552654Y-79309271D01*
X109552654Y-79309271D02*
X109734083Y-79369747D01*
X109734083Y-79369747D02*
X109794559Y-79430223D01*
X110943606Y-80579271D02*
X110338844Y-80579271D01*
X110338844Y-80579271D02*
X110338844Y-79309271D01*
D10*
X114163890Y-79304318D02*
X114284843Y-79304318D01*
X114284843Y-79304318D02*
X114405795Y-79364794D01*
X114405795Y-79364794D02*
X114466271Y-79425270D01*
X114466271Y-79425270D02*
X114526747Y-79546222D01*
X114526747Y-79546222D02*
X114587224Y-79788127D01*
X114587224Y-79788127D02*
X114587224Y-80090508D01*
X114587224Y-80090508D02*
X114526747Y-80332413D01*
X114526747Y-80332413D02*
X114466271Y-80453365D01*
X114466271Y-80453365D02*
X114405795Y-80513842D01*
X114405795Y-80513842D02*
X114284843Y-80574318D01*
X114284843Y-80574318D02*
X114163890Y-80574318D01*
X114163890Y-80574318D02*
X114042938Y-80513842D01*
X114042938Y-80513842D02*
X113982462Y-80453365D01*
X113982462Y-80453365D02*
X113921985Y-80332413D01*
X113921985Y-80332413D02*
X113861509Y-80090508D01*
X113861509Y-80090508D02*
X113861509Y-79788127D01*
X113861509Y-79788127D02*
X113921985Y-79546222D01*
X113921985Y-79546222D02*
X113982462Y-79425270D01*
X113982462Y-79425270D02*
X114042938Y-79364794D01*
X114042938Y-79364794D02*
X114163890Y-79304318D01*
X115010557Y-80574318D02*
X115675795Y-79727651D01*
X115010557Y-79727651D02*
X115675795Y-80574318D01*
X116764366Y-79304318D02*
X116159604Y-79304318D01*
X116159604Y-79304318D02*
X116099128Y-79909080D01*
X116099128Y-79909080D02*
X116159604Y-79848603D01*
X116159604Y-79848603D02*
X116280557Y-79788127D01*
X116280557Y-79788127D02*
X116582938Y-79788127D01*
X116582938Y-79788127D02*
X116703890Y-79848603D01*
X116703890Y-79848603D02*
X116764366Y-79909080D01*
X116764366Y-79909080D02*
X116824843Y-80030032D01*
X116824843Y-80030032D02*
X116824843Y-80332413D01*
X116824843Y-80332413D02*
X116764366Y-80453365D01*
X116764366Y-80453365D02*
X116703890Y-80513842D01*
X116703890Y-80513842D02*
X116582938Y-80574318D01*
X116582938Y-80574318D02*
X116280557Y-80574318D01*
X116280557Y-80574318D02*
X116159604Y-80513842D01*
X116159604Y-80513842D02*
X116099128Y-80453365D01*
X117429605Y-80574318D02*
X117671509Y-80574318D01*
X117671509Y-80574318D02*
X117792462Y-80513842D01*
X117792462Y-80513842D02*
X117852938Y-80453365D01*
X117852938Y-80453365D02*
X117973890Y-80271937D01*
X117973890Y-80271937D02*
X118034367Y-80030032D01*
X118034367Y-80030032D02*
X118034367Y-79546222D01*
X118034367Y-79546222D02*
X117973890Y-79425270D01*
X117973890Y-79425270D02*
X117913414Y-79364794D01*
X117913414Y-79364794D02*
X117792462Y-79304318D01*
X117792462Y-79304318D02*
X117550557Y-79304318D01*
X117550557Y-79304318D02*
X117429605Y-79364794D01*
X117429605Y-79364794D02*
X117369128Y-79425270D01*
X117369128Y-79425270D02*
X117308652Y-79546222D01*
X117308652Y-79546222D02*
X117308652Y-79848603D01*
X117308652Y-79848603D02*
X117369128Y-79969556D01*
X117369128Y-79969556D02*
X117429605Y-80030032D01*
X117429605Y-80030032D02*
X117550557Y-80090508D01*
X117550557Y-80090508D02*
X117792462Y-80090508D01*
X117792462Y-80090508D02*
X117913414Y-80030032D01*
X117913414Y-80030032D02*
X117973890Y-79969556D01*
X117973890Y-79969556D02*
X118034367Y-79848603D01*
D11*
X102298844Y-83518795D02*
X102480273Y-83579271D01*
X102480273Y-83579271D02*
X102782654Y-83579271D01*
X102782654Y-83579271D02*
X102903606Y-83518795D01*
X102903606Y-83518795D02*
X102964082Y-83458318D01*
X102964082Y-83458318D02*
X103024559Y-83337366D01*
X103024559Y-83337366D02*
X103024559Y-83216414D01*
X103024559Y-83216414D02*
X102964082Y-83095461D01*
X102964082Y-83095461D02*
X102903606Y-83034985D01*
X102903606Y-83034985D02*
X102782654Y-82974509D01*
X102782654Y-82974509D02*
X102540749Y-82914033D01*
X102540749Y-82914033D02*
X102419797Y-82853556D01*
X102419797Y-82853556D02*
X102359320Y-82793080D01*
X102359320Y-82793080D02*
X102298844Y-82672128D01*
X102298844Y-82672128D02*
X102298844Y-82551175D01*
X102298844Y-82551175D02*
X102359320Y-82430223D01*
X102359320Y-82430223D02*
X102419797Y-82369747D01*
X102419797Y-82369747D02*
X102540749Y-82309271D01*
X102540749Y-82309271D02*
X102843130Y-82309271D01*
X102843130Y-82309271D02*
X103024559Y-82369747D01*
X103568844Y-83579271D02*
X103568844Y-82309271D01*
X103568844Y-82309271D02*
X103871225Y-82309271D01*
X103871225Y-82309271D02*
X104052654Y-82369747D01*
X104052654Y-82369747D02*
X104173606Y-82490699D01*
X104173606Y-82490699D02*
X104234083Y-82611652D01*
X104234083Y-82611652D02*
X104294559Y-82853556D01*
X104294559Y-82853556D02*
X104294559Y-83034985D01*
X104294559Y-83034985D02*
X104234083Y-83276890D01*
X104234083Y-83276890D02*
X104173606Y-83397842D01*
X104173606Y-83397842D02*
X104052654Y-83518795D01*
X104052654Y-83518795D02*
X103871225Y-83579271D01*
X103871225Y-83579271D02*
X103568844Y-83579271D01*
X104778368Y-83216414D02*
X105383130Y-83216414D01*
X104657416Y-83579271D02*
X105080749Y-82309271D01*
X105080749Y-82309271D02*
X105504083Y-83579271D01*
X107798844Y-83518795D02*
X107980273Y-83579271D01*
X107980273Y-83579271D02*
X108282654Y-83579271D01*
X108282654Y-83579271D02*
X108403606Y-83518795D01*
X108403606Y-83518795D02*
X108464082Y-83458318D01*
X108464082Y-83458318D02*
X108524559Y-83337366D01*
X108524559Y-83337366D02*
X108524559Y-83216414D01*
X108524559Y-83216414D02*
X108464082Y-83095461D01*
X108464082Y-83095461D02*
X108403606Y-83034985D01*
X108403606Y-83034985D02*
X108282654Y-82974509D01*
X108282654Y-82974509D02*
X108040749Y-82914033D01*
X108040749Y-82914033D02*
X107919797Y-82853556D01*
X107919797Y-82853556D02*
X107859320Y-82793080D01*
X107859320Y-82793080D02*
X107798844Y-82672128D01*
X107798844Y-82672128D02*
X107798844Y-82551175D01*
X107798844Y-82551175D02*
X107859320Y-82430223D01*
X107859320Y-82430223D02*
X107919797Y-82369747D01*
X107919797Y-82369747D02*
X108040749Y-82309271D01*
X108040749Y-82309271D02*
X108343130Y-82309271D01*
X108343130Y-82309271D02*
X108524559Y-82369747D01*
X109068844Y-83579271D02*
X109068844Y-82309271D01*
X109068844Y-82309271D02*
X109371225Y-82309271D01*
X109371225Y-82309271D02*
X109552654Y-82369747D01*
X109552654Y-82369747D02*
X109673606Y-82490699D01*
X109673606Y-82490699D02*
X109734083Y-82611652D01*
X109734083Y-82611652D02*
X109794559Y-82853556D01*
X109794559Y-82853556D02*
X109794559Y-83034985D01*
X109794559Y-83034985D02*
X109734083Y-83276890D01*
X109734083Y-83276890D02*
X109673606Y-83397842D01*
X109673606Y-83397842D02*
X109552654Y-83518795D01*
X109552654Y-83518795D02*
X109371225Y-83579271D01*
X109371225Y-83579271D02*
X109068844Y-83579271D01*
X110278368Y-83216414D02*
X110883130Y-83216414D01*
X110157416Y-83579271D02*
X110580749Y-82309271D01*
X110580749Y-82309271D02*
X111004083Y-83579271D01*
D10*
X114163890Y-82304318D02*
X114284843Y-82304318D01*
X114284843Y-82304318D02*
X114405795Y-82364794D01*
X114405795Y-82364794D02*
X114466271Y-82425270D01*
X114466271Y-82425270D02*
X114526747Y-82546222D01*
X114526747Y-82546222D02*
X114587224Y-82788127D01*
X114587224Y-82788127D02*
X114587224Y-83090508D01*
X114587224Y-83090508D02*
X114526747Y-83332413D01*
X114526747Y-83332413D02*
X114466271Y-83453365D01*
X114466271Y-83453365D02*
X114405795Y-83513842D01*
X114405795Y-83513842D02*
X114284843Y-83574318D01*
X114284843Y-83574318D02*
X114163890Y-83574318D01*
X114163890Y-83574318D02*
X114042938Y-83513842D01*
X114042938Y-83513842D02*
X113982462Y-83453365D01*
X113982462Y-83453365D02*
X113921985Y-83332413D01*
X113921985Y-83332413D02*
X113861509Y-83090508D01*
X113861509Y-83090508D02*
X113861509Y-82788127D01*
X113861509Y-82788127D02*
X113921985Y-82546222D01*
X113921985Y-82546222D02*
X113982462Y-82425270D01*
X113982462Y-82425270D02*
X114042938Y-82364794D01*
X114042938Y-82364794D02*
X114163890Y-82304318D01*
X115010557Y-83574318D02*
X115675795Y-82727651D01*
X115010557Y-82727651D02*
X115675795Y-83574318D01*
X116764366Y-82304318D02*
X116159604Y-82304318D01*
X116159604Y-82304318D02*
X116099128Y-82909080D01*
X116099128Y-82909080D02*
X116159604Y-82848603D01*
X116159604Y-82848603D02*
X116280557Y-82788127D01*
X116280557Y-82788127D02*
X116582938Y-82788127D01*
X116582938Y-82788127D02*
X116703890Y-82848603D01*
X116703890Y-82848603D02*
X116764366Y-82909080D01*
X116764366Y-82909080D02*
X116824843Y-83030032D01*
X116824843Y-83030032D02*
X116824843Y-83332413D01*
X116824843Y-83332413D02*
X116764366Y-83453365D01*
X116764366Y-83453365D02*
X116703890Y-83513842D01*
X116703890Y-83513842D02*
X116582938Y-83574318D01*
X116582938Y-83574318D02*
X116280557Y-83574318D01*
X116280557Y-83574318D02*
X116159604Y-83513842D01*
X116159604Y-83513842D02*
X116099128Y-83453365D01*
X117308652Y-83211461D02*
X117913414Y-83211461D01*
X117187700Y-83574318D02*
X117611033Y-82304318D01*
X117611033Y-82304318D02*
X118034367Y-83574318D01*
D11*
X102298844Y-86518795D02*
X102480273Y-86579271D01*
X102480273Y-86579271D02*
X102782654Y-86579271D01*
X102782654Y-86579271D02*
X102903606Y-86518795D01*
X102903606Y-86518795D02*
X102964082Y-86458318D01*
X102964082Y-86458318D02*
X103024559Y-86337366D01*
X103024559Y-86337366D02*
X103024559Y-86216414D01*
X103024559Y-86216414D02*
X102964082Y-86095461D01*
X102964082Y-86095461D02*
X102903606Y-86034985D01*
X102903606Y-86034985D02*
X102782654Y-85974509D01*
X102782654Y-85974509D02*
X102540749Y-85914033D01*
X102540749Y-85914033D02*
X102419797Y-85853556D01*
X102419797Y-85853556D02*
X102359320Y-85793080D01*
X102359320Y-85793080D02*
X102298844Y-85672128D01*
X102298844Y-85672128D02*
X102298844Y-85551175D01*
X102298844Y-85551175D02*
X102359320Y-85430223D01*
X102359320Y-85430223D02*
X102419797Y-85369747D01*
X102419797Y-85369747D02*
X102540749Y-85309271D01*
X102540749Y-85309271D02*
X102843130Y-85309271D01*
X102843130Y-85309271D02*
X103024559Y-85369747D01*
X103568844Y-86579271D02*
X103568844Y-85309271D01*
X103568844Y-85309271D02*
X103871225Y-85309271D01*
X103871225Y-85309271D02*
X104052654Y-85369747D01*
X104052654Y-85369747D02*
X104173606Y-85490699D01*
X104173606Y-85490699D02*
X104234083Y-85611652D01*
X104234083Y-85611652D02*
X104294559Y-85853556D01*
X104294559Y-85853556D02*
X104294559Y-86034985D01*
X104294559Y-86034985D02*
X104234083Y-86276890D01*
X104234083Y-86276890D02*
X104173606Y-86397842D01*
X104173606Y-86397842D02*
X104052654Y-86518795D01*
X104052654Y-86518795D02*
X103871225Y-86579271D01*
X103871225Y-86579271D02*
X103568844Y-86579271D01*
X104778368Y-86216414D02*
X105383130Y-86216414D01*
X104657416Y-86579271D02*
X105080749Y-85309271D01*
X105080749Y-85309271D02*
X105504083Y-86579271D01*
X107677892Y-85309271D02*
X108101225Y-86579271D01*
X108101225Y-86579271D02*
X108524559Y-85309271D01*
X109673606Y-86458318D02*
X109613130Y-86518795D01*
X109613130Y-86518795D02*
X109431701Y-86579271D01*
X109431701Y-86579271D02*
X109310749Y-86579271D01*
X109310749Y-86579271D02*
X109129320Y-86518795D01*
X109129320Y-86518795D02*
X109008368Y-86397842D01*
X109008368Y-86397842D02*
X108947891Y-86276890D01*
X108947891Y-86276890D02*
X108887415Y-86034985D01*
X108887415Y-86034985D02*
X108887415Y-85853556D01*
X108887415Y-85853556D02*
X108947891Y-85611652D01*
X108947891Y-85611652D02*
X109008368Y-85490699D01*
X109008368Y-85490699D02*
X109129320Y-85369747D01*
X109129320Y-85369747D02*
X109310749Y-85309271D01*
X109310749Y-85309271D02*
X109431701Y-85309271D01*
X109431701Y-85309271D02*
X109613130Y-85369747D01*
X109613130Y-85369747D02*
X109673606Y-85430223D01*
X110943606Y-86458318D02*
X110883130Y-86518795D01*
X110883130Y-86518795D02*
X110701701Y-86579271D01*
X110701701Y-86579271D02*
X110580749Y-86579271D01*
X110580749Y-86579271D02*
X110399320Y-86518795D01*
X110399320Y-86518795D02*
X110278368Y-86397842D01*
X110278368Y-86397842D02*
X110217891Y-86276890D01*
X110217891Y-86276890D02*
X110157415Y-86034985D01*
X110157415Y-86034985D02*
X110157415Y-85853556D01*
X110157415Y-85853556D02*
X110217891Y-85611652D01*
X110217891Y-85611652D02*
X110278368Y-85490699D01*
X110278368Y-85490699D02*
X110399320Y-85369747D01*
X110399320Y-85369747D02*
X110580749Y-85309271D01*
X110580749Y-85309271D02*
X110701701Y-85309271D01*
X110701701Y-85309271D02*
X110883130Y-85369747D01*
X110883130Y-85369747D02*
X110943606Y-85430223D01*
D10*
X114163890Y-85304318D02*
X114284843Y-85304318D01*
X114284843Y-85304318D02*
X114405795Y-85364794D01*
X114405795Y-85364794D02*
X114466271Y-85425270D01*
X114466271Y-85425270D02*
X114526747Y-85546222D01*
X114526747Y-85546222D02*
X114587224Y-85788127D01*
X114587224Y-85788127D02*
X114587224Y-86090508D01*
X114587224Y-86090508D02*
X114526747Y-86332413D01*
X114526747Y-86332413D02*
X114466271Y-86453365D01*
X114466271Y-86453365D02*
X114405795Y-86513842D01*
X114405795Y-86513842D02*
X114284843Y-86574318D01*
X114284843Y-86574318D02*
X114163890Y-86574318D01*
X114163890Y-86574318D02*
X114042938Y-86513842D01*
X114042938Y-86513842D02*
X113982462Y-86453365D01*
X113982462Y-86453365D02*
X113921985Y-86332413D01*
X113921985Y-86332413D02*
X113861509Y-86090508D01*
X113861509Y-86090508D02*
X113861509Y-85788127D01*
X113861509Y-85788127D02*
X113921985Y-85546222D01*
X113921985Y-85546222D02*
X113982462Y-85425270D01*
X113982462Y-85425270D02*
X114042938Y-85364794D01*
X114042938Y-85364794D02*
X114163890Y-85304318D01*
X115010557Y-86574318D02*
X115675795Y-85727651D01*
X115010557Y-85727651D02*
X115675795Y-86574318D01*
X116764366Y-85304318D02*
X116159604Y-85304318D01*
X116159604Y-85304318D02*
X116099128Y-85909080D01*
X116099128Y-85909080D02*
X116159604Y-85848603D01*
X116159604Y-85848603D02*
X116280557Y-85788127D01*
X116280557Y-85788127D02*
X116582938Y-85788127D01*
X116582938Y-85788127D02*
X116703890Y-85848603D01*
X116703890Y-85848603D02*
X116764366Y-85909080D01*
X116764366Y-85909080D02*
X116824843Y-86030032D01*
X116824843Y-86030032D02*
X116824843Y-86332413D01*
X116824843Y-86332413D02*
X116764366Y-86453365D01*
X116764366Y-86453365D02*
X116703890Y-86513842D01*
X116703890Y-86513842D02*
X116582938Y-86574318D01*
X116582938Y-86574318D02*
X116280557Y-86574318D01*
X116280557Y-86574318D02*
X116159604Y-86513842D01*
X116159604Y-86513842D02*
X116099128Y-86453365D01*
X117792462Y-85909080D02*
X117973890Y-85969556D01*
X117973890Y-85969556D02*
X118034367Y-86030032D01*
X118034367Y-86030032D02*
X118094843Y-86150984D01*
X118094843Y-86150984D02*
X118094843Y-86332413D01*
X118094843Y-86332413D02*
X118034367Y-86453365D01*
X118034367Y-86453365D02*
X117973890Y-86513842D01*
X117973890Y-86513842D02*
X117852938Y-86574318D01*
X117852938Y-86574318D02*
X117369128Y-86574318D01*
X117369128Y-86574318D02*
X117369128Y-85304318D01*
X117369128Y-85304318D02*
X117792462Y-85304318D01*
X117792462Y-85304318D02*
X117913414Y-85364794D01*
X117913414Y-85364794D02*
X117973890Y-85425270D01*
X117973890Y-85425270D02*
X118034367Y-85546222D01*
X118034367Y-85546222D02*
X118034367Y-85667175D01*
X118034367Y-85667175D02*
X117973890Y-85788127D01*
X117973890Y-85788127D02*
X117913414Y-85848603D01*
X117913414Y-85848603D02*
X117792462Y-85909080D01*
X117792462Y-85909080D02*
X117369128Y-85909080D01*
D11*
X102177892Y-88309271D02*
X102601225Y-89579271D01*
X102601225Y-89579271D02*
X103024559Y-88309271D01*
X104173606Y-89458318D02*
X104113130Y-89518795D01*
X104113130Y-89518795D02*
X103931701Y-89579271D01*
X103931701Y-89579271D02*
X103810749Y-89579271D01*
X103810749Y-89579271D02*
X103629320Y-89518795D01*
X103629320Y-89518795D02*
X103508368Y-89397842D01*
X103508368Y-89397842D02*
X103447891Y-89276890D01*
X103447891Y-89276890D02*
X103387415Y-89034985D01*
X103387415Y-89034985D02*
X103387415Y-88853556D01*
X103387415Y-88853556D02*
X103447891Y-88611652D01*
X103447891Y-88611652D02*
X103508368Y-88490699D01*
X103508368Y-88490699D02*
X103629320Y-88369747D01*
X103629320Y-88369747D02*
X103810749Y-88309271D01*
X103810749Y-88309271D02*
X103931701Y-88309271D01*
X103931701Y-88309271D02*
X104113130Y-88369747D01*
X104113130Y-88369747D02*
X104173606Y-88430223D01*
X105443606Y-89458318D02*
X105383130Y-89518795D01*
X105383130Y-89518795D02*
X105201701Y-89579271D01*
X105201701Y-89579271D02*
X105080749Y-89579271D01*
X105080749Y-89579271D02*
X104899320Y-89518795D01*
X104899320Y-89518795D02*
X104778368Y-89397842D01*
X104778368Y-89397842D02*
X104717891Y-89276890D01*
X104717891Y-89276890D02*
X104657415Y-89034985D01*
X104657415Y-89034985D02*
X104657415Y-88853556D01*
X104657415Y-88853556D02*
X104717891Y-88611652D01*
X104717891Y-88611652D02*
X104778368Y-88490699D01*
X104778368Y-88490699D02*
X104899320Y-88369747D01*
X104899320Y-88369747D02*
X105080749Y-88309271D01*
X105080749Y-88309271D02*
X105201701Y-88309271D01*
X105201701Y-88309271D02*
X105383130Y-88369747D01*
X105383130Y-88369747D02*
X105443606Y-88430223D01*
X108524559Y-88369747D02*
X108403606Y-88309271D01*
X108403606Y-88309271D02*
X108222178Y-88309271D01*
X108222178Y-88309271D02*
X108040749Y-88369747D01*
X108040749Y-88369747D02*
X107919797Y-88490699D01*
X107919797Y-88490699D02*
X107859320Y-88611652D01*
X107859320Y-88611652D02*
X107798844Y-88853556D01*
X107798844Y-88853556D02*
X107798844Y-89034985D01*
X107798844Y-89034985D02*
X107859320Y-89276890D01*
X107859320Y-89276890D02*
X107919797Y-89397842D01*
X107919797Y-89397842D02*
X108040749Y-89518795D01*
X108040749Y-89518795D02*
X108222178Y-89579271D01*
X108222178Y-89579271D02*
X108343130Y-89579271D01*
X108343130Y-89579271D02*
X108524559Y-89518795D01*
X108524559Y-89518795D02*
X108585035Y-89458318D01*
X108585035Y-89458318D02*
X108585035Y-89034985D01*
X108585035Y-89034985D02*
X108343130Y-89034985D01*
X109129320Y-89579271D02*
X109129320Y-88309271D01*
X109129320Y-88309271D02*
X109855035Y-89579271D01*
X109855035Y-89579271D02*
X109855035Y-88309271D01*
X110459796Y-89579271D02*
X110459796Y-88309271D01*
X110459796Y-88309271D02*
X110762177Y-88309271D01*
X110762177Y-88309271D02*
X110943606Y-88369747D01*
X110943606Y-88369747D02*
X111064558Y-88490699D01*
X111064558Y-88490699D02*
X111125035Y-88611652D01*
X111125035Y-88611652D02*
X111185511Y-88853556D01*
X111185511Y-88853556D02*
X111185511Y-89034985D01*
X111185511Y-89034985D02*
X111125035Y-89276890D01*
X111125035Y-89276890D02*
X111064558Y-89397842D01*
X111064558Y-89397842D02*
X110943606Y-89518795D01*
X110943606Y-89518795D02*
X110762177Y-89579271D01*
X110762177Y-89579271D02*
X110459796Y-89579271D01*
D10*
X114163890Y-88304318D02*
X114284843Y-88304318D01*
X114284843Y-88304318D02*
X114405795Y-88364794D01*
X114405795Y-88364794D02*
X114466271Y-88425270D01*
X114466271Y-88425270D02*
X114526747Y-88546222D01*
X114526747Y-88546222D02*
X114587224Y-88788127D01*
X114587224Y-88788127D02*
X114587224Y-89090508D01*
X114587224Y-89090508D02*
X114526747Y-89332413D01*
X114526747Y-89332413D02*
X114466271Y-89453365D01*
X114466271Y-89453365D02*
X114405795Y-89513842D01*
X114405795Y-89513842D02*
X114284843Y-89574318D01*
X114284843Y-89574318D02*
X114163890Y-89574318D01*
X114163890Y-89574318D02*
X114042938Y-89513842D01*
X114042938Y-89513842D02*
X113982462Y-89453365D01*
X113982462Y-89453365D02*
X113921985Y-89332413D01*
X113921985Y-89332413D02*
X113861509Y-89090508D01*
X113861509Y-89090508D02*
X113861509Y-88788127D01*
X113861509Y-88788127D02*
X113921985Y-88546222D01*
X113921985Y-88546222D02*
X113982462Y-88425270D01*
X113982462Y-88425270D02*
X114042938Y-88364794D01*
X114042938Y-88364794D02*
X114163890Y-88304318D01*
X115010557Y-89574318D02*
X115675795Y-88727651D01*
X115010557Y-88727651D02*
X115675795Y-89574318D01*
X116764366Y-88304318D02*
X116159604Y-88304318D01*
X116159604Y-88304318D02*
X116099128Y-88909080D01*
X116099128Y-88909080D02*
X116159604Y-88848603D01*
X116159604Y-88848603D02*
X116280557Y-88788127D01*
X116280557Y-88788127D02*
X116582938Y-88788127D01*
X116582938Y-88788127D02*
X116703890Y-88848603D01*
X116703890Y-88848603D02*
X116764366Y-88909080D01*
X116764366Y-88909080D02*
X116824843Y-89030032D01*
X116824843Y-89030032D02*
X116824843Y-89332413D01*
X116824843Y-89332413D02*
X116764366Y-89453365D01*
X116764366Y-89453365D02*
X116703890Y-89513842D01*
X116703890Y-89513842D02*
X116582938Y-89574318D01*
X116582938Y-89574318D02*
X116280557Y-89574318D01*
X116280557Y-89574318D02*
X116159604Y-89513842D01*
X116159604Y-89513842D02*
X116099128Y-89453365D01*
X118094843Y-89453365D02*
X118034367Y-89513842D01*
X118034367Y-89513842D02*
X117852938Y-89574318D01*
X117852938Y-89574318D02*
X117731986Y-89574318D01*
X117731986Y-89574318D02*
X117550557Y-89513842D01*
X117550557Y-89513842D02*
X117429605Y-89392889D01*
X117429605Y-89392889D02*
X117369128Y-89271937D01*
X117369128Y-89271937D02*
X117308652Y-89030032D01*
X117308652Y-89030032D02*
X117308652Y-88848603D01*
X117308652Y-88848603D02*
X117369128Y-88606699D01*
X117369128Y-88606699D02*
X117429605Y-88485746D01*
X117429605Y-88485746D02*
X117550557Y-88364794D01*
X117550557Y-88364794D02*
X117731986Y-88304318D01*
X117731986Y-88304318D02*
X117852938Y-88304318D01*
X117852938Y-88304318D02*
X118034367Y-88364794D01*
X118034367Y-88364794D02*
X118094843Y-88425270D01*
D11*
X102177892Y-91309271D02*
X102601225Y-92579271D01*
X102601225Y-92579271D02*
X103024559Y-91309271D01*
X104173606Y-92458318D02*
X104113130Y-92518795D01*
X104113130Y-92518795D02*
X103931701Y-92579271D01*
X103931701Y-92579271D02*
X103810749Y-92579271D01*
X103810749Y-92579271D02*
X103629320Y-92518795D01*
X103629320Y-92518795D02*
X103508368Y-92397842D01*
X103508368Y-92397842D02*
X103447891Y-92276890D01*
X103447891Y-92276890D02*
X103387415Y-92034985D01*
X103387415Y-92034985D02*
X103387415Y-91853556D01*
X103387415Y-91853556D02*
X103447891Y-91611652D01*
X103447891Y-91611652D02*
X103508368Y-91490699D01*
X103508368Y-91490699D02*
X103629320Y-91369747D01*
X103629320Y-91369747D02*
X103810749Y-91309271D01*
X103810749Y-91309271D02*
X103931701Y-91309271D01*
X103931701Y-91309271D02*
X104113130Y-91369747D01*
X104113130Y-91369747D02*
X104173606Y-91430223D01*
X105443606Y-92458318D02*
X105383130Y-92518795D01*
X105383130Y-92518795D02*
X105201701Y-92579271D01*
X105201701Y-92579271D02*
X105080749Y-92579271D01*
X105080749Y-92579271D02*
X104899320Y-92518795D01*
X104899320Y-92518795D02*
X104778368Y-92397842D01*
X104778368Y-92397842D02*
X104717891Y-92276890D01*
X104717891Y-92276890D02*
X104657415Y-92034985D01*
X104657415Y-92034985D02*
X104657415Y-91853556D01*
X104657415Y-91853556D02*
X104717891Y-91611652D01*
X104717891Y-91611652D02*
X104778368Y-91490699D01*
X104778368Y-91490699D02*
X104899320Y-91369747D01*
X104899320Y-91369747D02*
X105080749Y-91309271D01*
X105080749Y-91309271D02*
X105201701Y-91309271D01*
X105201701Y-91309271D02*
X105383130Y-91369747D01*
X105383130Y-91369747D02*
X105443606Y-91430223D01*
X107798844Y-92518795D02*
X107980273Y-92579271D01*
X107980273Y-92579271D02*
X108282654Y-92579271D01*
X108282654Y-92579271D02*
X108403606Y-92518795D01*
X108403606Y-92518795D02*
X108464082Y-92458318D01*
X108464082Y-92458318D02*
X108524559Y-92337366D01*
X108524559Y-92337366D02*
X108524559Y-92216414D01*
X108524559Y-92216414D02*
X108464082Y-92095461D01*
X108464082Y-92095461D02*
X108403606Y-92034985D01*
X108403606Y-92034985D02*
X108282654Y-91974509D01*
X108282654Y-91974509D02*
X108040749Y-91914033D01*
X108040749Y-91914033D02*
X107919797Y-91853556D01*
X107919797Y-91853556D02*
X107859320Y-91793080D01*
X107859320Y-91793080D02*
X107798844Y-91672128D01*
X107798844Y-91672128D02*
X107798844Y-91551175D01*
X107798844Y-91551175D02*
X107859320Y-91430223D01*
X107859320Y-91430223D02*
X107919797Y-91369747D01*
X107919797Y-91369747D02*
X108040749Y-91309271D01*
X108040749Y-91309271D02*
X108343130Y-91309271D01*
X108343130Y-91309271D02*
X108524559Y-91369747D01*
X109794559Y-92458318D02*
X109734083Y-92518795D01*
X109734083Y-92518795D02*
X109552654Y-92579271D01*
X109552654Y-92579271D02*
X109431702Y-92579271D01*
X109431702Y-92579271D02*
X109250273Y-92518795D01*
X109250273Y-92518795D02*
X109129321Y-92397842D01*
X109129321Y-92397842D02*
X109068844Y-92276890D01*
X109068844Y-92276890D02*
X109008368Y-92034985D01*
X109008368Y-92034985D02*
X109008368Y-91853556D01*
X109008368Y-91853556D02*
X109068844Y-91611652D01*
X109068844Y-91611652D02*
X109129321Y-91490699D01*
X109129321Y-91490699D02*
X109250273Y-91369747D01*
X109250273Y-91369747D02*
X109431702Y-91309271D01*
X109431702Y-91309271D02*
X109552654Y-91309271D01*
X109552654Y-91309271D02*
X109734083Y-91369747D01*
X109734083Y-91369747D02*
X109794559Y-91430223D01*
X110943606Y-92579271D02*
X110338844Y-92579271D01*
X110338844Y-92579271D02*
X110338844Y-91309271D01*
D10*
X114163890Y-91304318D02*
X114284843Y-91304318D01*
X114284843Y-91304318D02*
X114405795Y-91364794D01*
X114405795Y-91364794D02*
X114466271Y-91425270D01*
X114466271Y-91425270D02*
X114526747Y-91546222D01*
X114526747Y-91546222D02*
X114587224Y-91788127D01*
X114587224Y-91788127D02*
X114587224Y-92090508D01*
X114587224Y-92090508D02*
X114526747Y-92332413D01*
X114526747Y-92332413D02*
X114466271Y-92453365D01*
X114466271Y-92453365D02*
X114405795Y-92513842D01*
X114405795Y-92513842D02*
X114284843Y-92574318D01*
X114284843Y-92574318D02*
X114163890Y-92574318D01*
X114163890Y-92574318D02*
X114042938Y-92513842D01*
X114042938Y-92513842D02*
X113982462Y-92453365D01*
X113982462Y-92453365D02*
X113921985Y-92332413D01*
X113921985Y-92332413D02*
X113861509Y-92090508D01*
X113861509Y-92090508D02*
X113861509Y-91788127D01*
X113861509Y-91788127D02*
X113921985Y-91546222D01*
X113921985Y-91546222D02*
X113982462Y-91425270D01*
X113982462Y-91425270D02*
X114042938Y-91364794D01*
X114042938Y-91364794D02*
X114163890Y-91304318D01*
X115010557Y-92574318D02*
X115675795Y-91727651D01*
X115010557Y-91727651D02*
X115675795Y-92574318D01*
X116764366Y-91304318D02*
X116159604Y-91304318D01*
X116159604Y-91304318D02*
X116099128Y-91909080D01*
X116099128Y-91909080D02*
X116159604Y-91848603D01*
X116159604Y-91848603D02*
X116280557Y-91788127D01*
X116280557Y-91788127D02*
X116582938Y-91788127D01*
X116582938Y-91788127D02*
X116703890Y-91848603D01*
X116703890Y-91848603D02*
X116764366Y-91909080D01*
X116764366Y-91909080D02*
X116824843Y-92030032D01*
X116824843Y-92030032D02*
X116824843Y-92332413D01*
X116824843Y-92332413D02*
X116764366Y-92453365D01*
X116764366Y-92453365D02*
X116703890Y-92513842D01*
X116703890Y-92513842D02*
X116582938Y-92574318D01*
X116582938Y-92574318D02*
X116280557Y-92574318D01*
X116280557Y-92574318D02*
X116159604Y-92513842D01*
X116159604Y-92513842D02*
X116099128Y-92453365D01*
X117369128Y-92574318D02*
X117369128Y-91304318D01*
X117369128Y-91304318D02*
X117671509Y-91304318D01*
X117671509Y-91304318D02*
X117852938Y-91364794D01*
X117852938Y-91364794D02*
X117973890Y-91485746D01*
X117973890Y-91485746D02*
X118034367Y-91606699D01*
X118034367Y-91606699D02*
X118094843Y-91848603D01*
X118094843Y-91848603D02*
X118094843Y-92030032D01*
X118094843Y-92030032D02*
X118034367Y-92271937D01*
X118034367Y-92271937D02*
X117973890Y-92392889D01*
X117973890Y-92392889D02*
X117852938Y-92513842D01*
X117852938Y-92513842D02*
X117671509Y-92574318D01*
X117671509Y-92574318D02*
X117369128Y-92574318D01*
D11*
X102177892Y-94309271D02*
X102601225Y-95579271D01*
X102601225Y-95579271D02*
X103024559Y-94309271D01*
X104173606Y-95458318D02*
X104113130Y-95518795D01*
X104113130Y-95518795D02*
X103931701Y-95579271D01*
X103931701Y-95579271D02*
X103810749Y-95579271D01*
X103810749Y-95579271D02*
X103629320Y-95518795D01*
X103629320Y-95518795D02*
X103508368Y-95397842D01*
X103508368Y-95397842D02*
X103447891Y-95276890D01*
X103447891Y-95276890D02*
X103387415Y-95034985D01*
X103387415Y-95034985D02*
X103387415Y-94853556D01*
X103387415Y-94853556D02*
X103447891Y-94611652D01*
X103447891Y-94611652D02*
X103508368Y-94490699D01*
X103508368Y-94490699D02*
X103629320Y-94369747D01*
X103629320Y-94369747D02*
X103810749Y-94309271D01*
X103810749Y-94309271D02*
X103931701Y-94309271D01*
X103931701Y-94309271D02*
X104113130Y-94369747D01*
X104113130Y-94369747D02*
X104173606Y-94430223D01*
X105443606Y-95458318D02*
X105383130Y-95518795D01*
X105383130Y-95518795D02*
X105201701Y-95579271D01*
X105201701Y-95579271D02*
X105080749Y-95579271D01*
X105080749Y-95579271D02*
X104899320Y-95518795D01*
X104899320Y-95518795D02*
X104778368Y-95397842D01*
X104778368Y-95397842D02*
X104717891Y-95276890D01*
X104717891Y-95276890D02*
X104657415Y-95034985D01*
X104657415Y-95034985D02*
X104657415Y-94853556D01*
X104657415Y-94853556D02*
X104717891Y-94611652D01*
X104717891Y-94611652D02*
X104778368Y-94490699D01*
X104778368Y-94490699D02*
X104899320Y-94369747D01*
X104899320Y-94369747D02*
X105080749Y-94309271D01*
X105080749Y-94309271D02*
X105201701Y-94309271D01*
X105201701Y-94309271D02*
X105383130Y-94369747D01*
X105383130Y-94369747D02*
X105443606Y-94430223D01*
X107798844Y-95518795D02*
X107980273Y-95579271D01*
X107980273Y-95579271D02*
X108282654Y-95579271D01*
X108282654Y-95579271D02*
X108403606Y-95518795D01*
X108403606Y-95518795D02*
X108464082Y-95458318D01*
X108464082Y-95458318D02*
X108524559Y-95337366D01*
X108524559Y-95337366D02*
X108524559Y-95216414D01*
X108524559Y-95216414D02*
X108464082Y-95095461D01*
X108464082Y-95095461D02*
X108403606Y-95034985D01*
X108403606Y-95034985D02*
X108282654Y-94974509D01*
X108282654Y-94974509D02*
X108040749Y-94914033D01*
X108040749Y-94914033D02*
X107919797Y-94853556D01*
X107919797Y-94853556D02*
X107859320Y-94793080D01*
X107859320Y-94793080D02*
X107798844Y-94672128D01*
X107798844Y-94672128D02*
X107798844Y-94551175D01*
X107798844Y-94551175D02*
X107859320Y-94430223D01*
X107859320Y-94430223D02*
X107919797Y-94369747D01*
X107919797Y-94369747D02*
X108040749Y-94309271D01*
X108040749Y-94309271D02*
X108343130Y-94309271D01*
X108343130Y-94309271D02*
X108524559Y-94369747D01*
X109068844Y-95579271D02*
X109068844Y-94309271D01*
X109068844Y-94309271D02*
X109371225Y-94309271D01*
X109371225Y-94309271D02*
X109552654Y-94369747D01*
X109552654Y-94369747D02*
X109673606Y-94490699D01*
X109673606Y-94490699D02*
X109734083Y-94611652D01*
X109734083Y-94611652D02*
X109794559Y-94853556D01*
X109794559Y-94853556D02*
X109794559Y-95034985D01*
X109794559Y-95034985D02*
X109734083Y-95276890D01*
X109734083Y-95276890D02*
X109673606Y-95397842D01*
X109673606Y-95397842D02*
X109552654Y-95518795D01*
X109552654Y-95518795D02*
X109371225Y-95579271D01*
X109371225Y-95579271D02*
X109068844Y-95579271D01*
X110278368Y-95216414D02*
X110883130Y-95216414D01*
X110157416Y-95579271D02*
X110580749Y-94309271D01*
X110580749Y-94309271D02*
X111004083Y-95579271D01*
D10*
X114163890Y-94304318D02*
X114284843Y-94304318D01*
X114284843Y-94304318D02*
X114405795Y-94364794D01*
X114405795Y-94364794D02*
X114466271Y-94425270D01*
X114466271Y-94425270D02*
X114526747Y-94546222D01*
X114526747Y-94546222D02*
X114587224Y-94788127D01*
X114587224Y-94788127D02*
X114587224Y-95090508D01*
X114587224Y-95090508D02*
X114526747Y-95332413D01*
X114526747Y-95332413D02*
X114466271Y-95453365D01*
X114466271Y-95453365D02*
X114405795Y-95513842D01*
X114405795Y-95513842D02*
X114284843Y-95574318D01*
X114284843Y-95574318D02*
X114163890Y-95574318D01*
X114163890Y-95574318D02*
X114042938Y-95513842D01*
X114042938Y-95513842D02*
X113982462Y-95453365D01*
X113982462Y-95453365D02*
X113921985Y-95332413D01*
X113921985Y-95332413D02*
X113861509Y-95090508D01*
X113861509Y-95090508D02*
X113861509Y-94788127D01*
X113861509Y-94788127D02*
X113921985Y-94546222D01*
X113921985Y-94546222D02*
X113982462Y-94425270D01*
X113982462Y-94425270D02*
X114042938Y-94364794D01*
X114042938Y-94364794D02*
X114163890Y-94304318D01*
X115010557Y-95574318D02*
X115675795Y-94727651D01*
X115010557Y-94727651D02*
X115675795Y-95574318D01*
X116764366Y-94304318D02*
X116159604Y-94304318D01*
X116159604Y-94304318D02*
X116099128Y-94909080D01*
X116099128Y-94909080D02*
X116159604Y-94848603D01*
X116159604Y-94848603D02*
X116280557Y-94788127D01*
X116280557Y-94788127D02*
X116582938Y-94788127D01*
X116582938Y-94788127D02*
X116703890Y-94848603D01*
X116703890Y-94848603D02*
X116764366Y-94909080D01*
X116764366Y-94909080D02*
X116824843Y-95030032D01*
X116824843Y-95030032D02*
X116824843Y-95332413D01*
X116824843Y-95332413D02*
X116764366Y-95453365D01*
X116764366Y-95453365D02*
X116703890Y-95513842D01*
X116703890Y-95513842D02*
X116582938Y-95574318D01*
X116582938Y-95574318D02*
X116280557Y-95574318D01*
X116280557Y-95574318D02*
X116159604Y-95513842D01*
X116159604Y-95513842D02*
X116099128Y-95453365D01*
X117369128Y-94909080D02*
X117792462Y-94909080D01*
X117973890Y-95574318D02*
X117369128Y-95574318D01*
X117369128Y-95574318D02*
X117369128Y-94304318D01*
X117369128Y-94304318D02*
X117973890Y-94304318D01*
D11*
X102177892Y-97309271D02*
X102601225Y-98579271D01*
X102601225Y-98579271D02*
X103024559Y-97309271D01*
X104173606Y-98458318D02*
X104113130Y-98518795D01*
X104113130Y-98518795D02*
X103931701Y-98579271D01*
X103931701Y-98579271D02*
X103810749Y-98579271D01*
X103810749Y-98579271D02*
X103629320Y-98518795D01*
X103629320Y-98518795D02*
X103508368Y-98397842D01*
X103508368Y-98397842D02*
X103447891Y-98276890D01*
X103447891Y-98276890D02*
X103387415Y-98034985D01*
X103387415Y-98034985D02*
X103387415Y-97853556D01*
X103387415Y-97853556D02*
X103447891Y-97611652D01*
X103447891Y-97611652D02*
X103508368Y-97490699D01*
X103508368Y-97490699D02*
X103629320Y-97369747D01*
X103629320Y-97369747D02*
X103810749Y-97309271D01*
X103810749Y-97309271D02*
X103931701Y-97309271D01*
X103931701Y-97309271D02*
X104113130Y-97369747D01*
X104113130Y-97369747D02*
X104173606Y-97430223D01*
X105443606Y-98458318D02*
X105383130Y-98518795D01*
X105383130Y-98518795D02*
X105201701Y-98579271D01*
X105201701Y-98579271D02*
X105080749Y-98579271D01*
X105080749Y-98579271D02*
X104899320Y-98518795D01*
X104899320Y-98518795D02*
X104778368Y-98397842D01*
X104778368Y-98397842D02*
X104717891Y-98276890D01*
X104717891Y-98276890D02*
X104657415Y-98034985D01*
X104657415Y-98034985D02*
X104657415Y-97853556D01*
X104657415Y-97853556D02*
X104717891Y-97611652D01*
X104717891Y-97611652D02*
X104778368Y-97490699D01*
X104778368Y-97490699D02*
X104899320Y-97369747D01*
X104899320Y-97369747D02*
X105080749Y-97309271D01*
X105080749Y-97309271D02*
X105201701Y-97309271D01*
X105201701Y-97309271D02*
X105383130Y-97369747D01*
X105383130Y-97369747D02*
X105443606Y-97430223D01*
X107677892Y-97309271D02*
X108101225Y-98579271D01*
X108101225Y-98579271D02*
X108524559Y-97309271D01*
X109673606Y-98458318D02*
X109613130Y-98518795D01*
X109613130Y-98518795D02*
X109431701Y-98579271D01*
X109431701Y-98579271D02*
X109310749Y-98579271D01*
X109310749Y-98579271D02*
X109129320Y-98518795D01*
X109129320Y-98518795D02*
X109008368Y-98397842D01*
X109008368Y-98397842D02*
X108947891Y-98276890D01*
X108947891Y-98276890D02*
X108887415Y-98034985D01*
X108887415Y-98034985D02*
X108887415Y-97853556D01*
X108887415Y-97853556D02*
X108947891Y-97611652D01*
X108947891Y-97611652D02*
X109008368Y-97490699D01*
X109008368Y-97490699D02*
X109129320Y-97369747D01*
X109129320Y-97369747D02*
X109310749Y-97309271D01*
X109310749Y-97309271D02*
X109431701Y-97309271D01*
X109431701Y-97309271D02*
X109613130Y-97369747D01*
X109613130Y-97369747D02*
X109673606Y-97430223D01*
X110943606Y-98458318D02*
X110883130Y-98518795D01*
X110883130Y-98518795D02*
X110701701Y-98579271D01*
X110701701Y-98579271D02*
X110580749Y-98579271D01*
X110580749Y-98579271D02*
X110399320Y-98518795D01*
X110399320Y-98518795D02*
X110278368Y-98397842D01*
X110278368Y-98397842D02*
X110217891Y-98276890D01*
X110217891Y-98276890D02*
X110157415Y-98034985D01*
X110157415Y-98034985D02*
X110157415Y-97853556D01*
X110157415Y-97853556D02*
X110217891Y-97611652D01*
X110217891Y-97611652D02*
X110278368Y-97490699D01*
X110278368Y-97490699D02*
X110399320Y-97369747D01*
X110399320Y-97369747D02*
X110580749Y-97309271D01*
X110580749Y-97309271D02*
X110701701Y-97309271D01*
X110701701Y-97309271D02*
X110883130Y-97369747D01*
X110883130Y-97369747D02*
X110943606Y-97430223D01*
D10*
X114163890Y-97304318D02*
X114284843Y-97304318D01*
X114284843Y-97304318D02*
X114405795Y-97364794D01*
X114405795Y-97364794D02*
X114466271Y-97425270D01*
X114466271Y-97425270D02*
X114526747Y-97546222D01*
X114526747Y-97546222D02*
X114587224Y-97788127D01*
X114587224Y-97788127D02*
X114587224Y-98090508D01*
X114587224Y-98090508D02*
X114526747Y-98332413D01*
X114526747Y-98332413D02*
X114466271Y-98453365D01*
X114466271Y-98453365D02*
X114405795Y-98513842D01*
X114405795Y-98513842D02*
X114284843Y-98574318D01*
X114284843Y-98574318D02*
X114163890Y-98574318D01*
X114163890Y-98574318D02*
X114042938Y-98513842D01*
X114042938Y-98513842D02*
X113982462Y-98453365D01*
X113982462Y-98453365D02*
X113921985Y-98332413D01*
X113921985Y-98332413D02*
X113861509Y-98090508D01*
X113861509Y-98090508D02*
X113861509Y-97788127D01*
X113861509Y-97788127D02*
X113921985Y-97546222D01*
X113921985Y-97546222D02*
X113982462Y-97425270D01*
X113982462Y-97425270D02*
X114042938Y-97364794D01*
X114042938Y-97364794D02*
X114163890Y-97304318D01*
X115010557Y-98574318D02*
X115675795Y-97727651D01*
X115010557Y-97727651D02*
X115675795Y-98574318D01*
X116764366Y-97304318D02*
X116159604Y-97304318D01*
X116159604Y-97304318D02*
X116099128Y-97909080D01*
X116099128Y-97909080D02*
X116159604Y-97848603D01*
X116159604Y-97848603D02*
X116280557Y-97788127D01*
X116280557Y-97788127D02*
X116582938Y-97788127D01*
X116582938Y-97788127D02*
X116703890Y-97848603D01*
X116703890Y-97848603D02*
X116764366Y-97909080D01*
X116764366Y-97909080D02*
X116824843Y-98030032D01*
X116824843Y-98030032D02*
X116824843Y-98332413D01*
X116824843Y-98332413D02*
X116764366Y-98453365D01*
X116764366Y-98453365D02*
X116703890Y-98513842D01*
X116703890Y-98513842D02*
X116582938Y-98574318D01*
X116582938Y-98574318D02*
X116280557Y-98574318D01*
X116280557Y-98574318D02*
X116159604Y-98513842D01*
X116159604Y-98513842D02*
X116099128Y-98453365D01*
X117792462Y-97909080D02*
X117369128Y-97909080D01*
X117369128Y-98574318D02*
X117369128Y-97304318D01*
X117369128Y-97304318D02*
X117973890Y-97304318D01*
D12*
X106450000Y-51500000D02*
X100950000Y-51500000D01*
X112450000Y-51500000D02*
X106450000Y-51500000D01*
X120000000Y-51500000D02*
X112450000Y-51500000D01*
X106450000Y-54500000D02*
X100950000Y-54500000D01*
X112450000Y-54500000D02*
X106450000Y-54500000D01*
X120000000Y-54500000D02*
X112450000Y-54500000D01*
X106450000Y-57500000D02*
X100950000Y-57500000D01*
X112450000Y-57500000D02*
X106450000Y-57500000D01*
X120000000Y-57500000D02*
X112450000Y-57500000D01*
X106450000Y-60500000D02*
X100950000Y-60500000D01*
X112450000Y-60500000D02*
X106450000Y-60500000D01*
X120000000Y-60500000D02*
X112450000Y-60500000D01*
X106450000Y-63500000D02*
X100950000Y-63500000D01*
X112450000Y-63500000D02*
X106450000Y-63500000D01*
X120000000Y-63500000D02*
X112450000Y-63500000D01*
X106450000Y-66500000D02*
X100950000Y-66500000D01*
X112450000Y-66500000D02*
X106450000Y-66500000D01*
X120000000Y-66500000D02*
X112450000Y-66500000D01*
X106450000Y-69500000D02*
X100950000Y-69500000D01*
X112450000Y-69500000D02*
X106450000Y-69500000D01*
X120000000Y-69500000D02*
X112450000Y-69500000D01*
X106450000Y-72500000D02*
X100950000Y-72500000D01*
X112450000Y-72500000D02*
X106450000Y-72500000D01*
X120000000Y-72500000D02*
X112450000Y-72500000D01*
X106450000Y-75500000D02*
X100950000Y-75500000D01*
X112450000Y-75500000D02*
X106450000Y-75500000D01*
X120000000Y-75500000D02*
X112450000Y-75500000D01*
X106450000Y-78500000D02*
X100950000Y-78500000D01*
X112450000Y-78500000D02*
X106450000Y-78500000D01*
X120000000Y-78500000D02*
X112450000Y-78500000D01*
X106450000Y-81500000D02*
X100950000Y-81500000D01*
X112450000Y-81500000D02*
X106450000Y-81500000D01*
X120000000Y-81500000D02*
X112450000Y-81500000D01*
X106450000Y-84500000D02*
X100950000Y-84500000D01*
X112450000Y-84500000D02*
X106450000Y-84500000D01*
X120000000Y-84500000D02*
X112450000Y-84500000D01*
X106450000Y-87500000D02*
X100950000Y-87500000D01*
X112450000Y-87500000D02*
X106450000Y-87500000D01*
X120000000Y-87500000D02*
X112450000Y-87500000D01*
X106450000Y-90500000D02*
X100950000Y-90500000D01*
X112450000Y-90500000D02*
X106450000Y-90500000D01*
X120000000Y-90500000D02*
X112450000Y-90500000D01*
X106450000Y-93500000D02*
X100950000Y-93500000D01*
X112450000Y-93500000D02*
X106450000Y-93500000D01*
X120000000Y-93500000D02*
X112450000Y-93500000D01*
X106450000Y-96500000D02*
X100950000Y-96500000D01*
X112450000Y-96500000D02*
X106450000Y-96500000D01*
X120000000Y-96500000D02*
X112450000Y-96500000D01*
X100950000Y-48500000D02*
X120000000Y-48500000D01*
X120000000Y-48500000D02*
X120000000Y-99500000D01*
X120000000Y-99500000D02*
X100950000Y-99500000D01*
X100950000Y-99500000D02*
X100950000Y-48500000D01*
D13*
X123500000Y-48500000D02*
X132500000Y-48500000D01*
X132500000Y-68500000D01*
X123500000Y-68500000D01*
X123500000Y-48500000D01*
X135500000Y-48500000D02*
X144500000Y-48500000D01*
X144500000Y-68500000D01*
X135500000Y-68500000D01*
X135500000Y-48500000D01*
D14*
X171733740Y-63321530D02*
X172033740Y-64901530D01*
X172033740Y-64901530D02*
X172333740Y-63321530D01*
X172633740Y-64901530D02*
X172633740Y-63321530D01*
X173062311Y-64901530D02*
X173062311Y-63321530D01*
X173062311Y-63321530D02*
X173576597Y-64901530D01*
X173576597Y-64901530D02*
X173576597Y-63321530D01*
X172333740Y-67445242D02*
X171819454Y-67445242D01*
X172076597Y-67445242D02*
X172076597Y-65865242D01*
X172076597Y-65865242D02*
X171990883Y-66090956D01*
X171990883Y-66090956D02*
X171905168Y-66241432D01*
X171905168Y-66241432D02*
X171819454Y-66316670D01*
X172676597Y-66015718D02*
X172719454Y-65940480D01*
X172719454Y-65940480D02*
X172805169Y-65865242D01*
X172805169Y-65865242D02*
X173019454Y-65865242D01*
X173019454Y-65865242D02*
X173105169Y-65940480D01*
X173105169Y-65940480D02*
X173148026Y-66015718D01*
X173148026Y-66015718D02*
X173190883Y-66166194D01*
X173190883Y-66166194D02*
X173190883Y-66316670D01*
X173190883Y-66316670D02*
X173148026Y-66542384D01*
X173148026Y-66542384D02*
X172633740Y-67445242D01*
X172633740Y-67445242D02*
X173190883Y-67445242D01*
X173448026Y-65865242D02*
X173748026Y-67445242D01*
X173748026Y-67445242D02*
X174048026Y-65865242D01*
X172290883Y-68408954D02*
X171862311Y-68408954D01*
X171862311Y-68408954D02*
X171819454Y-69161335D01*
X171819454Y-69161335D02*
X171862311Y-69086096D01*
X171862311Y-69086096D02*
X171948026Y-69010858D01*
X171948026Y-69010858D02*
X172162311Y-69010858D01*
X172162311Y-69010858D02*
X172248026Y-69086096D01*
X172248026Y-69086096D02*
X172290883Y-69161335D01*
X172290883Y-69161335D02*
X172333740Y-69311811D01*
X172333740Y-69311811D02*
X172333740Y-69688001D01*
X172333740Y-69688001D02*
X172290883Y-69838477D01*
X172290883Y-69838477D02*
X172248026Y-69913716D01*
X172248026Y-69913716D02*
X172162311Y-69988954D01*
X172162311Y-69988954D02*
X171948026Y-69988954D01*
X171948026Y-69988954D02*
X171862311Y-69913716D01*
X171862311Y-69913716D02*
X171819454Y-69838477D01*
X172590883Y-68408954D02*
X172890883Y-69988954D01*
X172890883Y-69988954D02*
X173190883Y-68408954D01*
X171776597Y-70952666D02*
X172333740Y-70952666D01*
X172333740Y-70952666D02*
X172033740Y-71554570D01*
X172033740Y-71554570D02*
X172162311Y-71554570D01*
X172162311Y-71554570D02*
X172248026Y-71629808D01*
X172248026Y-71629808D02*
X172290883Y-71705047D01*
X172290883Y-71705047D02*
X172333740Y-71855523D01*
X172333740Y-71855523D02*
X172333740Y-72231713D01*
X172333740Y-72231713D02*
X172290883Y-72382189D01*
X172290883Y-72382189D02*
X172248026Y-72457428D01*
X172248026Y-72457428D02*
X172162311Y-72532666D01*
X172162311Y-72532666D02*
X171905168Y-72532666D01*
X171905168Y-72532666D02*
X171819454Y-72457428D01*
X171819454Y-72457428D02*
X171776597Y-72382189D01*
X172590883Y-70952666D02*
X172890883Y-72532666D01*
X172890883Y-72532666D02*
X173190883Y-70952666D01*
X173405169Y-70952666D02*
X173962312Y-70952666D01*
X173962312Y-70952666D02*
X173662312Y-71554570D01*
X173662312Y-71554570D02*
X173790883Y-71554570D01*
X173790883Y-71554570D02*
X173876598Y-71629808D01*
X173876598Y-71629808D02*
X173919455Y-71705047D01*
X173919455Y-71705047D02*
X173962312Y-71855523D01*
X173962312Y-71855523D02*
X173962312Y-72231713D01*
X173962312Y-72231713D02*
X173919455Y-72382189D01*
X173919455Y-72382189D02*
X173876598Y-72457428D01*
X173876598Y-72457428D02*
X173790883Y-72532666D01*
X173790883Y-72532666D02*
X173533740Y-72532666D01*
X173533740Y-72532666D02*
X173448026Y-72457428D01*
X173448026Y-72457428D02*
X173405169Y-72382189D01*
X172333740Y-73571616D02*
X172248026Y-73496378D01*
X172248026Y-73496378D02*
X172119454Y-73496378D01*
X172119454Y-73496378D02*
X171990883Y-73571616D01*
X171990883Y-73571616D02*
X171905168Y-73722092D01*
X171905168Y-73722092D02*
X171862311Y-73872568D01*
X171862311Y-73872568D02*
X171819454Y-74173520D01*
X171819454Y-74173520D02*
X171819454Y-74399235D01*
X171819454Y-74399235D02*
X171862311Y-74700187D01*
X171862311Y-74700187D02*
X171905168Y-74850663D01*
X171905168Y-74850663D02*
X171990883Y-75001140D01*
X171990883Y-75001140D02*
X172119454Y-75076378D01*
X172119454Y-75076378D02*
X172205168Y-75076378D01*
X172205168Y-75076378D02*
X172333740Y-75001140D01*
X172333740Y-75001140D02*
X172376597Y-74925901D01*
X172376597Y-74925901D02*
X172376597Y-74399235D01*
X172376597Y-74399235D02*
X172205168Y-74399235D01*
X172762311Y-75076378D02*
X172762311Y-73496378D01*
X172762311Y-73496378D02*
X173276597Y-75076378D01*
X173276597Y-75076378D02*
X173276597Y-73496378D01*
X173705168Y-75076378D02*
X173705168Y-73496378D01*
X173705168Y-73496378D02*
X173919454Y-73496378D01*
X173919454Y-73496378D02*
X174048025Y-73571616D01*
X174048025Y-73571616D02*
X174133740Y-73722092D01*
X174133740Y-73722092D02*
X174176597Y-73872568D01*
X174176597Y-73872568D02*
X174219454Y-74173520D01*
X174219454Y-74173520D02*
X174219454Y-74399235D01*
X174219454Y-74399235D02*
X174176597Y-74700187D01*
X174176597Y-74700187D02*
X174133740Y-74850663D01*
X174133740Y-74850663D02*
X174048025Y-75001140D01*
X174048025Y-75001140D02*
X173919454Y-75076378D01*
X173919454Y-75076378D02*
X173705168Y-75076378D01*
X172333740Y-76115328D02*
X172248026Y-76040090D01*
X172248026Y-76040090D02*
X172119454Y-76040090D01*
X172119454Y-76040090D02*
X171990883Y-76115328D01*
X171990883Y-76115328D02*
X171905168Y-76265804D01*
X171905168Y-76265804D02*
X171862311Y-76416280D01*
X171862311Y-76416280D02*
X171819454Y-76717232D01*
X171819454Y-76717232D02*
X171819454Y-76942947D01*
X171819454Y-76942947D02*
X171862311Y-77243899D01*
X171862311Y-77243899D02*
X171905168Y-77394375D01*
X171905168Y-77394375D02*
X171990883Y-77544852D01*
X171990883Y-77544852D02*
X172119454Y-77620090D01*
X172119454Y-77620090D02*
X172205168Y-77620090D01*
X172205168Y-77620090D02*
X172333740Y-77544852D01*
X172333740Y-77544852D02*
X172376597Y-77469613D01*
X172376597Y-77469613D02*
X172376597Y-76942947D01*
X172376597Y-76942947D02*
X172205168Y-76942947D01*
X172762311Y-77620090D02*
X172762311Y-76040090D01*
X172762311Y-76040090D02*
X173276597Y-77620090D01*
X173276597Y-77620090D02*
X173276597Y-76040090D01*
X173705168Y-77620090D02*
X173705168Y-76040090D01*
X173705168Y-76040090D02*
X173919454Y-76040090D01*
X173919454Y-76040090D02*
X174048025Y-76115328D01*
X174048025Y-76115328D02*
X174133740Y-76265804D01*
X174133740Y-76265804D02*
X174176597Y-76416280D01*
X174176597Y-76416280D02*
X174219454Y-76717232D01*
X174219454Y-76717232D02*
X174219454Y-76942947D01*
X174219454Y-76942947D02*
X174176597Y-77243899D01*
X174176597Y-77243899D02*
X174133740Y-77394375D01*
X174133740Y-77394375D02*
X174048025Y-77544852D01*
X174048025Y-77544852D02*
X173919454Y-77620090D01*
X173919454Y-77620090D02*
X173705168Y-77620090D01*
X171862311Y-80163802D02*
X171862311Y-78583802D01*
X172290882Y-80163802D02*
X172290882Y-78583802D01*
X173233739Y-80013325D02*
X173190882Y-80088564D01*
X173190882Y-80088564D02*
X173062310Y-80163802D01*
X173062310Y-80163802D02*
X172976596Y-80163802D01*
X172976596Y-80163802D02*
X172848025Y-80088564D01*
X172848025Y-80088564D02*
X172762310Y-79938087D01*
X172762310Y-79938087D02*
X172719453Y-79787611D01*
X172719453Y-79787611D02*
X172676596Y-79486659D01*
X172676596Y-79486659D02*
X172676596Y-79260944D01*
X172676596Y-79260944D02*
X172719453Y-78959992D01*
X172719453Y-78959992D02*
X172762310Y-78809516D01*
X172762310Y-78809516D02*
X172848025Y-78659040D01*
X172848025Y-78659040D02*
X172976596Y-78583802D01*
X172976596Y-78583802D02*
X173062310Y-78583802D01*
X173062310Y-78583802D02*
X173190882Y-78659040D01*
X173190882Y-78659040D02*
X173233739Y-78734278D01*
X174133739Y-80163802D02*
X173833739Y-79411421D01*
X173619453Y-80163802D02*
X173619453Y-78583802D01*
X173619453Y-78583802D02*
X173962310Y-78583802D01*
X173962310Y-78583802D02*
X174048025Y-78659040D01*
X174048025Y-78659040D02*
X174090882Y-78734278D01*
X174090882Y-78734278D02*
X174133739Y-78884754D01*
X174133739Y-78884754D02*
X174133739Y-79110468D01*
X174133739Y-79110468D02*
X174090882Y-79260944D01*
X174090882Y-79260944D02*
X174048025Y-79336183D01*
X174048025Y-79336183D02*
X173962310Y-79411421D01*
X173962310Y-79411421D02*
X173619453Y-79411421D01*
X174476596Y-80088564D02*
X174605168Y-80163802D01*
X174605168Y-80163802D02*
X174819453Y-80163802D01*
X174819453Y-80163802D02*
X174905168Y-80088564D01*
X174905168Y-80088564D02*
X174948025Y-80013325D01*
X174948025Y-80013325D02*
X174990882Y-79862849D01*
X174990882Y-79862849D02*
X174990882Y-79712373D01*
X174990882Y-79712373D02*
X174948025Y-79561897D01*
X174948025Y-79561897D02*
X174905168Y-79486659D01*
X174905168Y-79486659D02*
X174819453Y-79411421D01*
X174819453Y-79411421D02*
X174648025Y-79336183D01*
X174648025Y-79336183D02*
X174562310Y-79260944D01*
X174562310Y-79260944D02*
X174519453Y-79185706D01*
X174519453Y-79185706D02*
X174476596Y-79035230D01*
X174476596Y-79035230D02*
X174476596Y-78884754D01*
X174476596Y-78884754D02*
X174519453Y-78734278D01*
X174519453Y-78734278D02*
X174562310Y-78659040D01*
X174562310Y-78659040D02*
X174648025Y-78583802D01*
X174648025Y-78583802D02*
X174862310Y-78583802D01*
X174862310Y-78583802D02*
X174990882Y-78659040D01*
X175248025Y-78583802D02*
X175762311Y-78583802D01*
X175505168Y-80163802D02*
X175505168Y-78583802D01*
X171819454Y-82632276D02*
X171948026Y-82707514D01*
X171948026Y-82707514D02*
X172162311Y-82707514D01*
X172162311Y-82707514D02*
X172248026Y-82632276D01*
X172248026Y-82632276D02*
X172290883Y-82557037D01*
X172290883Y-82557037D02*
X172333740Y-82406561D01*
X172333740Y-82406561D02*
X172333740Y-82256085D01*
X172333740Y-82256085D02*
X172290883Y-82105609D01*
X172290883Y-82105609D02*
X172248026Y-82030371D01*
X172248026Y-82030371D02*
X172162311Y-81955133D01*
X172162311Y-81955133D02*
X171990883Y-81879895D01*
X171990883Y-81879895D02*
X171905168Y-81804656D01*
X171905168Y-81804656D02*
X171862311Y-81729418D01*
X171862311Y-81729418D02*
X171819454Y-81578942D01*
X171819454Y-81578942D02*
X171819454Y-81428466D01*
X171819454Y-81428466D02*
X171862311Y-81277990D01*
X171862311Y-81277990D02*
X171905168Y-81202752D01*
X171905168Y-81202752D02*
X171990883Y-81127514D01*
X171990883Y-81127514D02*
X172205168Y-81127514D01*
X172205168Y-81127514D02*
X172333740Y-81202752D01*
X172719454Y-82707514D02*
X172719454Y-81127514D01*
X172719454Y-81127514D02*
X172933740Y-81127514D01*
X172933740Y-81127514D02*
X173062311Y-81202752D01*
X173062311Y-81202752D02*
X173148026Y-81353228D01*
X173148026Y-81353228D02*
X173190883Y-81503704D01*
X173190883Y-81503704D02*
X173233740Y-81804656D01*
X173233740Y-81804656D02*
X173233740Y-82030371D01*
X173233740Y-82030371D02*
X173190883Y-82331323D01*
X173190883Y-82331323D02*
X173148026Y-82481799D01*
X173148026Y-82481799D02*
X173062311Y-82632276D01*
X173062311Y-82632276D02*
X172933740Y-82707514D01*
X172933740Y-82707514D02*
X172719454Y-82707514D01*
X173919454Y-81879895D02*
X174048026Y-81955133D01*
X174048026Y-81955133D02*
X174090883Y-82030371D01*
X174090883Y-82030371D02*
X174133740Y-82180847D01*
X174133740Y-82180847D02*
X174133740Y-82406561D01*
X174133740Y-82406561D02*
X174090883Y-82557037D01*
X174090883Y-82557037D02*
X174048026Y-82632276D01*
X174048026Y-82632276D02*
X173962311Y-82707514D01*
X173962311Y-82707514D02*
X173619454Y-82707514D01*
X173619454Y-82707514D02*
X173619454Y-81127514D01*
X173619454Y-81127514D02*
X173919454Y-81127514D01*
X173919454Y-81127514D02*
X174005169Y-81202752D01*
X174005169Y-81202752D02*
X174048026Y-81277990D01*
X174048026Y-81277990D02*
X174090883Y-81428466D01*
X174090883Y-81428466D02*
X174090883Y-81578942D01*
X174090883Y-81578942D02*
X174048026Y-81729418D01*
X174048026Y-81729418D02*
X174005169Y-81804656D01*
X174005169Y-81804656D02*
X173919454Y-81879895D01*
X173919454Y-81879895D02*
X173619454Y-81879895D01*
X171819454Y-85175988D02*
X171948026Y-85251226D01*
X171948026Y-85251226D02*
X172162311Y-85251226D01*
X172162311Y-85251226D02*
X172248026Y-85175988D01*
X172248026Y-85175988D02*
X172290883Y-85100749D01*
X172290883Y-85100749D02*
X172333740Y-84950273D01*
X172333740Y-84950273D02*
X172333740Y-84799797D01*
X172333740Y-84799797D02*
X172290883Y-84649321D01*
X172290883Y-84649321D02*
X172248026Y-84574083D01*
X172248026Y-84574083D02*
X172162311Y-84498845D01*
X172162311Y-84498845D02*
X171990883Y-84423607D01*
X171990883Y-84423607D02*
X171905168Y-84348368D01*
X171905168Y-84348368D02*
X171862311Y-84273130D01*
X171862311Y-84273130D02*
X171819454Y-84122654D01*
X171819454Y-84122654D02*
X171819454Y-83972178D01*
X171819454Y-83972178D02*
X171862311Y-83821702D01*
X171862311Y-83821702D02*
X171905168Y-83746464D01*
X171905168Y-83746464D02*
X171990883Y-83671226D01*
X171990883Y-83671226D02*
X172205168Y-83671226D01*
X172205168Y-83671226D02*
X172333740Y-83746464D01*
X172719454Y-85251226D02*
X172719454Y-83671226D01*
X172719454Y-83671226D02*
X172933740Y-83671226D01*
X172933740Y-83671226D02*
X173062311Y-83746464D01*
X173062311Y-83746464D02*
X173148026Y-83896940D01*
X173148026Y-83896940D02*
X173190883Y-84047416D01*
X173190883Y-84047416D02*
X173233740Y-84348368D01*
X173233740Y-84348368D02*
X173233740Y-84574083D01*
X173233740Y-84574083D02*
X173190883Y-84875035D01*
X173190883Y-84875035D02*
X173148026Y-85025511D01*
X173148026Y-85025511D02*
X173062311Y-85175988D01*
X173062311Y-85175988D02*
X172933740Y-85251226D01*
X172933740Y-85251226D02*
X172719454Y-85251226D01*
X173576597Y-84799797D02*
X174005169Y-84799797D01*
X173490883Y-85251226D02*
X173790883Y-83671226D01*
X173790883Y-83671226D02*
X174090883Y-85251226D01*
X171819454Y-87719700D02*
X171948026Y-87794938D01*
X171948026Y-87794938D02*
X172162311Y-87794938D01*
X172162311Y-87794938D02*
X172248026Y-87719700D01*
X172248026Y-87719700D02*
X172290883Y-87644461D01*
X172290883Y-87644461D02*
X172333740Y-87493985D01*
X172333740Y-87493985D02*
X172333740Y-87343509D01*
X172333740Y-87343509D02*
X172290883Y-87193033D01*
X172290883Y-87193033D02*
X172248026Y-87117795D01*
X172248026Y-87117795D02*
X172162311Y-87042557D01*
X172162311Y-87042557D02*
X171990883Y-86967319D01*
X171990883Y-86967319D02*
X171905168Y-86892080D01*
X171905168Y-86892080D02*
X171862311Y-86816842D01*
X171862311Y-86816842D02*
X171819454Y-86666366D01*
X171819454Y-86666366D02*
X171819454Y-86515890D01*
X171819454Y-86515890D02*
X171862311Y-86365414D01*
X171862311Y-86365414D02*
X171905168Y-86290176D01*
X171905168Y-86290176D02*
X171990883Y-86214938D01*
X171990883Y-86214938D02*
X172205168Y-86214938D01*
X172205168Y-86214938D02*
X172333740Y-86290176D01*
X173233740Y-87644461D02*
X173190883Y-87719700D01*
X173190883Y-87719700D02*
X173062311Y-87794938D01*
X173062311Y-87794938D02*
X172976597Y-87794938D01*
X172976597Y-87794938D02*
X172848026Y-87719700D01*
X172848026Y-87719700D02*
X172762311Y-87569223D01*
X172762311Y-87569223D02*
X172719454Y-87418747D01*
X172719454Y-87418747D02*
X172676597Y-87117795D01*
X172676597Y-87117795D02*
X172676597Y-86892080D01*
X172676597Y-86892080D02*
X172719454Y-86591128D01*
X172719454Y-86591128D02*
X172762311Y-86440652D01*
X172762311Y-86440652D02*
X172848026Y-86290176D01*
X172848026Y-86290176D02*
X172976597Y-86214938D01*
X172976597Y-86214938D02*
X173062311Y-86214938D01*
X173062311Y-86214938D02*
X173190883Y-86290176D01*
X173190883Y-86290176D02*
X173233740Y-86365414D01*
X174048026Y-87794938D02*
X173619454Y-87794938D01*
X173619454Y-87794938D02*
X173619454Y-86214938D01*
D15*
X125128572Y-48106200D02*
X125214287Y-48144295D01*
X125214287Y-48144295D02*
X125357144Y-48144295D01*
X125357144Y-48144295D02*
X125414287Y-48106200D01*
X125414287Y-48106200D02*
X125442858Y-48068104D01*
X125442858Y-48068104D02*
X125471429Y-47991914D01*
X125471429Y-47991914D02*
X125471429Y-47915723D01*
X125471429Y-47915723D02*
X125442858Y-47839533D01*
X125442858Y-47839533D02*
X125414287Y-47801438D01*
X125414287Y-47801438D02*
X125357144Y-47763342D01*
X125357144Y-47763342D02*
X125242858Y-47725247D01*
X125242858Y-47725247D02*
X125185715Y-47687152D01*
X125185715Y-47687152D02*
X125157144Y-47649057D01*
X125157144Y-47649057D02*
X125128572Y-47572866D01*
X125128572Y-47572866D02*
X125128572Y-47496676D01*
X125128572Y-47496676D02*
X125157144Y-47420485D01*
X125157144Y-47420485D02*
X125185715Y-47382390D01*
X125185715Y-47382390D02*
X125242858Y-47344295D01*
X125242858Y-47344295D02*
X125385715Y-47344295D01*
X125385715Y-47344295D02*
X125471429Y-47382390D01*
X125842858Y-47344295D02*
X125957144Y-47344295D01*
X125957144Y-47344295D02*
X126014287Y-47382390D01*
X126014287Y-47382390D02*
X126071430Y-47458580D01*
X126071430Y-47458580D02*
X126100001Y-47610961D01*
X126100001Y-47610961D02*
X126100001Y-47877628D01*
X126100001Y-47877628D02*
X126071430Y-48030009D01*
X126071430Y-48030009D02*
X126014287Y-48106200D01*
X126014287Y-48106200D02*
X125957144Y-48144295D01*
X125957144Y-48144295D02*
X125842858Y-48144295D01*
X125842858Y-48144295D02*
X125785716Y-48106200D01*
X125785716Y-48106200D02*
X125728573Y-48030009D01*
X125728573Y-48030009D02*
X125700001Y-47877628D01*
X125700001Y-47877628D02*
X125700001Y-47610961D01*
X125700001Y-47610961D02*
X125728573Y-47458580D01*
X125728573Y-47458580D02*
X125785716Y-47382390D01*
X125785716Y-47382390D02*
X125842858Y-47344295D01*
X126642858Y-48144295D02*
X126357144Y-48144295D01*
X126357144Y-48144295D02*
X126357144Y-47344295D01*
X126842858Y-48144295D02*
X126842858Y-47344295D01*
X126842858Y-47344295D02*
X126985715Y-47344295D01*
X126985715Y-47344295D02*
X127071429Y-47382390D01*
X127071429Y-47382390D02*
X127128572Y-47458580D01*
X127128572Y-47458580D02*
X127157143Y-47534771D01*
X127157143Y-47534771D02*
X127185715Y-47687152D01*
X127185715Y-47687152D02*
X127185715Y-47801438D01*
X127185715Y-47801438D02*
X127157143Y-47953819D01*
X127157143Y-47953819D02*
X127128572Y-48030009D01*
X127128572Y-48030009D02*
X127071429Y-48106200D01*
X127071429Y-48106200D02*
X126985715Y-48144295D01*
X126985715Y-48144295D02*
X126842858Y-48144295D01*
X127442858Y-47725247D02*
X127642858Y-47725247D01*
X127728572Y-48144295D02*
X127442858Y-48144295D01*
X127442858Y-48144295D02*
X127442858Y-47344295D01*
X127442858Y-47344295D02*
X127728572Y-47344295D01*
X128328572Y-48144295D02*
X128128572Y-47763342D01*
X127985715Y-48144295D02*
X127985715Y-47344295D01*
X127985715Y-47344295D02*
X128214286Y-47344295D01*
X128214286Y-47344295D02*
X128271429Y-47382390D01*
X128271429Y-47382390D02*
X128300000Y-47420485D01*
X128300000Y-47420485D02*
X128328572Y-47496676D01*
X128328572Y-47496676D02*
X128328572Y-47610961D01*
X128328572Y-47610961D02*
X128300000Y-47687152D01*
X128300000Y-47687152D02*
X128271429Y-47725247D01*
X128271429Y-47725247D02*
X128214286Y-47763342D01*
X128214286Y-47763342D02*
X127985715Y-47763342D01*
X129157143Y-47344295D02*
X129271429Y-47344295D01*
X129271429Y-47344295D02*
X129328572Y-47382390D01*
X129328572Y-47382390D02*
X129385715Y-47458580D01*
X129385715Y-47458580D02*
X129414286Y-47610961D01*
X129414286Y-47610961D02*
X129414286Y-47877628D01*
X129414286Y-47877628D02*
X129385715Y-48030009D01*
X129385715Y-48030009D02*
X129328572Y-48106200D01*
X129328572Y-48106200D02*
X129271429Y-48144295D01*
X129271429Y-48144295D02*
X129157143Y-48144295D01*
X129157143Y-48144295D02*
X129100001Y-48106200D01*
X129100001Y-48106200D02*
X129042858Y-48030009D01*
X129042858Y-48030009D02*
X129014286Y-47877628D01*
X129014286Y-47877628D02*
X129014286Y-47610961D01*
X129014286Y-47610961D02*
X129042858Y-47458580D01*
X129042858Y-47458580D02*
X129100001Y-47382390D01*
X129100001Y-47382390D02*
X129157143Y-47344295D01*
X129671429Y-48144295D02*
X129671429Y-47344295D01*
X129671429Y-47344295D02*
X130014286Y-48144295D01*
X130014286Y-48144295D02*
X130014286Y-47344295D01*
X130300000Y-47725247D02*
X130500000Y-47725247D01*
X130585714Y-48144295D02*
X130300000Y-48144295D01*
X130300000Y-48144295D02*
X130300000Y-47344295D01*
X130300000Y-47344295D02*
X130585714Y-47344295D01*
X130842857Y-48068104D02*
X130871428Y-48106200D01*
X130871428Y-48106200D02*
X130842857Y-48144295D01*
X130842857Y-48144295D02*
X130814285Y-48106200D01*
X130814285Y-48106200D02*
X130842857Y-48068104D01*
X130842857Y-48068104D02*
X130842857Y-48144295D01*
X130842857Y-47649057D02*
X130871428Y-47687152D01*
X130871428Y-47687152D02*
X130842857Y-47725247D01*
X130842857Y-47725247D02*
X130814285Y-47687152D01*
X130814285Y-47687152D02*
X130842857Y-47649057D01*
X130842857Y-47649057D02*
X130842857Y-47725247D01*
X137128572Y-48106200D02*
X137214287Y-48144295D01*
X137214287Y-48144295D02*
X137357144Y-48144295D01*
X137357144Y-48144295D02*
X137414287Y-48106200D01*
X137414287Y-48106200D02*
X137442858Y-48068104D01*
X137442858Y-48068104D02*
X137471429Y-47991914D01*
X137471429Y-47991914D02*
X137471429Y-47915723D01*
X137471429Y-47915723D02*
X137442858Y-47839533D01*
X137442858Y-47839533D02*
X137414287Y-47801438D01*
X137414287Y-47801438D02*
X137357144Y-47763342D01*
X137357144Y-47763342D02*
X137242858Y-47725247D01*
X137242858Y-47725247D02*
X137185715Y-47687152D01*
X137185715Y-47687152D02*
X137157144Y-47649057D01*
X137157144Y-47649057D02*
X137128572Y-47572866D01*
X137128572Y-47572866D02*
X137128572Y-47496676D01*
X137128572Y-47496676D02*
X137157144Y-47420485D01*
X137157144Y-47420485D02*
X137185715Y-47382390D01*
X137185715Y-47382390D02*
X137242858Y-47344295D01*
X137242858Y-47344295D02*
X137385715Y-47344295D01*
X137385715Y-47344295D02*
X137471429Y-47382390D01*
X137842858Y-47344295D02*
X137957144Y-47344295D01*
X137957144Y-47344295D02*
X138014287Y-47382390D01*
X138014287Y-47382390D02*
X138071430Y-47458580D01*
X138071430Y-47458580D02*
X138100001Y-47610961D01*
X138100001Y-47610961D02*
X138100001Y-47877628D01*
X138100001Y-47877628D02*
X138071430Y-48030009D01*
X138071430Y-48030009D02*
X138014287Y-48106200D01*
X138014287Y-48106200D02*
X137957144Y-48144295D01*
X137957144Y-48144295D02*
X137842858Y-48144295D01*
X137842858Y-48144295D02*
X137785716Y-48106200D01*
X137785716Y-48106200D02*
X137728573Y-48030009D01*
X137728573Y-48030009D02*
X137700001Y-47877628D01*
X137700001Y-47877628D02*
X137700001Y-47610961D01*
X137700001Y-47610961D02*
X137728573Y-47458580D01*
X137728573Y-47458580D02*
X137785716Y-47382390D01*
X137785716Y-47382390D02*
X137842858Y-47344295D01*
X138642858Y-48144295D02*
X138357144Y-48144295D01*
X138357144Y-48144295D02*
X138357144Y-47344295D01*
X138842858Y-48144295D02*
X138842858Y-47344295D01*
X138842858Y-47344295D02*
X138985715Y-47344295D01*
X138985715Y-47344295D02*
X139071429Y-47382390D01*
X139071429Y-47382390D02*
X139128572Y-47458580D01*
X139128572Y-47458580D02*
X139157143Y-47534771D01*
X139157143Y-47534771D02*
X139185715Y-47687152D01*
X139185715Y-47687152D02*
X139185715Y-47801438D01*
X139185715Y-47801438D02*
X139157143Y-47953819D01*
X139157143Y-47953819D02*
X139128572Y-48030009D01*
X139128572Y-48030009D02*
X139071429Y-48106200D01*
X139071429Y-48106200D02*
X138985715Y-48144295D01*
X138985715Y-48144295D02*
X138842858Y-48144295D01*
X139442858Y-47725247D02*
X139642858Y-47725247D01*
X139728572Y-48144295D02*
X139442858Y-48144295D01*
X139442858Y-48144295D02*
X139442858Y-47344295D01*
X139442858Y-47344295D02*
X139728572Y-47344295D01*
X140328572Y-48144295D02*
X140128572Y-47763342D01*
X139985715Y-48144295D02*
X139985715Y-47344295D01*
X139985715Y-47344295D02*
X140214286Y-47344295D01*
X140214286Y-47344295D02*
X140271429Y-47382390D01*
X140271429Y-47382390D02*
X140300000Y-47420485D01*
X140300000Y-47420485D02*
X140328572Y-47496676D01*
X140328572Y-47496676D02*
X140328572Y-47610961D01*
X140328572Y-47610961D02*
X140300000Y-47687152D01*
X140300000Y-47687152D02*
X140271429Y-47725247D01*
X140271429Y-47725247D02*
X140214286Y-47763342D01*
X140214286Y-47763342D02*
X139985715Y-47763342D01*
X141157143Y-47344295D02*
X141271429Y-47344295D01*
X141271429Y-47344295D02*
X141328572Y-47382390D01*
X141328572Y-47382390D02*
X141385715Y-47458580D01*
X141385715Y-47458580D02*
X141414286Y-47610961D01*
X141414286Y-47610961D02*
X141414286Y-47877628D01*
X141414286Y-47877628D02*
X141385715Y-48030009D01*
X141385715Y-48030009D02*
X141328572Y-48106200D01*
X141328572Y-48106200D02*
X141271429Y-48144295D01*
X141271429Y-48144295D02*
X141157143Y-48144295D01*
X141157143Y-48144295D02*
X141100001Y-48106200D01*
X141100001Y-48106200D02*
X141042858Y-48030009D01*
X141042858Y-48030009D02*
X141014286Y-47877628D01*
X141014286Y-47877628D02*
X141014286Y-47610961D01*
X141014286Y-47610961D02*
X141042858Y-47458580D01*
X141042858Y-47458580D02*
X141100001Y-47382390D01*
X141100001Y-47382390D02*
X141157143Y-47344295D01*
X141671429Y-48144295D02*
X141671429Y-47344295D01*
X141671429Y-47344295D02*
X142014286Y-48144295D01*
X142014286Y-48144295D02*
X142014286Y-47344295D01*
X142300000Y-47725247D02*
X142500000Y-47725247D01*
X142585714Y-48144295D02*
X142300000Y-48144295D01*
X142300000Y-48144295D02*
X142300000Y-47344295D01*
X142300000Y-47344295D02*
X142585714Y-47344295D01*
X142842857Y-48068104D02*
X142871428Y-48106200D01*
X142871428Y-48106200D02*
X142842857Y-48144295D01*
X142842857Y-48144295D02*
X142814285Y-48106200D01*
X142814285Y-48106200D02*
X142842857Y-48068104D01*
X142842857Y-48068104D02*
X142842857Y-48144295D01*
X142842857Y-47649057D02*
X142871428Y-47687152D01*
X142871428Y-47687152D02*
X142842857Y-47725247D01*
X142842857Y-47725247D02*
X142814285Y-47687152D01*
X142814285Y-47687152D02*
X142842857Y-47649057D01*
X142842857Y-47649057D02*
X142842857Y-47725247D01*
X129682969Y-81614295D02*
X129682969Y-82185723D01*
X129682969Y-82185723D02*
X129654398Y-82300009D01*
X129654398Y-82300009D02*
X129597255Y-82376200D01*
X129597255Y-82376200D02*
X129511541Y-82414295D01*
X129511541Y-82414295D02*
X129454398Y-82414295D01*
X130282969Y-82414295D02*
X129940112Y-82414295D01*
X130111541Y-82414295D02*
X130111541Y-81614295D01*
X130111541Y-81614295D02*
X130054398Y-81728580D01*
X130054398Y-81728580D02*
X129997255Y-81804771D01*
X129997255Y-81804771D02*
X129940112Y-81842866D01*
X87182969Y-80994295D02*
X87182969Y-81565723D01*
X87182969Y-81565723D02*
X87154398Y-81680009D01*
X87154398Y-81680009D02*
X87097255Y-81756200D01*
X87097255Y-81756200D02*
X87011541Y-81794295D01*
X87011541Y-81794295D02*
X86954398Y-81794295D01*
X87725827Y-81260961D02*
X87725827Y-81794295D01*
X87582969Y-80956200D02*
X87440112Y-81527628D01*
X87440112Y-81527628D02*
X87811541Y-81527628D01*
X274238095Y-39154819D02*
X274238095Y-38154819D01*
X274238095Y-38631009D02*
X274809523Y-38631009D01*
X274809523Y-39154819D02*
X274809523Y-38154819D01*
X275190476Y-38154819D02*
X275809523Y-38154819D01*
X275809523Y-38154819D02*
X275476190Y-38535771D01*
X275476190Y-38535771D02*
X275619047Y-38535771D01*
X275619047Y-38535771D02*
X275714285Y-38583390D01*
X275714285Y-38583390D02*
X275761904Y-38631009D01*
X275761904Y-38631009D02*
X275809523Y-38726247D01*
X275809523Y-38726247D02*
X275809523Y-38964342D01*
X275809523Y-38964342D02*
X275761904Y-39059580D01*
X275761904Y-39059580D02*
X275714285Y-39107200D01*
X275714285Y-39107200D02*
X275619047Y-39154819D01*
X275619047Y-39154819D02*
X275333333Y-39154819D01*
X275333333Y-39154819D02*
X275238095Y-39107200D01*
X275238095Y-39107200D02*
X275190476Y-39059580D01*
X143642969Y-82250415D02*
X143642969Y-82821843D01*
X143642969Y-82821843D02*
X143614398Y-82936129D01*
X143614398Y-82936129D02*
X143557255Y-83012320D01*
X143557255Y-83012320D02*
X143471541Y-83050415D01*
X143471541Y-83050415D02*
X143414398Y-83050415D01*
X143900112Y-82326605D02*
X143928684Y-82288510D01*
X143928684Y-82288510D02*
X143985827Y-82250415D01*
X143985827Y-82250415D02*
X144128684Y-82250415D01*
X144128684Y-82250415D02*
X144185827Y-82288510D01*
X144185827Y-82288510D02*
X144214398Y-82326605D01*
X144214398Y-82326605D02*
X144242969Y-82402796D01*
X144242969Y-82402796D02*
X144242969Y-82478986D01*
X144242969Y-82478986D02*
X144214398Y-82593272D01*
X144214398Y-82593272D02*
X143871541Y-83050415D01*
X143871541Y-83050415D02*
X144242969Y-83050415D01*
X170682969Y-89834295D02*
X170682969Y-90405723D01*
X170682969Y-90405723D02*
X170654398Y-90520009D01*
X170654398Y-90520009D02*
X170597255Y-90596200D01*
X170597255Y-90596200D02*
X170511541Y-90634295D01*
X170511541Y-90634295D02*
X170454398Y-90634295D01*
X171254398Y-89834295D02*
X170968684Y-89834295D01*
X170968684Y-89834295D02*
X170940112Y-90215247D01*
X170940112Y-90215247D02*
X170968684Y-90177152D01*
X170968684Y-90177152D02*
X171025827Y-90139057D01*
X171025827Y-90139057D02*
X171168684Y-90139057D01*
X171168684Y-90139057D02*
X171225827Y-90177152D01*
X171225827Y-90177152D02*
X171254398Y-90215247D01*
X171254398Y-90215247D02*
X171282969Y-90291438D01*
X171282969Y-90291438D02*
X171282969Y-90481914D01*
X171282969Y-90481914D02*
X171254398Y-90558104D01*
X171254398Y-90558104D02*
X171225827Y-90596200D01*
X171225827Y-90596200D02*
X171168684Y-90634295D01*
X171168684Y-90634295D02*
X171025827Y-90634295D01*
X171025827Y-90634295D02*
X170968684Y-90596200D01*
X170968684Y-90596200D02*
X170940112Y-90558104D01*
X157642969Y-81614295D02*
X157642969Y-82185723D01*
X157642969Y-82185723D02*
X157614398Y-82300009D01*
X157614398Y-82300009D02*
X157557255Y-82376200D01*
X157557255Y-82376200D02*
X157471541Y-82414295D01*
X157471541Y-82414295D02*
X157414398Y-82414295D01*
X157871541Y-81614295D02*
X158242969Y-81614295D01*
X158242969Y-81614295D02*
X158042969Y-81919057D01*
X158042969Y-81919057D02*
X158128684Y-81919057D01*
X158128684Y-81919057D02*
X158185827Y-81957152D01*
X158185827Y-81957152D02*
X158214398Y-81995247D01*
X158214398Y-81995247D02*
X158242969Y-82071438D01*
X158242969Y-82071438D02*
X158242969Y-82261914D01*
X158242969Y-82261914D02*
X158214398Y-82338104D01*
X158214398Y-82338104D02*
X158185827Y-82376200D01*
X158185827Y-82376200D02*
X158128684Y-82414295D01*
X158128684Y-82414295D02*
X157957255Y-82414295D01*
X157957255Y-82414295D02*
X157900112Y-82376200D01*
X157900112Y-82376200D02*
X157871541Y-82338104D01*
D16*
%TO.C,JP7*%
X141400000Y-61000000D02*
X138600000Y-61000000D01*
X141400000Y-59000000D02*
X141400000Y-61000000D01*
X138600000Y-61000000D02*
X138600000Y-59000000D01*
X138600000Y-59000000D02*
X141400000Y-59000000D01*
%TO.C,JP2*%
X126600000Y-54000000D02*
X129400000Y-54000000D01*
X126600000Y-56000000D02*
X126600000Y-54000000D01*
X129400000Y-54000000D02*
X129400000Y-56000000D01*
X129400000Y-56000000D02*
X126600000Y-56000000D01*
%TO.C,JP5*%
X141400000Y-51000000D02*
X138600000Y-51000000D01*
X141400000Y-49000000D02*
X141400000Y-51000000D01*
X138600000Y-51000000D02*
X138600000Y-49000000D01*
X138600000Y-49000000D02*
X141400000Y-49000000D01*
%TO.C,J1*%
X123320000Y-88120000D02*
X123320000Y-89120000D01*
X123320000Y-89120000D02*
X124320000Y-88620000D01*
X124320000Y-88620000D02*
X123320000Y-88120000D01*
X124710000Y-83410000D02*
X133830000Y-83410000D01*
X124710000Y-98000000D02*
X126020000Y-98000000D01*
X124710000Y-116690000D02*
X124710000Y-83410000D01*
X126020000Y-84710000D02*
X132520000Y-84710000D01*
X126020000Y-98000000D02*
X126020000Y-84710000D01*
X126020000Y-102100000D02*
X124710000Y-102100000D01*
X126020000Y-102100000D02*
X126020000Y-102100000D01*
X126020000Y-115390000D02*
X126020000Y-102100000D01*
X132520000Y-84710000D02*
X132520000Y-115390000D01*
X132520000Y-115390000D02*
X126020000Y-115390000D01*
X133830000Y-83410000D02*
X133830000Y-116690000D01*
X133830000Y-116690000D02*
X124710000Y-116690000D01*
%TO.C,J4*%
X80820000Y-87500000D02*
X80820000Y-88500000D01*
X80820000Y-88500000D02*
X81820000Y-88000000D01*
X81820000Y-88000000D02*
X80820000Y-87500000D01*
X82210000Y-82790000D02*
X91330000Y-82790000D01*
X82210000Y-91030000D02*
X83520000Y-91030000D01*
X82210000Y-103370000D02*
X82210000Y-82790000D01*
X83520000Y-84090000D02*
X90020000Y-84090000D01*
X83520000Y-91030000D02*
X83520000Y-84090000D01*
X83520000Y-95130000D02*
X82210000Y-95130000D01*
X83520000Y-95130000D02*
X83520000Y-95130000D01*
X83520000Y-102070000D02*
X83520000Y-95130000D01*
X90020000Y-84090000D02*
X90020000Y-102070000D01*
X90020000Y-102070000D02*
X83520000Y-102070000D01*
X91330000Y-82790000D02*
X91330000Y-103370000D01*
X91330000Y-103370000D02*
X82210000Y-103370000D01*
%TO.C,J6*%
X167670000Y-62810000D02*
X169000000Y-62810000D01*
X167670000Y-64140000D02*
X167670000Y-62810000D01*
X167670000Y-65410000D02*
X167670000Y-88330000D01*
X167670000Y-65410000D02*
X170330000Y-65410000D01*
X167670000Y-88330000D02*
X170330000Y-88330000D01*
X170330000Y-65410000D02*
X170330000Y-88330000D01*
%TO.C,JP8*%
X138600000Y-64000000D02*
X141400000Y-64000000D01*
X138600000Y-66000000D02*
X138600000Y-64000000D01*
X141400000Y-64000000D02*
X141400000Y-66000000D01*
X141400000Y-66000000D02*
X138600000Y-66000000D01*
%TO.C,JP4*%
X129400000Y-66000000D02*
X126600000Y-66000000D01*
X129400000Y-64000000D02*
X129400000Y-66000000D01*
X126600000Y-66000000D02*
X126600000Y-64000000D01*
X126600000Y-64000000D02*
X129400000Y-64000000D01*
%TO.C,J2*%
X137280000Y-88120000D02*
X137280000Y-89120000D01*
X137280000Y-89120000D02*
X138280000Y-88620000D01*
X138280000Y-88620000D02*
X137280000Y-88120000D01*
X138670000Y-83410000D02*
X147790000Y-83410000D01*
X138670000Y-98000000D02*
X139980000Y-98000000D01*
X138670000Y-116690000D02*
X138670000Y-83410000D01*
X139980000Y-84710000D02*
X146480000Y-84710000D01*
X139980000Y-98000000D02*
X139980000Y-84710000D01*
X139980000Y-102100000D02*
X138670000Y-102100000D01*
X139980000Y-102100000D02*
X139980000Y-102100000D01*
X139980000Y-115390000D02*
X139980000Y-102100000D01*
X146480000Y-84710000D02*
X146480000Y-115390000D01*
X146480000Y-115390000D02*
X139980000Y-115390000D01*
X147790000Y-83410000D02*
X147790000Y-116690000D01*
X147790000Y-116690000D02*
X138670000Y-116690000D01*
%TO.C,JP6*%
X141400000Y-56000000D02*
X138600000Y-56000000D01*
X141400000Y-54000000D02*
X141400000Y-56000000D01*
X138600000Y-56000000D02*
X138600000Y-54000000D01*
X138600000Y-54000000D02*
X141400000Y-54000000D01*
%TO.C,J5*%
X164320000Y-96340000D02*
X164320000Y-97340000D01*
X164320000Y-97340000D02*
X165320000Y-96840000D01*
X165320000Y-96840000D02*
X164320000Y-96340000D01*
X165710000Y-91630000D02*
X174830000Y-91630000D01*
X165710000Y-99870000D02*
X167020000Y-99870000D01*
X165710000Y-112210000D02*
X165710000Y-91630000D01*
X167020000Y-92930000D02*
X173520000Y-92930000D01*
X167020000Y-99870000D02*
X167020000Y-92930000D01*
X167020000Y-103970000D02*
X165710000Y-103970000D01*
X167020000Y-103970000D02*
X167020000Y-103970000D01*
X167020000Y-110910000D02*
X167020000Y-103970000D01*
X173520000Y-92930000D02*
X173520000Y-110910000D01*
X173520000Y-110910000D02*
X167020000Y-110910000D01*
X174830000Y-91630000D02*
X174830000Y-112210000D01*
X174830000Y-112210000D02*
X165710000Y-112210000D01*
%TO.C,J3*%
X151280000Y-88120000D02*
X151280000Y-89120000D01*
X151280000Y-89120000D02*
X152280000Y-88620000D01*
X152280000Y-88620000D02*
X151280000Y-88120000D01*
X152670000Y-83410000D02*
X161790000Y-83410000D01*
X152670000Y-98000000D02*
X153980000Y-98000000D01*
X152670000Y-116690000D02*
X152670000Y-83410000D01*
X153980000Y-84710000D02*
X160480000Y-84710000D01*
X153980000Y-98000000D02*
X153980000Y-84710000D01*
X153980000Y-102100000D02*
X152670000Y-102100000D01*
X153980000Y-102100000D02*
X153980000Y-102100000D01*
X153980000Y-115390000D02*
X153980000Y-102100000D01*
X160480000Y-84710000D02*
X160480000Y-115390000D01*
X160480000Y-115390000D02*
X153980000Y-115390000D01*
X161790000Y-83410000D02*
X161790000Y-116690000D01*
X161790000Y-116690000D02*
X152670000Y-116690000D01*
%TO.C,JP3*%
X126600000Y-59000000D02*
X129400000Y-59000000D01*
X126600000Y-61000000D02*
X126600000Y-59000000D01*
X129400000Y-59000000D02*
X129400000Y-61000000D01*
X129400000Y-61000000D02*
X126600000Y-61000000D01*
%TO.C,JP1*%
X126600000Y-49000000D02*
X129400000Y-49000000D01*
X126600000Y-51000000D02*
X126600000Y-49000000D01*
X129400000Y-49000000D02*
X129400000Y-51000000D01*
X129400000Y-51000000D02*
X126600000Y-51000000D01*
%TD*%
M02*
