%TF.GenerationSoftware,KiCad,Pcbnew,9.0.6-9.0.6~ubuntu22.04.1*%
%TF.CreationDate,2026-01-07T10:26:52-05:00*%
%TF.ProjectId,Hyperdrift-Display-Controller,48797065-7264-4726-9966-742d44697370,rev?*%
%TF.SameCoordinates,Original*%
%TF.FileFunction,Copper,L1,Top*%
%TF.FilePolarity,Positive*%
%FSLAX46Y46*%
G04 Gerber Fmt 4.6, Leading zero omitted, Abs format (unit mm)*
G04 Created by KiCad (PCBNEW 9.0.6-9.0.6~ubuntu22.04.1) date 2026-01-07 10:26:52*
%MOMM*%
%LPD*%
G01*
G04 APERTURE LIST*
G04 Aperture macros list*
%AMRoundRect*
0 Rectangle with rounded corners*
0 $1 Rounding radius*
0 $2 $3 $4 $5 $6 $7 $8 $9 X,Y pos of 4 corners*
0 Add a 4 corners polygon primitive as box body*
4,1,4,$2,$3,$4,$5,$6,$7,$8,$9,$2,$3,0*
0 Add four circle primitives for the rounded corners*
1,1,$1+$1,$2,$3*
1,1,$1+$1,$4,$5*
1,1,$1+$1,$6,$7*
1,1,$1+$1,$8,$9*
0 Add four rect primitives between the rounded corners*
20,1,$1+$1,$2,$3,$4,$5,0*
20,1,$1+$1,$4,$5,$6,$7,0*
20,1,$1+$1,$6,$7,$8,$9,0*
20,1,$1+$1,$8,$9,$2,$3,0*%
%AMFreePoly0*
4,1,6,0.500000,-0.750000,-0.650000,-0.750000,-0.150000,0.000000,-0.650000,0.750000,0.500000,0.750000,0.500000,-0.750000,0.500000,-0.750000,$1*%
%AMFreePoly1*
4,1,6,1.000000,0.000000,0.500000,-0.750000,-0.500000,-0.750000,-0.500000,0.750000,0.500000,0.750000,1.000000,0.000000,1.000000,0.000000,$1*%
G04 Aperture macros list end*
%TA.AperFunction,SMDPad,CuDef*%
%ADD10FreePoly0,0.000000*%
%TD*%
%TA.AperFunction,SMDPad,CuDef*%
%ADD11FreePoly1,0.000000*%
%TD*%
%TA.AperFunction,SMDPad,CuDef*%
%ADD12FreePoly0,180.000000*%
%TD*%
%TA.AperFunction,SMDPad,CuDef*%
%ADD13FreePoly1,180.000000*%
%TD*%
%TA.AperFunction,ComponentPad*%
%ADD14RoundRect,0.250000X-0.600000X-0.600000X0.600000X-0.600000X0.600000X0.600000X-0.600000X0.600000X0*%
%TD*%
%TA.AperFunction,ComponentPad*%
%ADD15C,1.700000*%
%TD*%
%TA.AperFunction,ComponentPad*%
%ADD16R,1.700000X1.700000*%
%TD*%
%TA.AperFunction,ComponentPad*%
%ADD17O,1.700000X1.700000*%
%TD*%
%TA.AperFunction,ViaPad*%
%ADD18C,0.600000*%
%TD*%
%TA.AperFunction,Conductor*%
%ADD19C,0.150000*%
%TD*%
%TA.AperFunction,Conductor*%
%ADD20C,0.250000*%
%TD*%
G04 APERTURE END LIST*
D10*
%TO.P,JP7,2,B*%
%TO.N,ADDR1*%
X140725000Y-60000000D03*
D11*
%TO.P,JP7,1,A*%
%TO.N,SCL*%
X139275000Y-60000000D03*
%TD*%
D12*
%TO.P,JP2,2,B*%
%TO.N,ADDR2*%
X127275000Y-55000000D03*
D13*
%TO.P,JP2,1,A*%
%TO.N,SDA*%
X128725000Y-55000000D03*
%TD*%
D10*
%TO.P,JP5,2,B*%
%TO.N,ADDR1*%
X140725000Y-50000000D03*
D11*
%TO.P,JP5,1,A*%
%TO.N,GND*%
X139275000Y-50000000D03*
%TD*%
D14*
%TO.P,J1,1,Pin_1*%
%TO.N,SINK_{00}*%
X128000000Y-88620000D03*
D15*
%TO.P,J1,2,Pin_2*%
%TO.N,SINK_{01}*%
X130540000Y-88620000D03*
%TO.P,J1,3,Pin_3*%
%TO.N,SINK_{02}*%
X128000000Y-91160000D03*
%TO.P,J1,4,Pin_4*%
%TO.N,SINK_{03}*%
X130540000Y-91160000D03*
%TO.P,J1,5,Pin_5*%
%TO.N,SRC_{00}*%
X128000000Y-93700000D03*
%TO.P,J1,6,Pin_6*%
%TO.N,SRC_{01}*%
X130540000Y-93700000D03*
%TO.P,J1,7,Pin_7*%
%TO.N,SRC_{02}*%
X128000000Y-96240000D03*
%TO.P,J1,8,Pin_8*%
%TO.N,SRC_{03}*%
X130540000Y-96240000D03*
%TO.P,J1,9,Pin_9*%
%TO.N,SRC_{04}*%
X128000000Y-98780000D03*
%TO.P,J1,10,Pin_10*%
%TO.N,SRC_{05}*%
X130540000Y-98780000D03*
%TO.P,J1,11,Pin_11*%
%TO.N,SRC_{06}*%
X128000000Y-101320000D03*
%TO.P,J1,12,Pin_12*%
%TO.N,SRC_{07}*%
X130540000Y-101320000D03*
%TO.P,J1,13,Pin_13*%
%TO.N,SRC_{08}*%
X128000000Y-103860000D03*
%TO.P,J1,14,Pin_14*%
%TO.N,SRC_{09}*%
X130540000Y-103860000D03*
%TO.P,J1,15,Pin_15*%
%TO.N,SRC_{10}*%
X128000000Y-106400000D03*
%TO.P,J1,16,Pin_16*%
%TO.N,SRC_{11}*%
X130540000Y-106400000D03*
%TO.P,J1,17,Pin_17*%
%TO.N,SRC_{12}*%
X128000000Y-108940000D03*
%TO.P,J1,18,Pin_18*%
%TO.N,SRC_{13}*%
X130540000Y-108940000D03*
%TO.P,J1,19,Pin_19*%
%TO.N,SRC_{14}*%
X128000000Y-111480000D03*
%TO.P,J1,20,Pin_20*%
%TO.N,SRC_{15}*%
X130540000Y-111480000D03*
%TD*%
D14*
%TO.P,J4,1,Pin_1*%
%TO.N,VIN*%
X85500000Y-88000000D03*
D15*
%TO.P,J4,2,Pin_2*%
X88040000Y-88000000D03*
%TO.P,J4,3,Pin_3*%
X85500000Y-90540000D03*
%TO.P,J4,4,Pin_4*%
%TO.N,GND*%
X88040000Y-90540000D03*
%TO.P,J4,5,Pin_5*%
X85500000Y-93080000D03*
%TO.P,J4,6,Pin_6*%
X88040000Y-93080000D03*
%TO.P,J4,7,Pin_7*%
%TO.N,SDA*%
X85500000Y-95620000D03*
%TO.P,J4,8,Pin_8*%
%TO.N,SCL*%
X88040000Y-95620000D03*
%TO.P,J4,9,Pin_9*%
%TO.N,IICRST*%
X85500000Y-98160000D03*
%TO.P,J4,10,Pin_10*%
%TO.N,SDB*%
X88040000Y-98160000D03*
%TD*%
D16*
%TO.P,J6,1,Pin_1*%
%TO.N,VIN*%
X169000000Y-64140000D03*
D17*
%TO.P,J6,2,Pin_2*%
%TO.N,12V*%
X169000000Y-66680000D03*
%TO.P,J6,3,Pin_3*%
%TO.N,5V*%
X169000000Y-69220000D03*
%TO.P,J6,4,Pin_4*%
%TO.N,3.3V*%
X169000000Y-71760000D03*
%TO.P,J6,5,Pin_5*%
%TO.N,GND*%
X169000000Y-74300000D03*
%TO.P,J6,6,Pin_6*%
X169000000Y-76840000D03*
%TO.P,J6,7,Pin_7*%
%TO.N,IICRST*%
X169000000Y-79380000D03*
%TO.P,J6,8,Pin_8*%
%TO.N,SDB*%
X169000000Y-81920000D03*
%TO.P,J6,9,Pin_9*%
%TO.N,SDA*%
X169000000Y-84460000D03*
%TO.P,J6,10,Pin_10*%
%TO.N,SCL*%
X169000000Y-87000000D03*
%TD*%
D11*
%TO.P,JP8,1,A*%
%TO.N,5V*%
X139275000Y-65000000D03*
D10*
%TO.P,JP8,2,B*%
%TO.N,ADDR1*%
X140725000Y-65000000D03*
%TD*%
D13*
%TO.P,JP4,1,A*%
%TO.N,5V*%
X128725000Y-65000000D03*
D12*
%TO.P,JP4,2,B*%
%TO.N,ADDR2*%
X127275000Y-65000000D03*
%TD*%
D14*
%TO.P,J2,1,Pin_1*%
%TO.N,SINK_{04}*%
X141960000Y-88620000D03*
D15*
%TO.P,J2,2,Pin_2*%
%TO.N,SINK_{05}*%
X144500000Y-88620000D03*
%TO.P,J2,3,Pin_3*%
%TO.N,SINK_{06}*%
X141960000Y-91160000D03*
%TO.P,J2,4,Pin_4*%
%TO.N,SINK_{07}*%
X144500000Y-91160000D03*
%TO.P,J2,5,Pin_5*%
%TO.N,SRC_{00}*%
X141960000Y-93700000D03*
%TO.P,J2,6,Pin_6*%
%TO.N,SRC_{01}*%
X144500000Y-93700000D03*
%TO.P,J2,7,Pin_7*%
%TO.N,SRC_{02}*%
X141960000Y-96240000D03*
%TO.P,J2,8,Pin_8*%
%TO.N,SRC_{03}*%
X144500000Y-96240000D03*
%TO.P,J2,9,Pin_9*%
%TO.N,SRC_{04}*%
X141960000Y-98780000D03*
%TO.P,J2,10,Pin_10*%
%TO.N,SRC_{05}*%
X144500000Y-98780000D03*
%TO.P,J2,11,Pin_11*%
%TO.N,SRC_{06}*%
X141960000Y-101320000D03*
%TO.P,J2,12,Pin_12*%
%TO.N,SRC_{07}*%
X144500000Y-101320000D03*
%TO.P,J2,13,Pin_13*%
%TO.N,SRC_{08}*%
X141960000Y-103860000D03*
%TO.P,J2,14,Pin_14*%
%TO.N,SRC_{09}*%
X144500000Y-103860000D03*
%TO.P,J2,15,Pin_15*%
%TO.N,SRC_{10}*%
X141960000Y-106400000D03*
%TO.P,J2,16,Pin_16*%
%TO.N,SRC_{11}*%
X144500000Y-106400000D03*
%TO.P,J2,17,Pin_17*%
%TO.N,SRC_{12}*%
X141960000Y-108940000D03*
%TO.P,J2,18,Pin_18*%
%TO.N,SRC_{13}*%
X144500000Y-108940000D03*
%TO.P,J2,19,Pin_19*%
%TO.N,SRC_{14}*%
X141960000Y-111480000D03*
%TO.P,J2,20,Pin_20*%
%TO.N,SRC_{15}*%
X144500000Y-111480000D03*
%TD*%
D10*
%TO.P,JP6,2,B*%
%TO.N,ADDR1*%
X140725000Y-55000000D03*
D11*
%TO.P,JP6,1,A*%
%TO.N,SDA*%
X139275000Y-55000000D03*
%TD*%
D14*
%TO.P,J5,1,Pin_1*%
%TO.N,VIN*%
X169000000Y-96840000D03*
D15*
%TO.P,J5,2,Pin_2*%
X171540000Y-96840000D03*
%TO.P,J5,3,Pin_3*%
X169000000Y-99380000D03*
%TO.P,J5,4,Pin_4*%
%TO.N,GND*%
X171540000Y-99380000D03*
%TO.P,J5,5,Pin_5*%
X169000000Y-101920000D03*
%TO.P,J5,6,Pin_6*%
X171540000Y-101920000D03*
%TO.P,J5,7,Pin_7*%
%TO.N,SDA*%
X169000000Y-104460000D03*
%TO.P,J5,8,Pin_8*%
%TO.N,SCL*%
X171540000Y-104460000D03*
%TO.P,J5,9,Pin_9*%
%TO.N,IICRST*%
X169000000Y-107000000D03*
%TO.P,J5,10,Pin_10*%
%TO.N,SDB*%
X171540000Y-107000000D03*
%TD*%
D14*
%TO.P,J3,1,Pin_1*%
%TO.N,SINK_{08}*%
X155960000Y-88620000D03*
D15*
%TO.P,J3,2,Pin_2*%
%TO.N,SINK_{09}*%
X158500000Y-88620000D03*
%TO.P,J3,3,Pin_3*%
%TO.N,SINK_{10}*%
X155960000Y-91160000D03*
%TO.P,J3,4,Pin_4*%
%TO.N,SINK_{11}*%
X158500000Y-91160000D03*
%TO.P,J3,5,Pin_5*%
%TO.N,SRC_{00}*%
X155960000Y-93700000D03*
%TO.P,J3,6,Pin_6*%
%TO.N,SRC_{01}*%
X158500000Y-93700000D03*
%TO.P,J3,7,Pin_7*%
%TO.N,SRC_{02}*%
X155960000Y-96240000D03*
%TO.P,J3,8,Pin_8*%
%TO.N,SRC_{03}*%
X158500000Y-96240000D03*
%TO.P,J3,9,Pin_9*%
%TO.N,SRC_{04}*%
X155960000Y-98780000D03*
%TO.P,J3,10,Pin_10*%
%TO.N,SRC_{05}*%
X158500000Y-98780000D03*
%TO.P,J3,11,Pin_11*%
%TO.N,SRC_{06}*%
X155960000Y-101320000D03*
%TO.P,J3,12,Pin_12*%
%TO.N,SRC_{07}*%
X158500000Y-101320000D03*
%TO.P,J3,13,Pin_13*%
%TO.N,SRC_{08}*%
X155960000Y-103860000D03*
%TO.P,J3,14,Pin_14*%
%TO.N,SRC_{09}*%
X158500000Y-103860000D03*
%TO.P,J3,15,Pin_15*%
%TO.N,SRC_{10}*%
X155960000Y-106400000D03*
%TO.P,J3,16,Pin_16*%
%TO.N,SRC_{11}*%
X158500000Y-106400000D03*
%TO.P,J3,17,Pin_17*%
%TO.N,SRC_{12}*%
X155960000Y-108940000D03*
%TO.P,J3,18,Pin_18*%
%TO.N,SRC_{13}*%
X158500000Y-108940000D03*
%TO.P,J3,19,Pin_19*%
%TO.N,SRC_{14}*%
X155960000Y-111480000D03*
%TO.P,J3,20,Pin_20*%
%TO.N,SRC_{15}*%
X158500000Y-111480000D03*
%TD*%
D12*
%TO.P,JP3,2,B*%
%TO.N,ADDR2*%
X127275000Y-60000000D03*
D13*
%TO.P,JP3,1,A*%
%TO.N,SCL*%
X128725000Y-60000000D03*
%TD*%
D12*
%TO.P,JP1,2,B*%
%TO.N,ADDR2*%
X127275000Y-50000000D03*
D13*
%TO.P,JP1,1,A*%
%TO.N,GND*%
X128725000Y-50000000D03*
%TD*%
D18*
%TO.N,GND*%
X143500000Y-73500000D03*
%TO.N,5V*%
X145000000Y-66250000D03*
X106000000Y-79500000D03*
%TO.N,GND*%
X138733058Y-73175000D03*
X128850000Y-72350000D03*
%TO.N,5V*%
X137000000Y-79250000D03*
%TO.N,SDA*%
X160000000Y-81425000D03*
%TO.N,SCL*%
X159000000Y-82075000D03*
%TO.N,SDB*%
X140002000Y-75257114D03*
%TO.N,5V*%
X131550000Y-76100000D03*
%TO.N,SINK_{00}*%
X137000000Y-72500000D03*
%TO.N,SINK_{01}*%
X137282724Y-71750000D03*
%TO.N,SINK_{03}*%
X136531587Y-71031587D03*
%TO.N,ADDR2*%
X137000000Y-66250000D03*
%TO.N,ADDR1*%
X140000000Y-63349000D03*
%TO.N,GND*%
X142250000Y-69500000D03*
%TO.N,SINK_{02}*%
X137771529Y-70675529D03*
%TO.N,IICRST*%
X137500000Y-74175000D03*
%TO.N,SDB*%
X132750000Y-79875000D03*
%TO.N,SINK_{04}*%
X143125000Y-67875000D03*
X131419232Y-71464652D03*
%TO.N,SINK_{05}*%
X143750000Y-67250000D03*
X130500000Y-71500000D03*
%TO.N,SCL*%
X131750000Y-60000000D03*
%TO.N,SDA*%
X130500000Y-55000000D03*
%TO.N,SINK_{06}*%
X148500000Y-91999000D03*
X156091000Y-85000000D03*
%TO.N,SINK_{07}*%
X155466000Y-86250000D03*
%TO.N,GND*%
X157000000Y-73250000D03*
X147000000Y-71750000D03*
X142750000Y-62750000D03*
%TO.N,SCL*%
X135481833Y-76800000D03*
%TO.N,SDA*%
X136550000Y-77493058D03*
%TO.N,5V*%
X125750000Y-73500000D03*
X146500000Y-86250000D03*
X144893414Y-82856586D03*
X145927002Y-77779822D03*
%TD*%
D19*
%TO.N,SDA*%
X138588529Y-72066884D02*
X136550000Y-74105413D01*
X136550000Y-74105413D02*
X136550000Y-77493058D01*
X136550000Y-77493058D02*
X136551000Y-77492058D01*
X138588529Y-70338529D02*
X138075000Y-69825000D01*
X138588529Y-72066884D02*
X138588529Y-70338529D01*
X136551000Y-77492058D02*
X140992058Y-77492058D01*
%TO.N,SCL*%
X135424000Y-77039954D02*
X135424000Y-77730646D01*
X135481833Y-76982121D02*
X135424000Y-77039954D01*
X135481833Y-76800000D02*
X135481833Y-76982121D01*
X135761412Y-78068058D02*
X140318058Y-78068058D01*
X127050000Y-72924000D02*
X110736000Y-72924000D01*
X131950000Y-73300000D02*
X127426000Y-73300000D01*
X127426000Y-73300000D02*
X127050000Y-72924000D01*
X135250000Y-70000000D02*
X131950000Y-73300000D01*
X138347529Y-70438355D02*
X137909174Y-70000000D01*
X135481833Y-74832755D02*
X138347529Y-71967059D01*
X135481833Y-76800000D02*
X135481833Y-74832755D01*
X110736000Y-72924000D02*
X88040000Y-95620000D01*
X137909174Y-70000000D02*
X135250000Y-70000000D01*
X138347529Y-71967059D02*
X138347529Y-70438355D01*
X135424000Y-77730646D02*
X135761412Y-78068058D01*
X140318058Y-78068058D02*
X144250000Y-82000000D01*
D20*
%TO.N,GND*%
X144500000Y-74500000D02*
X143500000Y-73500000D01*
X169000000Y-76840000D02*
X167434178Y-78405822D01*
X145405822Y-78405822D02*
X144500000Y-77500000D01*
X144500000Y-77500000D02*
X144500000Y-74500000D01*
X167434178Y-78405822D02*
X145405822Y-78405822D01*
%TO.N,5V*%
X145927002Y-77779822D02*
X146381824Y-77325000D01*
X146381824Y-77325000D02*
X150637297Y-77325000D01*
X145432351Y-73567649D02*
X141624000Y-69759298D01*
X145432351Y-73567649D02*
X145927002Y-74062300D01*
X145927002Y-74062300D02*
X145927002Y-77779822D01*
X143000000Y-68626000D02*
X142238702Y-68626000D01*
X142238702Y-68626000D02*
X141624000Y-69240702D01*
X141624000Y-69240702D02*
X141624000Y-69759298D01*
X143000000Y-68626000D02*
X143259298Y-68626000D01*
X145000000Y-66885298D02*
X145000000Y-66250000D01*
X143259298Y-68626000D02*
X145000000Y-66885298D01*
X140106894Y-66250000D02*
X145000000Y-66250000D01*
X139275000Y-65418106D02*
X140106894Y-66250000D01*
X139275000Y-65000000D02*
X139275000Y-65418106D01*
%TO.N,GND*%
X142750000Y-62750000D02*
X145750000Y-65750000D01*
X145750000Y-65750000D02*
X145750000Y-69750000D01*
X142750000Y-50306894D02*
X141362106Y-48919000D01*
X141362106Y-48919000D02*
X139938032Y-48919000D01*
X142750000Y-62750000D02*
X142750000Y-50306894D01*
X139938032Y-48919000D02*
X139275000Y-49582032D01*
X139275000Y-49582032D02*
X139275000Y-50000000D01*
%TO.N,5V*%
X111750000Y-73750000D02*
X106000000Y-79500000D01*
X126000000Y-73750000D02*
X111750000Y-73750000D01*
X126375000Y-74125000D02*
X126000000Y-73750000D01*
D19*
%TO.N,SCL*%
X144250000Y-82000000D02*
X158925000Y-82000000D01*
X158925000Y-82000000D02*
X159000000Y-82075000D01*
D20*
%TO.N,SINK_{03}*%
X126500000Y-88000000D02*
X126500000Y-89141514D01*
X133750000Y-72500000D02*
X133750000Y-80750000D01*
X136531587Y-71031587D02*
X136500000Y-71000000D01*
X136500000Y-71000000D02*
X135250000Y-71000000D01*
X135250000Y-71000000D02*
X133750000Y-72500000D01*
X133750000Y-80750000D02*
X126500000Y-88000000D01*
X126500000Y-89141514D02*
X127154486Y-89796000D01*
X127154486Y-89796000D02*
X129176000Y-89796000D01*
X129176000Y-89796000D02*
X130540000Y-91160000D01*
%TO.N,SINK_{01}*%
X134091000Y-85069000D02*
X130540000Y-88620000D01*
X135000000Y-71750000D02*
X134091000Y-72659000D01*
X134091000Y-72659000D02*
X134091000Y-85069000D01*
X137282724Y-71750000D02*
X135000000Y-71750000D01*
D19*
%TO.N,IICRST*%
X139733058Y-74175000D02*
X139300000Y-74175000D01*
X139308058Y-73750000D02*
X139308058Y-74166942D01*
X139308058Y-74166942D02*
X139300000Y-74175000D01*
X169000000Y-79380000D02*
X168462706Y-78842706D01*
X159842706Y-78842706D02*
X159819912Y-78865500D01*
X159819912Y-78865500D02*
X144423558Y-78865500D01*
X144423558Y-78865500D02*
X139733058Y-74175000D01*
X139300000Y-74175000D02*
X137500000Y-74175000D01*
X168462706Y-78842706D02*
X159842706Y-78842706D01*
D20*
%TO.N,GND*%
X138879529Y-73028529D02*
X138733058Y-73175000D01*
X134970464Y-69468000D02*
X138129536Y-69468000D01*
X138879529Y-70217993D02*
X138879529Y-73028529D01*
X132071464Y-72367000D02*
X134970464Y-69468000D01*
X138129536Y-69468000D02*
X138879529Y-70217993D01*
X128867000Y-72367000D02*
X132071464Y-72367000D01*
X128850000Y-72350000D02*
X128867000Y-72367000D01*
D19*
%TO.N,SDA*%
X110317405Y-72683000D02*
X88506405Y-94494000D01*
X135091000Y-69759000D02*
X131800000Y-73050000D01*
X127150000Y-72683000D02*
X110317405Y-72683000D01*
X127526000Y-73059000D02*
X127150000Y-72683000D01*
X131441000Y-73059000D02*
X127526000Y-73059000D01*
X138009000Y-69759000D02*
X135091000Y-69759000D01*
X131450000Y-73050000D02*
X131441000Y-73059000D01*
X131800000Y-73050000D02*
X131450000Y-73050000D01*
X88506405Y-94494000D02*
X86626000Y-94494000D01*
X86626000Y-94494000D02*
X85500000Y-95620000D01*
%TO.N,IICRST*%
X139250000Y-70641942D02*
X139308058Y-70700000D01*
X139250000Y-69700000D02*
X139250000Y-70641942D01*
X138550000Y-69000000D02*
X139250000Y-69700000D01*
X127500000Y-71750000D02*
X129924000Y-71750000D01*
X134750000Y-69000000D02*
X138550000Y-69000000D01*
X127174000Y-72076000D02*
X127500000Y-71750000D01*
X131674000Y-72076000D02*
X134750000Y-69000000D01*
X130250000Y-72076000D02*
X131674000Y-72076000D01*
X129924000Y-71750000D02*
X130250000Y-72076000D01*
X139308058Y-70700000D02*
X139308058Y-73750000D01*
X99473196Y-72076000D02*
X127174000Y-72076000D01*
X84374000Y-87175196D02*
X99473196Y-72076000D01*
X84374000Y-97034000D02*
X84374000Y-87175196D01*
X85500000Y-98160000D02*
X84374000Y-97034000D01*
D20*
%TO.N,GND*%
X128833000Y-72367000D02*
X128850000Y-72350000D01*
X128500000Y-72367000D02*
X128833000Y-72367000D01*
X106213000Y-72367000D02*
X128500000Y-72367000D01*
X88040000Y-90540000D02*
X106213000Y-72367000D01*
%TO.N,5V*%
X144893414Y-82856586D02*
X140606586Y-82856586D01*
X140606586Y-82856586D02*
X137000000Y-79250000D01*
X150637297Y-77325000D02*
X160895000Y-77325000D01*
X160895000Y-77325000D02*
X169000000Y-69220000D01*
D19*
%TO.N,SDB*%
X169000000Y-81920000D02*
X166186500Y-79106500D01*
X166186500Y-79106500D02*
X143851386Y-79106500D01*
X143851386Y-79106500D02*
X140002000Y-75257114D01*
%TO.N,SDA*%
X145000000Y-81500000D02*
X164500000Y-81500000D01*
D20*
%TO.N,SINK_{02}*%
X128000000Y-91160000D02*
X126159000Y-89319000D01*
X126159000Y-89319000D02*
X126159000Y-87351298D01*
X126159000Y-87351298D02*
X133380558Y-80129740D01*
X133380558Y-80129740D02*
X133380558Y-72280978D01*
X133380558Y-72280978D02*
X135330768Y-70330768D01*
X135330768Y-70330768D02*
X137426768Y-70330768D01*
X137426768Y-70330768D02*
X137771529Y-70675529D01*
%TO.N,5V*%
X128350000Y-76100000D02*
X131550000Y-76100000D01*
%TO.N,SINK_{00}*%
X134855833Y-74644167D02*
X137000000Y-72500000D01*
X134855833Y-85967283D02*
X134855833Y-74644167D01*
X129796000Y-89796000D02*
X131027116Y-89796000D01*
X131027116Y-89796000D02*
X134855833Y-85967283D01*
X128620000Y-88620000D02*
X129796000Y-89796000D01*
X128000000Y-88620000D02*
X128620000Y-88620000D01*
D19*
%TO.N,ADDR2*%
X128327605Y-66250000D02*
X137000000Y-66250000D01*
X127275000Y-65197395D02*
X128327605Y-66250000D01*
X127275000Y-65000000D02*
X127275000Y-65197395D01*
%TO.N,ADDR1*%
X140000000Y-63349000D02*
X140725000Y-64074000D01*
X140725000Y-64074000D02*
X140725000Y-65000000D01*
D20*
%TO.N,GND*%
X145750000Y-69750000D02*
X145500000Y-69500000D01*
X147750000Y-71750000D02*
X155500000Y-71750000D01*
X147750000Y-71750000D02*
X145750000Y-69750000D01*
X145500000Y-69500000D02*
X142250000Y-69500000D01*
D19*
%TO.N,SDB*%
X112500000Y-98160000D02*
X130785000Y-79875000D01*
X130785000Y-79875000D02*
X132750000Y-79875000D01*
X88040000Y-98160000D02*
X112500000Y-98160000D01*
D20*
%TO.N,SINK_{04}*%
X143125000Y-67875000D02*
X135008884Y-67875000D01*
X135008884Y-67875000D02*
X131419232Y-71464652D01*
%TO.N,SINK_{05}*%
X134750000Y-67250000D02*
X143750000Y-67250000D01*
X130500000Y-71500000D02*
X134750000Y-67250000D01*
D19*
%TO.N,SCL*%
X139275000Y-60000000D02*
X131750000Y-60000000D01*
%TO.N,SDA*%
X139275000Y-55000000D02*
X130500000Y-55000000D01*
D20*
%TO.N,SINK_{06}*%
X148500000Y-91999000D02*
X150501000Y-91999000D01*
X155725298Y-86876000D02*
X156091000Y-86510298D01*
X150501000Y-91999000D02*
X155624000Y-86876000D01*
X155624000Y-86876000D02*
X155725298Y-86876000D01*
X156091000Y-86510298D02*
X156091000Y-85000000D01*
%TO.N,SINK_{07}*%
X154250000Y-86250000D02*
X149250000Y-91250000D01*
X155466000Y-86250000D02*
X154250000Y-86250000D01*
X149160000Y-91160000D02*
X144500000Y-91160000D01*
X149250000Y-91250000D02*
X149160000Y-91160000D01*
D19*
%TO.N,SCL*%
X144750000Y-82000000D02*
X144250000Y-82000000D01*
X144750000Y-82000000D02*
X164000000Y-82000000D01*
X164000000Y-82000000D02*
X169000000Y-87000000D01*
%TO.N,SDA*%
X164500000Y-81500000D02*
X166040000Y-81500000D01*
X166040000Y-81500000D02*
X169000000Y-84460000D01*
X141000000Y-77500000D02*
X145000000Y-81500000D01*
D20*
%TO.N,GND*%
X155500000Y-71750000D02*
X157000000Y-73250000D01*
X147000000Y-71750000D02*
X147750000Y-71750000D01*
%TO.N,5V*%
X128725000Y-65000000D02*
X139275000Y-65000000D01*
D19*
%TO.N,SCL*%
X131750000Y-60000000D02*
X128725000Y-60000000D01*
%TO.N,SDA*%
X130500000Y-55000000D02*
X128725000Y-55000000D01*
D20*
%TO.N,GND*%
X128725000Y-50000000D02*
X139275000Y-50000000D01*
D19*
%TO.N,ADDR1*%
X140725000Y-55000000D02*
X140725000Y-50000000D01*
X140725000Y-60000000D02*
X140725000Y-55000000D01*
X140725000Y-65000000D02*
X140725000Y-60000000D01*
%TO.N,ADDR2*%
X127275000Y-60000000D02*
X127275000Y-65000000D01*
X127275000Y-55000000D02*
X127275000Y-60000000D01*
X127275000Y-50000000D02*
X127275000Y-55000000D01*
%TO.N,SDA*%
X85500000Y-95620000D02*
X86870000Y-94250000D01*
X86870000Y-94250000D02*
X88780000Y-94250000D01*
D20*
%TO.N,VIN*%
X169000000Y-99380000D02*
X169000000Y-96840000D01*
X169000000Y-96840000D02*
X171540000Y-96840000D01*
D19*
%TO.N,SRC_{05}*%
X144500000Y-98780000D02*
X143374000Y-99906000D01*
X143374000Y-99906000D02*
X131666000Y-99906000D01*
X131666000Y-99906000D02*
X130540000Y-98780000D01*
%TO.N,SRC_{07}*%
X130540000Y-101320000D02*
X131666000Y-102446000D01*
X131666000Y-102446000D02*
X143374000Y-102446000D01*
X143374000Y-102446000D02*
X144500000Y-101320000D01*
%TO.N,SRC_{09}*%
X144500000Y-103860000D02*
X143374000Y-104986000D01*
X143374000Y-104986000D02*
X131666000Y-104986000D01*
X131666000Y-104986000D02*
X130540000Y-103860000D01*
%TO.N,SRC_{11}*%
X130540000Y-106400000D02*
X131666000Y-107526000D01*
X131666000Y-107526000D02*
X143374000Y-107526000D01*
X143374000Y-107526000D02*
X144500000Y-106400000D01*
%TO.N,SRC_{13}*%
X144500000Y-108940000D02*
X143374000Y-110066000D01*
X131666000Y-110066000D02*
X130540000Y-108940000D01*
X143374000Y-110066000D02*
X131666000Y-110066000D01*
%TO.N,SRC_{15}*%
X144500000Y-111480000D02*
X143374000Y-112606000D01*
X143374000Y-112606000D02*
X131666000Y-112606000D01*
X131666000Y-112606000D02*
X130540000Y-111480000D01*
%TO.N,SRC_{14}*%
X128000000Y-111480000D02*
X129126000Y-110354000D01*
X129126000Y-110354000D02*
X140834000Y-110354000D01*
X140834000Y-110354000D02*
X141960000Y-111480000D01*
%TO.N,SRC_{12}*%
X128000000Y-108940000D02*
X129126000Y-107814000D01*
X129126000Y-107814000D02*
X140834000Y-107814000D01*
X140834000Y-107814000D02*
X141960000Y-108940000D01*
%TO.N,SRC_{10}*%
X128000000Y-106400000D02*
X129126000Y-105274000D01*
X129126000Y-105274000D02*
X140834000Y-105274000D01*
X140834000Y-105274000D02*
X141960000Y-106400000D01*
%TO.N,SRC_{08}*%
X128000000Y-103860000D02*
X129126000Y-102734000D01*
X140834000Y-102734000D02*
X141960000Y-103860000D01*
X129126000Y-102734000D02*
X140834000Y-102734000D01*
%TO.N,SRC_{06}*%
X128000000Y-101320000D02*
X129126000Y-100194000D01*
X129126000Y-100194000D02*
X140834000Y-100194000D01*
X140834000Y-100194000D02*
X141960000Y-101320000D01*
%TO.N,SRC_{04}*%
X128000000Y-98780000D02*
X129126000Y-97654000D01*
X129126000Y-97654000D02*
X140834000Y-97654000D01*
X140834000Y-97654000D02*
X141960000Y-98780000D01*
%TO.N,SRC_{02}*%
X141960000Y-96240000D02*
X140834000Y-95114000D01*
X140834000Y-95114000D02*
X129126000Y-95114000D01*
X129126000Y-95114000D02*
X128000000Y-96240000D01*
%TO.N,SRC_{03}*%
X144500000Y-96240000D02*
X143374000Y-97366000D01*
X143374000Y-97366000D02*
X131666000Y-97366000D01*
X131666000Y-97366000D02*
X130540000Y-96240000D01*
%TO.N,SRC_{01}*%
X130540000Y-93700000D02*
X131666000Y-94826000D01*
X131666000Y-94826000D02*
X143374000Y-94826000D01*
X143374000Y-94826000D02*
X144500000Y-93700000D01*
%TO.N,SRC_{00}*%
X141960000Y-93700000D02*
X140834000Y-92574000D01*
X140834000Y-92574000D02*
X129126000Y-92574000D01*
X129126000Y-92574000D02*
X128000000Y-93700000D01*
X155960000Y-93700000D02*
X154834000Y-92574000D01*
X154834000Y-92574000D02*
X143086000Y-92574000D01*
X143086000Y-92574000D02*
X141960000Y-93700000D01*
%TO.N,SRC_{01}*%
X144500000Y-93700000D02*
X145626000Y-94826000D01*
X145626000Y-94826000D02*
X157374000Y-94826000D01*
X157374000Y-94826000D02*
X158500000Y-93700000D01*
%TO.N,SRC_{02}*%
X155960000Y-96240000D02*
X154834000Y-95114000D01*
X154834000Y-95114000D02*
X143086000Y-95114000D01*
X143086000Y-95114000D02*
X141960000Y-96240000D01*
%TO.N,SRC_{03}*%
X144500000Y-96240000D02*
X145626000Y-97366000D01*
X145626000Y-97366000D02*
X157374000Y-97366000D01*
X157374000Y-97366000D02*
X158500000Y-96240000D01*
%TO.N,SRC_{04}*%
X141960000Y-98780000D02*
X143086000Y-97654000D01*
X143086000Y-97654000D02*
X154834000Y-97654000D01*
X154834000Y-97654000D02*
X155960000Y-98780000D01*
%TO.N,SRC_{05}*%
X158500000Y-98780000D02*
X157374000Y-99906000D01*
X157374000Y-99906000D02*
X145626000Y-99906000D01*
X145626000Y-99906000D02*
X144500000Y-98780000D01*
%TO.N,SRC_{06}*%
X141960000Y-101320000D02*
X143086000Y-100194000D01*
X143086000Y-100194000D02*
X154834000Y-100194000D01*
X154834000Y-100194000D02*
X155960000Y-101320000D01*
%TO.N,SRC_{07}*%
X158500000Y-101320000D02*
X157374000Y-102446000D01*
X157374000Y-102446000D02*
X145626000Y-102446000D01*
X145626000Y-102446000D02*
X144500000Y-101320000D01*
%TO.N,SRC_{08}*%
X141960000Y-103860000D02*
X143086000Y-102734000D01*
X143086000Y-102734000D02*
X154834000Y-102734000D01*
X154834000Y-102734000D02*
X155960000Y-103860000D01*
%TO.N,SRC_{09}*%
X158500000Y-103860000D02*
X157374000Y-104986000D01*
X157374000Y-104986000D02*
X145626000Y-104986000D01*
X145626000Y-104986000D02*
X144500000Y-103860000D01*
%TO.N,SRC_{10}*%
X141960000Y-106400000D02*
X143086000Y-105274000D01*
X143086000Y-105274000D02*
X154834000Y-105274000D01*
X154834000Y-105274000D02*
X155960000Y-106400000D01*
%TO.N,SRC_{11}*%
X158500000Y-106400000D02*
X157374000Y-107526000D01*
X157374000Y-107526000D02*
X145626000Y-107526000D01*
X145626000Y-107526000D02*
X144500000Y-106400000D01*
%TO.N,SRC_{12}*%
X141960000Y-108940000D02*
X143086000Y-107814000D01*
X154834000Y-107814000D02*
X155960000Y-108940000D01*
X143086000Y-107814000D02*
X154834000Y-107814000D01*
%TO.N,SRC_{13}*%
X158500000Y-108940000D02*
X157374000Y-110066000D01*
X145626000Y-110066000D02*
X144500000Y-108940000D01*
X157374000Y-110066000D02*
X145626000Y-110066000D01*
%TO.N,SRC_{14}*%
X141960000Y-111480000D02*
X143086000Y-110354000D01*
X154834000Y-110354000D02*
X155960000Y-111480000D01*
X143086000Y-110354000D02*
X154834000Y-110354000D01*
%TO.N,SRC_{15}*%
X158500000Y-111480000D02*
X157374000Y-112606000D01*
X157374000Y-112606000D02*
X145626000Y-112606000D01*
X145626000Y-112606000D02*
X144500000Y-111480000D01*
D20*
%TO.N,5V*%
X126000000Y-73750000D02*
X125750000Y-73500000D01*
X128350000Y-76100000D02*
X126375000Y-74125000D01*
X146500000Y-84463172D02*
X146500000Y-86250000D01*
X144893414Y-82856586D02*
X146500000Y-84463172D01*
%TD*%
M02*
