%TF.GenerationSoftware,KiCad,Pcbnew,9.0.6-9.0.6~ubuntu22.04.1*%
%TF.CreationDate,2026-01-07T10:52:52-05:00*%
%TF.ProjectId,Hyperdrift-Display-Controller,48797065-7264-4726-9966-742d44697370,rev?*%
%TF.SameCoordinates,Original*%
%TF.FileFunction,Soldermask,Bot*%
%TF.FilePolarity,Negative*%
%FSLAX46Y46*%
G04 Gerber Fmt 4.6, Leading zero omitted, Abs format (unit mm)*
G04 Created by KiCad (PCBNEW 9.0.6-9.0.6~ubuntu22.04.1) date 2026-01-07 10:52:52*
%MOMM*%
%LPD*%
G01*
G04 APERTURE LIST*
G04 Aperture macros list*
%AMRoundRect*
0 Rectangle with rounded corners*
0 $1 Rounding radius*
0 $2 $3 $4 $5 $6 $7 $8 $9 X,Y pos of 4 corners*
0 Add a 4 corners polygon primitive as box body*
4,1,4,$2,$3,$4,$5,$6,$7,$8,$9,$2,$3,0*
0 Add four circle primitives for the rounded corners*
1,1,$1+$1,$2,$3*
1,1,$1+$1,$4,$5*
1,1,$1+$1,$6,$7*
1,1,$1+$1,$8,$9*
0 Add four rect primitives between the rounded corners*
20,1,$1+$1,$2,$3,$4,$5,0*
20,1,$1+$1,$4,$5,$6,$7,0*
20,1,$1+$1,$6,$7,$8,$9,0*
20,1,$1+$1,$8,$9,$2,$3,0*%
G04 Aperture macros list end*
%ADD10RoundRect,0.250000X-0.600000X-0.600000X0.600000X-0.600000X0.600000X0.600000X-0.600000X0.600000X0*%
%ADD11C,1.700000*%
%ADD12C,3.200000*%
%ADD13R,1.700000X1.700000*%
%ADD14O,1.700000X1.700000*%
%ADD15RoundRect,0.250000X-0.350000X-0.450000X0.350000X-0.450000X0.350000X0.450000X-0.350000X0.450000X0*%
%ADD16R,1.400000X3.000000*%
%ADD17RoundRect,0.250000X0.537500X0.425000X-0.537500X0.425000X-0.537500X-0.425000X0.537500X-0.425000X0*%
%ADD18RoundRect,0.250000X0.350000X0.450000X-0.350000X0.450000X-0.350000X-0.450000X0.350000X-0.450000X0*%
%ADD19RoundRect,0.250000X-0.625000X0.400000X-0.625000X-0.400000X0.625000X-0.400000X0.625000X0.400000X0*%
%ADD20RoundRect,0.250000X-0.900000X1.000000X-0.900000X-1.000000X0.900000X-1.000000X0.900000X1.000000X0*%
%ADD21RoundRect,0.250000X0.250000X0.475000X-0.250000X0.475000X-0.250000X-0.475000X0.250000X-0.475000X0*%
%ADD22RoundRect,0.250000X-0.475000X0.250000X-0.475000X-0.250000X0.475000X-0.250000X0.475000X0.250000X0*%
%ADD23R,1.600000X1.800000*%
%ADD24RoundRect,0.375000X0.375000X-0.625000X0.375000X0.625000X-0.375000X0.625000X-0.375000X-0.625000X0*%
%ADD25RoundRect,0.500000X1.400000X-0.500000X1.400000X0.500000X-1.400000X0.500000X-1.400000X-0.500000X0*%
%ADD26RoundRect,0.075000X-0.075000X0.662500X-0.075000X-0.662500X0.075000X-0.662500X0.075000X0.662500X0*%
%ADD27RoundRect,0.075000X-0.662500X0.075000X-0.662500X-0.075000X0.662500X-0.075000X0.662500X0.075000X0*%
%ADD28R,5.000000X5.000000*%
G04 APERTURE END LIST*
D10*
%TO.C,J1*%
X128000000Y-88620000D03*
D11*
X130540000Y-88620000D03*
X128000000Y-91160000D03*
X130540000Y-91160000D03*
X128000000Y-93700000D03*
X130540000Y-93700000D03*
X128000000Y-96240000D03*
X130540000Y-96240000D03*
X128000000Y-98780000D03*
X130540000Y-98780000D03*
X128000000Y-101320000D03*
X130540000Y-101320000D03*
X128000000Y-103860000D03*
X130540000Y-103860000D03*
X128000000Y-106400000D03*
X130540000Y-106400000D03*
X128000000Y-108940000D03*
X130540000Y-108940000D03*
X128000000Y-111480000D03*
X130540000Y-111480000D03*
%TD*%
D12*
%TO.C,H1*%
X84000000Y-51500000D03*
%TD*%
D10*
%TO.C,J4*%
X85500000Y-88000000D03*
D11*
X88040000Y-88000000D03*
X85500000Y-90540000D03*
X88040000Y-90540000D03*
X85500000Y-93080000D03*
X88040000Y-93080000D03*
X85500000Y-95620000D03*
X88040000Y-95620000D03*
X85500000Y-98160000D03*
X88040000Y-98160000D03*
%TD*%
D12*
%TO.C,H3*%
X174000000Y-116500000D03*
%TD*%
D13*
%TO.C,J6*%
X169000000Y-64140000D03*
D14*
X169000000Y-66680000D03*
X169000000Y-69220000D03*
X169000000Y-71760000D03*
X169000000Y-74300000D03*
X169000000Y-76840000D03*
X169000000Y-79380000D03*
X169000000Y-81920000D03*
X169000000Y-84460000D03*
X169000000Y-87000000D03*
%TD*%
D10*
%TO.C,J2*%
X141960000Y-88620000D03*
D11*
X144500000Y-88620000D03*
X141960000Y-91160000D03*
X144500000Y-91160000D03*
X141960000Y-93700000D03*
X144500000Y-93700000D03*
X141960000Y-96240000D03*
X144500000Y-96240000D03*
X141960000Y-98780000D03*
X144500000Y-98780000D03*
X141960000Y-101320000D03*
X144500000Y-101320000D03*
X141960000Y-103860000D03*
X144500000Y-103860000D03*
X141960000Y-106400000D03*
X144500000Y-106400000D03*
X141960000Y-108940000D03*
X144500000Y-108940000D03*
X141960000Y-111480000D03*
X144500000Y-111480000D03*
%TD*%
D12*
%TO.C,H2*%
X174000000Y-51500000D03*
%TD*%
D10*
%TO.C,J5*%
X169000000Y-96840000D03*
D11*
X171540000Y-96840000D03*
X169000000Y-99380000D03*
X171540000Y-99380000D03*
X169000000Y-101920000D03*
X171540000Y-101920000D03*
X169000000Y-104460000D03*
X171540000Y-104460000D03*
X169000000Y-107000000D03*
X171540000Y-107000000D03*
%TD*%
D10*
%TO.C,J3*%
X155960000Y-88620000D03*
D11*
X158500000Y-88620000D03*
X155960000Y-91160000D03*
X158500000Y-91160000D03*
X155960000Y-93700000D03*
X158500000Y-93700000D03*
X155960000Y-96240000D03*
X158500000Y-96240000D03*
X155960000Y-98780000D03*
X158500000Y-98780000D03*
X155960000Y-101320000D03*
X158500000Y-101320000D03*
X155960000Y-103860000D03*
X158500000Y-103860000D03*
X155960000Y-106400000D03*
X158500000Y-106400000D03*
X155960000Y-108940000D03*
X158500000Y-108940000D03*
X155960000Y-111480000D03*
X158500000Y-111480000D03*
%TD*%
D12*
%TO.C,H4*%
X84000000Y-116500000D03*
%TD*%
D15*
%TO.C,R3*%
X157000000Y-74500000D03*
X159000000Y-74500000D03*
%TD*%
D16*
%TO.C,C3*%
X124000000Y-73000000D03*
X124000000Y-77800000D03*
%TD*%
D17*
%TO.C,C9*%
X131437500Y-78120000D03*
X128562500Y-78120000D03*
%TD*%
D18*
%TO.C,R6*%
X137500000Y-65000000D03*
X135500000Y-65000000D03*
%TD*%
D19*
%TO.C,RV1*%
X91500000Y-88200000D03*
X91500000Y-91300000D03*
%TD*%
D18*
%TO.C,R5*%
X116250000Y-87500000D03*
X114250000Y-87500000D03*
%TD*%
D17*
%TO.C,C7*%
X145500000Y-65000000D03*
X142625000Y-65000000D03*
%TD*%
D20*
%TO.C,D1*%
X96500000Y-87200000D03*
X96500000Y-91500000D03*
%TD*%
D21*
%TO.C,C4*%
X111750000Y-87500000D03*
X109850000Y-87500000D03*
%TD*%
D22*
%TO.C,C1*%
X104750000Y-89850000D03*
X104750000Y-91750000D03*
%TD*%
D18*
%TO.C,R4*%
X116250000Y-90750000D03*
X114250000Y-90750000D03*
%TD*%
%TO.C,R2*%
X138250000Y-81500000D03*
X136250000Y-81500000D03*
%TD*%
D22*
%TO.C,C2*%
X102500000Y-89850000D03*
X102500000Y-91750000D03*
%TD*%
D23*
%TO.C,F1*%
X95100000Y-83750000D03*
X97900000Y-83750000D03*
%TD*%
D24*
%TO.C,U2*%
X107100000Y-87500000D03*
X104800000Y-87500000D03*
D25*
X104800000Y-81200000D03*
D24*
X102500000Y-87500000D03*
%TD*%
D26*
%TO.C,U1*%
X140250000Y-72337500D03*
X140750000Y-72337500D03*
X141250000Y-72337500D03*
X141750000Y-72337500D03*
X142250000Y-72337500D03*
X142750000Y-72337500D03*
X143250000Y-72337500D03*
X143750000Y-72337500D03*
X144250000Y-72337500D03*
X144750000Y-72337500D03*
X145250000Y-72337500D03*
X145750000Y-72337500D03*
D27*
X147162500Y-73750000D03*
X147162500Y-74250000D03*
X147162500Y-74750000D03*
X147162500Y-75250000D03*
X147162500Y-75750000D03*
X147162500Y-76250000D03*
X147162500Y-76750000D03*
X147162500Y-77250000D03*
X147162500Y-77750000D03*
X147162500Y-78250000D03*
X147162500Y-78750000D03*
X147162500Y-79250000D03*
D26*
X145750000Y-80662500D03*
X145250000Y-80662500D03*
X144750000Y-80662500D03*
X144250000Y-80662500D03*
X143750000Y-80662500D03*
X143250000Y-80662500D03*
X142750000Y-80662500D03*
X142250000Y-80662500D03*
X141750000Y-80662500D03*
X141250000Y-80662500D03*
X140750000Y-80662500D03*
X140250000Y-80662500D03*
D27*
X138837500Y-79250000D03*
X138837500Y-78750000D03*
X138837500Y-78250000D03*
X138837500Y-77750000D03*
X138837500Y-77250000D03*
X138837500Y-76750000D03*
X138837500Y-76250000D03*
X138837500Y-75750000D03*
X138837500Y-75250000D03*
X138837500Y-74750000D03*
X138837500Y-74250000D03*
X138837500Y-73750000D03*
D28*
X143000000Y-76500000D03*
%TD*%
D15*
%TO.C,R7*%
X131500000Y-65000000D03*
X133500000Y-65000000D03*
%TD*%
%TO.C,R9*%
X157000000Y-79500000D03*
X159000000Y-79500000D03*
%TD*%
D17*
%TO.C,C8*%
X144500000Y-86000000D03*
X141625000Y-86000000D03*
%TD*%
D18*
%TO.C,R1*%
X159000000Y-72000000D03*
X157000000Y-72000000D03*
%TD*%
D15*
%TO.C,R8*%
X157000000Y-77000000D03*
X159000000Y-77000000D03*
%TD*%
M02*
