%TF.GenerationSoftware,KiCad,Pcbnew,9.0.6-9.0.6~ubuntu22.04.1*%
%TF.CreationDate,2026-01-07T10:52:52-05:00*%
%TF.ProjectId,Hyperdrift-Display-Controller,48797065-7264-4726-9966-742d44697370,rev?*%
%TF.SameCoordinates,Original*%
%TF.FileFunction,Copper,L2,Bot*%
%TF.FilePolarity,Positive*%
%FSLAX46Y46*%
G04 Gerber Fmt 4.6, Leading zero omitted, Abs format (unit mm)*
G04 Created by KiCad (PCBNEW 9.0.6-9.0.6~ubuntu22.04.1) date 2026-01-07 10:52:52*
%MOMM*%
%LPD*%
G01*
G04 APERTURE LIST*
G04 Aperture macros list*
%AMRoundRect*
0 Rectangle with rounded corners*
0 $1 Rounding radius*
0 $2 $3 $4 $5 $6 $7 $8 $9 X,Y pos of 4 corners*
0 Add a 4 corners polygon primitive as box body*
4,1,4,$2,$3,$4,$5,$6,$7,$8,$9,$2,$3,0*
0 Add four circle primitives for the rounded corners*
1,1,$1+$1,$2,$3*
1,1,$1+$1,$4,$5*
1,1,$1+$1,$6,$7*
1,1,$1+$1,$8,$9*
0 Add four rect primitives between the rounded corners*
20,1,$1+$1,$2,$3,$4,$5,0*
20,1,$1+$1,$4,$5,$6,$7,0*
20,1,$1+$1,$6,$7,$8,$9,0*
20,1,$1+$1,$8,$9,$2,$3,0*%
G04 Aperture macros list end*
%TA.AperFunction,ComponentPad*%
%ADD10RoundRect,0.250000X-0.600000X-0.600000X0.600000X-0.600000X0.600000X0.600000X-0.600000X0.600000X0*%
%TD*%
%TA.AperFunction,ComponentPad*%
%ADD11C,1.700000*%
%TD*%
%TA.AperFunction,ComponentPad*%
%ADD12R,1.700000X1.700000*%
%TD*%
%TA.AperFunction,ComponentPad*%
%ADD13O,1.700000X1.700000*%
%TD*%
%TA.AperFunction,SMDPad,CuDef*%
%ADD14RoundRect,0.250000X-0.350000X-0.450000X0.350000X-0.450000X0.350000X0.450000X-0.350000X0.450000X0*%
%TD*%
%TA.AperFunction,SMDPad,CuDef*%
%ADD15R,1.400000X3.000000*%
%TD*%
%TA.AperFunction,SMDPad,CuDef*%
%ADD16RoundRect,0.250000X0.537500X0.425000X-0.537500X0.425000X-0.537500X-0.425000X0.537500X-0.425000X0*%
%TD*%
%TA.AperFunction,SMDPad,CuDef*%
%ADD17RoundRect,0.250000X0.350000X0.450000X-0.350000X0.450000X-0.350000X-0.450000X0.350000X-0.450000X0*%
%TD*%
%TA.AperFunction,SMDPad,CuDef*%
%ADD18RoundRect,0.250000X-0.625000X0.400000X-0.625000X-0.400000X0.625000X-0.400000X0.625000X0.400000X0*%
%TD*%
%TA.AperFunction,SMDPad,CuDef*%
%ADD19RoundRect,0.250000X-0.900000X1.000000X-0.900000X-1.000000X0.900000X-1.000000X0.900000X1.000000X0*%
%TD*%
%TA.AperFunction,SMDPad,CuDef*%
%ADD20RoundRect,0.250000X0.250000X0.475000X-0.250000X0.475000X-0.250000X-0.475000X0.250000X-0.475000X0*%
%TD*%
%TA.AperFunction,SMDPad,CuDef*%
%ADD21RoundRect,0.250000X-0.475000X0.250000X-0.475000X-0.250000X0.475000X-0.250000X0.475000X0.250000X0*%
%TD*%
%TA.AperFunction,SMDPad,CuDef*%
%ADD22R,1.600000X1.800000*%
%TD*%
%TA.AperFunction,SMDPad,CuDef*%
%ADD23RoundRect,0.375000X0.375000X-0.625000X0.375000X0.625000X-0.375000X0.625000X-0.375000X-0.625000X0*%
%TD*%
%TA.AperFunction,SMDPad,CuDef*%
%ADD24RoundRect,0.500000X1.400000X-0.500000X1.400000X0.500000X-1.400000X0.500000X-1.400000X-0.500000X0*%
%TD*%
%TA.AperFunction,SMDPad,CuDef*%
%ADD25RoundRect,0.075000X-0.075000X0.662500X-0.075000X-0.662500X0.075000X-0.662500X0.075000X0.662500X0*%
%TD*%
%TA.AperFunction,SMDPad,CuDef*%
%ADD26RoundRect,0.075000X-0.662500X0.075000X-0.662500X-0.075000X0.662500X-0.075000X0.662500X0.075000X0*%
%TD*%
%TA.AperFunction,HeatsinkPad*%
%ADD27R,5.000000X5.000000*%
%TD*%
%TA.AperFunction,ViaPad*%
%ADD28C,0.600000*%
%TD*%
%TA.AperFunction,Conductor*%
%ADD29C,0.150000*%
%TD*%
%TA.AperFunction,Conductor*%
%ADD30C,0.250000*%
%TD*%
G04 APERTURE END LIST*
D10*
%TO.P,J1,1,Pin_1*%
%TO.N,SINK_{00}*%
X128000000Y-88620000D03*
D11*
%TO.P,J1,2,Pin_2*%
%TO.N,SINK_{01}*%
X130540000Y-88620000D03*
%TO.P,J1,3,Pin_3*%
%TO.N,SINK_{02}*%
X128000000Y-91160000D03*
%TO.P,J1,4,Pin_4*%
%TO.N,SINK_{03}*%
X130540000Y-91160000D03*
%TO.P,J1,5,Pin_5*%
%TO.N,SRC_{00}*%
X128000000Y-93700000D03*
%TO.P,J1,6,Pin_6*%
%TO.N,SRC_{01}*%
X130540000Y-93700000D03*
%TO.P,J1,7,Pin_7*%
%TO.N,SRC_{02}*%
X128000000Y-96240000D03*
%TO.P,J1,8,Pin_8*%
%TO.N,SRC_{03}*%
X130540000Y-96240000D03*
%TO.P,J1,9,Pin_9*%
%TO.N,SRC_{04}*%
X128000000Y-98780000D03*
%TO.P,J1,10,Pin_10*%
%TO.N,SRC_{05}*%
X130540000Y-98780000D03*
%TO.P,J1,11,Pin_11*%
%TO.N,SRC_{06}*%
X128000000Y-101320000D03*
%TO.P,J1,12,Pin_12*%
%TO.N,SRC_{07}*%
X130540000Y-101320000D03*
%TO.P,J1,13,Pin_13*%
%TO.N,SRC_{08}*%
X128000000Y-103860000D03*
%TO.P,J1,14,Pin_14*%
%TO.N,SRC_{09}*%
X130540000Y-103860000D03*
%TO.P,J1,15,Pin_15*%
%TO.N,SRC_{10}*%
X128000000Y-106400000D03*
%TO.P,J1,16,Pin_16*%
%TO.N,SRC_{11}*%
X130540000Y-106400000D03*
%TO.P,J1,17,Pin_17*%
%TO.N,SRC_{12}*%
X128000000Y-108940000D03*
%TO.P,J1,18,Pin_18*%
%TO.N,SRC_{13}*%
X130540000Y-108940000D03*
%TO.P,J1,19,Pin_19*%
%TO.N,SRC_{14}*%
X128000000Y-111480000D03*
%TO.P,J1,20,Pin_20*%
%TO.N,SRC_{15}*%
X130540000Y-111480000D03*
%TD*%
D10*
%TO.P,J4,1,Pin_1*%
%TO.N,VIN*%
X85500000Y-88000000D03*
D11*
%TO.P,J4,2,Pin_2*%
X88040000Y-88000000D03*
%TO.P,J4,3,Pin_3*%
X85500000Y-90540000D03*
%TO.P,J4,4,Pin_4*%
%TO.N,GND*%
X88040000Y-90540000D03*
%TO.P,J4,5,Pin_5*%
X85500000Y-93080000D03*
%TO.P,J4,6,Pin_6*%
X88040000Y-93080000D03*
%TO.P,J4,7,Pin_7*%
%TO.N,SDA*%
X85500000Y-95620000D03*
%TO.P,J4,8,Pin_8*%
%TO.N,SCL*%
X88040000Y-95620000D03*
%TO.P,J4,9,Pin_9*%
%TO.N,IICRST*%
X85500000Y-98160000D03*
%TO.P,J4,10,Pin_10*%
%TO.N,SDB*%
X88040000Y-98160000D03*
%TD*%
D12*
%TO.P,J6,1,Pin_1*%
%TO.N,VIN*%
X169000000Y-64140000D03*
D13*
%TO.P,J6,2,Pin_2*%
%TO.N,12V*%
X169000000Y-66680000D03*
%TO.P,J6,3,Pin_3*%
%TO.N,5V*%
X169000000Y-69220000D03*
%TO.P,J6,4,Pin_4*%
%TO.N,3.3V*%
X169000000Y-71760000D03*
%TO.P,J6,5,Pin_5*%
%TO.N,GND*%
X169000000Y-74300000D03*
%TO.P,J6,6,Pin_6*%
X169000000Y-76840000D03*
%TO.P,J6,7,Pin_7*%
%TO.N,IICRST*%
X169000000Y-79380000D03*
%TO.P,J6,8,Pin_8*%
%TO.N,SDB*%
X169000000Y-81920000D03*
%TO.P,J6,9,Pin_9*%
%TO.N,SDA*%
X169000000Y-84460000D03*
%TO.P,J6,10,Pin_10*%
%TO.N,SCL*%
X169000000Y-87000000D03*
%TD*%
D10*
%TO.P,J2,1,Pin_1*%
%TO.N,SINK_{04}*%
X141960000Y-88620000D03*
D11*
%TO.P,J2,2,Pin_2*%
%TO.N,SINK_{05}*%
X144500000Y-88620000D03*
%TO.P,J2,3,Pin_3*%
%TO.N,SINK_{06}*%
X141960000Y-91160000D03*
%TO.P,J2,4,Pin_4*%
%TO.N,SINK_{07}*%
X144500000Y-91160000D03*
%TO.P,J2,5,Pin_5*%
%TO.N,SRC_{00}*%
X141960000Y-93700000D03*
%TO.P,J2,6,Pin_6*%
%TO.N,SRC_{01}*%
X144500000Y-93700000D03*
%TO.P,J2,7,Pin_7*%
%TO.N,SRC_{02}*%
X141960000Y-96240000D03*
%TO.P,J2,8,Pin_8*%
%TO.N,SRC_{03}*%
X144500000Y-96240000D03*
%TO.P,J2,9,Pin_9*%
%TO.N,SRC_{04}*%
X141960000Y-98780000D03*
%TO.P,J2,10,Pin_10*%
%TO.N,SRC_{05}*%
X144500000Y-98780000D03*
%TO.P,J2,11,Pin_11*%
%TO.N,SRC_{06}*%
X141960000Y-101320000D03*
%TO.P,J2,12,Pin_12*%
%TO.N,SRC_{07}*%
X144500000Y-101320000D03*
%TO.P,J2,13,Pin_13*%
%TO.N,SRC_{08}*%
X141960000Y-103860000D03*
%TO.P,J2,14,Pin_14*%
%TO.N,SRC_{09}*%
X144500000Y-103860000D03*
%TO.P,J2,15,Pin_15*%
%TO.N,SRC_{10}*%
X141960000Y-106400000D03*
%TO.P,J2,16,Pin_16*%
%TO.N,SRC_{11}*%
X144500000Y-106400000D03*
%TO.P,J2,17,Pin_17*%
%TO.N,SRC_{12}*%
X141960000Y-108940000D03*
%TO.P,J2,18,Pin_18*%
%TO.N,SRC_{13}*%
X144500000Y-108940000D03*
%TO.P,J2,19,Pin_19*%
%TO.N,SRC_{14}*%
X141960000Y-111480000D03*
%TO.P,J2,20,Pin_20*%
%TO.N,SRC_{15}*%
X144500000Y-111480000D03*
%TD*%
D10*
%TO.P,J5,1,Pin_1*%
%TO.N,VIN*%
X169000000Y-96840000D03*
D11*
%TO.P,J5,2,Pin_2*%
X171540000Y-96840000D03*
%TO.P,J5,3,Pin_3*%
X169000000Y-99380000D03*
%TO.P,J5,4,Pin_4*%
%TO.N,GND*%
X171540000Y-99380000D03*
%TO.P,J5,5,Pin_5*%
X169000000Y-101920000D03*
%TO.P,J5,6,Pin_6*%
X171540000Y-101920000D03*
%TO.P,J5,7,Pin_7*%
%TO.N,SDA*%
X169000000Y-104460000D03*
%TO.P,J5,8,Pin_8*%
%TO.N,SCL*%
X171540000Y-104460000D03*
%TO.P,J5,9,Pin_9*%
%TO.N,IICRST*%
X169000000Y-107000000D03*
%TO.P,J5,10,Pin_10*%
%TO.N,SDB*%
X171540000Y-107000000D03*
%TD*%
D10*
%TO.P,J3,1,Pin_1*%
%TO.N,SINK_{08}*%
X155960000Y-88620000D03*
D11*
%TO.P,J3,2,Pin_2*%
%TO.N,SINK_{09}*%
X158500000Y-88620000D03*
%TO.P,J3,3,Pin_3*%
%TO.N,SINK_{10}*%
X155960000Y-91160000D03*
%TO.P,J3,4,Pin_4*%
%TO.N,SINK_{11}*%
X158500000Y-91160000D03*
%TO.P,J3,5,Pin_5*%
%TO.N,SRC_{00}*%
X155960000Y-93700000D03*
%TO.P,J3,6,Pin_6*%
%TO.N,SRC_{01}*%
X158500000Y-93700000D03*
%TO.P,J3,7,Pin_7*%
%TO.N,SRC_{02}*%
X155960000Y-96240000D03*
%TO.P,J3,8,Pin_8*%
%TO.N,SRC_{03}*%
X158500000Y-96240000D03*
%TO.P,J3,9,Pin_9*%
%TO.N,SRC_{04}*%
X155960000Y-98780000D03*
%TO.P,J3,10,Pin_10*%
%TO.N,SRC_{05}*%
X158500000Y-98780000D03*
%TO.P,J3,11,Pin_11*%
%TO.N,SRC_{06}*%
X155960000Y-101320000D03*
%TO.P,J3,12,Pin_12*%
%TO.N,SRC_{07}*%
X158500000Y-101320000D03*
%TO.P,J3,13,Pin_13*%
%TO.N,SRC_{08}*%
X155960000Y-103860000D03*
%TO.P,J3,14,Pin_14*%
%TO.N,SRC_{09}*%
X158500000Y-103860000D03*
%TO.P,J3,15,Pin_15*%
%TO.N,SRC_{10}*%
X155960000Y-106400000D03*
%TO.P,J3,16,Pin_16*%
%TO.N,SRC_{11}*%
X158500000Y-106400000D03*
%TO.P,J3,17,Pin_17*%
%TO.N,SRC_{12}*%
X155960000Y-108940000D03*
%TO.P,J3,18,Pin_18*%
%TO.N,SRC_{13}*%
X158500000Y-108940000D03*
%TO.P,J3,19,Pin_19*%
%TO.N,SRC_{14}*%
X155960000Y-111480000D03*
%TO.P,J3,20,Pin_20*%
%TO.N,SRC_{15}*%
X158500000Y-111480000D03*
%TD*%
D14*
%TO.P,R3,1*%
%TO.N,3.3V*%
X157000000Y-74500000D03*
%TO.P,R3,2*%
%TO.N,SDB*%
X159000000Y-74500000D03*
%TD*%
D15*
%TO.P,C3,1*%
%TO.N,5V*%
X124000000Y-73000000D03*
%TO.P,C3,2*%
%TO.N,GND*%
X124000000Y-77800000D03*
%TD*%
D16*
%TO.P,C9,1*%
%TO.N,5V*%
X131437500Y-78120000D03*
%TO.P,C9,2*%
%TO.N,GND*%
X128562500Y-78120000D03*
%TD*%
D17*
%TO.P,R6,1*%
%TO.N,ADDR2*%
X137500000Y-65000000D03*
%TO.P,R6,2*%
%TO.N,GND*%
X135500000Y-65000000D03*
%TD*%
D18*
%TO.P,RV1,1*%
%TO.N,VIN*%
X91500000Y-88200000D03*
%TO.P,RV1,2*%
%TO.N,GND*%
X91500000Y-91300000D03*
%TD*%
D17*
%TO.P,R5,1*%
%TO.N,5V*%
X116250000Y-87500000D03*
%TO.P,R5,2*%
%TO.N,3.3V*%
X114250000Y-87500000D03*
%TD*%
D16*
%TO.P,C7,1*%
%TO.N,5V*%
X145500000Y-65000000D03*
%TO.P,C7,2*%
%TO.N,GND*%
X142625000Y-65000000D03*
%TD*%
D19*
%TO.P,D1,1,K*%
%TO.N,VIN*%
X96500000Y-87200000D03*
%TO.P,D1,2,A*%
%TO.N,GND*%
X96500000Y-91500000D03*
%TD*%
D20*
%TO.P,C4,1*%
%TO.N,3.3V*%
X111750000Y-87500000D03*
%TO.P,C4,2*%
%TO.N,GND*%
X109850000Y-87500000D03*
%TD*%
D21*
%TO.P,C1,1*%
%TO.N,5V*%
X104750000Y-89850000D03*
%TO.P,C1,2*%
%TO.N,GND*%
X104750000Y-91750000D03*
%TD*%
D17*
%TO.P,R4,1*%
%TO.N,3.3V*%
X116250000Y-90750000D03*
%TO.P,R4,2*%
%TO.N,GND*%
X114250000Y-90750000D03*
%TD*%
%TO.P,R2,1*%
%TO.N,/RSET*%
X138250000Y-81500000D03*
%TO.P,R2,2*%
%TO.N,GND*%
X136250000Y-81500000D03*
%TD*%
D21*
%TO.P,C2,1*%
%TO.N,12V*%
X102500000Y-89850000D03*
%TO.P,C2,2*%
%TO.N,GND*%
X102500000Y-91750000D03*
%TD*%
D22*
%TO.P,F1,1*%
%TO.N,VIN*%
X95100000Y-83750000D03*
%TO.P,F1,2*%
%TO.N,12V*%
X97900000Y-83750000D03*
%TD*%
D23*
%TO.P,U2,1,GND*%
%TO.N,GND*%
X107100000Y-87500000D03*
%TO.P,U2,2,VO*%
%TO.N,5V*%
X104800000Y-87500000D03*
D24*
X104800000Y-81200000D03*
D23*
%TO.P,U2,3,VI*%
%TO.N,12V*%
X102500000Y-87500000D03*
%TD*%
D25*
%TO.P,U1,1,NC*%
%TO.N,unconnected-(U1-NC-Pad1)*%
X140250000Y-72337500D03*
%TO.P,U1,2,SW1*%
%TO.N,SINK_{00}*%
X140750000Y-72337500D03*
%TO.P,U1,3,SW2*%
%TO.N,SINK_{01}*%
X141250000Y-72337500D03*
%TO.P,U1,4,SW3*%
%TO.N,SINK_{02}*%
X141750000Y-72337500D03*
%TO.P,U1,5,PGND*%
%TO.N,GND*%
X142250000Y-72337500D03*
%TO.P,U1,6,SW4*%
%TO.N,SINK_{03}*%
X142750000Y-72337500D03*
%TO.P,U1,7,SW5*%
%TO.N,SINK_{04}*%
X143250000Y-72337500D03*
%TO.P,U1,8,SW6*%
%TO.N,SINK_{05}*%
X143750000Y-72337500D03*
%TO.P,U1,9,SW7*%
%TO.N,SINK_{06}*%
X144250000Y-72337500D03*
%TO.P,U1,10,SW8*%
%TO.N,SINK_{07}*%
X144750000Y-72337500D03*
%TO.P,U1,11,SW9*%
%TO.N,SINK_{08}*%
X145250000Y-72337500D03*
%TO.P,U1,12,PGND*%
%TO.N,GND*%
X145750000Y-72337500D03*
D26*
%TO.P,U1,13,SW10*%
%TO.N,SINK_{09}*%
X147162500Y-73750000D03*
%TO.P,U1,14,SW11*%
%TO.N,SINK_{10}*%
X147162500Y-74250000D03*
%TO.P,U1,15,SW12*%
%TO.N,SINK_{11}*%
X147162500Y-74750000D03*
%TO.P,U1,16,CS1*%
%TO.N,SRC_{00}*%
X147162500Y-75250000D03*
%TO.P,U1,17,CS2*%
%TO.N,SRC_{01}*%
X147162500Y-75750000D03*
%TO.P,U1,18,CS3*%
%TO.N,SRC_{02}*%
X147162500Y-76250000D03*
%TO.P,U1,19,CS4*%
%TO.N,SRC_{03}*%
X147162500Y-76750000D03*
%TO.P,U1,20,PVCC*%
%TO.N,5V*%
X147162500Y-77250000D03*
%TO.P,U1,21,CS5*%
%TO.N,SRC_{04}*%
X147162500Y-77750000D03*
%TO.P,U1,22,CS6*%
%TO.N,SRC_{05}*%
X147162500Y-78250000D03*
%TO.P,U1,23,CS7*%
%TO.N,SRC_{06}*%
X147162500Y-78750000D03*
%TO.P,U1,24,CS8*%
%TO.N,SRC_{07}*%
X147162500Y-79250000D03*
D25*
%TO.P,U1,25,CS9*%
%TO.N,SRC_{08}*%
X145750000Y-80662500D03*
%TO.P,U1,26,CS10*%
%TO.N,SRC_{09}*%
X145250000Y-80662500D03*
%TO.P,U1,27,CS11*%
%TO.N,SRC_{10}*%
X144750000Y-80662500D03*
%TO.P,U1,28,CS12*%
%TO.N,SRC_{11}*%
X144250000Y-80662500D03*
%TO.P,U1,29,PVCC*%
%TO.N,5V*%
X143750000Y-80662500D03*
%TO.P,U1,30,CS13*%
%TO.N,SRC_{12}*%
X143250000Y-80662500D03*
%TO.P,U1,31,CS14*%
%TO.N,SRC_{13}*%
X142750000Y-80662500D03*
%TO.P,U1,32,CS15*%
%TO.N,SRC_{14}*%
X142250000Y-80662500D03*
%TO.P,U1,33,CS16*%
%TO.N,SRC_{15}*%
X141750000Y-80662500D03*
%TO.P,U1,34,AGND*%
%TO.N,GND*%
X141250000Y-80662500D03*
%TO.P,U1,35,RSET*%
%TO.N,/RSET*%
X140750000Y-80662500D03*
%TO.P,U1,36,NC*%
%TO.N,unconnected-(U1-NC-Pad36)*%
X140250000Y-80662500D03*
D26*
%TO.P,U1,37,AVCC*%
%TO.N,5V*%
X138837500Y-79250000D03*
%TO.P,U1,38,DVCC*%
X138837500Y-78750000D03*
%TO.P,U1,39,VIO*%
%TO.N,3.3V*%
X138837500Y-78250000D03*
%TO.P,U1,40,SYNC*%
%TO.N,unconnected-(U1-SYNC-Pad40)*%
X138837500Y-77750000D03*
%TO.P,U1,41,SDA*%
%TO.N,SDA*%
X138837500Y-77250000D03*
%TO.P,U1,42,SCL*%
%TO.N,SCL*%
X138837500Y-76750000D03*
%TO.P,U1,43,ADDR1*%
%TO.N,ADDR1*%
X138837500Y-76250000D03*
%TO.P,U1,44,ADDR2*%
%TO.N,ADDR2*%
X138837500Y-75750000D03*
%TO.P,U1,45,~{INTB}*%
%TO.N,unconnected-(U1-~{INTB}-Pad45)*%
X138837500Y-75250000D03*
%TO.P,U1,46,~{SDB}*%
%TO.N,SDB*%
X138837500Y-74750000D03*
%TO.P,U1,47,IICRST*%
%TO.N,IICRST*%
X138837500Y-74250000D03*
%TO.P,U1,48,GND*%
%TO.N,GND*%
X138837500Y-73750000D03*
D27*
%TO.P,U1,49,GND*%
X143000000Y-76500000D03*
%TD*%
D14*
%TO.P,R7,1*%
%TO.N,ADDR1*%
X131500000Y-65000000D03*
%TO.P,R7,2*%
%TO.N,GND*%
X133500000Y-65000000D03*
%TD*%
%TO.P,R9,1*%
%TO.N,3.3V*%
X157000000Y-79500000D03*
%TO.P,R9,2*%
%TO.N,SCL*%
X159000000Y-79500000D03*
%TD*%
D16*
%TO.P,C8,1*%
%TO.N,5V*%
X144500000Y-86000000D03*
%TO.P,C8,2*%
%TO.N,GND*%
X141625000Y-86000000D03*
%TD*%
D17*
%TO.P,R1,1*%
%TO.N,IICRST*%
X159000000Y-72000000D03*
%TO.P,R1,2*%
%TO.N,GND*%
X157000000Y-72000000D03*
%TD*%
D14*
%TO.P,R8,1*%
%TO.N,3.3V*%
X157000000Y-77000000D03*
%TO.P,R8,2*%
%TO.N,SDA*%
X159000000Y-77000000D03*
%TD*%
D28*
%TO.N,SINK_{00}*%
X137000000Y-72500000D03*
%TO.N,SINK_{01}*%
X137282724Y-71750000D03*
%TO.N,SINK_{02}*%
X137771529Y-70675529D03*
%TO.N,SINK_{03}*%
X136531587Y-71031587D03*
%TO.N,5V*%
X125750000Y-73500000D03*
X146500000Y-86250000D03*
X145000000Y-66250000D03*
X106000000Y-79500000D03*
X144893414Y-82856586D03*
X145927002Y-77779822D03*
X137000000Y-79250000D03*
X131550000Y-76100000D03*
%TO.N,GND*%
X157000000Y-73250000D03*
X143500000Y-73500000D03*
X138733058Y-73175000D03*
X142250000Y-69500000D03*
X128850000Y-72350000D03*
X142750000Y-62750000D03*
X147000000Y-71750000D03*
%TO.N,SINK_{07}*%
X155466000Y-86250000D03*
%TO.N,SINK_{06}*%
X156091000Y-85000000D03*
X148500000Y-91999000D03*
%TO.N,SINK_{05}*%
X130500000Y-71500000D03*
X143750000Y-67250000D03*
%TO.N,SINK_{04}*%
X143125000Y-67875000D03*
X131419232Y-71464652D03*
%TO.N,SDB*%
X140002000Y-75257114D03*
X132750000Y-79875000D03*
%TO.N,SDA*%
X136550000Y-77493058D03*
X130500000Y-55000000D03*
X160000000Y-81425000D03*
%TO.N,IICRST*%
X137500000Y-74175000D03*
%TO.N,SCL*%
X131750000Y-60000000D03*
X135481833Y-76800000D03*
X159000000Y-82075000D03*
%TO.N,ADDR2*%
X137000000Y-66250000D03*
%TO.N,ADDR1*%
X140000000Y-63349000D03*
%TD*%
D29*
%TO.N,SRC_{00}*%
X155960000Y-93700000D02*
X153000000Y-90740000D01*
X150431650Y-75250000D02*
X147162500Y-75250000D01*
X153000000Y-90740000D02*
X153000000Y-77818350D01*
X153000000Y-77818350D02*
X150431650Y-75250000D01*
D30*
%TO.N,SINK_{00}*%
X140427161Y-71207983D02*
X139986925Y-71207983D01*
X138694908Y-72500000D02*
X139986925Y-71207983D01*
X137000000Y-72500000D02*
X138694908Y-72500000D01*
X140750000Y-71530822D02*
X140427161Y-71207983D01*
X140750000Y-72337500D02*
X140750000Y-71530822D01*
D29*
%TO.N,SRC_{01}*%
X147162500Y-75750000D02*
X150590825Y-75750000D01*
X152750000Y-92082405D02*
X155493595Y-94826000D01*
X150590825Y-75750000D02*
X152750000Y-77909175D01*
X155493595Y-94826000D02*
X157374000Y-94826000D01*
X157374000Y-94826000D02*
X158500000Y-93700000D01*
X152750000Y-77909175D02*
X152750000Y-92082405D01*
%TO.N,SRC_{02}*%
X150750000Y-76250000D02*
X152500000Y-78000000D01*
X153985000Y-94235000D02*
X152500000Y-92750000D01*
X153985000Y-94265000D02*
X155960000Y-96240000D01*
X152500000Y-78000000D02*
X152500000Y-92750000D01*
X147162500Y-76250000D02*
X150750000Y-76250000D01*
X153985000Y-94265000D02*
X153985000Y-94235000D01*
%TO.N,SRC_{03}*%
X157374000Y-97366000D02*
X158500000Y-96240000D01*
X147162500Y-76750000D02*
X150909174Y-76750000D01*
X152250000Y-94122405D02*
X155493595Y-97366000D01*
X150909174Y-76750000D02*
X152250000Y-78090826D01*
X155493595Y-97366000D02*
X157374000Y-97366000D01*
X152250000Y-78090826D02*
X152250000Y-94122405D01*
%TO.N,SRC_{04}*%
X147162500Y-77750000D02*
X150250000Y-77750000D01*
X152009000Y-79509000D02*
X152009000Y-94829000D01*
X152009000Y-94829000D02*
X155960000Y-98780000D01*
X150250000Y-77750000D02*
X152009000Y-79509000D01*
%TO.N,SRC_{05}*%
X151768000Y-80018000D02*
X151768000Y-96180405D01*
X147162500Y-78250000D02*
X150000000Y-78250000D01*
X157374000Y-99906000D02*
X158500000Y-98780000D01*
X150000000Y-78250000D02*
X151768000Y-80018000D01*
X151768000Y-96180405D02*
X155493595Y-99906000D01*
X155493595Y-99906000D02*
X157374000Y-99906000D01*
%TO.N,SRC_{06}*%
X150159174Y-78750000D02*
X151454587Y-80045413D01*
X151454587Y-96814587D02*
X155960000Y-101320000D01*
X147162500Y-78750000D02*
X150159174Y-78750000D01*
X151454587Y-80045413D02*
X151454587Y-96814587D01*
%TO.N,SRC_{07}*%
X150250000Y-79250000D02*
X151213587Y-80213587D01*
X147162500Y-79250000D02*
X150250000Y-79250000D01*
X155493595Y-102446000D02*
X157374000Y-102446000D01*
X157374000Y-102446000D02*
X158500000Y-101320000D01*
X151213587Y-80213587D02*
X151213587Y-98165992D01*
X151213587Y-98165992D02*
X155493595Y-102446000D01*
%TO.N,SRC_{08}*%
X150972587Y-85472587D02*
X146500000Y-81000000D01*
X146087500Y-81000000D02*
X145750000Y-80662500D01*
X146500000Y-81000000D02*
X146087500Y-81000000D01*
X150972587Y-98872587D02*
X150972587Y-85472587D01*
X155960000Y-103860000D02*
X150972587Y-98872587D01*
%TO.N,SRC_{09}*%
X146954587Y-81795413D02*
X150731587Y-85572413D01*
X150731587Y-85572413D02*
X150731587Y-100223992D01*
X157374000Y-104986000D02*
X158500000Y-103860000D01*
X145250000Y-81500000D02*
X145545413Y-81795413D01*
X150731587Y-100223992D02*
X155493595Y-104986000D01*
X145250000Y-80662500D02*
X145250000Y-81500000D01*
X155493595Y-104986000D02*
X157374000Y-104986000D01*
X145545413Y-81795413D02*
X146954587Y-81795413D01*
%TO.N,SRC_{10}*%
X150490587Y-100930587D02*
X155960000Y-106400000D01*
X150490587Y-85672239D02*
X150490587Y-100930587D01*
X144750000Y-81399999D02*
X145690827Y-82340826D01*
X147159174Y-82340826D02*
X150490587Y-85672239D01*
X145690827Y-82340826D02*
X147159174Y-82340826D01*
X144750000Y-80662500D02*
X144750000Y-81399999D01*
%TO.N,SRC_{11}*%
X144250000Y-80662500D02*
X144250000Y-81399999D01*
X144250000Y-81399999D02*
X145736240Y-82886239D01*
X150249587Y-102281992D02*
X155493595Y-107526000D01*
X157374000Y-107526000D02*
X158500000Y-106400000D01*
X150249587Y-85772065D02*
X150249587Y-102281992D01*
X155493595Y-107526000D02*
X157374000Y-107526000D01*
X145736240Y-82886239D02*
X147363761Y-82886239D01*
X147363761Y-82886239D02*
X150249587Y-85772065D01*
%TO.N,SRC_{12}*%
X147250000Y-83500000D02*
X150008587Y-86258587D01*
X144722240Y-83500000D02*
X143250000Y-82027760D01*
X150008587Y-86258587D02*
X150008587Y-102988587D01*
X143250000Y-80662500D02*
X143250000Y-82027760D01*
X144722240Y-83500000D02*
X147250000Y-83500000D01*
X150008587Y-102988587D02*
X155960000Y-108940000D01*
%TO.N,SRC_{13}*%
X147159174Y-83750000D02*
X144631415Y-83750000D01*
X149767587Y-86358413D02*
X147159174Y-83750000D01*
X149767587Y-104339992D02*
X149767587Y-86358413D01*
X144631415Y-83750000D02*
X142750000Y-81868585D01*
X155493595Y-110066000D02*
X149767587Y-104339992D01*
X157374000Y-110066000D02*
X155493595Y-110066000D01*
X142750000Y-81868585D02*
X142750000Y-80662500D01*
X158500000Y-108940000D02*
X157374000Y-110066000D01*
%TO.N,SRC_{14}*%
X149526587Y-89473413D02*
X149500000Y-89500000D01*
X149500000Y-89500000D02*
X149500000Y-105020000D01*
X144531589Y-83991000D02*
X147000000Y-83991000D01*
X142250000Y-80662500D02*
X142250000Y-81709411D01*
X142250000Y-81709411D02*
X144531589Y-83991000D01*
X147000000Y-83991000D02*
X149526587Y-86517587D01*
X149500000Y-105020000D02*
X155960000Y-111480000D01*
X149526587Y-86517587D02*
X149526587Y-89473413D01*
%TO.N,SRC_{15}*%
X149259000Y-106371405D02*
X155493595Y-112606000D01*
X141750000Y-81550236D02*
X144449764Y-84250000D01*
X144449764Y-84250000D02*
X146918174Y-84250000D01*
X155493595Y-112606000D02*
X157374000Y-112606000D01*
X149285587Y-86617413D02*
X149285587Y-88000000D01*
X149259000Y-88026587D02*
X149259000Y-106371405D01*
X149285587Y-88000000D02*
X149259000Y-88026587D01*
X146918174Y-84250000D02*
X149285587Y-86617413D01*
X157374000Y-112606000D02*
X158500000Y-111480000D01*
X141750000Y-80662500D02*
X141750000Y-81550236D01*
D30*
%TO.N,SINK_{01}*%
X137282724Y-71750000D02*
X137582356Y-71750000D01*
X140963377Y-69786623D02*
X141250000Y-70073246D01*
X139545733Y-69786623D02*
X140963377Y-69786623D01*
X141250000Y-70073246D02*
X141250000Y-72337500D01*
X137582356Y-71750000D02*
X139545733Y-69786623D01*
%TO.N,SINK_{02}*%
X140750000Y-69091000D02*
X139356058Y-69091000D01*
X137771529Y-70675529D02*
X139356058Y-69091000D01*
X140750000Y-69091000D02*
X141750000Y-70091000D01*
X141750000Y-70091000D02*
X141750000Y-72337500D01*
%TO.N,SINK_{03}*%
X142750000Y-72337500D02*
X142750000Y-71250000D01*
X142750000Y-71250000D02*
X142909000Y-71091000D01*
X136531587Y-71030173D02*
X136531587Y-71031587D01*
X142500000Y-68750000D02*
X138811760Y-68750000D01*
X142909000Y-69159000D02*
X142909000Y-71091000D01*
X138811760Y-68750000D02*
X136531587Y-71030173D01*
X142909000Y-69159000D02*
X142500000Y-68750000D01*
%TO.N,5V*%
X146500000Y-86250000D02*
X144750000Y-86250000D01*
X131437500Y-78120000D02*
X131437500Y-76212500D01*
X143750000Y-79855822D02*
X143750000Y-80662500D01*
X111703486Y-89000000D02*
X110676000Y-87972514D01*
X117633877Y-90987637D02*
X116845514Y-91776000D01*
X106000000Y-79500000D02*
X106000000Y-80000000D01*
X116845514Y-91776000D02*
X115654486Y-91776000D01*
X116250000Y-80750000D02*
X124000000Y-73000000D01*
X146355822Y-77250000D02*
X145826000Y-77779822D01*
X115324000Y-91445514D02*
X115324000Y-90054486D01*
X137000000Y-79250000D02*
X134700000Y-79250000D01*
X145500000Y-65000000D02*
X164780000Y-65000000D01*
X138837500Y-79250000D02*
X138837500Y-78750000D01*
X106126000Y-86174000D02*
X104800000Y-87500000D01*
X145506822Y-79599000D02*
X144006822Y-79599000D01*
X110676000Y-86779486D02*
X110070514Y-86174000D01*
X106000000Y-80000000D02*
X104800000Y-81200000D01*
X145826000Y-77779822D02*
X145826000Y-79279822D01*
X143750000Y-80662500D02*
X143750000Y-81713172D01*
X144750000Y-86250000D02*
X144500000Y-86000000D01*
X114269514Y-89000000D02*
X111703486Y-89000000D01*
X124500000Y-73500000D02*
X124000000Y-73000000D01*
X131550000Y-76100000D02*
X134700000Y-79250000D01*
X145000000Y-65500000D02*
X145500000Y-65000000D01*
X104800000Y-89800000D02*
X104750000Y-89850000D01*
X145826000Y-79279822D02*
X145506822Y-79599000D01*
X145000000Y-66250000D02*
X145000000Y-65500000D01*
X144006822Y-79599000D02*
X143750000Y-79855822D01*
X115654486Y-91776000D02*
X115324000Y-91445514D01*
X116250000Y-87500000D02*
X117633877Y-88883877D01*
X125750000Y-73500000D02*
X124500000Y-73500000D01*
X116250000Y-87500000D02*
X116250000Y-80750000D01*
X117633877Y-88883877D02*
X117633877Y-90987637D01*
X104800000Y-81200000D02*
X104800000Y-87500000D01*
X143750000Y-81713172D02*
X144893414Y-82856586D01*
X131437500Y-76212500D02*
X131550000Y-76100000D01*
X164780000Y-65000000D02*
X169000000Y-69220000D01*
X115324000Y-90054486D02*
X114269514Y-89000000D01*
X138837500Y-79250000D02*
X137000000Y-79250000D01*
X104800000Y-87500000D02*
X104800000Y-89800000D01*
X110070514Y-86174000D02*
X106126000Y-86174000D01*
X147162500Y-77250000D02*
X146355822Y-77250000D01*
X110676000Y-87972514D02*
X110676000Y-86779486D01*
%TO.N,GND*%
X95800000Y-91300000D02*
X91500000Y-91300000D01*
X118250000Y-83000000D02*
X123450000Y-77800000D01*
X117000000Y-92500000D02*
X118250000Y-91250000D01*
X107100000Y-89400000D02*
X109750000Y-89400000D01*
X141250000Y-78250000D02*
X143000000Y-76500000D01*
X109850000Y-87500000D02*
X109850000Y-89300000D01*
X128562500Y-72637500D02*
X128562500Y-78120000D01*
X102250000Y-91500000D02*
X102500000Y-91750000D01*
X142250000Y-75750000D02*
X143000000Y-76500000D01*
X128130000Y-78120000D02*
X127810000Y-77800000D01*
X128562500Y-78120000D02*
X128130000Y-78120000D01*
X158267000Y-70733000D02*
X165433000Y-70733000D01*
X127810000Y-77800000D02*
X124000000Y-77800000D01*
X118250000Y-91250000D02*
X118250000Y-83000000D01*
X140250000Y-73750000D02*
X143000000Y-76500000D01*
X170417000Y-93401486D02*
X167824000Y-95994486D01*
X109750000Y-89400000D02*
X111750000Y-89400000D01*
X142250000Y-72337500D02*
X142250000Y-75750000D01*
X114250000Y-92000000D02*
X114750000Y-92500000D01*
X170417000Y-78257000D02*
X170417000Y-93401486D01*
X169000000Y-76840000D02*
X170417000Y-78257000D01*
X89060000Y-90540000D02*
X89820000Y-91300000D01*
X96000000Y-91500000D02*
X95800000Y-91300000D01*
X138733058Y-73175000D02*
X138733058Y-73645558D01*
X128850000Y-72350000D02*
X128562500Y-72637500D01*
X123450000Y-77800000D02*
X124000000Y-77800000D01*
X141250000Y-80662500D02*
X141250000Y-78250000D01*
X145750000Y-72337500D02*
X145750000Y-73750000D01*
X136526000Y-63974000D02*
X135500000Y-65000000D01*
X157000000Y-73250000D02*
X157000000Y-72000000D01*
X142250000Y-69500000D02*
X142250000Y-72337500D01*
X142750000Y-62750000D02*
X142750000Y-64875000D01*
X89820000Y-91300000D02*
X91500000Y-91300000D01*
X145750000Y-72337500D02*
X146412500Y-72337500D01*
X143500000Y-73500000D02*
X143000000Y-74000000D01*
X102500000Y-91750000D02*
X104750000Y-91750000D01*
X114250000Y-90750000D02*
X113100000Y-90750000D01*
X169000000Y-101920000D02*
X171540000Y-101920000D01*
X141250000Y-82250000D02*
X141250000Y-80662500D01*
X88040000Y-93080000D02*
X85500000Y-93080000D01*
X157000000Y-72000000D02*
X158267000Y-70733000D01*
X88040000Y-93080000D02*
X89820000Y-91300000D01*
X104750000Y-91750000D02*
X107100000Y-89400000D01*
X167824000Y-95994486D02*
X167824000Y-100744000D01*
X141250000Y-85625000D02*
X141250000Y-82250000D01*
X143000000Y-74000000D02*
X143000000Y-76500000D01*
X165433000Y-70733000D02*
X169000000Y-74300000D01*
X171540000Y-99380000D02*
X171540000Y-101920000D01*
X107100000Y-89400000D02*
X107100000Y-87500000D01*
X113100000Y-90750000D02*
X111750000Y-89400000D01*
X169000000Y-74300000D02*
X169000000Y-76840000D01*
X146412500Y-72337500D02*
X147000000Y-71750000D01*
X114250000Y-90750000D02*
X114250000Y-92000000D01*
X140750000Y-82750000D02*
X137500000Y-82750000D01*
X137500000Y-82750000D02*
X136250000Y-81500000D01*
X142625000Y-65000000D02*
X141599000Y-63974000D01*
X109850000Y-89300000D02*
X109750000Y-89400000D01*
X96500000Y-91500000D02*
X96000000Y-91500000D01*
X114750000Y-92500000D02*
X117000000Y-92500000D01*
X145750000Y-73750000D02*
X143000000Y-76500000D01*
X85500000Y-93080000D02*
X88040000Y-90540000D01*
X141625000Y-86000000D02*
X141250000Y-85625000D01*
X167824000Y-100744000D02*
X169000000Y-101920000D01*
X141599000Y-63974000D02*
X136526000Y-63974000D01*
X88040000Y-90540000D02*
X89060000Y-90540000D01*
X142750000Y-64875000D02*
X142625000Y-65000000D01*
X135500000Y-65000000D02*
X133500000Y-65000000D01*
X96500000Y-91500000D02*
X102250000Y-91500000D01*
X138733058Y-73645558D02*
X138837500Y-73750000D01*
X138837500Y-73750000D02*
X140250000Y-73750000D01*
X141250000Y-82250000D02*
X140750000Y-82750000D01*
%TO.N,12V*%
X102500000Y-87500000D02*
X101650000Y-87500000D01*
X101650000Y-87500000D02*
X97900000Y-83750000D01*
X169000000Y-66680000D02*
X155570000Y-53250000D01*
X155570000Y-53250000D02*
X128400000Y-53250000D01*
X128400000Y-53250000D02*
X97900000Y-83750000D01*
X102500000Y-87500000D02*
X102500000Y-89850000D01*
%TO.N,3.3V*%
X111750000Y-87500000D02*
X114250000Y-87500000D01*
X124817232Y-59797470D02*
X130240702Y-54374000D01*
X143750000Y-66250000D02*
X147500000Y-70000000D01*
X138837500Y-78250000D02*
X135523588Y-78250000D01*
X114250000Y-79898000D02*
X114250000Y-87500000D01*
X124817232Y-69330768D02*
X114250000Y-79898000D01*
X133959000Y-76685412D02*
X133959000Y-73120536D01*
X148715986Y-70000000D02*
X150020472Y-71304486D01*
X157000000Y-79500000D02*
X157000000Y-77000000D01*
X130240702Y-54374000D02*
X136750000Y-54374000D01*
X158378486Y-69000000D02*
X166240000Y-69000000D01*
X135523588Y-78250000D02*
X133959000Y-76685412D01*
X130169232Y-69330768D02*
X124817232Y-69330768D01*
X156074000Y-73574000D02*
X156074000Y-71304486D01*
X147500000Y-70000000D02*
X148715986Y-70000000D01*
X143750000Y-61374000D02*
X143750000Y-66250000D01*
X150020472Y-71304486D02*
X156074000Y-71304486D01*
X157000000Y-77000000D02*
X157000000Y-74500000D01*
X157000000Y-74500000D02*
X156074000Y-73574000D01*
X136750000Y-54374000D02*
X143750000Y-61374000D01*
X116250000Y-89500000D02*
X114250000Y-87500000D01*
X124817232Y-69330768D02*
X124817232Y-59797470D01*
X133959000Y-73120536D02*
X130169232Y-69330768D01*
X156074000Y-71304486D02*
X158378486Y-69000000D01*
X116250000Y-90750000D02*
X116250000Y-89500000D01*
X166240000Y-69000000D02*
X169000000Y-71760000D01*
%TO.N,VIN*%
X170758000Y-65898000D02*
X169000000Y-64140000D01*
X91500000Y-88200000D02*
X95500000Y-88200000D01*
X96500000Y-85150000D02*
X95100000Y-83750000D01*
X126100000Y-52750000D02*
X95100000Y-83750000D01*
X90500000Y-88000000D02*
X88040000Y-88000000D01*
X170758000Y-95082000D02*
X170758000Y-65898000D01*
X85500000Y-90540000D02*
X88040000Y-88000000D01*
X96500000Y-87200000D02*
X96500000Y-85150000D01*
X88040000Y-88000000D02*
X92290000Y-83750000D01*
X169000000Y-96840000D02*
X170758000Y-95082000D01*
X157610000Y-52750000D02*
X126100000Y-52750000D01*
X92290000Y-83750000D02*
X95100000Y-83750000D01*
X90700000Y-88200000D02*
X90500000Y-88000000D01*
X85500000Y-88000000D02*
X85500000Y-90540000D01*
X91500000Y-88200000D02*
X90700000Y-88200000D01*
X95500000Y-88200000D02*
X96500000Y-87200000D01*
X88040000Y-88000000D02*
X85500000Y-88000000D01*
X169000000Y-64140000D02*
X157610000Y-52750000D01*
%TO.N,SINK_{07}*%
X144750000Y-71250000D02*
X145217000Y-70783000D01*
X155466000Y-77943829D02*
X155466000Y-84000000D01*
X155466000Y-84000000D02*
X155466000Y-86250000D01*
X144750000Y-72337500D02*
X144750000Y-71250000D01*
X145217000Y-70783000D02*
X148305173Y-70783000D01*
X148636086Y-71113914D02*
X155466000Y-77943829D01*
X148305173Y-70783000D02*
X148636086Y-71113914D01*
%TO.N,SINK_{06}*%
X156091000Y-85000000D02*
X155807000Y-84716000D01*
X145075753Y-70442000D02*
X148452298Y-70442000D01*
X155807000Y-84716000D02*
X155807000Y-77796702D01*
X144250000Y-72337500D02*
X144250000Y-71267754D01*
X141960000Y-91160000D02*
X143136000Y-92336000D01*
X143136000Y-92336000D02*
X148163000Y-92336000D01*
X148163000Y-92336000D02*
X148500000Y-91999000D01*
X155807000Y-77796702D02*
X148452298Y-70442000D01*
X144250000Y-71267754D02*
X145075753Y-70442000D01*
%TO.N,SINK_{05}*%
X143750000Y-67250000D02*
X143750000Y-72337500D01*
X130074000Y-78540514D02*
X130074000Y-71926000D01*
X138534486Y-87001000D02*
X130074000Y-78540514D01*
X142881000Y-87001000D02*
X138534486Y-87001000D01*
X130074000Y-71926000D02*
X130500000Y-71500000D01*
X144500000Y-88620000D02*
X142881000Y-87001000D01*
%TO.N,SINK_{04}*%
X143250000Y-72337500D02*
X143250000Y-68000000D01*
X130828580Y-70874000D02*
X130240702Y-70874000D01*
X130240702Y-70874000D02*
X129733000Y-71381702D01*
X129733000Y-71381702D02*
X129733000Y-78681761D01*
X131419232Y-71464652D02*
X130828580Y-70874000D01*
X139671239Y-88620000D02*
X141960000Y-88620000D01*
X129733000Y-78681761D02*
X139671239Y-88620000D01*
X143250000Y-68000000D02*
X143125000Y-67875000D01*
%TO.N,SINK_{11}*%
X157324000Y-92336000D02*
X158500000Y-91160000D01*
X153500000Y-77906814D02*
X153500000Y-90363116D01*
X150343186Y-74750000D02*
X153500000Y-77906814D01*
X147162500Y-74750000D02*
X150343186Y-74750000D01*
X153500000Y-90363116D02*
X155472884Y-92336000D01*
X155472884Y-92336000D02*
X157324000Y-92336000D01*
%TO.N,SINK_{09}*%
X155272486Y-89954000D02*
X157166000Y-89954000D01*
X154500000Y-77942322D02*
X154500000Y-89181514D01*
X157166000Y-89954000D02*
X158500000Y-88620000D01*
X154500000Y-89181514D02*
X155272486Y-89954000D01*
X150307678Y-73750000D02*
X154500000Y-77942322D01*
X147162500Y-73750000D02*
X150307678Y-73750000D01*
%TO.N,SINK_{10}*%
X155960000Y-91160000D02*
X154000000Y-89200000D01*
X150325432Y-74250000D02*
X154000000Y-77924568D01*
X147162500Y-74250000D02*
X150325432Y-74250000D01*
X154000000Y-77924568D02*
X154000000Y-89200000D01*
%TO.N,SINK_{08}*%
X154841000Y-87000000D02*
X155960000Y-88119000D01*
X145250000Y-72337500D02*
X145250000Y-71500000D01*
X145250000Y-71500000D02*
X145626000Y-71124000D01*
X148163926Y-71124000D02*
X154841000Y-77801075D01*
X154841000Y-77801075D02*
X154841000Y-87000000D01*
X155960000Y-88119000D02*
X155960000Y-88620000D01*
X145626000Y-71124000D02*
X148163926Y-71124000D01*
D29*
%TO.N,SDB*%
X169000000Y-81920000D02*
X170126000Y-80794000D01*
X167051000Y-104103405D02*
X167051000Y-83869000D01*
X171540000Y-107000000D02*
X170126000Y-105586000D01*
X167051000Y-83869000D02*
X169000000Y-81920000D01*
X170126000Y-78913595D02*
X169466405Y-78254000D01*
X170126000Y-105586000D02*
X168533595Y-105586000D01*
X140002000Y-79321468D02*
X139448468Y-79875000D01*
X170126000Y-80794000D02*
X170126000Y-78913595D01*
X140002000Y-75257114D02*
X140002000Y-79321468D01*
X161303595Y-71024000D02*
X158425196Y-71024000D01*
X169466405Y-78254000D02*
X168533595Y-78254000D01*
X139573468Y-74750000D02*
X138837500Y-74750000D01*
X158124000Y-73624000D02*
X159000000Y-74500000D01*
X140002000Y-75178532D02*
X139573468Y-74750000D01*
X158124000Y-71325196D02*
X158124000Y-73624000D01*
X158425196Y-71024000D02*
X158124000Y-71325196D01*
X139448468Y-79875000D02*
X132750000Y-79875000D01*
X168533595Y-105586000D02*
X167051000Y-104103405D01*
X168533595Y-78254000D02*
X161303595Y-71024000D01*
%TO.N,SDA*%
X160000000Y-78000000D02*
X160000000Y-81425000D01*
X129750000Y-55750000D02*
X130500000Y-55000000D01*
X134250000Y-73000000D02*
X129750000Y-68500000D01*
X159000000Y-77000000D02*
X160000000Y-78000000D01*
X135167562Y-77482438D02*
X136539380Y-77482438D01*
X136539380Y-77482438D02*
X136550000Y-77493058D01*
X169000000Y-104460000D02*
X167292000Y-102752000D01*
X135167562Y-77482438D02*
X134250000Y-76564876D01*
X167292000Y-86168000D02*
X169000000Y-84460000D01*
X136793058Y-77250000D02*
X138837500Y-77250000D01*
X136550000Y-77493058D02*
X136793058Y-77250000D01*
X129750000Y-68500000D02*
X129750000Y-55750000D01*
X167292000Y-102752000D02*
X167292000Y-86168000D01*
X134250000Y-76564876D02*
X134250000Y-73000000D01*
%TO.N,IICRST*%
X169000000Y-79380000D02*
X161620000Y-72000000D01*
X166810000Y-104810000D02*
X169000000Y-107000000D01*
X161620000Y-72000000D02*
X159000000Y-72000000D01*
X138837500Y-74250000D02*
X137500000Y-74250000D01*
X138837500Y-74250000D02*
X137575000Y-74250000D01*
X137575000Y-74250000D02*
X137500000Y-74175000D01*
X166810000Y-81570000D02*
X166810000Y-104810000D01*
X169000000Y-79380000D02*
X166810000Y-81570000D01*
%TO.N,SCL*%
X134500000Y-72000000D02*
X130624000Y-68124000D01*
X159000000Y-79500000D02*
X159000000Y-82075000D01*
X130624000Y-61126000D02*
X131750000Y-60000000D01*
X171540000Y-104460000D02*
X170126000Y-103046000D01*
X167533000Y-102045405D02*
X167533000Y-91717000D01*
X135663954Y-76800000D02*
X135713954Y-76750000D01*
X170126000Y-103046000D02*
X168533595Y-103046000D01*
X135299712Y-76800000D02*
X134500000Y-76000288D01*
X134500000Y-76000288D02*
X134500000Y-72000000D01*
X170000000Y-88000000D02*
X169000000Y-87000000D01*
X170000000Y-89250000D02*
X170000000Y-88000000D01*
X135713954Y-76750000D02*
X138837500Y-76750000D01*
X135481833Y-76800000D02*
X135663954Y-76800000D01*
X167533000Y-91717000D02*
X170000000Y-89250000D01*
X168533595Y-103046000D02*
X167533000Y-102045405D01*
X130624000Y-68124000D02*
X130624000Y-61126000D01*
X135481833Y-76800000D02*
X135299712Y-76800000D01*
D30*
%TO.N,/RSET*%
X140750000Y-80662500D02*
X140750000Y-81469178D01*
X139000000Y-81500000D02*
X138250000Y-81500000D01*
X140750000Y-81469178D02*
X140493178Y-81726000D01*
X140750000Y-79855822D02*
X140750000Y-80662500D01*
X139226000Y-81726000D02*
X139000000Y-81500000D01*
X140493178Y-81726000D02*
X139226000Y-81726000D01*
D29*
%TO.N,ADDR2*%
X135590826Y-75750000D02*
X135000000Y-75159174D01*
X137500000Y-66250000D02*
X137500000Y-65000000D01*
X135000000Y-75159174D02*
X135000000Y-71750000D01*
X137000000Y-65500000D02*
X137500000Y-65000000D01*
X137500000Y-69250000D02*
X137500000Y-66250000D01*
X137500000Y-65000000D02*
X137500000Y-64750000D01*
X137500000Y-66250000D02*
X137000000Y-66250000D01*
X135000000Y-71750000D02*
X137500000Y-69250000D01*
X138837500Y-75750000D02*
X135590826Y-75750000D01*
%TO.N,ADDR1*%
X134750000Y-75250000D02*
X134750000Y-71000000D01*
X131500000Y-65000000D02*
X131500000Y-64575000D01*
X134750000Y-71000000D02*
X131500000Y-67750000D01*
X131500000Y-65000000D02*
X133151000Y-63349000D01*
X138837500Y-76250000D02*
X135750000Y-76250000D01*
X133151000Y-63349000D02*
X140000000Y-63349000D01*
X135750000Y-76250000D02*
X134750000Y-75250000D01*
X131500000Y-67750000D02*
X131500000Y-65000000D01*
%TD*%
%TA.AperFunction,Conductor*%
%TO.N,GND*%
G36*
X171074075Y-99572993D02*
G01*
X171139901Y-99687007D01*
X171232993Y-99780099D01*
X171347007Y-99845925D01*
X171410591Y-99862962D01*
X170809971Y-100463581D01*
X170888711Y-100580895D01*
X170889920Y-100584729D01*
X170892844Y-100587491D01*
X170900343Y-100617778D01*
X170909727Y-100647529D01*
X170908671Y-100651408D01*
X170909638Y-100655312D01*
X170899573Y-100684844D01*
X170891383Y-100714947D01*
X170888397Y-100717640D01*
X170887100Y-100721447D01*
X170842051Y-100760483D01*
X170832440Y-100765380D01*
X170778282Y-100804727D01*
X170778282Y-100804728D01*
X171410591Y-101437037D01*
X171347007Y-101454075D01*
X171232993Y-101519901D01*
X171139901Y-101612993D01*
X171074075Y-101727007D01*
X171057037Y-101790591D01*
X170424728Y-101158282D01*
X170424727Y-101158282D01*
X170385380Y-101212440D01*
X170380483Y-101222051D01*
X170332506Y-101272845D01*
X170264684Y-101289638D01*
X170198550Y-101267098D01*
X170159516Y-101222048D01*
X170154626Y-101212452D01*
X170115270Y-101158282D01*
X170115269Y-101158282D01*
X169482962Y-101790589D01*
X169465925Y-101727007D01*
X169400099Y-101612993D01*
X169307007Y-101519901D01*
X169192993Y-101454075D01*
X169129407Y-101437036D01*
X169761716Y-100804728D01*
X169707547Y-100765373D01*
X169707547Y-100765372D01*
X169698500Y-100760763D01*
X169647706Y-100712788D01*
X169630912Y-100644966D01*
X169653451Y-100578832D01*
X169698508Y-100539793D01*
X169707816Y-100535051D01*
X169806187Y-100463581D01*
X169879786Y-100410109D01*
X169879788Y-100410106D01*
X169879792Y-100410104D01*
X170030104Y-100259792D01*
X170030106Y-100259788D01*
X170030109Y-100259786D01*
X170099011Y-100164949D01*
X170155051Y-100087816D01*
X170159793Y-100078508D01*
X170207763Y-100027711D01*
X170275583Y-100010911D01*
X170341719Y-100033445D01*
X170380763Y-100078500D01*
X170385373Y-100087547D01*
X170424728Y-100141716D01*
X171057037Y-99509408D01*
X171074075Y-99572993D01*
G37*
%TD.AperFunction*%
%TA.AperFunction,Conductor*%
G36*
X170461374Y-97676821D02*
G01*
X170506334Y-97714891D01*
X170509890Y-97719785D01*
X170509894Y-97719790D01*
X170660213Y-97870109D01*
X170832179Y-97995048D01*
X170832181Y-97995049D01*
X170832184Y-97995051D01*
X170841493Y-97999794D01*
X170892290Y-98047766D01*
X170909087Y-98115587D01*
X170886552Y-98181722D01*
X170841505Y-98220760D01*
X170832446Y-98225376D01*
X170832440Y-98225380D01*
X170778282Y-98264727D01*
X170778282Y-98264728D01*
X171410591Y-98897037D01*
X171347007Y-98914075D01*
X171232993Y-98979901D01*
X171139901Y-99072993D01*
X171074075Y-99187007D01*
X171057037Y-99250591D01*
X170424728Y-98618282D01*
X170424727Y-98618282D01*
X170385380Y-98672440D01*
X170385376Y-98672446D01*
X170380760Y-98681505D01*
X170332781Y-98732297D01*
X170264959Y-98749087D01*
X170198826Y-98726543D01*
X170159794Y-98681493D01*
X170155051Y-98672184D01*
X170155049Y-98672181D01*
X170155048Y-98672179D01*
X170030109Y-98500213D01*
X169879790Y-98349894D01*
X169879785Y-98349890D01*
X169874891Y-98346334D01*
X169832227Y-98291003D01*
X169826249Y-98221390D01*
X169858857Y-98159595D01*
X169908774Y-98128312D01*
X169919334Y-98124814D01*
X170068656Y-98032712D01*
X170192712Y-97908656D01*
X170284814Y-97759334D01*
X170288312Y-97748775D01*
X170328082Y-97691332D01*
X170392598Y-97664507D01*
X170461374Y-97676821D01*
G37*
%TD.AperFunction*%
%TA.AperFunction,Conductor*%
G36*
X170051834Y-90114560D02*
G01*
X170107767Y-90156432D01*
X170132184Y-90221896D01*
X170132500Y-90230742D01*
X170132500Y-94771547D01*
X170112815Y-94838586D01*
X170096181Y-94859228D01*
X169502227Y-95453181D01*
X169440904Y-95486666D01*
X169414546Y-95489500D01*
X168349998Y-95489500D01*
X168349980Y-95489501D01*
X168245101Y-95500215D01*
X168176408Y-95487445D01*
X168125524Y-95439564D01*
X168108500Y-95376857D01*
X168108500Y-92006742D01*
X168128185Y-91939703D01*
X168144819Y-91919061D01*
X169920819Y-90143061D01*
X169982142Y-90109576D01*
X170051834Y-90114560D01*
G37*
%TD.AperFunction*%
%TA.AperFunction,Conductor*%
G36*
X87574075Y-93272993D02*
G01*
X87639901Y-93387007D01*
X87732993Y-93480099D01*
X87847007Y-93545925D01*
X87910590Y-93562962D01*
X87278282Y-94195269D01*
X87278282Y-94195270D01*
X87332452Y-94234626D01*
X87332451Y-94234626D01*
X87341495Y-94239234D01*
X87392292Y-94287208D01*
X87409087Y-94355029D01*
X87386550Y-94421164D01*
X87341499Y-94460202D01*
X87332182Y-94464949D01*
X87160213Y-94589890D01*
X87009890Y-94740213D01*
X86884949Y-94912182D01*
X86880484Y-94920946D01*
X86832509Y-94971742D01*
X86764688Y-94988536D01*
X86698553Y-94965998D01*
X86659516Y-94920946D01*
X86655050Y-94912182D01*
X86530109Y-94740213D01*
X86379786Y-94589890D01*
X86207817Y-94464949D01*
X86198504Y-94460204D01*
X86147707Y-94412230D01*
X86130912Y-94344409D01*
X86153449Y-94278274D01*
X86198507Y-94239232D01*
X86207555Y-94234622D01*
X86261716Y-94195270D01*
X86261717Y-94195270D01*
X85629408Y-93562962D01*
X85692993Y-93545925D01*
X85807007Y-93480099D01*
X85900099Y-93387007D01*
X85965925Y-93272993D01*
X85982962Y-93209408D01*
X86615270Y-93841717D01*
X86615270Y-93841716D01*
X86654622Y-93787554D01*
X86659514Y-93777954D01*
X86707488Y-93727157D01*
X86775308Y-93710361D01*
X86841444Y-93732897D01*
X86880486Y-93777954D01*
X86885375Y-93787550D01*
X86924728Y-93841716D01*
X87557037Y-93209408D01*
X87574075Y-93272993D01*
G37*
%TD.AperFunction*%
%TA.AperFunction,Conductor*%
G36*
X87574075Y-90732993D02*
G01*
X87639901Y-90847007D01*
X87732993Y-90940099D01*
X87847007Y-91005925D01*
X87910591Y-91022962D01*
X87309971Y-91623581D01*
X87388711Y-91740895D01*
X87389920Y-91744729D01*
X87392844Y-91747491D01*
X87400343Y-91777778D01*
X87409727Y-91807529D01*
X87408671Y-91811408D01*
X87409638Y-91815312D01*
X87399573Y-91844844D01*
X87391383Y-91874947D01*
X87388397Y-91877640D01*
X87387100Y-91881447D01*
X87342051Y-91920483D01*
X87332440Y-91925380D01*
X87278282Y-91964727D01*
X87278282Y-91964728D01*
X87910591Y-92597037D01*
X87847007Y-92614075D01*
X87732993Y-92679901D01*
X87639901Y-92772993D01*
X87574075Y-92887007D01*
X87557037Y-92950591D01*
X86924728Y-92318282D01*
X86924727Y-92318282D01*
X86885380Y-92372440D01*
X86880483Y-92382051D01*
X86832506Y-92432845D01*
X86764684Y-92449638D01*
X86698550Y-92427098D01*
X86659516Y-92382048D01*
X86654626Y-92372452D01*
X86615270Y-92318282D01*
X86615269Y-92318282D01*
X85982962Y-92950590D01*
X85965925Y-92887007D01*
X85900099Y-92772993D01*
X85807007Y-92679901D01*
X85692993Y-92614075D01*
X85629409Y-92597037D01*
X86261716Y-91964728D01*
X86207547Y-91925373D01*
X86207547Y-91925372D01*
X86198500Y-91920763D01*
X86147706Y-91872788D01*
X86130912Y-91804966D01*
X86153451Y-91738832D01*
X86198508Y-91699793D01*
X86207816Y-91695051D01*
X86357474Y-91586319D01*
X86379786Y-91570109D01*
X86379788Y-91570106D01*
X86379792Y-91570104D01*
X86530104Y-91419792D01*
X86530106Y-91419788D01*
X86530109Y-91419786D01*
X86615890Y-91301717D01*
X86655051Y-91247816D01*
X86659793Y-91238508D01*
X86707763Y-91187711D01*
X86775583Y-91170911D01*
X86841719Y-91193445D01*
X86880763Y-91238500D01*
X86885373Y-91247547D01*
X86924728Y-91301716D01*
X87557037Y-90669408D01*
X87574075Y-90732993D01*
G37*
%TD.AperFunction*%
%TA.AperFunction,Conductor*%
G36*
X135173982Y-80452724D02*
G01*
X135181778Y-80451456D01*
X135207033Y-80462429D01*
X135233445Y-80470185D01*
X135238615Y-80476152D01*
X135245860Y-80479300D01*
X135261174Y-80502186D01*
X135279200Y-80522989D01*
X135280323Y-80530803D01*
X135284716Y-80537368D01*
X135285225Y-80564897D01*
X135289144Y-80592147D01*
X135285896Y-80601106D01*
X135286010Y-80607226D01*
X135271945Y-80639597D01*
X135215643Y-80730875D01*
X135215641Y-80730880D01*
X135160494Y-80897302D01*
X135160493Y-80897309D01*
X135150000Y-81000013D01*
X135150000Y-81250000D01*
X136126000Y-81250000D01*
X136193039Y-81269685D01*
X136238794Y-81322489D01*
X136250000Y-81374000D01*
X136250000Y-81500000D01*
X136376000Y-81500000D01*
X136443039Y-81519685D01*
X136488794Y-81572489D01*
X136500000Y-81624000D01*
X136500000Y-82699999D01*
X136649972Y-82699999D01*
X136649986Y-82699998D01*
X136752697Y-82689505D01*
X136919119Y-82634358D01*
X136919124Y-82634356D01*
X137068342Y-82542317D01*
X137161964Y-82448695D01*
X137223287Y-82415210D01*
X137292979Y-82420194D01*
X137337327Y-82448695D01*
X137431344Y-82542712D01*
X137580666Y-82634814D01*
X137747203Y-82689999D01*
X137849991Y-82700500D01*
X138650008Y-82700499D01*
X138650016Y-82700498D01*
X138650019Y-82700498D01*
X138706302Y-82694748D01*
X138752797Y-82689999D01*
X138919334Y-82634814D01*
X139068656Y-82542712D01*
X139192712Y-82418656D01*
X139197803Y-82410402D01*
X139249750Y-82363679D01*
X139303341Y-82351500D01*
X140554786Y-82351500D01*
X140554786Y-82351499D01*
X140619277Y-82338672D01*
X140675630Y-82327463D01*
X140721418Y-82308497D01*
X140789464Y-82280312D01*
X140857580Y-82234797D01*
X140891911Y-82211858D01*
X140979036Y-82124733D01*
X140979037Y-82124731D01*
X140986103Y-82117665D01*
X140986106Y-82117661D01*
X141148729Y-81955038D01*
X141148733Y-81955036D01*
X141157154Y-81946614D01*
X141191852Y-81927670D01*
X141218464Y-81913139D01*
X141218469Y-81913139D01*
X141218476Y-81913136D01*
X141256495Y-81915857D01*
X141288156Y-81918121D01*
X141288161Y-81918124D01*
X141288167Y-81918125D01*
X141288195Y-81918146D01*
X141332507Y-81946623D01*
X143998703Y-84612819D01*
X144032188Y-84674142D01*
X144027204Y-84743834D01*
X143985332Y-84799767D01*
X143919868Y-84824184D01*
X143915640Y-84824336D01*
X143915641Y-84824341D01*
X143912480Y-84824501D01*
X143809703Y-84835000D01*
X143809700Y-84835001D01*
X143643168Y-84890185D01*
X143643163Y-84890187D01*
X143493842Y-84982289D01*
X143369789Y-85106342D01*
X143277687Y-85255663D01*
X143277685Y-85255668D01*
X143277615Y-85255880D01*
X143222501Y-85422203D01*
X143222501Y-85422204D01*
X143222500Y-85422204D01*
X143212000Y-85524983D01*
X143212000Y-86277990D01*
X143206064Y-86298203D01*
X143204937Y-86319243D01*
X143196417Y-86331057D01*
X143192315Y-86345029D01*
X143176394Y-86358824D01*
X143164070Y-86375915D01*
X143150516Y-86381247D01*
X143139511Y-86390784D01*
X143118656Y-86393782D01*
X143099052Y-86401496D01*
X143074255Y-86400166D01*
X143070353Y-86400728D01*
X143063809Y-86399607D01*
X143012309Y-86389363D01*
X142950398Y-86356978D01*
X142915824Y-86296263D01*
X142912500Y-86267746D01*
X142912500Y-86250000D01*
X140337501Y-86250000D01*
X140337501Y-86251500D01*
X140317816Y-86318539D01*
X140265012Y-86364294D01*
X140213501Y-86375500D01*
X138844938Y-86375500D01*
X138777899Y-86355815D01*
X138757257Y-86339181D01*
X137943089Y-85525013D01*
X140337500Y-85525013D01*
X140337500Y-85750000D01*
X141375000Y-85750000D01*
X141875000Y-85750000D01*
X142912499Y-85750000D01*
X142912499Y-85525028D01*
X142912498Y-85525013D01*
X142902005Y-85422302D01*
X142846858Y-85255880D01*
X142846856Y-85255875D01*
X142754815Y-85106654D01*
X142630845Y-84982684D01*
X142481624Y-84890643D01*
X142481619Y-84890641D01*
X142315197Y-84835494D01*
X142315190Y-84835493D01*
X142212486Y-84825000D01*
X141875000Y-84825000D01*
X141875000Y-85750000D01*
X141375000Y-85750000D01*
X141375000Y-84825000D01*
X141037528Y-84825000D01*
X141037512Y-84825001D01*
X140934802Y-84835494D01*
X140768380Y-84890641D01*
X140768375Y-84890643D01*
X140619154Y-84982684D01*
X140495184Y-85106654D01*
X140403143Y-85255875D01*
X140403141Y-85255880D01*
X140347994Y-85422302D01*
X140347993Y-85422309D01*
X140337500Y-85525013D01*
X137943089Y-85525013D01*
X134418062Y-81999986D01*
X135150001Y-81999986D01*
X135160494Y-82102697D01*
X135215641Y-82269119D01*
X135215643Y-82269124D01*
X135307684Y-82418345D01*
X135431654Y-82542315D01*
X135580875Y-82634356D01*
X135580880Y-82634358D01*
X135747302Y-82689505D01*
X135747309Y-82689506D01*
X135850019Y-82699999D01*
X135999999Y-82699999D01*
X136000000Y-82699998D01*
X136000000Y-81750000D01*
X135150001Y-81750000D01*
X135150001Y-81999986D01*
X134418062Y-81999986D01*
X133160062Y-80741986D01*
X133126577Y-80680663D01*
X133131561Y-80610971D01*
X133173433Y-80555038D01*
X133178831Y-80551217D01*
X133260289Y-80496789D01*
X133260292Y-80496786D01*
X133270260Y-80486819D01*
X133331583Y-80453334D01*
X133357941Y-80450500D01*
X135166406Y-80450500D01*
X135173982Y-80452724D01*
G37*
%TD.AperFunction*%
%TA.AperFunction,Conductor*%
G36*
X145834128Y-73426103D02*
G01*
X145884117Y-73474917D01*
X145900000Y-73535635D01*
X145900000Y-73582498D01*
X145919683Y-73613530D01*
X145924500Y-73647756D01*
X145924500Y-73862727D01*
X145931339Y-73914669D01*
X145938983Y-73972733D01*
X145940374Y-73983292D01*
X145937399Y-73983683D01*
X145937399Y-74016316D01*
X145940374Y-74016708D01*
X145924500Y-74137272D01*
X145924500Y-74362727D01*
X145940374Y-74483292D01*
X145937399Y-74483683D01*
X145937399Y-74516316D01*
X145940374Y-74516708D01*
X145924500Y-74637272D01*
X145924500Y-74862727D01*
X145940374Y-74983292D01*
X145937399Y-74983683D01*
X145937399Y-75016316D01*
X145940374Y-75016708D01*
X145939313Y-75024762D01*
X145939313Y-75024764D01*
X145935938Y-75050393D01*
X145924500Y-75137272D01*
X145924500Y-75362727D01*
X145931457Y-75415564D01*
X145937243Y-75459516D01*
X145940374Y-75483292D01*
X145937399Y-75483683D01*
X145937399Y-75516316D01*
X145940374Y-75516708D01*
X145924500Y-75637272D01*
X145924500Y-75862727D01*
X145940374Y-75983292D01*
X145937399Y-75983683D01*
X145937399Y-76016316D01*
X145940374Y-76016708D01*
X145924500Y-76137272D01*
X145924500Y-76362727D01*
X145940374Y-76483292D01*
X145938871Y-76483489D01*
X145941275Y-76508608D01*
X145940319Y-76522332D01*
X145939313Y-76524764D01*
X145924500Y-76637280D01*
X145924500Y-76749679D01*
X145924201Y-76753976D01*
X145913491Y-76782859D01*
X145904815Y-76812407D01*
X145900591Y-76817647D01*
X145899910Y-76819487D01*
X145897881Y-76821011D01*
X145888181Y-76833049D01*
X145801254Y-76919976D01*
X145740789Y-76980441D01*
X145698358Y-77005887D01*
X145699132Y-77007754D01*
X145547829Y-77070424D01*
X145547816Y-77070431D01*
X145416713Y-77158032D01*
X145416709Y-77158035D01*
X145305215Y-77269529D01*
X145305212Y-77269533D01*
X145217611Y-77400636D01*
X145217604Y-77400649D01*
X145157266Y-77546320D01*
X145157263Y-77546332D01*
X145126502Y-77700975D01*
X145126502Y-77858668D01*
X145157263Y-78013311D01*
X145157266Y-78013323D01*
X145191061Y-78094911D01*
X145200500Y-78142363D01*
X145200500Y-78849500D01*
X145180815Y-78916539D01*
X145128011Y-78962294D01*
X145076500Y-78973500D01*
X144068429Y-78973500D01*
X143945215Y-78973500D01*
X143894760Y-78983536D01*
X143894759Y-78983535D01*
X143824376Y-78997535D01*
X143824367Y-78997537D01*
X143798648Y-79008190D01*
X143791029Y-79011347D01*
X143710536Y-79044688D01*
X143665921Y-79074500D01*
X143659832Y-79078568D01*
X143659825Y-79078572D01*
X143608090Y-79113140D01*
X143583916Y-79137315D01*
X143520964Y-79200267D01*
X143333050Y-79388181D01*
X143309759Y-79400898D01*
X143288479Y-79416765D01*
X143276896Y-79418843D01*
X143271727Y-79421666D01*
X143253977Y-79424201D01*
X143249680Y-79424500D01*
X143137280Y-79424500D01*
X143024764Y-79439313D01*
X143022332Y-79440319D01*
X143008608Y-79441275D01*
X142990955Y-79437399D01*
X142983684Y-79437399D01*
X142983292Y-79440374D01*
X142975237Y-79439313D01*
X142975236Y-79439313D01*
X142946271Y-79435499D01*
X142862727Y-79424500D01*
X142862720Y-79424500D01*
X142637280Y-79424500D01*
X142637272Y-79424500D01*
X142550393Y-79435938D01*
X142524764Y-79439313D01*
X142524762Y-79439313D01*
X142516708Y-79440374D01*
X142516316Y-79437399D01*
X142483684Y-79437399D01*
X142483292Y-79440374D01*
X142475237Y-79439313D01*
X142475236Y-79439313D01*
X142446271Y-79435499D01*
X142362727Y-79424500D01*
X142362720Y-79424500D01*
X142137280Y-79424500D01*
X142137272Y-79424500D01*
X142050393Y-79435938D01*
X142024764Y-79439313D01*
X142024762Y-79439313D01*
X142016708Y-79440374D01*
X142016316Y-79437399D01*
X141983684Y-79437399D01*
X141983292Y-79440374D01*
X141975237Y-79439313D01*
X141975236Y-79439313D01*
X141946271Y-79435499D01*
X141862727Y-79424500D01*
X141862720Y-79424500D01*
X141637280Y-79424500D01*
X141637272Y-79424500D01*
X141520725Y-79439844D01*
X141518742Y-79440270D01*
X141323456Y-79471902D01*
X141322696Y-79471806D01*
X141322004Y-79472128D01*
X141288132Y-79467462D01*
X141254131Y-79463190D01*
X141253543Y-79462699D01*
X141252788Y-79462595D01*
X141215948Y-79437178D01*
X141148736Y-79369966D01*
X141148732Y-79369963D01*
X141046292Y-79301514D01*
X141046283Y-79301509D01*
X140932454Y-79254360D01*
X140932455Y-79254360D01*
X140932452Y-79254359D01*
X140932448Y-79254358D01*
X140932444Y-79254357D01*
X140811610Y-79230322D01*
X140811606Y-79230322D01*
X140701500Y-79230322D01*
X140634461Y-79210637D01*
X140588706Y-79157833D01*
X140577500Y-79106322D01*
X140577500Y-75865054D01*
X140597185Y-75798015D01*
X140613822Y-75777370D01*
X140623787Y-75767405D01*
X140623789Y-75767403D01*
X140711394Y-75636293D01*
X140712008Y-75634812D01*
X140729286Y-75593097D01*
X140771737Y-75490611D01*
X140802500Y-75335956D01*
X140802500Y-75178272D01*
X140802500Y-75178269D01*
X140802499Y-75178267D01*
X140794346Y-75137280D01*
X140771737Y-75023617D01*
X140762161Y-75000498D01*
X140711397Y-74877941D01*
X140711390Y-74877928D01*
X140623789Y-74746825D01*
X140623786Y-74746821D01*
X140512292Y-74635327D01*
X140512288Y-74635324D01*
X140381185Y-74547723D01*
X140381172Y-74547716D01*
X140235501Y-74487378D01*
X140235491Y-74487375D01*
X140175308Y-74475404D01*
X140113397Y-74443019D01*
X140078823Y-74382303D01*
X140075500Y-74353787D01*
X140075500Y-74137286D01*
X140075500Y-74137280D01*
X140060687Y-74024764D01*
X140002698Y-73884767D01*
X139937258Y-73799485D01*
X139912065Y-73734317D01*
X139926103Y-73665872D01*
X139974917Y-73615883D01*
X140035635Y-73600000D01*
X140082500Y-73600000D01*
X140113532Y-73580317D01*
X140147758Y-73575500D01*
X140362713Y-73575500D01*
X140362720Y-73575500D01*
X140475236Y-73560687D01*
X140475236Y-73560686D01*
X140483295Y-73559626D01*
X140483698Y-73562689D01*
X140516302Y-73562689D01*
X140516705Y-73559626D01*
X140524763Y-73560686D01*
X140524764Y-73560687D01*
X140637280Y-73575500D01*
X140637287Y-73575500D01*
X140862713Y-73575500D01*
X140862720Y-73575500D01*
X140975236Y-73560687D01*
X140975236Y-73560686D01*
X140983295Y-73559626D01*
X140983698Y-73562689D01*
X141016302Y-73562689D01*
X141016705Y-73559626D01*
X141024763Y-73560686D01*
X141024764Y-73560687D01*
X141137280Y-73575500D01*
X141137287Y-73575500D01*
X141362713Y-73575500D01*
X141362720Y-73575500D01*
X141475236Y-73560687D01*
X141475236Y-73560686D01*
X141483295Y-73559626D01*
X141483698Y-73562689D01*
X141516302Y-73562689D01*
X141516705Y-73559626D01*
X141524763Y-73560686D01*
X141524764Y-73560687D01*
X141637280Y-73575500D01*
X141637287Y-73575500D01*
X141862713Y-73575500D01*
X141862720Y-73575500D01*
X141975236Y-73560687D01*
X142115233Y-73502698D01*
X142174515Y-73457208D01*
X142239684Y-73432016D01*
X142308129Y-73446055D01*
X142325484Y-73457208D01*
X142351486Y-73477160D01*
X142392689Y-73533587D01*
X142398878Y-73569102D01*
X142400000Y-73570086D01*
X142482730Y-73559195D01*
X142516469Y-73561415D01*
X142516705Y-73559626D01*
X142524763Y-73560686D01*
X142524764Y-73560687D01*
X142637280Y-73575500D01*
X142637287Y-73575500D01*
X142862713Y-73575500D01*
X142862720Y-73575500D01*
X142975236Y-73560687D01*
X142975236Y-73560686D01*
X142983295Y-73559626D01*
X142983698Y-73562689D01*
X143016302Y-73562689D01*
X143016705Y-73559626D01*
X143024763Y-73560686D01*
X143024764Y-73560687D01*
X143137280Y-73575500D01*
X143137287Y-73575500D01*
X143362713Y-73575500D01*
X143362720Y-73575500D01*
X143475236Y-73560687D01*
X143475236Y-73560686D01*
X143483295Y-73559626D01*
X143483698Y-73562689D01*
X143516302Y-73562689D01*
X143516705Y-73559626D01*
X143524763Y-73560686D01*
X143524764Y-73560687D01*
X143637280Y-73575500D01*
X143637287Y-73575500D01*
X143862713Y-73575500D01*
X143862720Y-73575500D01*
X143975236Y-73560687D01*
X143975236Y-73560686D01*
X143983295Y-73559626D01*
X143983698Y-73562689D01*
X144016302Y-73562689D01*
X144016705Y-73559626D01*
X144024763Y-73560686D01*
X144024764Y-73560687D01*
X144137280Y-73575500D01*
X144137287Y-73575500D01*
X144362713Y-73575500D01*
X144362720Y-73575500D01*
X144475236Y-73560687D01*
X144475236Y-73560686D01*
X144483295Y-73559626D01*
X144483698Y-73562689D01*
X144516302Y-73562689D01*
X144516705Y-73559626D01*
X144524763Y-73560686D01*
X144524764Y-73560687D01*
X144637280Y-73575500D01*
X144637287Y-73575500D01*
X144862713Y-73575500D01*
X144862720Y-73575500D01*
X144975236Y-73560687D01*
X144975236Y-73560686D01*
X144983295Y-73559626D01*
X144983698Y-73562689D01*
X145016302Y-73562689D01*
X145016705Y-73559626D01*
X145024763Y-73560686D01*
X145024764Y-73560687D01*
X145137280Y-73575500D01*
X145137287Y-73575500D01*
X145362713Y-73575500D01*
X145362720Y-73575500D01*
X145475236Y-73560687D01*
X145615233Y-73502698D01*
X145700514Y-73437258D01*
X145765683Y-73412065D01*
X145834128Y-73426103D01*
G37*
%TD.AperFunction*%
%TA.AperFunction,Conductor*%
G36*
X165996587Y-69645185D02*
G01*
X166017229Y-69661819D01*
X167657571Y-71302162D01*
X167691056Y-71363485D01*
X167687821Y-71428160D01*
X167682754Y-71443753D01*
X167663776Y-71563576D01*
X167649500Y-71653713D01*
X167649500Y-71866287D01*
X167651389Y-71878211D01*
X167676972Y-72039742D01*
X167682754Y-72076243D01*
X167747821Y-72276499D01*
X167748444Y-72278414D01*
X167844951Y-72467820D01*
X167969890Y-72639786D01*
X168120213Y-72790109D01*
X168292179Y-72915048D01*
X168292181Y-72915049D01*
X168292184Y-72915051D01*
X168301493Y-72919794D01*
X168352290Y-72967766D01*
X168369087Y-73035587D01*
X168346552Y-73101722D01*
X168301502Y-73140762D01*
X168292443Y-73145378D01*
X168120540Y-73270272D01*
X168120535Y-73270276D01*
X167970276Y-73420535D01*
X167970272Y-73420540D01*
X167845379Y-73592442D01*
X167748904Y-73781782D01*
X167683242Y-73983870D01*
X167683242Y-73983873D01*
X167672769Y-74050000D01*
X168566988Y-74050000D01*
X168534075Y-74107007D01*
X168500000Y-74234174D01*
X168500000Y-74365826D01*
X168534075Y-74492993D01*
X168566988Y-74550000D01*
X167672769Y-74550000D01*
X167683242Y-74616126D01*
X167683242Y-74616129D01*
X167748904Y-74818217D01*
X167845379Y-75007557D01*
X167970272Y-75179459D01*
X167970276Y-75179464D01*
X168120535Y-75329723D01*
X168120540Y-75329727D01*
X168292444Y-75454622D01*
X168302048Y-75459516D01*
X168352844Y-75507491D01*
X168369638Y-75575312D01*
X168347100Y-75641447D01*
X168302048Y-75680484D01*
X168292444Y-75685377D01*
X168120540Y-75810272D01*
X168120535Y-75810276D01*
X167970276Y-75960535D01*
X167970272Y-75960540D01*
X167845379Y-76132442D01*
X167748905Y-76321781D01*
X167729611Y-76381162D01*
X167690173Y-76438837D01*
X167625814Y-76466035D01*
X167556968Y-76454120D01*
X167523999Y-76430524D01*
X161656962Y-70563487D01*
X161656960Y-70563485D01*
X161561625Y-70508443D01*
X161525731Y-70487719D01*
X161436156Y-70463718D01*
X161379361Y-70448500D01*
X158500962Y-70448500D01*
X158349429Y-70448500D01*
X158349427Y-70448500D01*
X158292630Y-70463718D01*
X158292631Y-70463719D01*
X158203061Y-70487719D01*
X158203059Y-70487719D01*
X158203059Y-70487720D01*
X158071831Y-70563485D01*
X158071828Y-70563487D01*
X157798729Y-70836586D01*
X157785059Y-70844050D01*
X157774458Y-70855466D01*
X157755017Y-70860454D01*
X157737406Y-70870071D01*
X157720938Y-70869198D01*
X157706780Y-70872832D01*
X157672039Y-70866609D01*
X157655878Y-70861253D01*
X157598435Y-70821478D01*
X157571614Y-70756961D01*
X157583932Y-70688186D01*
X157607199Y-70655876D01*
X158601258Y-69661819D01*
X158662581Y-69628334D01*
X158688939Y-69625500D01*
X165929548Y-69625500D01*
X165996587Y-69645185D01*
G37*
%TD.AperFunction*%
%TA.AperFunction,Conductor*%
G36*
X169250000Y-76406988D02*
G01*
X169192993Y-76374075D01*
X169065826Y-76340000D01*
X168934174Y-76340000D01*
X168807007Y-76374075D01*
X168750000Y-76406988D01*
X168750000Y-74733012D01*
X168807007Y-74765925D01*
X168934174Y-74800000D01*
X169065826Y-74800000D01*
X169192993Y-74765925D01*
X169250000Y-74733012D01*
X169250000Y-76406988D01*
G37*
%TD.AperFunction*%
%TA.AperFunction,Conductor*%
G36*
X147920513Y-71769185D02*
G01*
X147941155Y-71785819D01*
X149068155Y-72912819D01*
X149101640Y-72974142D01*
X149096656Y-73043834D01*
X149054784Y-73099767D01*
X148989320Y-73124184D01*
X148980474Y-73124500D01*
X148024495Y-73124500D01*
X147983128Y-73116271D01*
X147983090Y-73116417D01*
X147980873Y-73115823D01*
X147977042Y-73115061D01*
X147975237Y-73114313D01*
X147862727Y-73099500D01*
X147862720Y-73099500D01*
X146524000Y-73099500D01*
X146456961Y-73079815D01*
X146411206Y-73027011D01*
X146400000Y-72975500D01*
X146400000Y-72487500D01*
X146024500Y-72487500D01*
X146015814Y-72484949D01*
X146006853Y-72486238D01*
X145982812Y-72475259D01*
X145957461Y-72467815D01*
X145951533Y-72460974D01*
X145943297Y-72457213D01*
X145929007Y-72434978D01*
X145911706Y-72415011D01*
X145909418Y-72404496D01*
X145905523Y-72398435D01*
X145900500Y-72363500D01*
X145900500Y-72311500D01*
X145920185Y-72244461D01*
X145972989Y-72198706D01*
X146024500Y-72187500D01*
X146400000Y-72187500D01*
X146400000Y-71873500D01*
X146419685Y-71806461D01*
X146472489Y-71760706D01*
X146524000Y-71749500D01*
X147853474Y-71749500D01*
X147920513Y-71769185D01*
G37*
%TD.AperFunction*%
%TA.AperFunction,Conductor*%
G36*
X135443039Y-64769685D02*
G01*
X135488794Y-64822489D01*
X135500000Y-64874000D01*
X135500000Y-65000000D01*
X135626000Y-65000000D01*
X135693039Y-65019685D01*
X135738794Y-65072489D01*
X135750000Y-65124000D01*
X135750000Y-66199999D01*
X135899972Y-66199999D01*
X135899986Y-66199998D01*
X136002697Y-66189505D01*
X136036496Y-66178306D01*
X136106324Y-66175904D01*
X136166366Y-66211636D01*
X136197559Y-66274156D01*
X136199500Y-66296012D01*
X136199500Y-66328845D01*
X136230261Y-66483489D01*
X136230264Y-66483501D01*
X136290602Y-66629172D01*
X136290609Y-66629185D01*
X136378210Y-66760288D01*
X136378213Y-66760292D01*
X136489707Y-66871786D01*
X136489711Y-66871789D01*
X136620814Y-66959390D01*
X136620827Y-66959397D01*
X136758695Y-67016503D01*
X136766503Y-67019737D01*
X136824693Y-67031311D01*
X136886601Y-67063695D01*
X136921176Y-67124410D01*
X136924500Y-67152928D01*
X136924500Y-68960257D01*
X136904815Y-69027296D01*
X136888181Y-69047938D01*
X135337680Y-70598438D01*
X135276357Y-70631923D01*
X135206665Y-70626939D01*
X135162318Y-70598438D01*
X132111819Y-67547939D01*
X132078334Y-67486616D01*
X132075500Y-67460258D01*
X132075500Y-66255448D01*
X132095185Y-66188409D01*
X132147989Y-66142654D01*
X132160488Y-66137744D01*
X132169334Y-66134814D01*
X132318656Y-66042712D01*
X132412675Y-65948692D01*
X132473994Y-65915210D01*
X132543686Y-65920194D01*
X132588034Y-65948695D01*
X132681654Y-66042315D01*
X132830875Y-66134356D01*
X132830880Y-66134358D01*
X132997302Y-66189505D01*
X132997309Y-66189506D01*
X133100019Y-66199999D01*
X133249999Y-66199999D01*
X133750000Y-66199999D01*
X133899972Y-66199999D01*
X133899986Y-66199998D01*
X134002697Y-66189505D01*
X134169119Y-66134358D01*
X134169124Y-66134356D01*
X134318345Y-66042315D01*
X134412319Y-65948342D01*
X134473642Y-65914857D01*
X134543334Y-65919841D01*
X134587681Y-65948342D01*
X134681654Y-66042315D01*
X134830875Y-66134356D01*
X134830880Y-66134358D01*
X134997302Y-66189505D01*
X134997309Y-66189506D01*
X135100019Y-66199999D01*
X135249999Y-66199999D01*
X135250000Y-66199998D01*
X135250000Y-65250000D01*
X133750000Y-65250000D01*
X133750000Y-66199999D01*
X133249999Y-66199999D01*
X133250000Y-66199998D01*
X133250000Y-65124000D01*
X133269685Y-65056961D01*
X133322489Y-65011206D01*
X133374000Y-65000000D01*
X133500000Y-65000000D01*
X133500000Y-64874000D01*
X133519685Y-64806961D01*
X133572489Y-64761206D01*
X133624000Y-64750000D01*
X135376000Y-64750000D01*
X135443039Y-64769685D01*
G37*
%TD.AperFunction*%
%TA.AperFunction,Conductor*%
G36*
X136506587Y-55019185D02*
G01*
X136527229Y-55035819D01*
X143088181Y-61596771D01*
X143121666Y-61658094D01*
X143124500Y-61684452D01*
X143124500Y-63701000D01*
X143104815Y-63768039D01*
X143052011Y-63813794D01*
X143000500Y-63825000D01*
X142875000Y-63825000D01*
X142875000Y-66174999D01*
X143000500Y-66174999D01*
X143067539Y-66194684D01*
X143113294Y-66247488D01*
X143121979Y-66274122D01*
X143124500Y-66286432D01*
X143124500Y-66311607D01*
X143127928Y-66328842D01*
X143148537Y-66432452D01*
X143155599Y-66449500D01*
X143160135Y-66460453D01*
X143160137Y-66460459D01*
X143195687Y-66546286D01*
X143196209Y-66547262D01*
X143196327Y-66547831D01*
X143198019Y-66551915D01*
X143197244Y-66552235D01*
X143210448Y-66615666D01*
X143185444Y-66680908D01*
X143174530Y-66693390D01*
X143128214Y-66739706D01*
X143128210Y-66739711D01*
X143040609Y-66870814D01*
X143040602Y-66870827D01*
X142980259Y-67016509D01*
X142978839Y-67021192D01*
X142940535Y-67079626D01*
X142896192Y-67103839D01*
X142891509Y-67105259D01*
X142745827Y-67165602D01*
X142745814Y-67165609D01*
X142614711Y-67253210D01*
X142614707Y-67253213D01*
X142503213Y-67364707D01*
X142503210Y-67364711D01*
X142415609Y-67495814D01*
X142415602Y-67495827D01*
X142355264Y-67641498D01*
X142355261Y-67641510D01*
X142324500Y-67796153D01*
X142324500Y-67953841D01*
X142328969Y-67976310D01*
X142322740Y-68045901D01*
X142279877Y-68101078D01*
X142213987Y-68124322D01*
X142207351Y-68124500D01*
X138879501Y-68124500D01*
X138879481Y-68124499D01*
X138873367Y-68124499D01*
X138750154Y-68124499D01*
X138649357Y-68144548D01*
X138649352Y-68144548D01*
X138629309Y-68148536D01*
X138629307Y-68148536D01*
X138582157Y-68168067D01*
X138515479Y-68195685D01*
X138515477Y-68195686D01*
X138413026Y-68264141D01*
X138413023Y-68264144D01*
X138287181Y-68389987D01*
X138225858Y-68423472D01*
X138156166Y-68418488D01*
X138100233Y-68376616D01*
X138075816Y-68311152D01*
X138075500Y-68302306D01*
X138075500Y-66255448D01*
X138095185Y-66188409D01*
X138147989Y-66142654D01*
X138160488Y-66137744D01*
X138169334Y-66134814D01*
X138318656Y-66042712D01*
X138442712Y-65918656D01*
X138534814Y-65769334D01*
X138589999Y-65602797D01*
X138600500Y-65500009D01*
X138600500Y-65474986D01*
X141337501Y-65474986D01*
X141347994Y-65577697D01*
X141403141Y-65744119D01*
X141403143Y-65744124D01*
X141495184Y-65893345D01*
X141619154Y-66017315D01*
X141768375Y-66109356D01*
X141768380Y-66109358D01*
X141934802Y-66164505D01*
X141934809Y-66164506D01*
X142037519Y-66174999D01*
X142374999Y-66174999D01*
X142375000Y-66174998D01*
X142375000Y-65250000D01*
X141337501Y-65250000D01*
X141337501Y-65474986D01*
X138600500Y-65474986D01*
X138600499Y-65000000D01*
X138600499Y-64525013D01*
X141337500Y-64525013D01*
X141337500Y-64750000D01*
X142375000Y-64750000D01*
X142375000Y-63825000D01*
X142037528Y-63825000D01*
X142037512Y-63825001D01*
X141934802Y-63835494D01*
X141768380Y-63890641D01*
X141768375Y-63890643D01*
X141619154Y-63982684D01*
X141495184Y-64106654D01*
X141403143Y-64255875D01*
X141403141Y-64255880D01*
X141347994Y-64422302D01*
X141347993Y-64422309D01*
X141337500Y-64525013D01*
X138600499Y-64525013D01*
X138600499Y-64521864D01*
X138600499Y-64499998D01*
X138600498Y-64499980D01*
X138589999Y-64397203D01*
X138589998Y-64397200D01*
X138558455Y-64302011D01*
X138534814Y-64230666D01*
X138462604Y-64113594D01*
X138444165Y-64046204D01*
X138465088Y-63979541D01*
X138518730Y-63934771D01*
X138568144Y-63924500D01*
X139392059Y-63924500D01*
X139459098Y-63944185D01*
X139479740Y-63960819D01*
X139489707Y-63970786D01*
X139489711Y-63970789D01*
X139620814Y-64058390D01*
X139620827Y-64058397D01*
X139754094Y-64113597D01*
X139766503Y-64118737D01*
X139901290Y-64145548D01*
X139921153Y-64149499D01*
X139921156Y-64149500D01*
X139921158Y-64149500D01*
X140078844Y-64149500D01*
X140078845Y-64149499D01*
X140233497Y-64118737D01*
X140379179Y-64058394D01*
X140510289Y-63970789D01*
X140621789Y-63859289D01*
X140709394Y-63728179D01*
X140769737Y-63582497D01*
X140800500Y-63427842D01*
X140800500Y-63270158D01*
X140800500Y-63270155D01*
X140800499Y-63270153D01*
X140769738Y-63115510D01*
X140769737Y-63115503D01*
X140769735Y-63115498D01*
X140709397Y-62969827D01*
X140709390Y-62969814D01*
X140621789Y-62838711D01*
X140621786Y-62838707D01*
X140510292Y-62727213D01*
X140510288Y-62727210D01*
X140379185Y-62639609D01*
X140379172Y-62639602D01*
X140233501Y-62579264D01*
X140233489Y-62579261D01*
X140078845Y-62548500D01*
X140078842Y-62548500D01*
X139921158Y-62548500D01*
X139921155Y-62548500D01*
X139766510Y-62579261D01*
X139766498Y-62579264D01*
X139620827Y-62639602D01*
X139620814Y-62639609D01*
X139489711Y-62727210D01*
X139489707Y-62727213D01*
X139479740Y-62737181D01*
X139418417Y-62770666D01*
X139392059Y-62773500D01*
X133075234Y-62773500D01*
X132928863Y-62812719D01*
X132870868Y-62846204D01*
X132870867Y-62846204D01*
X132797638Y-62888482D01*
X132797633Y-62888486D01*
X131922938Y-63763181D01*
X131861615Y-63796666D01*
X131835257Y-63799500D01*
X131323500Y-63799500D01*
X131256461Y-63779815D01*
X131210706Y-63727011D01*
X131199500Y-63675500D01*
X131199500Y-61415742D01*
X131219185Y-61348703D01*
X131235819Y-61328061D01*
X131727061Y-60836819D01*
X131788384Y-60803334D01*
X131814742Y-60800500D01*
X131828844Y-60800500D01*
X131828845Y-60800499D01*
X131983497Y-60769737D01*
X132129179Y-60709394D01*
X132260289Y-60621789D01*
X132371789Y-60510289D01*
X132459394Y-60379179D01*
X132519737Y-60233497D01*
X132550500Y-60078842D01*
X132550500Y-59921158D01*
X132550500Y-59921155D01*
X132550499Y-59921153D01*
X132519738Y-59766510D01*
X132519737Y-59766503D01*
X132507044Y-59735859D01*
X132459397Y-59620827D01*
X132459390Y-59620814D01*
X132371789Y-59489711D01*
X132371786Y-59489707D01*
X132260292Y-59378213D01*
X132260288Y-59378210D01*
X132129185Y-59290609D01*
X132129172Y-59290602D01*
X131983501Y-59230264D01*
X131983489Y-59230261D01*
X131828845Y-59199500D01*
X131828842Y-59199500D01*
X131671158Y-59199500D01*
X131671155Y-59199500D01*
X131516510Y-59230261D01*
X131516498Y-59230264D01*
X131370827Y-59290602D01*
X131370814Y-59290609D01*
X131239711Y-59378210D01*
X131239707Y-59378213D01*
X131128213Y-59489707D01*
X131128210Y-59489711D01*
X131040609Y-59620814D01*
X131040602Y-59620827D01*
X130980264Y-59766498D01*
X130980261Y-59766510D01*
X130949500Y-59921153D01*
X130949500Y-59935258D01*
X130929815Y-60002297D01*
X130913181Y-60022939D01*
X130537181Y-60398939D01*
X130475858Y-60432424D01*
X130406166Y-60427440D01*
X130350233Y-60385568D01*
X130325816Y-60320104D01*
X130325500Y-60311258D01*
X130325500Y-56039741D01*
X130334144Y-56010300D01*
X130340668Y-55980314D01*
X130344422Y-55975298D01*
X130345185Y-55972702D01*
X130361814Y-55952065D01*
X130477062Y-55836817D01*
X130538384Y-55803334D01*
X130564742Y-55800500D01*
X130578844Y-55800500D01*
X130578845Y-55800499D01*
X130733497Y-55769737D01*
X130879179Y-55709394D01*
X131010289Y-55621789D01*
X131121789Y-55510289D01*
X131209394Y-55379179D01*
X131269737Y-55233497D01*
X131296429Y-55099309D01*
X131328814Y-55037398D01*
X131389529Y-55002824D01*
X131418046Y-54999500D01*
X136439548Y-54999500D01*
X136506587Y-55019185D01*
G37*
%TD.AperFunction*%
%TA.AperFunction,Conductor*%
G36*
X177943039Y-47519685D02*
G01*
X177988794Y-47572489D01*
X178000000Y-47624000D01*
X178000000Y-120376000D01*
X177980315Y-120443039D01*
X177927511Y-120488794D01*
X177876000Y-120500000D01*
X80124000Y-120500000D01*
X80056961Y-120480315D01*
X80011206Y-120427511D01*
X80000000Y-120376000D01*
X80000000Y-116378711D01*
X82149500Y-116378711D01*
X82149500Y-116621288D01*
X82181161Y-116861785D01*
X82243947Y-117096104D01*
X82336773Y-117320205D01*
X82336776Y-117320212D01*
X82458064Y-117530289D01*
X82458066Y-117530292D01*
X82458067Y-117530293D01*
X82605733Y-117722736D01*
X82605739Y-117722743D01*
X82777256Y-117894260D01*
X82777262Y-117894265D01*
X82969711Y-118041936D01*
X83179788Y-118163224D01*
X83403900Y-118256054D01*
X83638211Y-118318838D01*
X83818586Y-118342584D01*
X83878711Y-118350500D01*
X83878712Y-118350500D01*
X84121289Y-118350500D01*
X84169388Y-118344167D01*
X84361789Y-118318838D01*
X84596100Y-118256054D01*
X84820212Y-118163224D01*
X85030289Y-118041936D01*
X85222738Y-117894265D01*
X85394265Y-117722738D01*
X85541936Y-117530289D01*
X85663224Y-117320212D01*
X85756054Y-117096100D01*
X85818838Y-116861789D01*
X85850500Y-116621288D01*
X85850500Y-116378712D01*
X85850500Y-116378711D01*
X172149500Y-116378711D01*
X172149500Y-116621288D01*
X172181161Y-116861785D01*
X172243947Y-117096104D01*
X172336773Y-117320205D01*
X172336776Y-117320212D01*
X172458064Y-117530289D01*
X172458066Y-117530292D01*
X172458067Y-117530293D01*
X172605733Y-117722736D01*
X172605739Y-117722743D01*
X172777256Y-117894260D01*
X172777262Y-117894265D01*
X172969711Y-118041936D01*
X173179788Y-118163224D01*
X173403900Y-118256054D01*
X173638211Y-118318838D01*
X173818586Y-118342584D01*
X173878711Y-118350500D01*
X173878712Y-118350500D01*
X174121289Y-118350500D01*
X174169388Y-118344167D01*
X174361789Y-118318838D01*
X174596100Y-118256054D01*
X174820212Y-118163224D01*
X175030289Y-118041936D01*
X175222738Y-117894265D01*
X175394265Y-117722738D01*
X175541936Y-117530289D01*
X175663224Y-117320212D01*
X175756054Y-117096100D01*
X175818838Y-116861789D01*
X175850500Y-116621288D01*
X175850500Y-116378712D01*
X175818838Y-116138211D01*
X175756054Y-115903900D01*
X175663224Y-115679788D01*
X175541936Y-115469711D01*
X175394265Y-115277262D01*
X175394260Y-115277256D01*
X175222743Y-115105739D01*
X175222736Y-115105733D01*
X175030293Y-114958067D01*
X175030292Y-114958066D01*
X175030289Y-114958064D01*
X174820212Y-114836776D01*
X174820205Y-114836773D01*
X174596104Y-114743947D01*
X174361785Y-114681161D01*
X174121289Y-114649500D01*
X174121288Y-114649500D01*
X173878712Y-114649500D01*
X173878711Y-114649500D01*
X173638214Y-114681161D01*
X173403895Y-114743947D01*
X173179794Y-114836773D01*
X173179785Y-114836777D01*
X172969706Y-114958067D01*
X172777263Y-115105733D01*
X172777256Y-115105739D01*
X172605739Y-115277256D01*
X172605733Y-115277263D01*
X172458067Y-115469706D01*
X172336777Y-115679785D01*
X172336773Y-115679794D01*
X172243947Y-115903895D01*
X172181161Y-116138214D01*
X172149500Y-116378711D01*
X85850500Y-116378711D01*
X85818838Y-116138211D01*
X85756054Y-115903900D01*
X85663224Y-115679788D01*
X85541936Y-115469711D01*
X85394265Y-115277262D01*
X85394260Y-115277256D01*
X85222743Y-115105739D01*
X85222736Y-115105733D01*
X85030293Y-114958067D01*
X85030292Y-114958066D01*
X85030289Y-114958064D01*
X84820212Y-114836776D01*
X84820205Y-114836773D01*
X84596104Y-114743947D01*
X84361785Y-114681161D01*
X84121289Y-114649500D01*
X84121288Y-114649500D01*
X83878712Y-114649500D01*
X83878711Y-114649500D01*
X83638214Y-114681161D01*
X83403895Y-114743947D01*
X83179794Y-114836773D01*
X83179785Y-114836777D01*
X82969706Y-114958067D01*
X82777263Y-115105733D01*
X82777256Y-115105739D01*
X82605739Y-115277256D01*
X82605733Y-115277263D01*
X82458067Y-115469706D01*
X82336777Y-115679785D01*
X82336773Y-115679794D01*
X82243947Y-115903895D01*
X82181161Y-116138214D01*
X82149500Y-116378711D01*
X80000000Y-116378711D01*
X80000000Y-87349983D01*
X84149500Y-87349983D01*
X84149500Y-88650001D01*
X84149501Y-88650018D01*
X84160000Y-88752796D01*
X84160001Y-88752799D01*
X84215185Y-88919331D01*
X84215187Y-88919336D01*
X84233890Y-88949659D01*
X84307288Y-89068656D01*
X84431344Y-89192712D01*
X84580666Y-89284814D01*
X84591223Y-89288312D01*
X84648668Y-89328084D01*
X84675492Y-89392600D01*
X84663177Y-89461376D01*
X84625113Y-89506330D01*
X84620219Y-89509885D01*
X84620209Y-89509894D01*
X84469890Y-89660213D01*
X84344951Y-89832179D01*
X84248444Y-90021585D01*
X84182753Y-90223760D01*
X84149500Y-90433713D01*
X84149500Y-90646286D01*
X84182736Y-90856133D01*
X84182754Y-90856243D01*
X84246916Y-91053713D01*
X84248444Y-91058414D01*
X84344951Y-91247820D01*
X84469890Y-91419786D01*
X84620213Y-91570109D01*
X84792179Y-91695048D01*
X84792181Y-91695049D01*
X84792184Y-91695051D01*
X84801493Y-91699794D01*
X84852290Y-91747766D01*
X84869087Y-91815587D01*
X84846552Y-91881722D01*
X84801505Y-91920760D01*
X84792446Y-91925376D01*
X84792440Y-91925380D01*
X84738282Y-91964727D01*
X84738282Y-91964728D01*
X85370591Y-92597037D01*
X85307007Y-92614075D01*
X85192993Y-92679901D01*
X85099901Y-92772993D01*
X85034075Y-92887007D01*
X85017037Y-92950591D01*
X84384728Y-92318282D01*
X84384727Y-92318282D01*
X84345380Y-92372439D01*
X84248904Y-92561782D01*
X84183242Y-92763869D01*
X84183242Y-92763872D01*
X84150000Y-92973753D01*
X84150000Y-93186246D01*
X84183242Y-93396127D01*
X84183242Y-93396130D01*
X84248904Y-93598217D01*
X84345375Y-93787550D01*
X84384728Y-93841716D01*
X85017037Y-93209408D01*
X85034075Y-93272993D01*
X85099901Y-93387007D01*
X85192993Y-93480099D01*
X85307007Y-93545925D01*
X85370590Y-93562962D01*
X84738282Y-94195269D01*
X84738282Y-94195270D01*
X84792452Y-94234626D01*
X84792451Y-94234626D01*
X84801495Y-94239234D01*
X84852292Y-94287208D01*
X84869087Y-94355029D01*
X84846550Y-94421164D01*
X84801499Y-94460202D01*
X84792182Y-94464949D01*
X84620213Y-94589890D01*
X84469890Y-94740213D01*
X84344951Y-94912179D01*
X84248444Y-95101585D01*
X84182753Y-95303760D01*
X84149500Y-95513713D01*
X84149500Y-95726286D01*
X84162741Y-95809890D01*
X84182754Y-95936243D01*
X84246916Y-96133713D01*
X84248444Y-96138414D01*
X84344951Y-96327820D01*
X84469890Y-96499786D01*
X84620213Y-96650109D01*
X84792182Y-96775050D01*
X84800946Y-96779516D01*
X84851742Y-96827491D01*
X84868536Y-96895312D01*
X84845998Y-96961447D01*
X84800946Y-97000484D01*
X84792182Y-97004949D01*
X84620213Y-97129890D01*
X84469890Y-97280213D01*
X84344951Y-97452179D01*
X84248444Y-97641585D01*
X84182753Y-97843760D01*
X84149500Y-98053713D01*
X84149500Y-98266286D01*
X84162741Y-98349890D01*
X84182754Y-98476243D01*
X84246916Y-98673713D01*
X84248444Y-98678414D01*
X84344951Y-98867820D01*
X84469890Y-99039786D01*
X84620213Y-99190109D01*
X84792179Y-99315048D01*
X84792181Y-99315049D01*
X84792184Y-99315051D01*
X84981588Y-99411557D01*
X85183757Y-99477246D01*
X85393713Y-99510500D01*
X85393714Y-99510500D01*
X85606286Y-99510500D01*
X85606287Y-99510500D01*
X85816243Y-99477246D01*
X86018412Y-99411557D01*
X86207816Y-99315051D01*
X86308845Y-99241650D01*
X86379786Y-99190109D01*
X86379788Y-99190106D01*
X86379792Y-99190104D01*
X86530104Y-99039792D01*
X86530106Y-99039788D01*
X86530109Y-99039786D01*
X86655048Y-98867820D01*
X86655047Y-98867820D01*
X86655051Y-98867816D01*
X86659514Y-98859054D01*
X86707488Y-98808259D01*
X86775308Y-98791463D01*
X86841444Y-98813999D01*
X86880486Y-98859056D01*
X86884951Y-98867820D01*
X87009890Y-99039786D01*
X87160213Y-99190109D01*
X87332179Y-99315048D01*
X87332181Y-99315049D01*
X87332184Y-99315051D01*
X87521588Y-99411557D01*
X87723757Y-99477246D01*
X87933713Y-99510500D01*
X87933714Y-99510500D01*
X88146286Y-99510500D01*
X88146287Y-99510500D01*
X88356243Y-99477246D01*
X88558412Y-99411557D01*
X88747816Y-99315051D01*
X88848845Y-99241650D01*
X88919786Y-99190109D01*
X88919788Y-99190106D01*
X88919792Y-99190104D01*
X89070104Y-99039792D01*
X89070106Y-99039788D01*
X89070109Y-99039786D01*
X89195048Y-98867820D01*
X89195047Y-98867820D01*
X89195051Y-98867816D01*
X89291557Y-98678412D01*
X89357246Y-98476243D01*
X89390500Y-98266287D01*
X89390500Y-98053713D01*
X89357246Y-97843757D01*
X89291557Y-97641588D01*
X89195051Y-97452184D01*
X89195049Y-97452181D01*
X89195048Y-97452179D01*
X89070109Y-97280213D01*
X88919786Y-97129890D01*
X88747820Y-97004951D01*
X88747115Y-97004591D01*
X88739054Y-97000485D01*
X88688259Y-96952512D01*
X88671463Y-96884692D01*
X88693999Y-96818556D01*
X88739054Y-96779515D01*
X88747816Y-96775051D01*
X88848845Y-96701650D01*
X88919786Y-96650109D01*
X88919788Y-96650106D01*
X88919792Y-96650104D01*
X89070104Y-96499792D01*
X89070106Y-96499788D01*
X89070109Y-96499786D01*
X89195048Y-96327820D01*
X89195047Y-96327820D01*
X89195051Y-96327816D01*
X89291557Y-96138412D01*
X89357246Y-95936243D01*
X89390500Y-95726287D01*
X89390500Y-95513713D01*
X89357246Y-95303757D01*
X89291557Y-95101588D01*
X89195051Y-94912184D01*
X89195049Y-94912181D01*
X89195048Y-94912179D01*
X89070109Y-94740213D01*
X88919786Y-94589890D01*
X88747817Y-94464949D01*
X88738504Y-94460204D01*
X88687707Y-94412230D01*
X88670912Y-94344409D01*
X88693449Y-94278274D01*
X88738507Y-94239232D01*
X88747555Y-94234622D01*
X88801716Y-94195270D01*
X88801717Y-94195270D01*
X88169408Y-93562962D01*
X88232993Y-93545925D01*
X88347007Y-93480099D01*
X88440099Y-93387007D01*
X88505925Y-93272993D01*
X88522962Y-93209409D01*
X89155270Y-93841717D01*
X89155270Y-93841716D01*
X89194622Y-93787554D01*
X89291095Y-93598217D01*
X89356757Y-93396130D01*
X89356757Y-93396127D01*
X89390000Y-93186246D01*
X89390000Y-92973753D01*
X89356757Y-92763872D01*
X89356757Y-92763869D01*
X89291095Y-92561782D01*
X89285085Y-92549986D01*
X94850001Y-92549986D01*
X94860494Y-92652697D01*
X94915641Y-92819119D01*
X94915643Y-92819124D01*
X95007684Y-92968345D01*
X95131654Y-93092315D01*
X95280875Y-93184356D01*
X95280880Y-93184358D01*
X95447302Y-93239505D01*
X95447309Y-93239506D01*
X95550019Y-93249999D01*
X96249999Y-93249999D01*
X96750000Y-93249999D01*
X97449972Y-93249999D01*
X97449986Y-93249998D01*
X97552697Y-93239505D01*
X97719119Y-93184358D01*
X97719124Y-93184356D01*
X97868345Y-93092315D01*
X97992315Y-92968345D01*
X98084356Y-92819124D01*
X98084358Y-92819119D01*
X98139505Y-92652697D01*
X98139506Y-92652690D01*
X98149999Y-92549986D01*
X98150000Y-92549973D01*
X98150000Y-92049986D01*
X101275001Y-92049986D01*
X101285494Y-92152697D01*
X101340641Y-92319119D01*
X101340643Y-92319124D01*
X101432684Y-92468345D01*
X101556654Y-92592315D01*
X101705875Y-92684356D01*
X101705880Y-92684358D01*
X101872302Y-92739505D01*
X101872309Y-92739506D01*
X101975019Y-92749999D01*
X102249999Y-92749999D01*
X102750000Y-92749999D01*
X103024972Y-92749999D01*
X103024986Y-92749998D01*
X103127697Y-92739505D01*
X103294119Y-92684358D01*
X103294124Y-92684356D01*
X103443345Y-92592315D01*
X103537319Y-92498342D01*
X103598642Y-92464857D01*
X103668334Y-92469841D01*
X103712681Y-92498342D01*
X103806654Y-92592315D01*
X103955875Y-92684356D01*
X103955880Y-92684358D01*
X104122302Y-92739505D01*
X104122309Y-92739506D01*
X104225019Y-92749999D01*
X104499999Y-92749999D01*
X105000000Y-92749999D01*
X105274972Y-92749999D01*
X105274986Y-92749998D01*
X105377697Y-92739505D01*
X105544119Y-92684358D01*
X105544124Y-92684356D01*
X105693345Y-92592315D01*
X105817315Y-92468345D01*
X105909356Y-92319124D01*
X105909358Y-92319119D01*
X105964505Y-92152697D01*
X105964506Y-92152690D01*
X105974999Y-92049986D01*
X105975000Y-92049973D01*
X105975000Y-92000000D01*
X105000000Y-92000000D01*
X105000000Y-92749999D01*
X104499999Y-92749999D01*
X104500000Y-92749998D01*
X104500000Y-92000000D01*
X102750000Y-92000000D01*
X102750000Y-92749999D01*
X102249999Y-92749999D01*
X102250000Y-92749998D01*
X102250000Y-92000000D01*
X101275001Y-92000000D01*
X101275001Y-92049986D01*
X98150000Y-92049986D01*
X98150000Y-91750000D01*
X96750000Y-91750000D01*
X96750000Y-93249999D01*
X96249999Y-93249999D01*
X96250000Y-93249998D01*
X96250000Y-91750000D01*
X94850001Y-91750000D01*
X94850001Y-92549986D01*
X89285085Y-92549986D01*
X89194624Y-92372449D01*
X89155270Y-92318282D01*
X88522962Y-92950590D01*
X88505925Y-92887007D01*
X88440099Y-92772993D01*
X88347007Y-92679901D01*
X88232993Y-92614075D01*
X88169409Y-92597037D01*
X88801716Y-91964728D01*
X88747550Y-91925375D01*
X88737954Y-91920486D01*
X88687157Y-91872512D01*
X88670361Y-91804692D01*
X88689002Y-91749986D01*
X90125001Y-91749986D01*
X90135494Y-91852697D01*
X90190641Y-92019119D01*
X90190643Y-92019124D01*
X90282684Y-92168345D01*
X90406654Y-92292315D01*
X90555875Y-92384356D01*
X90555880Y-92384358D01*
X90722302Y-92439505D01*
X90722309Y-92439506D01*
X90825019Y-92449999D01*
X91249999Y-92449999D01*
X91750000Y-92449999D01*
X92174972Y-92449999D01*
X92174986Y-92449998D01*
X92277697Y-92439505D01*
X92444119Y-92384358D01*
X92444124Y-92384356D01*
X92593345Y-92292315D01*
X92717315Y-92168345D01*
X92809356Y-92019124D01*
X92809358Y-92019119D01*
X92864505Y-91852697D01*
X92864506Y-91852690D01*
X92874999Y-91749986D01*
X92875000Y-91749973D01*
X92875000Y-91550000D01*
X91750000Y-91550000D01*
X91750000Y-92449999D01*
X91249999Y-92449999D01*
X91250000Y-92449998D01*
X91250000Y-91550000D01*
X90125001Y-91550000D01*
X90125001Y-91749986D01*
X88689002Y-91749986D01*
X88692897Y-91738556D01*
X88737954Y-91699514D01*
X88747554Y-91694622D01*
X88801716Y-91655270D01*
X88801717Y-91655270D01*
X88732766Y-91586319D01*
X88169408Y-91022962D01*
X88232993Y-91005925D01*
X88347007Y-90940099D01*
X88440099Y-90847007D01*
X88505925Y-90732993D01*
X88522962Y-90669409D01*
X89155270Y-91301717D01*
X89155270Y-91301716D01*
X89194622Y-91247554D01*
X89291095Y-91058217D01*
X89356756Y-90856133D01*
X89357725Y-90850013D01*
X90125000Y-90850013D01*
X90125000Y-91050000D01*
X91250000Y-91050000D01*
X91750000Y-91050000D01*
X92874999Y-91050000D01*
X92874999Y-90850028D01*
X92874998Y-90850013D01*
X92864505Y-90747302D01*
X92809358Y-90580880D01*
X92809356Y-90580875D01*
X92766849Y-90511961D01*
X92728639Y-90450013D01*
X94850000Y-90450013D01*
X94850000Y-91250000D01*
X96250000Y-91250000D01*
X96750000Y-91250000D01*
X98149999Y-91250000D01*
X98149999Y-90450028D01*
X98149998Y-90450013D01*
X98139505Y-90347302D01*
X98084358Y-90180880D01*
X98084356Y-90180875D01*
X97992315Y-90031654D01*
X97868345Y-89907684D01*
X97719124Y-89815643D01*
X97719119Y-89815641D01*
X97552697Y-89760494D01*
X97552690Y-89760493D01*
X97449986Y-89750000D01*
X96750000Y-89750000D01*
X96750000Y-91250000D01*
X96250000Y-91250000D01*
X96250000Y-89750000D01*
X95550028Y-89750000D01*
X95550012Y-89750001D01*
X95447302Y-89760494D01*
X95280880Y-89815641D01*
X95280875Y-89815643D01*
X95131654Y-89907684D01*
X95007684Y-90031654D01*
X94915643Y-90180875D01*
X94915641Y-90180880D01*
X94860494Y-90347302D01*
X94860493Y-90347309D01*
X94850000Y-90450013D01*
X92728639Y-90450013D01*
X92717315Y-90431654D01*
X92593345Y-90307684D01*
X92444124Y-90215643D01*
X92444119Y-90215641D01*
X92277697Y-90160494D01*
X92277690Y-90160493D01*
X92174986Y-90150000D01*
X91750000Y-90150000D01*
X91750000Y-91050000D01*
X91250000Y-91050000D01*
X91250000Y-90150000D01*
X90825028Y-90150000D01*
X90825012Y-90150001D01*
X90722302Y-90160494D01*
X90555880Y-90215641D01*
X90555875Y-90215643D01*
X90406654Y-90307684D01*
X90282684Y-90431654D01*
X90190643Y-90580875D01*
X90190641Y-90580880D01*
X90135494Y-90747302D01*
X90135493Y-90747309D01*
X90125000Y-90850013D01*
X89357725Y-90850013D01*
X89361296Y-90827468D01*
X89361297Y-90827465D01*
X89390000Y-90646245D01*
X89390000Y-90433753D01*
X89356757Y-90223872D01*
X89356757Y-90223869D01*
X89291095Y-90021782D01*
X89194624Y-89832449D01*
X89155270Y-89778282D01*
X89155269Y-89778282D01*
X88522962Y-90410590D01*
X88505925Y-90347007D01*
X88440099Y-90232993D01*
X88347007Y-90139901D01*
X88232993Y-90074075D01*
X88169408Y-90057037D01*
X88801716Y-89424728D01*
X88747547Y-89385373D01*
X88747547Y-89385372D01*
X88738500Y-89380763D01*
X88687706Y-89332788D01*
X88670912Y-89264966D01*
X88693451Y-89198832D01*
X88738508Y-89159793D01*
X88747816Y-89155051D01*
X88866728Y-89068657D01*
X88919786Y-89030109D01*
X88919788Y-89030106D01*
X88919792Y-89030104D01*
X89070104Y-88879792D01*
X89070106Y-88879788D01*
X89070109Y-88879786D01*
X89195049Y-88707819D01*
X89202497Y-88693203D01*
X89250473Y-88642408D01*
X89312981Y-88625500D01*
X90010019Y-88625500D01*
X90077058Y-88645185D01*
X90122813Y-88697989D01*
X90133377Y-88736899D01*
X90135000Y-88752796D01*
X90135001Y-88752799D01*
X90190185Y-88919331D01*
X90190187Y-88919336D01*
X90208890Y-88949659D01*
X90282288Y-89068656D01*
X90406344Y-89192712D01*
X90555666Y-89284814D01*
X90722203Y-89339999D01*
X90824991Y-89350500D01*
X92175008Y-89350499D01*
X92277797Y-89339999D01*
X92444334Y-89284814D01*
X92593656Y-89192712D01*
X92717712Y-89068656D01*
X92809814Y-88919334D01*
X92812744Y-88910493D01*
X92852518Y-88853049D01*
X92917035Y-88826228D01*
X92930449Y-88825500D01*
X95149336Y-88825500D01*
X95214432Y-88843961D01*
X95280659Y-88884810D01*
X95280660Y-88884810D01*
X95280666Y-88884814D01*
X95447203Y-88939999D01*
X95549991Y-88950500D01*
X97450008Y-88950499D01*
X97552797Y-88939999D01*
X97719334Y-88884814D01*
X97868656Y-88792712D01*
X97992712Y-88668656D01*
X98084814Y-88519334D01*
X98139999Y-88352797D01*
X98150500Y-88250009D01*
X98150499Y-86149992D01*
X98139999Y-86047203D01*
X98084814Y-85880666D01*
X97992712Y-85731344D01*
X97868656Y-85607288D01*
X97773345Y-85548500D01*
X97719336Y-85515187D01*
X97719331Y-85515185D01*
X97704553Y-85510288D01*
X97552797Y-85460001D01*
X97552795Y-85460000D01*
X97450016Y-85449500D01*
X97450009Y-85449500D01*
X97249500Y-85449500D01*
X97240814Y-85446949D01*
X97231853Y-85448238D01*
X97207812Y-85437259D01*
X97182461Y-85429815D01*
X97176533Y-85422974D01*
X97168297Y-85419213D01*
X97154007Y-85396978D01*
X97136706Y-85377011D01*
X97134418Y-85366496D01*
X97130523Y-85360435D01*
X97125500Y-85325500D01*
X97125500Y-85274499D01*
X97145185Y-85207460D01*
X97197989Y-85161705D01*
X97249500Y-85150499D01*
X98364547Y-85150499D01*
X98431586Y-85170184D01*
X98452228Y-85186818D01*
X101161016Y-87895606D01*
X101161045Y-87895637D01*
X101213180Y-87947771D01*
X101246666Y-88009094D01*
X101249500Y-88035452D01*
X101249500Y-88201121D01*
X101249501Y-88201125D01*
X101252399Y-88243886D01*
X101252399Y-88243887D01*
X101298360Y-88428696D01*
X101382967Y-88599292D01*
X101382969Y-88599295D01*
X101502277Y-88747721D01*
X101502278Y-88747722D01*
X101571609Y-88803452D01*
X101611528Y-88860795D01*
X101614108Y-88930617D01*
X101578529Y-88990750D01*
X101559024Y-89005635D01*
X101556343Y-89007288D01*
X101432289Y-89131342D01*
X101340187Y-89280663D01*
X101340185Y-89280668D01*
X101327964Y-89317548D01*
X101285001Y-89447203D01*
X101285001Y-89447204D01*
X101285000Y-89447204D01*
X101274500Y-89549983D01*
X101274500Y-89549996D01*
X101274501Y-90150000D01*
X101274501Y-90150019D01*
X101285000Y-90252796D01*
X101285001Y-90252799D01*
X101340185Y-90419331D01*
X101340187Y-90419336D01*
X101359109Y-90450013D01*
X101432288Y-90568656D01*
X101556344Y-90692712D01*
X101559628Y-90694737D01*
X101559653Y-90694753D01*
X101561445Y-90696746D01*
X101562011Y-90697193D01*
X101561934Y-90697289D01*
X101606379Y-90746699D01*
X101617603Y-90815661D01*
X101589761Y-90879744D01*
X101559665Y-90905826D01*
X101556660Y-90907679D01*
X101556655Y-90907683D01*
X101432684Y-91031654D01*
X101340643Y-91180875D01*
X101340641Y-91180880D01*
X101285494Y-91347302D01*
X101285493Y-91347309D01*
X101275000Y-91450013D01*
X101275000Y-91500000D01*
X105974999Y-91500000D01*
X105974999Y-91450028D01*
X105974998Y-91450013D01*
X105964505Y-91347302D01*
X105932258Y-91249986D01*
X113150001Y-91249986D01*
X113160494Y-91352697D01*
X113215641Y-91519119D01*
X113215643Y-91519124D01*
X113307684Y-91668345D01*
X113431654Y-91792315D01*
X113580875Y-91884356D01*
X113580880Y-91884358D01*
X113747302Y-91939505D01*
X113747309Y-91939506D01*
X113850019Y-91949999D01*
X113999999Y-91949999D01*
X114000000Y-91949998D01*
X114000000Y-91000000D01*
X113150001Y-91000000D01*
X113150001Y-91249986D01*
X105932258Y-91249986D01*
X105909358Y-91180880D01*
X105909356Y-91180875D01*
X105817634Y-91032171D01*
X105669478Y-90889660D01*
X105658462Y-90870385D01*
X105643617Y-90853880D01*
X105641463Y-90840644D01*
X105634808Y-90828999D01*
X105635961Y-90806827D01*
X105632397Y-90784917D01*
X105637742Y-90772616D01*
X105638439Y-90759224D01*
X105651395Y-90741196D01*
X105660243Y-90720836D01*
X105675577Y-90707549D01*
X105679216Y-90702487D01*
X105683269Y-90700884D01*
X105690344Y-90694754D01*
X105693656Y-90692712D01*
X105817712Y-90568656D01*
X105909814Y-90419334D01*
X105964999Y-90252797D01*
X105975500Y-90150009D01*
X105975499Y-89549992D01*
X105974410Y-89539336D01*
X105964999Y-89447203D01*
X105964998Y-89447200D01*
X105962080Y-89438394D01*
X105909814Y-89280666D01*
X105817712Y-89131344D01*
X105693866Y-89007498D01*
X105689101Y-88998772D01*
X105681228Y-88992701D01*
X105672634Y-88968616D01*
X105660381Y-88946175D01*
X105661090Y-88936258D01*
X105657749Y-88926894D01*
X105663541Y-88901987D01*
X105665365Y-88876483D01*
X105671744Y-88866710D01*
X105673575Y-88858840D01*
X105687886Y-88841983D01*
X105695128Y-88830891D01*
X105699305Y-88826831D01*
X105797722Y-88747722D01*
X105858448Y-88672174D01*
X105863901Y-88666876D01*
X105888337Y-88653982D01*
X105911015Y-88638196D01*
X105918803Y-88637908D01*
X105925697Y-88634271D01*
X105953226Y-88636636D01*
X105980837Y-88635616D01*
X105987545Y-88639584D01*
X105995310Y-88640252D01*
X106017190Y-88657124D01*
X106040970Y-88671194D01*
X106046967Y-88678115D01*
X106102632Y-88747366D01*
X106102633Y-88747367D01*
X106250974Y-88866607D01*
X106250977Y-88866609D01*
X106421476Y-88951168D01*
X106606175Y-88997102D01*
X106648903Y-89000000D01*
X106850000Y-89000000D01*
X107350000Y-89000000D01*
X107551097Y-89000000D01*
X107593824Y-88997102D01*
X107778523Y-88951168D01*
X107949022Y-88866609D01*
X107949025Y-88866607D01*
X108097366Y-88747367D01*
X108097367Y-88747366D01*
X108216607Y-88599025D01*
X108216609Y-88599022D01*
X108301168Y-88428523D01*
X108347102Y-88243824D01*
X108350000Y-88201096D01*
X108350000Y-88024986D01*
X108850001Y-88024986D01*
X108860494Y-88127697D01*
X108915641Y-88294119D01*
X108915643Y-88294124D01*
X109007684Y-88443345D01*
X109131654Y-88567315D01*
X109280875Y-88659356D01*
X109280880Y-88659358D01*
X109447302Y-88714505D01*
X109447309Y-88714506D01*
X109550019Y-88724999D01*
X109599999Y-88724998D01*
X109600000Y-88724998D01*
X109600000Y-87750000D01*
X108850001Y-87750000D01*
X108850001Y-88024986D01*
X108350000Y-88024986D01*
X108350000Y-87750000D01*
X107350000Y-87750000D01*
X107350000Y-89000000D01*
X106850000Y-89000000D01*
X106850000Y-87624000D01*
X106869685Y-87556961D01*
X106922489Y-87511206D01*
X106974000Y-87500000D01*
X107100000Y-87500000D01*
X107100000Y-87374000D01*
X107119685Y-87306961D01*
X107172489Y-87261206D01*
X107224000Y-87250000D01*
X108350000Y-87250000D01*
X108350000Y-86923500D01*
X108369685Y-86856461D01*
X108422489Y-86810706D01*
X108474000Y-86799500D01*
X108730618Y-86799500D01*
X108797657Y-86819185D01*
X108843412Y-86871989D01*
X108853976Y-86936103D01*
X108850000Y-86975013D01*
X108850000Y-87250000D01*
X109726000Y-87250000D01*
X109793039Y-87269685D01*
X109838794Y-87322489D01*
X109850000Y-87374000D01*
X109850000Y-87500000D01*
X109926500Y-87500000D01*
X109993539Y-87519685D01*
X110039294Y-87572489D01*
X110050500Y-87624000D01*
X110050500Y-88034124D01*
X110074535Y-88154958D01*
X110074537Y-88154966D01*
X110085158Y-88180607D01*
X110090560Y-88193650D01*
X110100000Y-88241103D01*
X110100000Y-88724999D01*
X110149972Y-88724999D01*
X110149986Y-88724998D01*
X110252697Y-88714505D01*
X110390934Y-88668698D01*
X110460762Y-88666296D01*
X110517619Y-88698723D01*
X111304749Y-89485855D01*
X111304753Y-89485858D01*
X111407194Y-89554308D01*
X111407207Y-89554315D01*
X111466144Y-89578727D01*
X111469814Y-89580247D01*
X111521034Y-89601463D01*
X111541083Y-89605451D01*
X111590024Y-89615186D01*
X111641878Y-89625501D01*
X111641880Y-89625501D01*
X111771207Y-89625501D01*
X111771227Y-89625500D01*
X113214564Y-89625500D01*
X113281603Y-89645185D01*
X113327358Y-89697989D01*
X113337302Y-89767147D01*
X113311832Y-89826409D01*
X113307684Y-89831654D01*
X113215643Y-89980875D01*
X113215641Y-89980880D01*
X113160494Y-90147302D01*
X113160493Y-90147309D01*
X113150000Y-90250013D01*
X113150000Y-90500000D01*
X114126000Y-90500000D01*
X114193039Y-90519685D01*
X114238794Y-90572489D01*
X114250000Y-90624000D01*
X114250000Y-90750000D01*
X114376000Y-90750000D01*
X114443039Y-90769685D01*
X114488794Y-90822489D01*
X114500000Y-90874000D01*
X114500000Y-91949999D01*
X114649972Y-91949999D01*
X114649986Y-91949998D01*
X114752692Y-91939506D01*
X114815822Y-91918587D01*
X114885651Y-91916185D01*
X114942508Y-91948612D01*
X115168625Y-92174729D01*
X115168628Y-92174733D01*
X115255753Y-92261858D01*
X115305780Y-92295285D01*
X115312460Y-92299748D01*
X115312463Y-92299751D01*
X115358195Y-92330309D01*
X115358198Y-92330310D01*
X115358201Y-92330312D01*
X115404524Y-92349499D01*
X115404525Y-92349500D01*
X115404526Y-92349500D01*
X115472034Y-92377463D01*
X115532457Y-92389481D01*
X115592879Y-92401500D01*
X116907121Y-92401500D01*
X116967543Y-92389481D01*
X117027966Y-92377463D01*
X117061306Y-92363652D01*
X117141800Y-92330312D01*
X117202900Y-92289485D01*
X117244247Y-92261858D01*
X117331372Y-92174733D01*
X117331372Y-92174731D01*
X117341580Y-92164524D01*
X117341581Y-92164521D01*
X118119735Y-91386370D01*
X118188189Y-91283922D01*
X118232153Y-91177782D01*
X118235340Y-91170089D01*
X118250601Y-91093365D01*
X118259378Y-91049243D01*
X118259378Y-90926030D01*
X118259378Y-90920920D01*
X118259377Y-90920894D01*
X118259377Y-88951618D01*
X118259378Y-88951597D01*
X118259378Y-88822268D01*
X118235340Y-88701427D01*
X118235337Y-88701418D01*
X118234954Y-88700494D01*
X118234937Y-88700454D01*
X118213784Y-88649385D01*
X118195340Y-88604857D01*
X118188189Y-88587592D01*
X118119735Y-88485144D01*
X118119732Y-88485140D01*
X117689106Y-88054515D01*
X117604574Y-87969983D01*
X126649500Y-87969983D01*
X126649500Y-89270001D01*
X126649501Y-89270018D01*
X126660000Y-89372796D01*
X126660001Y-89372799D01*
X126715185Y-89539331D01*
X126715187Y-89539336D01*
X126724422Y-89554308D01*
X126807288Y-89688656D01*
X126931344Y-89812712D01*
X127080666Y-89904814D01*
X127091223Y-89908312D01*
X127148668Y-89948084D01*
X127175492Y-90012600D01*
X127163177Y-90081376D01*
X127125113Y-90126330D01*
X127120219Y-90129885D01*
X127120209Y-90129894D01*
X126969890Y-90280213D01*
X126844951Y-90452179D01*
X126748444Y-90641585D01*
X126682753Y-90843760D01*
X126670532Y-90920920D01*
X126649500Y-91053713D01*
X126649500Y-91266287D01*
X126655112Y-91301717D01*
X126678599Y-91450013D01*
X126682754Y-91476243D01*
X126730627Y-91623581D01*
X126748444Y-91678414D01*
X126844951Y-91867820D01*
X126969890Y-92039786D01*
X127120213Y-92190109D01*
X127292182Y-92315050D01*
X127300946Y-92319516D01*
X127351742Y-92367491D01*
X127368536Y-92435312D01*
X127345998Y-92501447D01*
X127300946Y-92540484D01*
X127292182Y-92544949D01*
X127120213Y-92669890D01*
X126969890Y-92820213D01*
X126844951Y-92992179D01*
X126748444Y-93181585D01*
X126682753Y-93383760D01*
X126667495Y-93480099D01*
X126649500Y-93593713D01*
X126649500Y-93806287D01*
X126682754Y-94016243D01*
X126740923Y-94195269D01*
X126748444Y-94218414D01*
X126844951Y-94407820D01*
X126969890Y-94579786D01*
X127120213Y-94730109D01*
X127292182Y-94855050D01*
X127300946Y-94859516D01*
X127351742Y-94907491D01*
X127368536Y-94975312D01*
X127345998Y-95041447D01*
X127300946Y-95080484D01*
X127292182Y-95084949D01*
X127120213Y-95209890D01*
X126969890Y-95360213D01*
X126844951Y-95532179D01*
X126748444Y-95721585D01*
X126682753Y-95923760D01*
X126649500Y-96133713D01*
X126649500Y-96346286D01*
X126677608Y-96523757D01*
X126682754Y-96556243D01*
X126713251Y-96650104D01*
X126748444Y-96758414D01*
X126844951Y-96947820D01*
X126969890Y-97119786D01*
X127120213Y-97270109D01*
X127292182Y-97395050D01*
X127300946Y-97399516D01*
X127351742Y-97447491D01*
X127368536Y-97515312D01*
X127345998Y-97581447D01*
X127300946Y-97620484D01*
X127292182Y-97624949D01*
X127120213Y-97749890D01*
X126969890Y-97900213D01*
X126844951Y-98072179D01*
X126748444Y-98261585D01*
X126682753Y-98463760D01*
X126649500Y-98673713D01*
X126649500Y-98886286D01*
X126679071Y-99072993D01*
X126682754Y-99096243D01*
X126713251Y-99190104D01*
X126748444Y-99298414D01*
X126844951Y-99487820D01*
X126969890Y-99659786D01*
X127120213Y-99810109D01*
X127292182Y-99935050D01*
X127300946Y-99939516D01*
X127351742Y-99987491D01*
X127368536Y-100055312D01*
X127345998Y-100121447D01*
X127300946Y-100160484D01*
X127292182Y-100164949D01*
X127120213Y-100289890D01*
X126969890Y-100440213D01*
X126844951Y-100612179D01*
X126748444Y-100801585D01*
X126682753Y-101003760D01*
X126649500Y-101213713D01*
X126649500Y-101426286D01*
X126679071Y-101612993D01*
X126682754Y-101636243D01*
X126746003Y-101830903D01*
X126748444Y-101838414D01*
X126844951Y-102027820D01*
X126969890Y-102199786D01*
X127120213Y-102350109D01*
X127292182Y-102475050D01*
X127300946Y-102479516D01*
X127351742Y-102527491D01*
X127368536Y-102595312D01*
X127345998Y-102661447D01*
X127300946Y-102700484D01*
X127292182Y-102704949D01*
X127120213Y-102829890D01*
X126969890Y-102980213D01*
X126844951Y-103152179D01*
X126748444Y-103341585D01*
X126682753Y-103543760D01*
X126649500Y-103753713D01*
X126649500Y-103966286D01*
X126682753Y-104176239D01*
X126748444Y-104378414D01*
X126844951Y-104567820D01*
X126969890Y-104739786D01*
X127120213Y-104890109D01*
X127292182Y-105015050D01*
X127300946Y-105019516D01*
X127351742Y-105067491D01*
X127368536Y-105135312D01*
X127345998Y-105201447D01*
X127300946Y-105240484D01*
X127292182Y-105244949D01*
X127120213Y-105369890D01*
X126969890Y-105520213D01*
X126844951Y-105692179D01*
X126748444Y-105881585D01*
X126682753Y-106083760D01*
X126649500Y-106293713D01*
X126649500Y-106506286D01*
X126677608Y-106683757D01*
X126682754Y-106716243D01*
X126685525Y-106724772D01*
X126748444Y-106918414D01*
X126844951Y-107107820D01*
X126969890Y-107279786D01*
X127120213Y-107430109D01*
X127292182Y-107555050D01*
X127300946Y-107559516D01*
X127351742Y-107607491D01*
X127368536Y-107675312D01*
X127345998Y-107741447D01*
X127300946Y-107780484D01*
X127292182Y-107784949D01*
X127120213Y-107909890D01*
X126969890Y-108060213D01*
X126844951Y-108232179D01*
X126748444Y-108421585D01*
X126682753Y-108623760D01*
X126649500Y-108833713D01*
X126649500Y-109046286D01*
X126682753Y-109256239D01*
X126748444Y-109458414D01*
X126844951Y-109647820D01*
X126969890Y-109819786D01*
X127120213Y-109970109D01*
X127292182Y-110095050D01*
X127300946Y-110099516D01*
X127351742Y-110147491D01*
X127368536Y-110215312D01*
X127345998Y-110281447D01*
X127300946Y-110320484D01*
X127292182Y-110324949D01*
X127120213Y-110449890D01*
X126969890Y-110600213D01*
X126844951Y-110772179D01*
X126748444Y-110961585D01*
X126682753Y-111163760D01*
X126649500Y-111373713D01*
X126649500Y-111586286D01*
X126682753Y-111796239D01*
X126748444Y-111998414D01*
X126844951Y-112187820D01*
X126969890Y-112359786D01*
X127120213Y-112510109D01*
X127292179Y-112635048D01*
X127292181Y-112635049D01*
X127292184Y-112635051D01*
X127481588Y-112731557D01*
X127683757Y-112797246D01*
X127893713Y-112830500D01*
X127893714Y-112830500D01*
X128106286Y-112830500D01*
X128106287Y-112830500D01*
X128316243Y-112797246D01*
X128518412Y-112731557D01*
X128707816Y-112635051D01*
X128729789Y-112619086D01*
X128879786Y-112510109D01*
X128879788Y-112510106D01*
X128879792Y-112510104D01*
X129030104Y-112359792D01*
X129030106Y-112359788D01*
X129030109Y-112359786D01*
X129155048Y-112187820D01*
X129155047Y-112187820D01*
X129155051Y-112187816D01*
X129159514Y-112179054D01*
X129207488Y-112128259D01*
X129275308Y-112111463D01*
X129341444Y-112133999D01*
X129380486Y-112179056D01*
X129384951Y-112187820D01*
X129509890Y-112359786D01*
X129660213Y-112510109D01*
X129832179Y-112635048D01*
X129832181Y-112635049D01*
X129832184Y-112635051D01*
X130021588Y-112731557D01*
X130223757Y-112797246D01*
X130433713Y-112830500D01*
X130433714Y-112830500D01*
X130646286Y-112830500D01*
X130646287Y-112830500D01*
X130856243Y-112797246D01*
X131058412Y-112731557D01*
X131247816Y-112635051D01*
X131269789Y-112619086D01*
X131419786Y-112510109D01*
X131419788Y-112510106D01*
X131419792Y-112510104D01*
X131570104Y-112359792D01*
X131570106Y-112359788D01*
X131570109Y-112359786D01*
X131695048Y-112187820D01*
X131695047Y-112187820D01*
X131695051Y-112187816D01*
X131791557Y-111998412D01*
X131857246Y-111796243D01*
X131890500Y-111586287D01*
X131890500Y-111373713D01*
X131857246Y-111163757D01*
X131791557Y-110961588D01*
X131695051Y-110772184D01*
X131695049Y-110772181D01*
X131695048Y-110772179D01*
X131570109Y-110600213D01*
X131419786Y-110449890D01*
X131247820Y-110324951D01*
X131247115Y-110324591D01*
X131239054Y-110320485D01*
X131188259Y-110272512D01*
X131171463Y-110204692D01*
X131193999Y-110138556D01*
X131239054Y-110099515D01*
X131247816Y-110095051D01*
X131269789Y-110079086D01*
X131419786Y-109970109D01*
X131419788Y-109970106D01*
X131419792Y-109970104D01*
X131570104Y-109819792D01*
X131570106Y-109819788D01*
X131570109Y-109819786D01*
X131695048Y-109647820D01*
X131695047Y-109647820D01*
X131695051Y-109647816D01*
X131791557Y-109458412D01*
X131857246Y-109256243D01*
X131890500Y-109046287D01*
X131890500Y-108833713D01*
X131857246Y-108623757D01*
X131791557Y-108421588D01*
X131695051Y-108232184D01*
X131695049Y-108232181D01*
X131695048Y-108232179D01*
X131570109Y-108060213D01*
X131419786Y-107909890D01*
X131247820Y-107784951D01*
X131247115Y-107784591D01*
X131239054Y-107780485D01*
X131188259Y-107732512D01*
X131171463Y-107664692D01*
X131193999Y-107598556D01*
X131239054Y-107559515D01*
X131247816Y-107555051D01*
X131298246Y-107518412D01*
X131419786Y-107430109D01*
X131419788Y-107430106D01*
X131419792Y-107430104D01*
X131570104Y-107279792D01*
X131570106Y-107279788D01*
X131570109Y-107279786D01*
X131695048Y-107107820D01*
X131695047Y-107107820D01*
X131695051Y-107107816D01*
X131791557Y-106918412D01*
X131857246Y-106716243D01*
X131890500Y-106506287D01*
X131890500Y-106293713D01*
X131857246Y-106083757D01*
X131791557Y-105881588D01*
X131695051Y-105692184D01*
X131695049Y-105692181D01*
X131695048Y-105692179D01*
X131570109Y-105520213D01*
X131419786Y-105369890D01*
X131247820Y-105244951D01*
X131247115Y-105244591D01*
X131239054Y-105240485D01*
X131188259Y-105192512D01*
X131171463Y-105124692D01*
X131193999Y-105058556D01*
X131239054Y-105019515D01*
X131247816Y-105015051D01*
X131298246Y-104978412D01*
X131419786Y-104890109D01*
X131419788Y-104890106D01*
X131419792Y-104890104D01*
X131570104Y-104739792D01*
X131570106Y-104739788D01*
X131570109Y-104739786D01*
X131695048Y-104567820D01*
X131695047Y-104567820D01*
X131695051Y-104567816D01*
X131791557Y-104378412D01*
X131857246Y-104176243D01*
X131890500Y-103966287D01*
X131890500Y-103753713D01*
X131857246Y-103543757D01*
X131791557Y-103341588D01*
X131695051Y-103152184D01*
X131695049Y-103152181D01*
X131695048Y-103152179D01*
X131570109Y-102980213D01*
X131419786Y-102829890D01*
X131247820Y-102704951D01*
X131247115Y-102704591D01*
X131239054Y-102700485D01*
X131188259Y-102652512D01*
X131171463Y-102584692D01*
X131193999Y-102518556D01*
X131239054Y-102479515D01*
X131247816Y-102475051D01*
X131323588Y-102420000D01*
X131419786Y-102350109D01*
X131419788Y-102350106D01*
X131419792Y-102350104D01*
X131570104Y-102199792D01*
X131570106Y-102199788D01*
X131570109Y-102199786D01*
X131695048Y-102027820D01*
X131695047Y-102027820D01*
X131695051Y-102027816D01*
X131791557Y-101838412D01*
X131857246Y-101636243D01*
X131890500Y-101426287D01*
X131890500Y-101213713D01*
X131857246Y-101003757D01*
X131791557Y-100801588D01*
X131695051Y-100612184D01*
X131695049Y-100612181D01*
X131695048Y-100612179D01*
X131570109Y-100440213D01*
X131419786Y-100289890D01*
X131247820Y-100164951D01*
X131247115Y-100164591D01*
X131239054Y-100160485D01*
X131188259Y-100112512D01*
X131171463Y-100044692D01*
X131193999Y-99978556D01*
X131239054Y-99939515D01*
X131247816Y-99935051D01*
X131323588Y-99880000D01*
X131419786Y-99810109D01*
X131419788Y-99810106D01*
X131419792Y-99810104D01*
X131570104Y-99659792D01*
X131570106Y-99659788D01*
X131570109Y-99659786D01*
X131695048Y-99487820D01*
X131695047Y-99487820D01*
X131695051Y-99487816D01*
X131791557Y-99298412D01*
X131857246Y-99096243D01*
X131890500Y-98886287D01*
X131890500Y-98673713D01*
X131857246Y-98463757D01*
X131791557Y-98261588D01*
X131695051Y-98072184D01*
X131695049Y-98072181D01*
X131695048Y-98072179D01*
X131570109Y-97900213D01*
X131419786Y-97749890D01*
X131247820Y-97624951D01*
X131247115Y-97624591D01*
X131239054Y-97620485D01*
X131188259Y-97572512D01*
X131171463Y-97504692D01*
X131193999Y-97438556D01*
X131239054Y-97399515D01*
X131247816Y-97395051D01*
X131298246Y-97358412D01*
X131419786Y-97270109D01*
X131419788Y-97270106D01*
X131419792Y-97270104D01*
X131570104Y-97119792D01*
X131570106Y-97119788D01*
X131570109Y-97119786D01*
X131695048Y-96947820D01*
X131695047Y-96947820D01*
X131695051Y-96947816D01*
X131791557Y-96758412D01*
X131857246Y-96556243D01*
X131890500Y-96346287D01*
X131890500Y-96133713D01*
X131857246Y-95923757D01*
X131791557Y-95721588D01*
X131695051Y-95532184D01*
X131695049Y-95532181D01*
X131695048Y-95532179D01*
X131570109Y-95360213D01*
X131419786Y-95209890D01*
X131247820Y-95084951D01*
X131247115Y-95084591D01*
X131239054Y-95080485D01*
X131188259Y-95032512D01*
X131171463Y-94964692D01*
X131193999Y-94898556D01*
X131239054Y-94859515D01*
X131247816Y-94855051D01*
X131292056Y-94822909D01*
X131419786Y-94730109D01*
X131419788Y-94730106D01*
X131419792Y-94730104D01*
X131570104Y-94579792D01*
X131570106Y-94579788D01*
X131570109Y-94579786D01*
X131695048Y-94407820D01*
X131695047Y-94407820D01*
X131695051Y-94407816D01*
X131791557Y-94218412D01*
X131857246Y-94016243D01*
X131890500Y-93806287D01*
X131890500Y-93593713D01*
X131857246Y-93383757D01*
X131791557Y-93181588D01*
X131695051Y-92992184D01*
X131695049Y-92992181D01*
X131695048Y-92992179D01*
X131570109Y-92820213D01*
X131419786Y-92669890D01*
X131247820Y-92544951D01*
X131247115Y-92544591D01*
X131239054Y-92540485D01*
X131188259Y-92492512D01*
X131171463Y-92424692D01*
X131193999Y-92358556D01*
X131239054Y-92319515D01*
X131247816Y-92315051D01*
X131283012Y-92289480D01*
X131419786Y-92190109D01*
X131419788Y-92190106D01*
X131419792Y-92190104D01*
X131570104Y-92039792D01*
X131570106Y-92039788D01*
X131570109Y-92039786D01*
X131695048Y-91867820D01*
X131695047Y-91867820D01*
X131695051Y-91867816D01*
X131791557Y-91678412D01*
X131857246Y-91476243D01*
X131890500Y-91266287D01*
X131890500Y-91053713D01*
X131857246Y-90843757D01*
X131791557Y-90641588D01*
X131695051Y-90452184D01*
X131695049Y-90452181D01*
X131695048Y-90452179D01*
X131570109Y-90280213D01*
X131419786Y-90129890D01*
X131247820Y-90004951D01*
X131247115Y-90004591D01*
X131239054Y-90000485D01*
X131188259Y-89952512D01*
X131171463Y-89884692D01*
X131193999Y-89818556D01*
X131239054Y-89779515D01*
X131247816Y-89775051D01*
X131282296Y-89750000D01*
X131419786Y-89650109D01*
X131419788Y-89650106D01*
X131419792Y-89650104D01*
X131570104Y-89499792D01*
X131570106Y-89499788D01*
X131570109Y-89499786D01*
X131695048Y-89327820D01*
X131695047Y-89327820D01*
X131695051Y-89327816D01*
X131791557Y-89138412D01*
X131857246Y-88936243D01*
X131890500Y-88726287D01*
X131890500Y-88513713D01*
X131857246Y-88303757D01*
X131791557Y-88101588D01*
X131695051Y-87912184D01*
X131695049Y-87912181D01*
X131695048Y-87912179D01*
X131570109Y-87740213D01*
X131419786Y-87589890D01*
X131247820Y-87464951D01*
X131058414Y-87368444D01*
X131058413Y-87368443D01*
X131058412Y-87368443D01*
X130856243Y-87302754D01*
X130856241Y-87302753D01*
X130856240Y-87302753D01*
X130694957Y-87277208D01*
X130646287Y-87269500D01*
X130433713Y-87269500D01*
X130385042Y-87277208D01*
X130223760Y-87302753D01*
X130223757Y-87302754D01*
X130063531Y-87354815D01*
X130021585Y-87368444D01*
X129832179Y-87464951D01*
X129660213Y-87589890D01*
X129509894Y-87740209D01*
X129509885Y-87740219D01*
X129506330Y-87745113D01*
X129450997Y-87787775D01*
X129381383Y-87793748D01*
X129319591Y-87761137D01*
X129288312Y-87711223D01*
X129284815Y-87700670D01*
X129284814Y-87700666D01*
X129192712Y-87551344D01*
X129068656Y-87427288D01*
X128972191Y-87367788D01*
X128919336Y-87335187D01*
X128919331Y-87335185D01*
X128907740Y-87331344D01*
X128752797Y-87280001D01*
X128752795Y-87280000D01*
X128650010Y-87269500D01*
X127349998Y-87269500D01*
X127349981Y-87269501D01*
X127247203Y-87280000D01*
X127247200Y-87280001D01*
X127080668Y-87335185D01*
X127080663Y-87335187D01*
X126931342Y-87427289D01*
X126807289Y-87551342D01*
X126715187Y-87700663D01*
X126715185Y-87700668D01*
X126710135Y-87715909D01*
X126660001Y-87867203D01*
X126660001Y-87867204D01*
X126660000Y-87867204D01*
X126649500Y-87969983D01*
X117604574Y-87969983D01*
X117386818Y-87752227D01*
X117353333Y-87690904D01*
X117350499Y-87664546D01*
X117350499Y-86999998D01*
X117350498Y-86999981D01*
X117339999Y-86897203D01*
X117339998Y-86897200D01*
X117322684Y-86844951D01*
X117284814Y-86730666D01*
X117192712Y-86581344D01*
X117068656Y-86457288D01*
X116934402Y-86374480D01*
X116887679Y-86322533D01*
X116875500Y-86268942D01*
X116875500Y-81060451D01*
X116895185Y-80993412D01*
X116911814Y-80972775D01*
X118536745Y-79347844D01*
X122800000Y-79347844D01*
X122806401Y-79407372D01*
X122806403Y-79407379D01*
X122856645Y-79542086D01*
X122856649Y-79542093D01*
X122942809Y-79657187D01*
X122942812Y-79657190D01*
X123057906Y-79743350D01*
X123057913Y-79743354D01*
X123192620Y-79793596D01*
X123192627Y-79793598D01*
X123252155Y-79799999D01*
X123252172Y-79800000D01*
X123750000Y-79800000D01*
X124250000Y-79800000D01*
X124747828Y-79800000D01*
X124747844Y-79799999D01*
X124807372Y-79793598D01*
X124807379Y-79793596D01*
X124942086Y-79743354D01*
X124942093Y-79743350D01*
X125057187Y-79657190D01*
X125057190Y-79657187D01*
X125143350Y-79542093D01*
X125143354Y-79542086D01*
X125193596Y-79407379D01*
X125193598Y-79407372D01*
X125199999Y-79347844D01*
X125200000Y-79347827D01*
X125200000Y-78594986D01*
X127275001Y-78594986D01*
X127285494Y-78697697D01*
X127340641Y-78864119D01*
X127340643Y-78864124D01*
X127432684Y-79013345D01*
X127556654Y-79137315D01*
X127705875Y-79229356D01*
X127705880Y-79229358D01*
X127872302Y-79284505D01*
X127872309Y-79284506D01*
X127975019Y-79294999D01*
X128312499Y-79294999D01*
X128312500Y-79294998D01*
X128312500Y-78370000D01*
X127275001Y-78370000D01*
X127275001Y-78594986D01*
X125200000Y-78594986D01*
X125200000Y-78050000D01*
X124250000Y-78050000D01*
X124250000Y-79800000D01*
X123750000Y-79800000D01*
X123750000Y-78050000D01*
X122800000Y-78050000D01*
X122800000Y-79347844D01*
X118536745Y-79347844D01*
X120239575Y-77645013D01*
X127275000Y-77645013D01*
X127275000Y-77870000D01*
X128312500Y-77870000D01*
X128312500Y-76945000D01*
X127975028Y-76945000D01*
X127975012Y-76945001D01*
X127872302Y-76955494D01*
X127705880Y-77010641D01*
X127705875Y-77010643D01*
X127556654Y-77102684D01*
X127432684Y-77226654D01*
X127340643Y-77375875D01*
X127340641Y-77375880D01*
X127285494Y-77542302D01*
X127285493Y-77542309D01*
X127275000Y-77645013D01*
X120239575Y-77645013D01*
X121632433Y-76252155D01*
X122800000Y-76252155D01*
X122800000Y-77550000D01*
X123750000Y-77550000D01*
X124250000Y-77550000D01*
X125200000Y-77550000D01*
X125200000Y-76252172D01*
X125199999Y-76252155D01*
X125193598Y-76192627D01*
X125193596Y-76192620D01*
X125143354Y-76057913D01*
X125143350Y-76057906D01*
X125057190Y-75942812D01*
X125057187Y-75942809D01*
X124942093Y-75856649D01*
X124942086Y-75856645D01*
X124807379Y-75806403D01*
X124807372Y-75806401D01*
X124747844Y-75800000D01*
X124250000Y-75800000D01*
X124250000Y-77550000D01*
X123750000Y-77550000D01*
X123750000Y-75800000D01*
X123252155Y-75800000D01*
X123192627Y-75806401D01*
X123192620Y-75806403D01*
X123057913Y-75856645D01*
X123057906Y-75856649D01*
X122942812Y-75942809D01*
X122942809Y-75942812D01*
X122856649Y-76057906D01*
X122856645Y-76057913D01*
X122806403Y-76192620D01*
X122806401Y-76192627D01*
X122800000Y-76252155D01*
X121632433Y-76252155D01*
X122916436Y-74968152D01*
X122977757Y-74934669D01*
X123047449Y-74939653D01*
X123051403Y-74941459D01*
X123192517Y-74994091D01*
X123192516Y-74994091D01*
X123199444Y-74994835D01*
X123252127Y-75000500D01*
X124747872Y-75000499D01*
X124807483Y-74994091D01*
X124942331Y-74943796D01*
X125057546Y-74857546D01*
X125143796Y-74742331D01*
X125194091Y-74607483D01*
X125200500Y-74547873D01*
X125200500Y-74324424D01*
X125220185Y-74257385D01*
X125272989Y-74211630D01*
X125342147Y-74201686D01*
X125371952Y-74209863D01*
X125478138Y-74253846D01*
X125516503Y-74269737D01*
X125668644Y-74300000D01*
X125671153Y-74300499D01*
X125671156Y-74300500D01*
X125671158Y-74300500D01*
X125828844Y-74300500D01*
X125828845Y-74300499D01*
X125983497Y-74269737D01*
X126129179Y-74209394D01*
X126260289Y-74121789D01*
X126371789Y-74010289D01*
X126459394Y-73879179D01*
X126466212Y-73862720D01*
X126493922Y-73795821D01*
X126519737Y-73733497D01*
X126550500Y-73578842D01*
X126550500Y-73421158D01*
X126550500Y-73421155D01*
X126550499Y-73421153D01*
X126541219Y-73374500D01*
X126519737Y-73266503D01*
X126496080Y-73209390D01*
X126459397Y-73120827D01*
X126459390Y-73120814D01*
X126371789Y-72989711D01*
X126371786Y-72989707D01*
X126260292Y-72878213D01*
X126260288Y-72878210D01*
X126129185Y-72790609D01*
X126129172Y-72790602D01*
X125983501Y-72730264D01*
X125983489Y-72730261D01*
X125828845Y-72699500D01*
X125828842Y-72699500D01*
X125671158Y-72699500D01*
X125671155Y-72699500D01*
X125516510Y-72730261D01*
X125516498Y-72730264D01*
X125371951Y-72790137D01*
X125302482Y-72797606D01*
X125240003Y-72766330D01*
X125204351Y-72706241D01*
X125200499Y-72675576D01*
X125200499Y-71452129D01*
X125200498Y-71452123D01*
X125199598Y-71443753D01*
X125194091Y-71392517D01*
X125143796Y-71257669D01*
X125143795Y-71257668D01*
X125143793Y-71257664D01*
X125057547Y-71142455D01*
X125057544Y-71142452D01*
X124942335Y-71056206D01*
X124942328Y-71056202D01*
X124807482Y-71005908D01*
X124807483Y-71005908D01*
X124747883Y-70999501D01*
X124747881Y-70999500D01*
X124747873Y-70999500D01*
X124747865Y-70999500D01*
X124332451Y-70999500D01*
X124265412Y-70979815D01*
X124219657Y-70927011D01*
X124209713Y-70857853D01*
X124238738Y-70794297D01*
X124244770Y-70787819D01*
X124557320Y-70475270D01*
X125040003Y-69992587D01*
X125101326Y-69959102D01*
X125127684Y-69956268D01*
X129858780Y-69956268D01*
X129888220Y-69964912D01*
X129918207Y-69971436D01*
X129923222Y-69975190D01*
X129925819Y-69975953D01*
X129946461Y-69992587D01*
X130045933Y-70092059D01*
X130079418Y-70153382D01*
X130074434Y-70223074D01*
X130032562Y-70279007D01*
X130005705Y-70294301D01*
X129944419Y-70319686D01*
X129944407Y-70319692D01*
X129841974Y-70388138D01*
X129841966Y-70388144D01*
X129247144Y-70982966D01*
X129247138Y-70982974D01*
X129178690Y-71085410D01*
X129178689Y-71085412D01*
X129159355Y-71132087D01*
X129159356Y-71132088D01*
X129131537Y-71199251D01*
X129131536Y-71199255D01*
X129127144Y-71221330D01*
X129127145Y-71221331D01*
X129108011Y-71317531D01*
X129108007Y-71317547D01*
X129107500Y-71320091D01*
X129107500Y-76821000D01*
X129087815Y-76888039D01*
X129035011Y-76933794D01*
X128983500Y-76945000D01*
X128812500Y-76945000D01*
X128812500Y-79294999D01*
X129149972Y-79294999D01*
X129149986Y-79294998D01*
X129252697Y-79284505D01*
X129329158Y-79259169D01*
X129398986Y-79256767D01*
X129455842Y-79289193D01*
X139185380Y-89018732D01*
X139185381Y-89018733D01*
X139235304Y-89068656D01*
X139272507Y-89105859D01*
X139374946Y-89174307D01*
X139374959Y-89174314D01*
X139431870Y-89197887D01*
X139488787Y-89221463D01*
X139495278Y-89222754D01*
X139609630Y-89245499D01*
X139609631Y-89245500D01*
X139609632Y-89245500D01*
X139609633Y-89245500D01*
X140495019Y-89245500D01*
X140562058Y-89265185D01*
X140607813Y-89317989D01*
X140618377Y-89356899D01*
X140620000Y-89372796D01*
X140620001Y-89372799D01*
X140675185Y-89539331D01*
X140675187Y-89539336D01*
X140684422Y-89554308D01*
X140767288Y-89688656D01*
X140891344Y-89812712D01*
X141040666Y-89904814D01*
X141051223Y-89908312D01*
X141108668Y-89948084D01*
X141135492Y-90012600D01*
X141123177Y-90081376D01*
X141085113Y-90126330D01*
X141080219Y-90129885D01*
X141080209Y-90129894D01*
X140929890Y-90280213D01*
X140804951Y-90452179D01*
X140708444Y-90641585D01*
X140642753Y-90843760D01*
X140630532Y-90920920D01*
X140609500Y-91053713D01*
X140609500Y-91266287D01*
X140615112Y-91301717D01*
X140638599Y-91450013D01*
X140642754Y-91476243D01*
X140690627Y-91623581D01*
X140708444Y-91678414D01*
X140804951Y-91867820D01*
X140929890Y-92039786D01*
X141080213Y-92190109D01*
X141252182Y-92315050D01*
X141260946Y-92319516D01*
X141311742Y-92367491D01*
X141328536Y-92435312D01*
X141305998Y-92501447D01*
X141260946Y-92540484D01*
X141252182Y-92544949D01*
X141080213Y-92669890D01*
X140929890Y-92820213D01*
X140804951Y-92992179D01*
X140708444Y-93181585D01*
X140642753Y-93383760D01*
X140627495Y-93480099D01*
X140609500Y-93593713D01*
X140609500Y-93806287D01*
X140642754Y-94016243D01*
X140700923Y-94195269D01*
X140708444Y-94218414D01*
X140804951Y-94407820D01*
X140929890Y-94579786D01*
X141080213Y-94730109D01*
X141252182Y-94855050D01*
X141260946Y-94859516D01*
X141311742Y-94907491D01*
X141328536Y-94975312D01*
X141305998Y-95041447D01*
X141260946Y-95080484D01*
X141252182Y-95084949D01*
X141080213Y-95209890D01*
X140929890Y-95360213D01*
X140804951Y-95532179D01*
X140708444Y-95721585D01*
X140642753Y-95923760D01*
X140609500Y-96133713D01*
X140609500Y-96346286D01*
X140637608Y-96523757D01*
X140642754Y-96556243D01*
X140673251Y-96650104D01*
X140708444Y-96758414D01*
X140804951Y-96947820D01*
X140929890Y-97119786D01*
X141080213Y-97270109D01*
X141252182Y-97395050D01*
X141260946Y-97399516D01*
X141311742Y-97447491D01*
X141328536Y-97515312D01*
X141305998Y-97581447D01*
X141260946Y-97620484D01*
X141252182Y-97624949D01*
X141080213Y-97749890D01*
X140929890Y-97900213D01*
X140804951Y-98072179D01*
X140708444Y-98261585D01*
X140642753Y-98463760D01*
X140609500Y-98673713D01*
X140609500Y-98886286D01*
X140639071Y-99072993D01*
X140642754Y-99096243D01*
X140673251Y-99190104D01*
X140708444Y-99298414D01*
X140804951Y-99487820D01*
X140929890Y-99659786D01*
X141080213Y-99810109D01*
X141252182Y-99935050D01*
X141260946Y-99939516D01*
X141311742Y-99987491D01*
X141328536Y-100055312D01*
X141305998Y-100121447D01*
X141260946Y-100160484D01*
X141252182Y-100164949D01*
X141080213Y-100289890D01*
X140929890Y-100440213D01*
X140804951Y-100612179D01*
X140708444Y-100801585D01*
X140642753Y-101003760D01*
X140609500Y-101213713D01*
X140609500Y-101426286D01*
X140639071Y-101612993D01*
X140642754Y-101636243D01*
X140706003Y-101830903D01*
X140708444Y-101838414D01*
X140804951Y-102027820D01*
X140929890Y-102199786D01*
X141080213Y-102350109D01*
X141252182Y-102475050D01*
X141260946Y-102479516D01*
X141311742Y-102527491D01*
X141328536Y-102595312D01*
X141305998Y-102661447D01*
X141260946Y-102700484D01*
X141252182Y-102704949D01*
X141080213Y-102829890D01*
X140929890Y-102980213D01*
X140804951Y-103152179D01*
X140708444Y-103341585D01*
X140642753Y-103543760D01*
X140609500Y-103753713D01*
X140609500Y-103966286D01*
X140642753Y-104176239D01*
X140708444Y-104378414D01*
X140804951Y-104567820D01*
X140929890Y-104739786D01*
X141080213Y-104890109D01*
X141252182Y-105015050D01*
X141260946Y-105019516D01*
X141311742Y-105067491D01*
X141328536Y-105135312D01*
X141305998Y-105201447D01*
X141260946Y-105240484D01*
X141252182Y-105244949D01*
X141080213Y-105369890D01*
X140929890Y-105520213D01*
X140804951Y-105692179D01*
X140708444Y-105881585D01*
X140642753Y-106083760D01*
X140609500Y-106293713D01*
X140609500Y-106506286D01*
X140637608Y-106683757D01*
X140642754Y-106716243D01*
X140645525Y-106724772D01*
X140708444Y-106918414D01*
X140804951Y-107107820D01*
X140929890Y-107279786D01*
X141080213Y-107430109D01*
X141252182Y-107555050D01*
X141260946Y-107559516D01*
X141311742Y-107607491D01*
X141328536Y-107675312D01*
X141305998Y-107741447D01*
X141260946Y-107780484D01*
X141252182Y-107784949D01*
X141080213Y-107909890D01*
X140929890Y-108060213D01*
X140804951Y-108232179D01*
X140708444Y-108421585D01*
X140642753Y-108623760D01*
X140609500Y-108833713D01*
X140609500Y-109046286D01*
X140642753Y-109256239D01*
X140708444Y-109458414D01*
X140804951Y-109647820D01*
X140929890Y-109819786D01*
X141080213Y-109970109D01*
X141252182Y-110095050D01*
X141260946Y-110099516D01*
X141311742Y-110147491D01*
X141328536Y-110215312D01*
X141305998Y-110281447D01*
X141260946Y-110320484D01*
X141252182Y-110324949D01*
X141080213Y-110449890D01*
X140929890Y-110600213D01*
X140804951Y-110772179D01*
X140708444Y-110961585D01*
X140642753Y-111163760D01*
X140609500Y-111373713D01*
X140609500Y-111586286D01*
X140642753Y-111796239D01*
X140708444Y-111998414D01*
X140804951Y-112187820D01*
X140929890Y-112359786D01*
X141080213Y-112510109D01*
X141252179Y-112635048D01*
X141252181Y-112635049D01*
X141252184Y-112635051D01*
X141441588Y-112731557D01*
X141643757Y-112797246D01*
X141853713Y-112830500D01*
X141853714Y-112830500D01*
X142066286Y-112830500D01*
X142066287Y-112830500D01*
X142276243Y-112797246D01*
X142478412Y-112731557D01*
X142667816Y-112635051D01*
X142689789Y-112619086D01*
X142839786Y-112510109D01*
X142839788Y-112510106D01*
X142839792Y-112510104D01*
X142990104Y-112359792D01*
X142990106Y-112359788D01*
X142990109Y-112359786D01*
X143115048Y-112187820D01*
X143115047Y-112187820D01*
X143115051Y-112187816D01*
X143119514Y-112179054D01*
X143167488Y-112128259D01*
X143235308Y-112111463D01*
X143301444Y-112133999D01*
X143340486Y-112179056D01*
X143344951Y-112187820D01*
X143469890Y-112359786D01*
X143620213Y-112510109D01*
X143792179Y-112635048D01*
X143792181Y-112635049D01*
X143792184Y-112635051D01*
X143981588Y-112731557D01*
X144183757Y-112797246D01*
X144393713Y-112830500D01*
X144393714Y-112830500D01*
X144606286Y-112830500D01*
X144606287Y-112830500D01*
X144816243Y-112797246D01*
X145018412Y-112731557D01*
X145207816Y-112635051D01*
X145229789Y-112619086D01*
X145379786Y-112510109D01*
X145379788Y-112510106D01*
X145379792Y-112510104D01*
X145530104Y-112359792D01*
X145530106Y-112359788D01*
X145530109Y-112359786D01*
X145655048Y-112187820D01*
X145655047Y-112187820D01*
X145655051Y-112187816D01*
X145751557Y-111998412D01*
X145817246Y-111796243D01*
X145850500Y-111586287D01*
X145850500Y-111373713D01*
X145817246Y-111163757D01*
X145751557Y-110961588D01*
X145655051Y-110772184D01*
X145655049Y-110772181D01*
X145655048Y-110772179D01*
X145530109Y-110600213D01*
X145379786Y-110449890D01*
X145207820Y-110324951D01*
X145207115Y-110324591D01*
X145199054Y-110320485D01*
X145148259Y-110272512D01*
X145131463Y-110204692D01*
X145153999Y-110138556D01*
X145199054Y-110099515D01*
X145207816Y-110095051D01*
X145229789Y-110079086D01*
X145379786Y-109970109D01*
X145379788Y-109970106D01*
X145379792Y-109970104D01*
X145530104Y-109819792D01*
X145530106Y-109819788D01*
X145530109Y-109819786D01*
X145655048Y-109647820D01*
X145655047Y-109647820D01*
X145655051Y-109647816D01*
X145751557Y-109458412D01*
X145817246Y-109256243D01*
X145850500Y-109046287D01*
X145850500Y-108833713D01*
X145817246Y-108623757D01*
X145751557Y-108421588D01*
X145655051Y-108232184D01*
X145655049Y-108232181D01*
X145655048Y-108232179D01*
X145530109Y-108060213D01*
X145379786Y-107909890D01*
X145207820Y-107784951D01*
X145207115Y-107784591D01*
X145199054Y-107780485D01*
X145148259Y-107732512D01*
X145131463Y-107664692D01*
X145153999Y-107598556D01*
X145199054Y-107559515D01*
X145207816Y-107555051D01*
X145258246Y-107518412D01*
X145379786Y-107430109D01*
X145379788Y-107430106D01*
X145379792Y-107430104D01*
X145530104Y-107279792D01*
X145530106Y-107279788D01*
X145530109Y-107279786D01*
X145655048Y-107107820D01*
X145655047Y-107107820D01*
X145655051Y-107107816D01*
X145751557Y-106918412D01*
X145817246Y-106716243D01*
X145850500Y-106506287D01*
X145850500Y-106293713D01*
X145817246Y-106083757D01*
X145751557Y-105881588D01*
X145655051Y-105692184D01*
X145655049Y-105692181D01*
X145655048Y-105692179D01*
X145530109Y-105520213D01*
X145379786Y-105369890D01*
X145207820Y-105244951D01*
X145207115Y-105244591D01*
X145199054Y-105240485D01*
X145148259Y-105192512D01*
X145131463Y-105124692D01*
X145153999Y-105058556D01*
X145199054Y-105019515D01*
X145207816Y-105015051D01*
X145258246Y-104978412D01*
X145379786Y-104890109D01*
X145379788Y-104890106D01*
X145379792Y-104890104D01*
X145530104Y-104739792D01*
X145530106Y-104739788D01*
X145530109Y-104739786D01*
X145655048Y-104567820D01*
X145655047Y-104567820D01*
X145655051Y-104567816D01*
X145751557Y-104378412D01*
X145817246Y-104176243D01*
X145850500Y-103966287D01*
X145850500Y-103753713D01*
X145817246Y-103543757D01*
X145751557Y-103341588D01*
X145655051Y-103152184D01*
X145655049Y-103152181D01*
X145655048Y-103152179D01*
X145530109Y-102980213D01*
X145379786Y-102829890D01*
X145207820Y-102704951D01*
X145207115Y-102704591D01*
X145199054Y-102700485D01*
X145148259Y-102652512D01*
X145131463Y-102584692D01*
X145153999Y-102518556D01*
X145199054Y-102479515D01*
X145207816Y-102475051D01*
X145283588Y-102420000D01*
X145379786Y-102350109D01*
X145379788Y-102350106D01*
X145379792Y-102350104D01*
X145530104Y-102199792D01*
X145530106Y-102199788D01*
X145530109Y-102199786D01*
X145655048Y-102027820D01*
X145655047Y-102027820D01*
X145655051Y-102027816D01*
X145751557Y-101838412D01*
X145817246Y-101636243D01*
X145850500Y-101426287D01*
X145850500Y-101213713D01*
X145817246Y-101003757D01*
X145751557Y-100801588D01*
X145655051Y-100612184D01*
X145655049Y-100612181D01*
X145655048Y-100612179D01*
X145530109Y-100440213D01*
X145379786Y-100289890D01*
X145207820Y-100164951D01*
X145207115Y-100164591D01*
X145199054Y-100160485D01*
X145148259Y-100112512D01*
X145131463Y-100044692D01*
X145153999Y-99978556D01*
X145199054Y-99939515D01*
X145207816Y-99935051D01*
X145283588Y-99880000D01*
X145379786Y-99810109D01*
X145379788Y-99810106D01*
X145379792Y-99810104D01*
X145530104Y-99659792D01*
X145530106Y-99659788D01*
X145530109Y-99659786D01*
X145655048Y-99487820D01*
X145655047Y-99487820D01*
X145655051Y-99487816D01*
X145751557Y-99298412D01*
X145817246Y-99096243D01*
X145850500Y-98886287D01*
X145850500Y-98673713D01*
X145817246Y-98463757D01*
X145751557Y-98261588D01*
X145655051Y-98072184D01*
X145655049Y-98072181D01*
X145655048Y-98072179D01*
X145530109Y-97900213D01*
X145379786Y-97749890D01*
X145207820Y-97624951D01*
X145207115Y-97624591D01*
X145199054Y-97620485D01*
X145148259Y-97572512D01*
X145131463Y-97504692D01*
X145153999Y-97438556D01*
X145199054Y-97399515D01*
X145207816Y-97395051D01*
X145258246Y-97358412D01*
X145379786Y-97270109D01*
X145379788Y-97270106D01*
X145379792Y-97270104D01*
X145530104Y-97119792D01*
X145530106Y-97119788D01*
X145530109Y-97119786D01*
X145655048Y-96947820D01*
X145655047Y-96947820D01*
X145655051Y-96947816D01*
X145751557Y-96758412D01*
X145817246Y-96556243D01*
X145850500Y-96346287D01*
X145850500Y-96133713D01*
X145817246Y-95923757D01*
X145751557Y-95721588D01*
X145655051Y-95532184D01*
X145655049Y-95532181D01*
X145655048Y-95532179D01*
X145530109Y-95360213D01*
X145379786Y-95209890D01*
X145207820Y-95084951D01*
X145207115Y-95084591D01*
X145199054Y-95080485D01*
X145148259Y-95032512D01*
X145131463Y-94964692D01*
X145153999Y-94898556D01*
X145199054Y-94859515D01*
X145207816Y-94855051D01*
X145252056Y-94822909D01*
X145379786Y-94730109D01*
X145379788Y-94730106D01*
X145379792Y-94730104D01*
X145530104Y-94579792D01*
X145530106Y-94579788D01*
X145530109Y-94579786D01*
X145655048Y-94407820D01*
X145655047Y-94407820D01*
X145655051Y-94407816D01*
X145751557Y-94218412D01*
X145817246Y-94016243D01*
X145850500Y-93806287D01*
X145850500Y-93593713D01*
X145817246Y-93383757D01*
X145751557Y-93181588D01*
X145751554Y-93181582D01*
X145731282Y-93141794D01*
X145718386Y-93073125D01*
X145744663Y-93008385D01*
X145801770Y-92968128D01*
X145841767Y-92961500D01*
X148224607Y-92961500D01*
X148285029Y-92949481D01*
X148345452Y-92937463D01*
X148380704Y-92922861D01*
X148459286Y-92890312D01*
X148490608Y-92869381D01*
X148557282Y-92848503D01*
X148624663Y-92866985D01*
X148671355Y-92918962D01*
X148683500Y-92972483D01*
X148683500Y-106447170D01*
X148722719Y-106593541D01*
X148760602Y-106659155D01*
X148798485Y-106724770D01*
X155033080Y-112959365D01*
X155140230Y-113066515D01*
X155271460Y-113142281D01*
X155417829Y-113181500D01*
X155417831Y-113181500D01*
X157449764Y-113181500D01*
X157449766Y-113181500D01*
X157596135Y-113142281D01*
X157727365Y-113066515D01*
X157988794Y-112805084D01*
X158050113Y-112771602D01*
X158114789Y-112774836D01*
X158183757Y-112797246D01*
X158393713Y-112830500D01*
X158393714Y-112830500D01*
X158606286Y-112830500D01*
X158606287Y-112830500D01*
X158816243Y-112797246D01*
X159018412Y-112731557D01*
X159207816Y-112635051D01*
X159229789Y-112619086D01*
X159379786Y-112510109D01*
X159379788Y-112510106D01*
X159379792Y-112510104D01*
X159530104Y-112359792D01*
X159530106Y-112359788D01*
X159530109Y-112359786D01*
X159655048Y-112187820D01*
X159655047Y-112187820D01*
X159655051Y-112187816D01*
X159751557Y-111998412D01*
X159817246Y-111796243D01*
X159850500Y-111586287D01*
X159850500Y-111373713D01*
X159817246Y-111163757D01*
X159751557Y-110961588D01*
X159655051Y-110772184D01*
X159655049Y-110772181D01*
X159655048Y-110772179D01*
X159530109Y-110600213D01*
X159379786Y-110449890D01*
X159207820Y-110324951D01*
X159207115Y-110324591D01*
X159199054Y-110320485D01*
X159148259Y-110272512D01*
X159131463Y-110204692D01*
X159153999Y-110138556D01*
X159199054Y-110099515D01*
X159207816Y-110095051D01*
X159229789Y-110079086D01*
X159379786Y-109970109D01*
X159379788Y-109970106D01*
X159379792Y-109970104D01*
X159530104Y-109819792D01*
X159530106Y-109819788D01*
X159530109Y-109819786D01*
X159655048Y-109647820D01*
X159655047Y-109647820D01*
X159655051Y-109647816D01*
X159751557Y-109458412D01*
X159817246Y-109256243D01*
X159850500Y-109046287D01*
X159850500Y-108833713D01*
X159817246Y-108623757D01*
X159751557Y-108421588D01*
X159655051Y-108232184D01*
X159655049Y-108232181D01*
X159655048Y-108232179D01*
X159530109Y-108060213D01*
X159379786Y-107909890D01*
X159207820Y-107784951D01*
X159207115Y-107784591D01*
X159199054Y-107780485D01*
X159148259Y-107732512D01*
X159131463Y-107664692D01*
X159153999Y-107598556D01*
X159199054Y-107559515D01*
X159207816Y-107555051D01*
X159258246Y-107518412D01*
X159379786Y-107430109D01*
X159379788Y-107430106D01*
X159379792Y-107430104D01*
X159530104Y-107279792D01*
X159530106Y-107279788D01*
X159530109Y-107279786D01*
X159655048Y-107107820D01*
X159655047Y-107107820D01*
X159655051Y-107107816D01*
X159751557Y-106918412D01*
X159817246Y-106716243D01*
X159850500Y-106506287D01*
X159850500Y-106293713D01*
X159817246Y-106083757D01*
X159751557Y-105881588D01*
X159655051Y-105692184D01*
X159655049Y-105692181D01*
X159655048Y-105692179D01*
X159530109Y-105520213D01*
X159379786Y-105369890D01*
X159207820Y-105244951D01*
X159207115Y-105244591D01*
X159199054Y-105240485D01*
X159148259Y-105192512D01*
X159131463Y-105124692D01*
X159153999Y-105058556D01*
X159199054Y-105019515D01*
X159207816Y-105015051D01*
X159258246Y-104978412D01*
X159379786Y-104890109D01*
X159379788Y-104890106D01*
X159379792Y-104890104D01*
X159530104Y-104739792D01*
X159530106Y-104739788D01*
X159530109Y-104739786D01*
X159655048Y-104567820D01*
X159655047Y-104567820D01*
X159655051Y-104567816D01*
X159751557Y-104378412D01*
X159817246Y-104176243D01*
X159850500Y-103966287D01*
X159850500Y-103753713D01*
X159817246Y-103543757D01*
X159751557Y-103341588D01*
X159655051Y-103152184D01*
X159655049Y-103152181D01*
X159655048Y-103152179D01*
X159530109Y-102980213D01*
X159379786Y-102829890D01*
X159207820Y-102704951D01*
X159207115Y-102704591D01*
X159199054Y-102700485D01*
X159148259Y-102652512D01*
X159131463Y-102584692D01*
X159153999Y-102518556D01*
X159199054Y-102479515D01*
X159207816Y-102475051D01*
X159283588Y-102420000D01*
X159379786Y-102350109D01*
X159379788Y-102350106D01*
X159379792Y-102350104D01*
X159530104Y-102199792D01*
X159530106Y-102199788D01*
X159530109Y-102199786D01*
X159655048Y-102027820D01*
X159655047Y-102027820D01*
X159655051Y-102027816D01*
X159751557Y-101838412D01*
X159817246Y-101636243D01*
X159850500Y-101426287D01*
X159850500Y-101213713D01*
X159817246Y-101003757D01*
X159751557Y-100801588D01*
X159655051Y-100612184D01*
X159655049Y-100612181D01*
X159655048Y-100612179D01*
X159530109Y-100440213D01*
X159379786Y-100289890D01*
X159207820Y-100164951D01*
X159207115Y-100164591D01*
X159199054Y-100160485D01*
X159148259Y-100112512D01*
X159131463Y-100044692D01*
X159153999Y-99978556D01*
X159199054Y-99939515D01*
X159207816Y-99935051D01*
X159283588Y-99880000D01*
X159379786Y-99810109D01*
X159379788Y-99810106D01*
X159379792Y-99810104D01*
X159530104Y-99659792D01*
X159530106Y-99659788D01*
X159530109Y-99659786D01*
X159655048Y-99487820D01*
X159655047Y-99487820D01*
X159655051Y-99487816D01*
X159751557Y-99298412D01*
X159817246Y-99096243D01*
X159850500Y-98886287D01*
X159850500Y-98673713D01*
X159817246Y-98463757D01*
X159751557Y-98261588D01*
X159655051Y-98072184D01*
X159655049Y-98072181D01*
X159655048Y-98072179D01*
X159530109Y-97900213D01*
X159379786Y-97749890D01*
X159207820Y-97624951D01*
X159207115Y-97624591D01*
X159199054Y-97620485D01*
X159148259Y-97572512D01*
X159131463Y-97504692D01*
X159153999Y-97438556D01*
X159199054Y-97399515D01*
X159207816Y-97395051D01*
X159258246Y-97358412D01*
X159379786Y-97270109D01*
X159379788Y-97270106D01*
X159379792Y-97270104D01*
X159530104Y-97119792D01*
X159530106Y-97119788D01*
X159530109Y-97119786D01*
X159655048Y-96947820D01*
X159655047Y-96947820D01*
X159655051Y-96947816D01*
X159751557Y-96758412D01*
X159817246Y-96556243D01*
X159850500Y-96346287D01*
X159850500Y-96133713D01*
X159817246Y-95923757D01*
X159751557Y-95721588D01*
X159655051Y-95532184D01*
X159655049Y-95532181D01*
X159655048Y-95532179D01*
X159530109Y-95360213D01*
X159379786Y-95209890D01*
X159207820Y-95084951D01*
X159207115Y-95084591D01*
X159199054Y-95080485D01*
X159148259Y-95032512D01*
X159131463Y-94964692D01*
X159153999Y-94898556D01*
X159199054Y-94859515D01*
X159207816Y-94855051D01*
X159252056Y-94822909D01*
X159379786Y-94730109D01*
X159379788Y-94730106D01*
X159379792Y-94730104D01*
X159530104Y-94579792D01*
X159530106Y-94579788D01*
X159530109Y-94579786D01*
X159655048Y-94407820D01*
X159655047Y-94407820D01*
X159655051Y-94407816D01*
X159751557Y-94218412D01*
X159817246Y-94016243D01*
X159850500Y-93806287D01*
X159850500Y-93593713D01*
X159817246Y-93383757D01*
X159751557Y-93181588D01*
X159655051Y-92992184D01*
X159655049Y-92992181D01*
X159655048Y-92992179D01*
X159530109Y-92820213D01*
X159379786Y-92669890D01*
X159207820Y-92544951D01*
X159207115Y-92544591D01*
X159199054Y-92540485D01*
X159148259Y-92492512D01*
X159131463Y-92424692D01*
X159153999Y-92358556D01*
X159199054Y-92319515D01*
X159207816Y-92315051D01*
X159243012Y-92289480D01*
X159379786Y-92190109D01*
X159379788Y-92190106D01*
X159379792Y-92190104D01*
X159530104Y-92039792D01*
X159530106Y-92039788D01*
X159530109Y-92039786D01*
X159655048Y-91867820D01*
X159655047Y-91867820D01*
X159655051Y-91867816D01*
X159751557Y-91678412D01*
X159817246Y-91476243D01*
X159850500Y-91266287D01*
X159850500Y-91053713D01*
X159817246Y-90843757D01*
X159751557Y-90641588D01*
X159655051Y-90452184D01*
X159655049Y-90452181D01*
X159655048Y-90452179D01*
X159530109Y-90280213D01*
X159379786Y-90129890D01*
X159207820Y-90004951D01*
X159207115Y-90004591D01*
X159199054Y-90000485D01*
X159148259Y-89952512D01*
X159131463Y-89884692D01*
X159153999Y-89818556D01*
X159199054Y-89779515D01*
X159207816Y-89775051D01*
X159242296Y-89750000D01*
X159379786Y-89650109D01*
X159379788Y-89650106D01*
X159379792Y-89650104D01*
X159530104Y-89499792D01*
X159530106Y-89499788D01*
X159530109Y-89499786D01*
X159655048Y-89327820D01*
X159655047Y-89327820D01*
X159655051Y-89327816D01*
X159751557Y-89138412D01*
X159817246Y-88936243D01*
X159850500Y-88726287D01*
X159850500Y-88513713D01*
X159817246Y-88303757D01*
X159751557Y-88101588D01*
X159655051Y-87912184D01*
X159655049Y-87912181D01*
X159655048Y-87912179D01*
X159530109Y-87740213D01*
X159379786Y-87589890D01*
X159207820Y-87464951D01*
X159018414Y-87368444D01*
X159018413Y-87368443D01*
X159018412Y-87368443D01*
X158816243Y-87302754D01*
X158816241Y-87302753D01*
X158816240Y-87302753D01*
X158654957Y-87277208D01*
X158606287Y-87269500D01*
X158393713Y-87269500D01*
X158345042Y-87277208D01*
X158183760Y-87302753D01*
X158183757Y-87302754D01*
X158023531Y-87354815D01*
X157981585Y-87368444D01*
X157792179Y-87464951D01*
X157620213Y-87589890D01*
X157469894Y-87740209D01*
X157469885Y-87740219D01*
X157466330Y-87745113D01*
X157410997Y-87787775D01*
X157341383Y-87793748D01*
X157279591Y-87761137D01*
X157248312Y-87711223D01*
X157244815Y-87700670D01*
X157244814Y-87700666D01*
X157152712Y-87551344D01*
X157028656Y-87427288D01*
X156932191Y-87367788D01*
X156879336Y-87335187D01*
X156879331Y-87335185D01*
X156867740Y-87331344D01*
X156712797Y-87280001D01*
X156712795Y-87280000D01*
X156610016Y-87269500D01*
X156610009Y-87269500D01*
X156046452Y-87269500D01*
X156017011Y-87260855D01*
X155987025Y-87254332D01*
X155982009Y-87250577D01*
X155979413Y-87249815D01*
X155958771Y-87233181D01*
X155855988Y-87130398D01*
X155822503Y-87069075D01*
X155827487Y-86999383D01*
X155869359Y-86943450D01*
X155874731Y-86939647D01*
X155976289Y-86871789D01*
X156087789Y-86760289D01*
X156175394Y-86629179D01*
X156235737Y-86483497D01*
X156266500Y-86328842D01*
X156266500Y-86171158D01*
X156266500Y-86171155D01*
X156266499Y-86171153D01*
X156256365Y-86120208D01*
X156235737Y-86016503D01*
X156205880Y-85944423D01*
X156198412Y-85874956D01*
X156229687Y-85812476D01*
X156289776Y-85776824D01*
X156296221Y-85775361D01*
X156324497Y-85769737D01*
X156470179Y-85709394D01*
X156601289Y-85621789D01*
X156712789Y-85510289D01*
X156800394Y-85379179D01*
X156860737Y-85233497D01*
X156891500Y-85078842D01*
X156891500Y-84921158D01*
X156891500Y-84921155D01*
X156891499Y-84921153D01*
X156872373Y-84825000D01*
X156860737Y-84766503D01*
X156832311Y-84697876D01*
X156800397Y-84620827D01*
X156800390Y-84620814D01*
X156712789Y-84489711D01*
X156712786Y-84489707D01*
X156601292Y-84378213D01*
X156601288Y-84378210D01*
X156487609Y-84302252D01*
X156442804Y-84248640D01*
X156432500Y-84199150D01*
X156432500Y-80820702D01*
X156452185Y-80753663D01*
X156504989Y-80707908D01*
X156569102Y-80697344D01*
X156599991Y-80700500D01*
X157400008Y-80700499D01*
X157400016Y-80700498D01*
X157400019Y-80700498D01*
X157456302Y-80694748D01*
X157502797Y-80689999D01*
X157669334Y-80634814D01*
X157818656Y-80542712D01*
X157912319Y-80449049D01*
X157973642Y-80415564D01*
X158043334Y-80420548D01*
X158087681Y-80449049D01*
X158181344Y-80542712D01*
X158330666Y-80634814D01*
X158339498Y-80637740D01*
X158396944Y-80677508D01*
X158423771Y-80742022D01*
X158424500Y-80755448D01*
X158424500Y-81467059D01*
X158404815Y-81534098D01*
X158388181Y-81554740D01*
X158378213Y-81564707D01*
X158378210Y-81564711D01*
X158290609Y-81695814D01*
X158290602Y-81695827D01*
X158230264Y-81841498D01*
X158230261Y-81841510D01*
X158199500Y-81996153D01*
X158199500Y-82153846D01*
X158230261Y-82308489D01*
X158230263Y-82308497D01*
X158290602Y-82454172D01*
X158290609Y-82454185D01*
X158378210Y-82585288D01*
X158378213Y-82585292D01*
X158489707Y-82696786D01*
X158489711Y-82696789D01*
X158620814Y-82784390D01*
X158620827Y-82784397D01*
X158766498Y-82844735D01*
X158766503Y-82844737D01*
X158921153Y-82875499D01*
X158921156Y-82875500D01*
X158921158Y-82875500D01*
X159078844Y-82875500D01*
X159078845Y-82875499D01*
X159233497Y-82844737D01*
X159379179Y-82784394D01*
X159510289Y-82696789D01*
X159621789Y-82585289D01*
X159709394Y-82454179D01*
X159769737Y-82308497D01*
X159769737Y-82308496D01*
X159772068Y-82302869D01*
X159773378Y-82303411D01*
X159807754Y-82250939D01*
X159871562Y-82222472D01*
X159912324Y-82223742D01*
X159921158Y-82225500D01*
X159921160Y-82225500D01*
X160078844Y-82225500D01*
X160078845Y-82225499D01*
X160233497Y-82194737D01*
X160379179Y-82134394D01*
X160510289Y-82046789D01*
X160621789Y-81935289D01*
X160709394Y-81804179D01*
X160769737Y-81658497D01*
X160800500Y-81503842D01*
X160800500Y-81346158D01*
X160800500Y-81346155D01*
X160800499Y-81346153D01*
X160774736Y-81216635D01*
X160769737Y-81191503D01*
X160769735Y-81191498D01*
X160709397Y-81045827D01*
X160709390Y-81045814D01*
X160621789Y-80914711D01*
X160621786Y-80914707D01*
X160611819Y-80904740D01*
X160578334Y-80843417D01*
X160575500Y-80817059D01*
X160575500Y-77924236D01*
X160575500Y-77924234D01*
X160536281Y-77777865D01*
X160460515Y-77646635D01*
X160353365Y-77539485D01*
X160136818Y-77322938D01*
X160103333Y-77261615D01*
X160100499Y-77235257D01*
X160100499Y-76499998D01*
X160100498Y-76499981D01*
X160089999Y-76397203D01*
X160089998Y-76397200D01*
X160034814Y-76230666D01*
X159942712Y-76081344D01*
X159818656Y-75957288D01*
X159669334Y-75865186D01*
X159669330Y-75865184D01*
X159663325Y-75862385D01*
X159610884Y-75816215D01*
X159591728Y-75749023D01*
X159611940Y-75682141D01*
X159663325Y-75637615D01*
X159669322Y-75634817D01*
X159669334Y-75634814D01*
X159818656Y-75542712D01*
X159942712Y-75418656D01*
X160034814Y-75269334D01*
X160089999Y-75102797D01*
X160100500Y-75000009D01*
X160100499Y-73999992D01*
X160098852Y-73983873D01*
X160089999Y-73897203D01*
X160089998Y-73897200D01*
X160084024Y-73879172D01*
X160034814Y-73730666D01*
X159942712Y-73581344D01*
X159818656Y-73457288D01*
X159669334Y-73365186D01*
X159669330Y-73365184D01*
X159663325Y-73362385D01*
X159610884Y-73316215D01*
X159591728Y-73249023D01*
X159611940Y-73182141D01*
X159663325Y-73137615D01*
X159669322Y-73134817D01*
X159669334Y-73134814D01*
X159818656Y-73042712D01*
X159942712Y-72918656D01*
X160034814Y-72769334D01*
X160070879Y-72660494D01*
X160110652Y-72603051D01*
X160175167Y-72576228D01*
X160188585Y-72575500D01*
X161330258Y-72575500D01*
X161397297Y-72595185D01*
X161417939Y-72611819D01*
X167674911Y-78868791D01*
X167708396Y-78930114D01*
X167705162Y-78994788D01*
X167682753Y-79063757D01*
X167649500Y-79273713D01*
X167649500Y-79486286D01*
X167682754Y-79696246D01*
X167705161Y-79765209D01*
X167707156Y-79835050D01*
X167674911Y-79891207D01*
X166456635Y-81109485D01*
X166349487Y-81216632D01*
X166349485Y-81216635D01*
X166273719Y-81347863D01*
X166266716Y-81374000D01*
X166234500Y-81494234D01*
X166234500Y-104734234D01*
X166234500Y-104885766D01*
X166235664Y-104890109D01*
X166273719Y-105032136D01*
X166288973Y-105058556D01*
X166349485Y-105163365D01*
X166349487Y-105163367D01*
X167674911Y-106488791D01*
X167708396Y-106550114D01*
X167705162Y-106614788D01*
X167682753Y-106683757D01*
X167649500Y-106893713D01*
X167649500Y-107106286D01*
X167676980Y-107279792D01*
X167682754Y-107316243D01*
X167719751Y-107430109D01*
X167748444Y-107518414D01*
X167844951Y-107707820D01*
X167969890Y-107879786D01*
X168120213Y-108030109D01*
X168292179Y-108155048D01*
X168292181Y-108155049D01*
X168292184Y-108155051D01*
X168481588Y-108251557D01*
X168683757Y-108317246D01*
X168893713Y-108350500D01*
X168893714Y-108350500D01*
X169106286Y-108350500D01*
X169106287Y-108350500D01*
X169316243Y-108317246D01*
X169518412Y-108251557D01*
X169707816Y-108155051D01*
X169781523Y-108101500D01*
X169879786Y-108030109D01*
X169879788Y-108030106D01*
X169879792Y-108030104D01*
X170030104Y-107879792D01*
X170030106Y-107879788D01*
X170030109Y-107879786D01*
X170155048Y-107707820D01*
X170155047Y-107707820D01*
X170155051Y-107707816D01*
X170159514Y-107699054D01*
X170207488Y-107648259D01*
X170275308Y-107631463D01*
X170341444Y-107653999D01*
X170380486Y-107699056D01*
X170384951Y-107707820D01*
X170509890Y-107879786D01*
X170660213Y-108030109D01*
X170832179Y-108155048D01*
X170832181Y-108155049D01*
X170832184Y-108155051D01*
X171021588Y-108251557D01*
X171223757Y-108317246D01*
X171433713Y-108350500D01*
X171433714Y-108350500D01*
X171646286Y-108350500D01*
X171646287Y-108350500D01*
X171856243Y-108317246D01*
X172058412Y-108251557D01*
X172247816Y-108155051D01*
X172321523Y-108101500D01*
X172419786Y-108030109D01*
X172419788Y-108030106D01*
X172419792Y-108030104D01*
X172570104Y-107879792D01*
X172570106Y-107879788D01*
X172570109Y-107879786D01*
X172695048Y-107707820D01*
X172695047Y-107707820D01*
X172695051Y-107707816D01*
X172791557Y-107518412D01*
X172857246Y-107316243D01*
X172890500Y-107106287D01*
X172890500Y-106893713D01*
X172857246Y-106683757D01*
X172791557Y-106481588D01*
X172695051Y-106292184D01*
X172695049Y-106292181D01*
X172695048Y-106292179D01*
X172570109Y-106120213D01*
X172419786Y-105969890D01*
X172247820Y-105844951D01*
X172247115Y-105844591D01*
X172239054Y-105840485D01*
X172188259Y-105792512D01*
X172171463Y-105724692D01*
X172193999Y-105658556D01*
X172239054Y-105619515D01*
X172247816Y-105615051D01*
X172321523Y-105561500D01*
X172419786Y-105490109D01*
X172419788Y-105490106D01*
X172419792Y-105490104D01*
X172570104Y-105339792D01*
X172570106Y-105339788D01*
X172570109Y-105339786D01*
X172695048Y-105167820D01*
X172695047Y-105167820D01*
X172695051Y-105167816D01*
X172791557Y-104978412D01*
X172857246Y-104776243D01*
X172890500Y-104566287D01*
X172890500Y-104353713D01*
X172857246Y-104143757D01*
X172791557Y-103941588D01*
X172695051Y-103752184D01*
X172695049Y-103752181D01*
X172695048Y-103752179D01*
X172570109Y-103580213D01*
X172419786Y-103429890D01*
X172247817Y-103304949D01*
X172238504Y-103300204D01*
X172187707Y-103252230D01*
X172170912Y-103184409D01*
X172193449Y-103118274D01*
X172238507Y-103079232D01*
X172247555Y-103074622D01*
X172301716Y-103035270D01*
X172301717Y-103035270D01*
X171669408Y-102402962D01*
X171732993Y-102385925D01*
X171847007Y-102320099D01*
X171940099Y-102227007D01*
X172005925Y-102112993D01*
X172022962Y-102049408D01*
X172655270Y-102681717D01*
X172655270Y-102681716D01*
X172694622Y-102627554D01*
X172791095Y-102438217D01*
X172856757Y-102236130D01*
X172856757Y-102236127D01*
X172890000Y-102026246D01*
X172890000Y-101813753D01*
X172856757Y-101603872D01*
X172856757Y-101603869D01*
X172791095Y-101401782D01*
X172694624Y-101212449D01*
X172655270Y-101158282D01*
X172655269Y-101158282D01*
X172022962Y-101790590D01*
X172005925Y-101727007D01*
X171940099Y-101612993D01*
X171847007Y-101519901D01*
X171732993Y-101454075D01*
X171669409Y-101437037D01*
X172301716Y-100804728D01*
X172247550Y-100765375D01*
X172237954Y-100760486D01*
X172187157Y-100712512D01*
X172170361Y-100644692D01*
X172192897Y-100578556D01*
X172237954Y-100539514D01*
X172247554Y-100534622D01*
X172301716Y-100495270D01*
X172301717Y-100495270D01*
X171669408Y-99862962D01*
X171732993Y-99845925D01*
X171847007Y-99780099D01*
X171940099Y-99687007D01*
X172005925Y-99572993D01*
X172022962Y-99509408D01*
X172655270Y-100141717D01*
X172655270Y-100141716D01*
X172694622Y-100087554D01*
X172791095Y-99898217D01*
X172856757Y-99696130D01*
X172856757Y-99696127D01*
X172890000Y-99486246D01*
X172890000Y-99273753D01*
X172856757Y-99063872D01*
X172856757Y-99063869D01*
X172791095Y-98861782D01*
X172694624Y-98672449D01*
X172655270Y-98618282D01*
X172655269Y-98618282D01*
X172022962Y-99250590D01*
X172005925Y-99187007D01*
X171940099Y-99072993D01*
X171847007Y-98979901D01*
X171732993Y-98914075D01*
X171669409Y-98897037D01*
X172301716Y-98264728D01*
X172247547Y-98225373D01*
X172247547Y-98225372D01*
X172238500Y-98220763D01*
X172187706Y-98172788D01*
X172170912Y-98104966D01*
X172193451Y-98038832D01*
X172238508Y-97999793D01*
X172247816Y-97995051D01*
X172366728Y-97908657D01*
X172419786Y-97870109D01*
X172419788Y-97870106D01*
X172419792Y-97870104D01*
X172570104Y-97719792D01*
X172570106Y-97719788D01*
X172570109Y-97719786D01*
X172695048Y-97547820D01*
X172695047Y-97547820D01*
X172695051Y-97547816D01*
X172791557Y-97358412D01*
X172857246Y-97156243D01*
X172890500Y-96946287D01*
X172890500Y-96733713D01*
X172857246Y-96523757D01*
X172791557Y-96321588D01*
X172695051Y-96132184D01*
X172695049Y-96132181D01*
X172695048Y-96132179D01*
X172570109Y-95960213D01*
X172419786Y-95809890D01*
X172247820Y-95684951D01*
X172058414Y-95588444D01*
X172058413Y-95588443D01*
X172058412Y-95588443D01*
X171856243Y-95522754D01*
X171856241Y-95522753D01*
X171856240Y-95522753D01*
X171694957Y-95497208D01*
X171646287Y-95489500D01*
X171451824Y-95489500D01*
X171384785Y-95469815D01*
X171339030Y-95417011D01*
X171329086Y-95347853D01*
X171337263Y-95318047D01*
X171343182Y-95303757D01*
X171359463Y-95264452D01*
X171383500Y-95143606D01*
X171383500Y-65836394D01*
X171376302Y-65800208D01*
X171359463Y-65715548D01*
X171312311Y-65601714D01*
X171261018Y-65524949D01*
X171243858Y-65499267D01*
X171156733Y-65412142D01*
X171156732Y-65412141D01*
X170755797Y-65011206D01*
X170386818Y-64642227D01*
X170353333Y-64580904D01*
X170350499Y-64554546D01*
X170350499Y-63242129D01*
X170350498Y-63242123D01*
X170344091Y-63182516D01*
X170293797Y-63047671D01*
X170293793Y-63047664D01*
X170207547Y-62932455D01*
X170207544Y-62932452D01*
X170092335Y-62846206D01*
X170092328Y-62846202D01*
X169957482Y-62795908D01*
X169957483Y-62795908D01*
X169897883Y-62789501D01*
X169897881Y-62789500D01*
X169897873Y-62789500D01*
X169897865Y-62789500D01*
X168585453Y-62789500D01*
X168518414Y-62769815D01*
X168497772Y-62753181D01*
X158105822Y-52361232D01*
X158095859Y-52351269D01*
X158095858Y-52351267D01*
X158008733Y-52264142D01*
X157957509Y-52229915D01*
X157906286Y-52195688D01*
X157906283Y-52195686D01*
X157906280Y-52195685D01*
X157832603Y-52165168D01*
X157832601Y-52165167D01*
X157825792Y-52162347D01*
X157792452Y-52148537D01*
X157732029Y-52136518D01*
X157727306Y-52135578D01*
X157727304Y-52135578D01*
X157671610Y-52124500D01*
X157671607Y-52124500D01*
X157671606Y-52124500D01*
X126161606Y-52124500D01*
X126038393Y-52124500D01*
X126038388Y-52124500D01*
X125917555Y-52148535D01*
X125917547Y-52148537D01*
X125803716Y-52195687D01*
X125701265Y-52264142D01*
X125701262Y-52264145D01*
X95652227Y-82313181D01*
X95590904Y-82346666D01*
X95564546Y-82349500D01*
X94252129Y-82349500D01*
X94252123Y-82349501D01*
X94192516Y-82355908D01*
X94057671Y-82406202D01*
X94057664Y-82406206D01*
X93942455Y-82492452D01*
X93942452Y-82492455D01*
X93856206Y-82607664D01*
X93856202Y-82607671D01*
X93805908Y-82742517D01*
X93799501Y-82802116D01*
X93799500Y-82802135D01*
X93799500Y-83000500D01*
X93779815Y-83067539D01*
X93727011Y-83113294D01*
X93675500Y-83124500D01*
X92357741Y-83124500D01*
X92357721Y-83124499D01*
X92351607Y-83124499D01*
X92228394Y-83124499D01*
X92228392Y-83124499D01*
X92136624Y-83142753D01*
X92107554Y-83148535D01*
X92107545Y-83148538D01*
X92068496Y-83164713D01*
X92068495Y-83164713D01*
X91993721Y-83195684D01*
X91993708Y-83195691D01*
X91891267Y-83264141D01*
X91891263Y-83264144D01*
X88497837Y-86657570D01*
X88436514Y-86691055D01*
X88371842Y-86687821D01*
X88356246Y-86682754D01*
X88197239Y-86657570D01*
X88146287Y-86649500D01*
X87933713Y-86649500D01*
X87885042Y-86657208D01*
X87723760Y-86682753D01*
X87521585Y-86748444D01*
X87332179Y-86844951D01*
X87160213Y-86969890D01*
X87009894Y-87120209D01*
X87009885Y-87120219D01*
X87006330Y-87125113D01*
X86950997Y-87167775D01*
X86881383Y-87173748D01*
X86819591Y-87141137D01*
X86788312Y-87091223D01*
X86784815Y-87080670D01*
X86784814Y-87080666D01*
X86692712Y-86931344D01*
X86568656Y-86807288D01*
X86473253Y-86748443D01*
X86419336Y-86715187D01*
X86419331Y-86715185D01*
X86407613Y-86711302D01*
X86252797Y-86660001D01*
X86252795Y-86660000D01*
X86150010Y-86649500D01*
X84849998Y-86649500D01*
X84849981Y-86649501D01*
X84747203Y-86660000D01*
X84747200Y-86660001D01*
X84580668Y-86715185D01*
X84580663Y-86715187D01*
X84431342Y-86807289D01*
X84307289Y-86931342D01*
X84215187Y-87080663D01*
X84215185Y-87080668D01*
X84203747Y-87115186D01*
X84160001Y-87247203D01*
X84160001Y-87247204D01*
X84160000Y-87247204D01*
X84149500Y-87349983D01*
X80000000Y-87349983D01*
X80000000Y-51378711D01*
X82149500Y-51378711D01*
X82149500Y-51621288D01*
X82181161Y-51861785D01*
X82243947Y-52096104D01*
X82313552Y-52264145D01*
X82336776Y-52320212D01*
X82458064Y-52530289D01*
X82458066Y-52530292D01*
X82458067Y-52530293D01*
X82605733Y-52722736D01*
X82605739Y-52722743D01*
X82777256Y-52894260D01*
X82777262Y-52894265D01*
X82969711Y-53041936D01*
X83179788Y-53163224D01*
X83403900Y-53256054D01*
X83638211Y-53318838D01*
X83818586Y-53342584D01*
X83878711Y-53350500D01*
X83878712Y-53350500D01*
X84121289Y-53350500D01*
X84169388Y-53344167D01*
X84361789Y-53318838D01*
X84596100Y-53256054D01*
X84820212Y-53163224D01*
X85030289Y-53041936D01*
X85222738Y-52894265D01*
X85394265Y-52722738D01*
X85541936Y-52530289D01*
X85663224Y-52320212D01*
X85756054Y-52096100D01*
X85818838Y-51861789D01*
X85850500Y-51621288D01*
X85850500Y-51378712D01*
X85850500Y-51378711D01*
X172149500Y-51378711D01*
X172149500Y-51621288D01*
X172181161Y-51861785D01*
X172243947Y-52096104D01*
X172313552Y-52264145D01*
X172336776Y-52320212D01*
X172458064Y-52530289D01*
X172458066Y-52530292D01*
X172458067Y-52530293D01*
X172605733Y-52722736D01*
X172605739Y-52722743D01*
X172777256Y-52894260D01*
X172777262Y-52894265D01*
X172969711Y-53041936D01*
X173179788Y-53163224D01*
X173403900Y-53256054D01*
X173638211Y-53318838D01*
X173818586Y-53342584D01*
X173878711Y-53350500D01*
X173878712Y-53350500D01*
X174121289Y-53350500D01*
X174169388Y-53344167D01*
X174361789Y-53318838D01*
X174596100Y-53256054D01*
X174820212Y-53163224D01*
X175030289Y-53041936D01*
X175222738Y-52894265D01*
X175394265Y-52722738D01*
X175541936Y-52530289D01*
X175663224Y-52320212D01*
X175756054Y-52096100D01*
X175818838Y-51861789D01*
X175850500Y-51621288D01*
X175850500Y-51378712D01*
X175818838Y-51138211D01*
X175756054Y-50903900D01*
X175663224Y-50679788D01*
X175541936Y-50469711D01*
X175394265Y-50277262D01*
X175394260Y-50277256D01*
X175222743Y-50105739D01*
X175222736Y-50105733D01*
X175030293Y-49958067D01*
X175030292Y-49958066D01*
X175030289Y-49958064D01*
X174820212Y-49836776D01*
X174820205Y-49836773D01*
X174596104Y-49743947D01*
X174361785Y-49681161D01*
X174121289Y-49649500D01*
X174121288Y-49649500D01*
X173878712Y-49649500D01*
X173878711Y-49649500D01*
X173638214Y-49681161D01*
X173403895Y-49743947D01*
X173179794Y-49836773D01*
X173179785Y-49836777D01*
X172969706Y-49958067D01*
X172777263Y-50105733D01*
X172777256Y-50105739D01*
X172605739Y-50277256D01*
X172605733Y-50277263D01*
X172458067Y-50469706D01*
X172336777Y-50679785D01*
X172336773Y-50679794D01*
X172243947Y-50903895D01*
X172181161Y-51138214D01*
X172149500Y-51378711D01*
X85850500Y-51378711D01*
X85818838Y-51138211D01*
X85756054Y-50903900D01*
X85663224Y-50679788D01*
X85541936Y-50469711D01*
X85394265Y-50277262D01*
X85394260Y-50277256D01*
X85222743Y-50105739D01*
X85222736Y-50105733D01*
X85030293Y-49958067D01*
X85030292Y-49958066D01*
X85030289Y-49958064D01*
X84820212Y-49836776D01*
X84820205Y-49836773D01*
X84596104Y-49743947D01*
X84361785Y-49681161D01*
X84121289Y-49649500D01*
X84121288Y-49649500D01*
X83878712Y-49649500D01*
X83878711Y-49649500D01*
X83638214Y-49681161D01*
X83403895Y-49743947D01*
X83179794Y-49836773D01*
X83179785Y-49836777D01*
X82969706Y-49958067D01*
X82777263Y-50105733D01*
X82777256Y-50105739D01*
X82605739Y-50277256D01*
X82605733Y-50277263D01*
X82458067Y-50469706D01*
X82336777Y-50679785D01*
X82336773Y-50679794D01*
X82243947Y-50903895D01*
X82181161Y-51138214D01*
X82149500Y-51378711D01*
X80000000Y-51378711D01*
X80000000Y-47624000D01*
X80019685Y-47556961D01*
X80072489Y-47511206D01*
X80124000Y-47500000D01*
X177876000Y-47500000D01*
X177943039Y-47519685D01*
G37*
%TD.AperFunction*%
%TD*%
M02*
